<?xml version="1.0" encoding="UTF-8" standalone="no"?>
<!DOCTYPE svg PUBLIC "-//W3C//DTD SVG 1.1//EN"
 "http://www.w3.org/Graphics/SVG/1.1/DTD/svg11.dtd">
<!-- Generated by graphviz version 2.43.0 (0)
 -->
<!-- Title: G Pages: 1 -->
<svg width="2192pt" height="1721pt"
 viewBox="0.00 0.00 2192.20 1720.76" xmlns="http://www.w3.org/2000/svg" xmlns:xlink="http://www.w3.org/1999/xlink">
<g id="graph0" class="graph" transform="scale(1 1) rotate(0) translate(21.6 1699.16)">
<title>G</title>
<polygon fill="#111111" stroke="transparent" points="-21.6,21.6 -21.6,-1699.16 2170.6,-1699.16 2170.6,21.6 -21.6,21.6"/>
<!-- client/common/Layout.module.css -->
<g id="node1" class="node">
<title>client/common/Layout.module.css</title>
<path fill="none" stroke="#cfffac" d="M1257.33,-1129.06C1257.33,-1129.06 1050.67,-1129.06 1050.67,-1129.06 1046.83,-1129.06 1043,-1125.23 1043,-1121.39 1043,-1121.39 1043,-1113.73 1043,-1113.73 1043,-1109.89 1046.83,-1106.06 1050.67,-1106.06 1050.67,-1106.06 1257.33,-1106.06 1257.33,-1106.06 1261.17,-1106.06 1265,-1109.89 1265,-1113.73 1265,-1113.73 1265,-1121.39 1265,-1121.39 1265,-1125.23 1261.17,-1129.06 1257.33,-1129.06"/>
<text text-anchor="middle" x="1154" y="-1113.86" font-family="Arial" font-size="14.00" fill="#cfffac">client/common/Layout.module.css</text>
</g>
<!-- client/common/Layout.tsx -->
<g id="node2" class="node">
<title>client/common/Layout.tsx</title>
<path fill="none" stroke="#c6c5fe" d="M903.33,-1134.06C903.33,-1134.06 748.67,-1134.06 748.67,-1134.06 744.83,-1134.06 741,-1130.23 741,-1126.39 741,-1126.39 741,-1118.73 741,-1118.73 741,-1114.89 744.83,-1111.06 748.67,-1111.06 748.67,-1111.06 903.33,-1111.06 903.33,-1111.06 907.17,-1111.06 911,-1114.89 911,-1118.73 911,-1118.73 911,-1126.39 911,-1126.39 911,-1130.23 907.17,-1134.06 903.33,-1134.06"/>
<text text-anchor="middle" x="826" y="-1118.86" font-family="Arial" font-size="14.00" fill="#c6c5fe">client/common/Layout.tsx</text>
</g>
<!-- client/common/Layout.tsx&#45;&gt;client/common/Layout.module.css -->
<g id="edge1" class="edge">
<title>client/common/Layout.tsx&#45;&gt;client/common/Layout.module.css</title>
<path fill="none" stroke="#757575" d="M911.38,-1121.27C948.33,-1120.7 992.38,-1120.02 1032.69,-1119.41"/>
<polygon fill="#757575" stroke="#757575" points="1032.9,-1122.9 1042.85,-1119.25 1032.79,-1115.9 1032.9,-1122.9"/>
</g>
<!-- client/globalStore/store.ts -->
<g id="node3" class="node">
<title>client/globalStore/store.ts</title>
<path fill="none" stroke="#c6c5fe" d="M1230.33,-1011.06C1230.33,-1011.06 1077.67,-1011.06 1077.67,-1011.06 1073.83,-1011.06 1070,-1007.23 1070,-1003.39 1070,-1003.39 1070,-995.73 1070,-995.73 1070,-991.89 1073.83,-988.06 1077.67,-988.06 1077.67,-988.06 1230.33,-988.06 1230.33,-988.06 1234.17,-988.06 1238,-991.89 1238,-995.73 1238,-995.73 1238,-1003.39 1238,-1003.39 1238,-1007.23 1234.17,-1011.06 1230.33,-1011.06"/>
<text text-anchor="middle" x="1154" y="-995.86" font-family="Arial" font-size="14.00" fill="#c6c5fe">client/globalStore/store.ts</text>
</g>
<!-- client/common/Layout.tsx&#45;&gt;client/globalStore/store.ts -->
<g id="edge2" class="edge">
<title>client/common/Layout.tsx&#45;&gt;client/globalStore/store.ts</title>
<path fill="none" stroke="#757575" d="M857.67,-1110.99C916.77,-1088.69 1046.41,-1039.78 1112.52,-1014.84"/>
<polygon fill="#757575" stroke="#757575" points="1114.05,-1018 1122.17,-1011.19 1111.58,-1011.45 1114.05,-1018"/>
</g>
<!-- client/lib/router.tsx -->
<g id="node4" class="node">
<title>client/lib/router.tsx</title>
<path fill="none" stroke="#c6c5fe" d="M1944.33,-1372.06C1944.33,-1372.06 1834.67,-1372.06 1834.67,-1372.06 1830.83,-1372.06 1827,-1368.23 1827,-1364.39 1827,-1364.39 1827,-1356.73 1827,-1356.73 1827,-1352.89 1830.83,-1349.06 1834.67,-1349.06 1834.67,-1349.06 1944.33,-1349.06 1944.33,-1349.06 1948.17,-1349.06 1952,-1352.89 1952,-1356.73 1952,-1356.73 1952,-1364.39 1952,-1364.39 1952,-1368.23 1948.17,-1372.06 1944.33,-1372.06"/>
<text text-anchor="middle" x="1889.5" y="-1356.86" font-family="Arial" font-size="14.00" fill="#c6c5fe">client/lib/router.tsx</text>
</g>
<!-- client/common/Layout.tsx&#45;&gt;client/lib/router.tsx -->
<g id="edge3" class="edge">
<title>client/common/Layout.tsx&#45;&gt;client/lib/router.tsx</title>
<path fill="none" stroke="#757575" d="M888.85,-1134.09C978.1,-1150.93 1148.12,-1183.7 1292,-1215.56 1492.6,-1259.98 1729.34,-1319.73 1834.04,-1346.53"/>
<polygon fill="#757575" stroke="#757575" points="1833.19,-1349.92 1843.75,-1349.02 1834.93,-1343.14 1833.19,-1349.92"/>
</g>
<!-- client/lib/utils.tsx -->
<g id="node5" class="node">
<title>client/lib/utils.tsx</title>
<path fill="none" stroke="#c6c5fe" d="M1724.83,-914.06C1724.83,-914.06 1626.17,-914.06 1626.17,-914.06 1622.33,-914.06 1618.5,-910.23 1618.5,-906.39 1618.5,-906.39 1618.5,-898.73 1618.5,-898.73 1618.5,-894.89 1622.33,-891.06 1626.17,-891.06 1626.17,-891.06 1724.83,-891.06 1724.83,-891.06 1728.67,-891.06 1732.5,-894.89 1732.5,-898.73 1732.5,-898.73 1732.5,-906.39 1732.5,-906.39 1732.5,-910.23 1728.67,-914.06 1724.83,-914.06"/>
<text text-anchor="middle" x="1675.5" y="-898.86" font-family="Arial" font-size="14.00" fill="#c6c5fe">client/lib/utils.tsx</text>
</g>
<!-- client/common/Layout.tsx&#45;&gt;client/lib/utils.tsx -->
<g id="edge4" class="edge">
<title>client/common/Layout.tsx&#45;&gt;client/lib/utils.tsx</title>
<path fill="none" stroke="#757575" d="M907.83,-1111.01C941.27,-1106.45 980.46,-1101.4 1016,-1097.56 1132.18,-1085.01 1435.47,-1105.8 1540,-1053.56 1598.59,-1024.28 1643.22,-957.47 1663.12,-923.39"/>
<polygon fill="#757575" stroke="#757575" points="1666.38,-924.74 1668.28,-914.32 1660.29,-921.28 1666.38,-924.74"/>
</g>
<!-- client/ui/Notifications.tsx -->
<g id="node6" class="node">
<title>client/ui/Notifications.tsx</title>
<path fill="none" stroke="#c6c5fe" d="M1226.83,-962.06C1226.83,-962.06 1081.17,-962.06 1081.17,-962.06 1077.33,-962.06 1073.5,-958.23 1073.5,-954.39 1073.5,-954.39 1073.5,-946.73 1073.5,-946.73 1073.5,-942.89 1077.33,-939.06 1081.17,-939.06 1081.17,-939.06 1226.83,-939.06 1226.83,-939.06 1230.67,-939.06 1234.5,-942.89 1234.5,-946.73 1234.5,-946.73 1234.5,-954.39 1234.5,-954.39 1234.5,-958.23 1230.67,-962.06 1226.83,-962.06"/>
<text text-anchor="middle" x="1154" y="-946.86" font-family="Arial" font-size="14.00" fill="#c6c5fe">client/ui/Notifications.tsx</text>
</g>
<!-- client/common/Layout.tsx&#45;&gt;client/ui/Notifications.tsx -->
<g id="edge5" class="edge">
<title>client/common/Layout.tsx&#45;&gt;client/ui/Notifications.tsx</title>
<path fill="none" stroke="#757575" d="M850.47,-1110.95C882.04,-1094.63 938.97,-1062.72 980,-1025.56 999.24,-1008.13 993.97,-993.3 1016,-979.56 1030.31,-970.63 1046.93,-964.42 1063.55,-960.09"/>
<polygon fill="#757575" stroke="#757575" points="1064.41,-963.49 1073.32,-957.76 1062.78,-956.68 1064.41,-963.49"/>
</g>
<!-- client/globalStore/store.ts&#45;&gt;client/lib/utils.tsx -->
<g id="edge10" class="edge">
<title>client/globalStore/store.ts&#45;&gt;client/lib/utils.tsx</title>
<path fill="none" stroke="#757575" d="M1238.04,-1007.39C1317.35,-1012.21 1439.36,-1012.63 1540,-982.56 1583.08,-969.69 1626.67,-940.03 1652.1,-920.66"/>
<polygon fill="#757575" stroke="#757575" points="1654.56,-923.19 1660.31,-914.29 1650.27,-917.66 1654.56,-923.19"/>
</g>
<!-- client/lib/routerUtils.ts -->
<g id="node14" class="node">
<title>client/lib/routerUtils.ts</title>
<path fill="none" stroke="#cfffac" d="M2141.33,-899.06C2141.33,-899.06 2011.67,-899.06 2011.67,-899.06 2007.83,-899.06 2004,-895.23 2004,-891.39 2004,-891.39 2004,-883.73 2004,-883.73 2004,-879.89 2007.83,-876.06 2011.67,-876.06 2011.67,-876.06 2141.33,-876.06 2141.33,-876.06 2145.17,-876.06 2149,-879.89 2149,-883.73 2149,-883.73 2149,-891.39 2149,-891.39 2149,-895.23 2145.17,-899.06 2141.33,-899.06"/>
<text text-anchor="middle" x="2076.5" y="-883.86" font-family="Arial" font-size="14.00" fill="#cfffac">client/lib/routerUtils.ts</text>
</g>
<!-- client/lib/router.tsx&#45;&gt;client/lib/routerUtils.ts -->
<g id="edge11" class="edge">
<title>client/lib/router.tsx&#45;&gt;client/lib/routerUtils.ts</title>
<path fill="none" stroke="#757575" d="M1895.07,-1348.87C1919.54,-1286.31 2035.06,-990.95 2067.19,-908.8"/>
<polygon fill="#757575" stroke="#757575" points="2070.54,-909.86 2070.92,-899.27 2064.02,-907.31 2070.54,-909.86"/>
</g>
<!-- client/lib/utils.tsx&#45;&gt;client/lib/router.tsx -->
<g id="edge13" class="edge">
<title>client/lib/utils.tsx&#45;&gt;client/lib/router.tsx</title>
<path fill="none" stroke="#757575" d="M1681.95,-914.34C1710.36,-975.71 1841.51,-1259.04 1878.66,-1339.31"/>
<polygon fill="#757575" stroke="#757575" points="1875.71,-1341.25 1883.08,-1348.86 1882.06,-1338.31 1875.71,-1341.25"/>
</g>
<!-- client/lib/context.tsx -->
<g id="node13" class="node">
<title>client/lib/context.tsx</title>
<path fill="none" stroke="#cfffac" d="M1948.83,-1096.06C1948.83,-1096.06 1830.17,-1096.06 1830.17,-1096.06 1826.33,-1096.06 1822.5,-1092.23 1822.5,-1088.39 1822.5,-1088.39 1822.5,-1080.73 1822.5,-1080.73 1822.5,-1076.89 1826.33,-1073.06 1830.17,-1073.06 1830.17,-1073.06 1948.83,-1073.06 1948.83,-1073.06 1952.67,-1073.06 1956.5,-1076.89 1956.5,-1080.73 1956.5,-1080.73 1956.5,-1088.39 1956.5,-1088.39 1956.5,-1092.23 1952.67,-1096.06 1948.83,-1096.06"/>
<text text-anchor="middle" x="1889.5" y="-1080.86" font-family="Arial" font-size="14.00" fill="#cfffac">client/lib/context.tsx</text>
</g>
<!-- client/lib/utils.tsx&#45;&gt;client/lib/context.tsx -->
<g id="edge12" class="edge">
<title>client/lib/utils.tsx&#45;&gt;client/lib/context.tsx</title>
<path fill="none" stroke="#757575" d="M1690.08,-914.22C1726.06,-945.11 1823.99,-1029.18 1867.36,-1066.41"/>
<polygon fill="#757575" stroke="#757575" points="1865.16,-1069.14 1875.03,-1073 1869.72,-1063.83 1865.16,-1069.14"/>
</g>
<!-- server/lib/sharedUtils.ts -->
<g id="node15" class="node">
<title>server/lib/sharedUtils.ts</title>
<path fill="none" stroke="#cfffac" d="M1960.33,-346.06C1960.33,-346.06 1818.67,-346.06 1818.67,-346.06 1814.83,-346.06 1811,-342.23 1811,-338.39 1811,-338.39 1811,-330.73 1811,-330.73 1811,-326.89 1814.83,-323.06 1818.67,-323.06 1818.67,-323.06 1960.33,-323.06 1960.33,-323.06 1964.17,-323.06 1968,-326.89 1968,-330.73 1968,-330.73 1968,-338.39 1968,-338.39 1968,-342.23 1964.17,-346.06 1960.33,-346.06"/>
<text text-anchor="middle" x="1889.5" y="-330.86" font-family="Arial" font-size="14.00" fill="#cfffac">server/lib/sharedUtils.ts</text>
</g>
<!-- client/lib/utils.tsx&#45;&gt;server/lib/sharedUtils.ts -->
<g id="edge14" class="edge">
<title>client/lib/utils.tsx&#45;&gt;server/lib/sharedUtils.ts</title>
<path fill="none" stroke="#757575" d="M1680.83,-890.96C1707.15,-820.44 1845.67,-449.32 1880.53,-355.91"/>
<polygon fill="#757575" stroke="#757575" points="1883.87,-356.98 1884.09,-346.38 1877.31,-354.53 1883.87,-356.98"/>
</g>
<!-- client/ui/Notifications.tsx&#45;&gt;client/lib/utils.tsx -->
<g id="edge59" class="edge">
<title>client/ui/Notifications.tsx&#45;&gt;client/lib/utils.tsx</title>
<path fill="none" stroke="#757575" d="M1234.75,-943.19C1337.11,-933.73 1512.84,-917.5 1608.22,-908.68"/>
<polygon fill="#757575" stroke="#757575" points="1608.69,-912.16 1618.32,-907.75 1608.04,-905.19 1608.69,-912.16"/>
</g>
<!-- client/ui/Notifications.module.css -->
<g id="node36" class="node">
<title>client/ui/Notifications.module.css</title>
<path fill="none" stroke="#cfffac" d="M1532.33,-973.06C1532.33,-973.06 1335.67,-973.06 1335.67,-973.06 1331.83,-973.06 1328,-969.23 1328,-965.39 1328,-965.39 1328,-957.73 1328,-957.73 1328,-953.89 1331.83,-950.06 1335.67,-950.06 1335.67,-950.06 1532.33,-950.06 1532.33,-950.06 1536.17,-950.06 1540,-953.89 1540,-957.73 1540,-957.73 1540,-965.39 1540,-965.39 1540,-969.23 1536.17,-973.06 1532.33,-973.06"/>
<text text-anchor="middle" x="1434" y="-957.86" font-family="Arial" font-size="14.00" fill="#cfffac">client/ui/Notifications.module.css</text>
</g>
<!-- client/ui/Notifications.tsx&#45;&gt;client/ui/Notifications.module.css -->
<g id="edge60" class="edge">
<title>client/ui/Notifications.tsx&#45;&gt;client/ui/Notifications.module.css</title>
<path fill="none" stroke="#757575" d="M1234.66,-953.71C1260.53,-954.74 1289.77,-955.89 1317.69,-957"/>
<polygon fill="#757575" stroke="#757575" points="1317.78,-960.5 1327.91,-957.4 1318.06,-953.51 1317.78,-960.5"/>
</g>
<!-- client/css/bootstrap&#45;grid.css -->
<g id="node7" class="node">
<title>client/css/bootstrap&#45;grid.css</title>
<path fill="none" stroke="#cfffac" d="M597.33,-1649.06C597.33,-1649.06 429.67,-1649.06 429.67,-1649.06 425.83,-1649.06 422,-1645.23 422,-1641.39 422,-1641.39 422,-1633.73 422,-1633.73 422,-1629.89 425.83,-1626.06 429.67,-1626.06 429.67,-1626.06 597.33,-1626.06 597.33,-1626.06 601.17,-1626.06 605,-1629.89 605,-1633.73 605,-1633.73 605,-1641.39 605,-1641.39 605,-1645.23 601.17,-1649.06 597.33,-1649.06"/>
<text text-anchor="middle" x="513.5" y="-1633.86" font-family="Arial" font-size="14.00" fill="#cfffac">client/css/bootstrap&#45;grid.css</text>
</g>
<!-- client/css/fontawesome.min.css -->
<g id="node8" class="node">
<title>client/css/fontawesome.min.css</title>
<path fill="none" stroke="#cfffac" d="M609.33,-1608.06C609.33,-1608.06 417.67,-1608.06 417.67,-1608.06 413.83,-1608.06 410,-1604.23 410,-1600.39 410,-1600.39 410,-1592.73 410,-1592.73 410,-1588.89 413.83,-1585.06 417.67,-1585.06 417.67,-1585.06 609.33,-1585.06 609.33,-1585.06 613.17,-1585.06 617,-1588.89 617,-1592.73 617,-1592.73 617,-1600.39 617,-1600.39 617,-1604.23 613.17,-1608.06 609.33,-1608.06"/>
<text text-anchor="middle" x="513.5" y="-1592.86" font-family="Arial" font-size="14.00" fill="#cfffac">client/css/fontawesome.min.css</text>
</g>
<!-- client/css/index.css -->
<g id="node9" class="node">
<title>client/css/index.css</title>
<path fill="none" stroke="#c6c5fe" d="M340.33,-1567.06C340.33,-1567.06 223.67,-1567.06 223.67,-1567.06 219.83,-1567.06 216,-1563.23 216,-1559.39 216,-1559.39 216,-1551.73 216,-1551.73 216,-1547.89 219.83,-1544.06 223.67,-1544.06 223.67,-1544.06 340.33,-1544.06 340.33,-1544.06 344.17,-1544.06 348,-1547.89 348,-1551.73 348,-1551.73 348,-1559.39 348,-1559.39 348,-1563.23 344.17,-1567.06 340.33,-1567.06"/>
<text text-anchor="middle" x="282" y="-1551.86" font-family="Arial" font-size="14.00" fill="#c6c5fe">client/css/index.css</text>
</g>
<!-- client/css/index.css&#45;&gt;client/css/bootstrap&#45;grid.css -->
<g id="edge6" class="edge">
<title>client/css/index.css&#45;&gt;client/css/bootstrap&#45;grid.css</title>
<path fill="none" stroke="#757575" d="M298.94,-1567.18C319.26,-1581.39 355.97,-1605.08 391,-1617.56 397.71,-1619.95 404.74,-1622.06 411.89,-1623.92"/>
<polygon fill="#757575" stroke="#757575" points="411.14,-1627.34 421.68,-1626.3 412.79,-1620.54 411.14,-1627.34"/>
</g>
<!-- client/css/index.css&#45;&gt;client/css/fontawesome.min.css -->
<g id="edge7" class="edge">
<title>client/css/index.css&#45;&gt;client/css/fontawesome.min.css</title>
<path fill="none" stroke="#757575" d="M340.67,-1567.1C356.93,-1570.26 374.64,-1573.63 391,-1576.56 403.74,-1578.85 417.26,-1581.17 430.46,-1583.39"/>
<polygon fill="#757575" stroke="#757575" points="430.05,-1586.87 440.48,-1585.06 431.2,-1579.96 430.05,-1586.87"/>
</g>
<!-- client/css/regular.css -->
<g id="node10" class="node">
<title>client/css/regular.css</title>
<path fill="none" stroke="#cfffac" d="M576.33,-1567.06C576.33,-1567.06 450.67,-1567.06 450.67,-1567.06 446.83,-1567.06 443,-1563.23 443,-1559.39 443,-1559.39 443,-1551.73 443,-1551.73 443,-1547.89 446.83,-1544.06 450.67,-1544.06 450.67,-1544.06 576.33,-1544.06 576.33,-1544.06 580.17,-1544.06 584,-1547.89 584,-1551.73 584,-1551.73 584,-1559.39 584,-1559.39 584,-1563.23 580.17,-1567.06 576.33,-1567.06"/>
<text text-anchor="middle" x="513.5" y="-1551.86" font-family="Arial" font-size="14.00" fill="#cfffac">client/css/regular.css</text>
</g>
<!-- client/css/index.css&#45;&gt;client/css/regular.css -->
<g id="edge8" class="edge">
<title>client/css/index.css&#45;&gt;client/css/regular.css</title>
<path fill="none" stroke="#757575" d="M348.15,-1555.56C374.47,-1555.56 405.1,-1555.56 432.74,-1555.56"/>
<polygon fill="#757575" stroke="#757575" points="432.77,-1559.06 442.77,-1555.56 432.77,-1552.06 432.77,-1559.06"/>
</g>
<!-- client/css/solid.css -->
<g id="node11" class="node">
<title>client/css/solid.css</title>
<path fill="none" stroke="#cfffac" d="M569.83,-1526.06C569.83,-1526.06 457.17,-1526.06 457.17,-1526.06 453.33,-1526.06 449.5,-1522.23 449.5,-1518.39 449.5,-1518.39 449.5,-1510.73 449.5,-1510.73 449.5,-1506.89 453.33,-1503.06 457.17,-1503.06 457.17,-1503.06 569.83,-1503.06 569.83,-1503.06 573.67,-1503.06 577.5,-1506.89 577.5,-1510.73 577.5,-1510.73 577.5,-1518.39 577.5,-1518.39 577.5,-1522.23 573.67,-1526.06 569.83,-1526.06"/>
<text text-anchor="middle" x="513.5" y="-1510.86" font-family="Arial" font-size="14.00" fill="#cfffac">client/css/solid.css</text>
</g>
<!-- client/css/index.css&#45;&gt;client/css/solid.css -->
<g id="edge9" class="edge">
<title>client/css/index.css&#45;&gt;client/css/solid.css</title>
<path fill="none" stroke="#757575" d="M344.66,-1544.01C359.81,-1541.21 375.98,-1538.25 391,-1535.56 406.56,-1532.78 423.25,-1529.85 439.12,-1527.1"/>
<polygon fill="#757575" stroke="#757575" points="440.16,-1530.47 449.41,-1525.32 438.96,-1523.57 440.16,-1530.47"/>
</g>
<!-- client/globalStore/actions.ts -->
<g id="node12" class="node">
<title>client/globalStore/actions.ts</title>
<path fill="none" stroke="#cfffac" d="M596.33,-955.06C596.33,-955.06 430.67,-955.06 430.67,-955.06 426.83,-955.06 423,-951.23 423,-947.39 423,-947.39 423,-939.73 423,-939.73 423,-935.89 426.83,-932.06 430.67,-932.06 430.67,-932.06 596.33,-932.06 596.33,-932.06 600.17,-932.06 604,-935.89 604,-939.73 604,-939.73 604,-947.39 604,-947.39 604,-951.23 600.17,-955.06 596.33,-955.06"/>
<text text-anchor="middle" x="513.5" y="-939.86" font-family="Arial" font-size="14.00" fill="#cfffac">client/globalStore/actions.ts</text>
</g>
<!-- client/main/App.tsx -->
<g id="node16" class="node">
<title>client/main/App.tsx</title>
<path fill="none" stroke="#c6c5fe" d="M339.83,-1254.06C339.83,-1254.06 224.17,-1254.06 224.17,-1254.06 220.33,-1254.06 216.5,-1250.23 216.5,-1246.39 216.5,-1246.39 216.5,-1238.73 216.5,-1238.73 216.5,-1234.89 220.33,-1231.06 224.17,-1231.06 224.17,-1231.06 339.83,-1231.06 339.83,-1231.06 343.67,-1231.06 347.5,-1234.89 347.5,-1238.73 347.5,-1238.73 347.5,-1246.39 347.5,-1246.39 347.5,-1250.23 343.67,-1254.06 339.83,-1254.06"/>
<text text-anchor="middle" x="282" y="-1238.86" font-family="Arial" font-size="14.00" fill="#c6c5fe">client/main/App.tsx</text>
</g>
<!-- client/main/App.tsx&#45;&gt;client/globalStore/store.ts -->
<g id="edge16" class="edge">
<title>client/main/App.tsx&#45;&gt;client/globalStore/store.ts</title>
<path fill="none" stroke="#757575" d="M292.08,-1231.04C309.16,-1210.16 348.22,-1166.06 391,-1142.56 624.93,-1014.08 715.87,-1063.85 980,-1025.56 1008.38,-1021.45 1039.35,-1016.83 1067.15,-1012.64"/>
<polygon fill="#757575" stroke="#757575" points="1067.87,-1016.08 1077.24,-1011.12 1066.82,-1009.15 1067.87,-1016.08"/>
</g>
<!-- client/main/App.tsx&#45;&gt;client/lib/router.tsx -->
<g id="edge18" class="edge">
<title>client/main/App.tsx&#45;&gt;client/lib/router.tsx</title>
<path fill="none" stroke="#757575" d="M284.96,-1254.21C291.78,-1290.77 318.2,-1403.53 391,-1450.56 472.13,-1502.97 728.41,-1474.56 825,-1474.56 825,-1474.56 825,-1474.56 1435,-1474.56 1594.66,-1474.56 1776.66,-1407.28 1852.44,-1376.09"/>
<polygon fill="#757575" stroke="#757575" points="1854.11,-1379.19 1862,-1372.12 1851.42,-1372.73 1854.11,-1379.19"/>
</g>
<!-- client/main/App.tsx&#45;&gt;client/lib/utils.tsx -->
<g id="edge19" class="edge">
<title>client/main/App.tsx&#45;&gt;client/lib/utils.tsx</title>
<path fill="none" stroke="#757575" d="M347.8,-1246.32C556.83,-1258.06 1204.8,-1291.23 1292,-1256.56 1312.45,-1248.43 1310.71,-1236.17 1328,-1222.56 1416.34,-1153.02 1458.18,-1161.66 1540,-1084.56 1593.84,-1033.83 1641.24,-959.26 1662.55,-923.37"/>
<polygon fill="#757575" stroke="#757575" points="1665.82,-924.72 1667.85,-914.33 1659.78,-921.18 1665.82,-924.72"/>
</g>
<!-- client/main/App.tsx&#45;&gt;client/globalStore/actions.ts -->
<g id="edge15" class="edge">
<title>client/main/App.tsx&#45;&gt;client/globalStore/actions.ts</title>
<path fill="none" stroke="#757575" d="M283.64,-1231.02C286.67,-1188.07 303.44,-1036.2 391,-964.56 397.67,-959.11 405.24,-954.85 413.28,-951.54"/>
<polygon fill="#757575" stroke="#757575" points="414.66,-954.76 422.89,-948.09 412.29,-948.18 414.66,-954.76"/>
</g>
<!-- client/main/App.tsx&#45;&gt;client/lib/context.tsx -->
<g id="edge17" class="edge">
<title>client/main/App.tsx&#45;&gt;client/lib/context.tsx</title>
<path fill="none" stroke="#757575" d="M289.6,-1254.23C304.28,-1278.97 342.19,-1336.62 391,-1363.56 562.24,-1458.09 629.4,-1436.56 825,-1436.56 825,-1436.56 825,-1436.56 1155,-1436.56 1466.35,-1436.56 1785.35,-1175.58 1867.99,-1103.06"/>
<polygon fill="#757575" stroke="#757575" points="1870.48,-1105.52 1875.65,-1096.27 1865.85,-1100.28 1870.48,-1105.52"/>
</g>
<!-- client/pages/projectStructure/Index.tsx -->
<g id="node17" class="node">
<title>client/pages/projectStructure/Index.tsx</title>
<path fill="none" stroke="#c6c5fe" d="M628.33,-1294.06C628.33,-1294.06 398.67,-1294.06 398.67,-1294.06 394.83,-1294.06 391,-1290.23 391,-1286.39 391,-1286.39 391,-1278.73 391,-1278.73 391,-1274.89 394.83,-1271.06 398.67,-1271.06 398.67,-1271.06 628.33,-1271.06 628.33,-1271.06 632.17,-1271.06 636,-1274.89 636,-1278.73 636,-1278.73 636,-1286.39 636,-1286.39 636,-1290.23 632.17,-1294.06 628.33,-1294.06"/>
<text text-anchor="middle" x="513.5" y="-1278.86" font-family="Arial" font-size="14.00" fill="#c6c5fe">client/pages/projectStructure/Index.tsx</text>
</g>
<!-- client/main/App.tsx&#45;&gt;client/pages/projectStructure/Index.tsx -->
<g id="edge20" class="edge">
<title>client/main/App.tsx&#45;&gt;client/pages/projectStructure/Index.tsx</title>
<path fill="none" stroke="#757575" d="M347.54,-1253.81C375.17,-1258.63 407.64,-1264.29 436.44,-1269.3"/>
<polygon fill="#757575" stroke="#757575" points="436,-1272.78 446.45,-1271.05 437.2,-1265.88 436,-1272.78"/>
</g>
<!-- client/pages/session/New.tsx -->
<g id="node18" class="node">
<title>client/pages/session/New.tsx</title>
<path fill="none" stroke="#c6c5fe" d="M600.33,-1354.06C600.33,-1354.06 426.67,-1354.06 426.67,-1354.06 422.83,-1354.06 419,-1350.23 419,-1346.39 419,-1346.39 419,-1338.73 419,-1338.73 419,-1334.89 422.83,-1331.06 426.67,-1331.06 426.67,-1331.06 600.33,-1331.06 600.33,-1331.06 604.17,-1331.06 608,-1334.89 608,-1338.73 608,-1338.73 608,-1346.39 608,-1346.39 608,-1350.23 604.17,-1354.06 600.33,-1354.06"/>
<text text-anchor="middle" x="513.5" y="-1338.86" font-family="Arial" font-size="14.00" fill="#c6c5fe">client/pages/session/New.tsx</text>
</g>
<!-- client/main/App.tsx&#45;&gt;client/pages/session/New.tsx -->
<g id="edge21" class="edge">
<title>client/main/App.tsx&#45;&gt;client/pages/session/New.tsx</title>
<path fill="none" stroke="#757575" d="M300.76,-1254.09C321.7,-1267.32 357.86,-1289.06 391,-1303.56 412.91,-1313.15 437.95,-1321.58 459.59,-1328.14"/>
<polygon fill="#757575" stroke="#757575" points="458.68,-1331.52 469.26,-1331.01 460.67,-1324.81 458.68,-1331.52"/>
</g>
<!-- client/pages/todos/Index.tsx -->
<g id="node19" class="node">
<title>client/pages/todos/Index.tsx</title>
<path fill="none" stroke="#c6c5fe" d="M597.33,-996.06C597.33,-996.06 429.67,-996.06 429.67,-996.06 425.83,-996.06 422,-992.23 422,-988.39 422,-988.39 422,-980.73 422,-980.73 422,-976.89 425.83,-973.06 429.67,-973.06 429.67,-973.06 597.33,-973.06 597.33,-973.06 601.17,-973.06 605,-976.89 605,-980.73 605,-980.73 605,-988.39 605,-988.39 605,-992.23 601.17,-996.06 597.33,-996.06"/>
<text text-anchor="middle" x="513.5" y="-980.86" font-family="Arial" font-size="14.00" fill="#c6c5fe">client/pages/todos/Index.tsx</text>
</g>
<!-- client/main/App.tsx&#45;&gt;client/pages/todos/Index.tsx -->
<g id="edge22" class="edge">
<title>client/main/App.tsx&#45;&gt;client/pages/todos/Index.tsx</title>
<path fill="none" stroke="#757575" d="M285.76,-1230.86C294.67,-1195.54 325.94,-1088.87 391,-1030.56 406.95,-1016.27 427.78,-1006.25 447.69,-999.3"/>
<polygon fill="#757575" stroke="#757575" points="448.94,-1002.57 457.35,-996.13 446.76,-995.92 448.94,-1002.57"/>
</g>
<!-- client/pages/users/@id.tsx -->
<g id="node20" class="node">
<title>client/pages/users/@id.tsx</title>
<path fill="none" stroke="#c6c5fe" d="M593.33,-1174.06C593.33,-1174.06 433.67,-1174.06 433.67,-1174.06 429.83,-1174.06 426,-1170.23 426,-1166.39 426,-1166.39 426,-1158.73 426,-1158.73 426,-1154.89 429.83,-1151.06 433.67,-1151.06 433.67,-1151.06 593.33,-1151.06 593.33,-1151.06 597.17,-1151.06 601,-1154.89 601,-1158.73 601,-1158.73 601,-1166.39 601,-1166.39 601,-1170.23 597.17,-1174.06 593.33,-1174.06"/>
<text text-anchor="middle" x="513.5" y="-1158.86" font-family="Arial" font-size="14.00" fill="#c6c5fe">client/pages/users/@id.tsx</text>
</g>
<!-- client/main/App.tsx&#45;&gt;client/pages/users/@id.tsx -->
<g id="edge23" class="edge">
<title>client/main/App.tsx&#45;&gt;client/pages/users/@id.tsx</title>
<path fill="none" stroke="#757575" d="M316.37,-1230.93C356.94,-1216.79 425.46,-1192.9 469.83,-1177.43"/>
<polygon fill="#757575" stroke="#757575" points="471.17,-1180.67 479.46,-1174.08 468.87,-1174.06 471.17,-1180.67"/>
</g>
<!-- client/pages/users/Index.tsx -->
<g id="node21" class="node">
<title>client/pages/users/Index.tsx</title>
<path fill="none" stroke="#c6c5fe" d="M597.33,-730.06C597.33,-730.06 429.67,-730.06 429.67,-730.06 425.83,-730.06 422,-726.23 422,-722.39 422,-722.39 422,-714.73 422,-714.73 422,-710.89 425.83,-707.06 429.67,-707.06 429.67,-707.06 597.33,-707.06 597.33,-707.06 601.17,-707.06 605,-710.89 605,-714.73 605,-714.73 605,-722.39 605,-722.39 605,-726.23 601.17,-730.06 597.33,-730.06"/>
<text text-anchor="middle" x="513.5" y="-714.86" font-family="Arial" font-size="14.00" fill="#c6c5fe">client/pages/users/Index.tsx</text>
</g>
<!-- client/main/App.tsx&#45;&gt;client/pages/users/Index.tsx -->
<g id="edge24" class="edge">
<title>client/main/App.tsx&#45;&gt;client/pages/users/Index.tsx</title>
<path fill="none" stroke="#757575" d="M285.99,-1230.93C297.07,-1188.58 337.9,-1039.12 391,-923.56 423.67,-852.47 474.37,-774.55 498.64,-738.68"/>
<polygon fill="#757575" stroke="#757575" points="501.74,-740.34 504.48,-730.1 495.96,-736.4 501.74,-740.34"/>
</g>
<!-- client/pages/projectStructure/Index.tsx&#45;&gt;client/common/Layout.tsx -->
<g id="edge29" class="edge">
<title>client/pages/projectStructure/Index.tsx&#45;&gt;client/common/Layout.tsx</title>
<path fill="none" stroke="#757575" d="M530.44,-1270.98C558.21,-1251.13 617.7,-1210.12 672,-1182.56 707.35,-1164.61 749.41,-1148.47 780.47,-1137.46"/>
<polygon fill="#757575" stroke="#757575" points="781.87,-1140.68 790.15,-1134.07 779.55,-1134.08 781.87,-1140.68"/>
</g>
<!-- client/pages/projectStructure/Index.tsx&#45;&gt;client/lib/utils.tsx -->
<g id="edge30" class="edge">
<title>client/pages/projectStructure/Index.tsx&#45;&gt;client/lib/utils.tsx</title>
<path fill="none" stroke="#757575" d="M636.09,-1286.98C838.93,-1293.86 1230.33,-1304.84 1292,-1289.56 1309.56,-1285.21 1311.03,-1276.83 1328,-1270.56 1418.61,-1237.06 1465.97,-1284.63 1540,-1222.56 1635.67,-1142.34 1664.58,-982.36 1672.13,-924.28"/>
<polygon fill="#757575" stroke="#757575" points="1675.64,-924.42 1673.37,-914.07 1668.69,-923.58 1675.64,-924.42"/>
</g>
<!-- client/pages/projectStructure/projectStructure.tsx -->
<g id="node23" class="node">
<title>client/pages/projectStructure/projectStructure.tsx</title>
<path fill="none" stroke="#cfffac" d="M972.33,-1332.06C972.33,-1332.06 679.67,-1332.06 679.67,-1332.06 675.83,-1332.06 672,-1328.23 672,-1324.39 672,-1324.39 672,-1316.73 672,-1316.73 672,-1312.89 675.83,-1309.06 679.67,-1309.06 679.67,-1309.06 972.33,-1309.06 972.33,-1309.06 976.17,-1309.06 980,-1312.89 980,-1316.73 980,-1316.73 980,-1324.39 980,-1324.39 980,-1328.23 976.17,-1332.06 972.33,-1332.06"/>
<text text-anchor="middle" x="826" y="-1316.86" font-family="Arial" font-size="14.00" fill="#cfffac">client/pages/projectStructure/projectStructure.tsx</text>
</g>
<!-- client/pages/projectStructure/Index.tsx&#45;&gt;client/pages/projectStructure/projectStructure.tsx -->
<g id="edge31" class="edge">
<title>client/pages/projectStructure/Index.tsx&#45;&gt;client/pages/projectStructure/projectStructure.tsx</title>
<path fill="none" stroke="#757575" d="M608.5,-1294.07C643.91,-1298.4 684.37,-1303.35 720.66,-1307.79"/>
<polygon fill="#757575" stroke="#757575" points="720.43,-1311.29 730.78,-1309.03 721.28,-1304.34 720.43,-1311.29"/>
</g>
<!-- client/pages/session/New.tsx&#45;&gt;client/common/Layout.tsx -->
<g id="edge32" class="edge">
<title>client/pages/session/New.tsx&#45;&gt;client/common/Layout.tsx</title>
<path fill="none" stroke="#757575" d="M588.98,-1330.99C606.26,-1325.21 623.29,-1316.54 636,-1303.56 675.25,-1263.46 634.04,-1223.88 672,-1182.56 692.64,-1160.1 722.72,-1145.94 750.75,-1137.06"/>
<polygon fill="#757575" stroke="#757575" points="751.98,-1140.34 760.57,-1134.13 749.98,-1133.63 751.98,-1140.34"/>
</g>
<!-- client/pages/session/New.tsx&#45;&gt;client/lib/router.tsx -->
<g id="edge33" class="edge">
<title>client/pages/session/New.tsx&#45;&gt;client/lib/router.tsx</title>
<path fill="none" stroke="#757575" d="M578.3,-1354.07C606.88,-1358.87 641.04,-1364.11 672,-1367.56 884.91,-1391.27 938.78,-1398.56 1153,-1398.56 1153,-1398.56 1153,-1398.56 1435,-1398.56 1570.23,-1398.56 1727.34,-1381.58 1816.64,-1370.32"/>
<polygon fill="#757575" stroke="#757575" points="1817.18,-1373.78 1826.65,-1369.04 1816.29,-1366.83 1817.18,-1373.78"/>
</g>
<!-- client/pages/session/New.tsx&#45;&gt;client/lib/utils.tsx -->
<g id="edge34" class="edge">
<title>client/pages/session/New.tsx&#45;&gt;client/lib/utils.tsx</title>
<path fill="none" stroke="#757575" d="M608.21,-1348.33C834.16,-1360.23 1400.61,-1377.35 1540,-1260.56 1646.84,-1171.04 1668.9,-987.59 1673.38,-924.47"/>
<polygon fill="#757575" stroke="#757575" points="1676.9,-924.33 1674.03,-914.13 1669.91,-923.89 1676.9,-924.33"/>
</g>
<!-- client/pages/todos/Index.tsx&#45;&gt;client/common/Layout.tsx -->
<g id="edge35" class="edge">
<title>client/pages/todos/Index.tsx&#45;&gt;client/common/Layout.tsx</title>
<path fill="none" stroke="#757575" d="M540.44,-996.09C596.03,-1020.8 726.72,-1078.88 789.76,-1106.9"/>
<polygon fill="#757575" stroke="#757575" points="788.36,-1110.11 798.92,-1110.97 791.2,-1103.71 788.36,-1110.11"/>
</g>
<!-- client/pages/todos/Index.tsx&#45;&gt;client/globalStore/store.ts -->
<g id="edge36" class="edge">
<title>client/pages/todos/Index.tsx&#45;&gt;client/globalStore/store.ts</title>
<path fill="none" stroke="#757575" d="M605.09,-982.25C698.94,-980.39 849.81,-978.93 980,-984.56 1005.92,-985.68 1033.97,-987.75 1059.79,-989.99"/>
<polygon fill="#757575" stroke="#757575" points="1059.67,-993.49 1069.94,-990.89 1060.29,-986.52 1059.67,-993.49"/>
</g>
<!-- client/pages/todos/Index.tsx&#45;&gt;client/lib/router.tsx -->
<g id="edge37" class="edge">
<title>client/pages/todos/Index.tsx&#45;&gt;client/lib/router.tsx</title>
<path fill="none" stroke="#757575" d="M521.94,-996.38C541.9,-1026.92 600.03,-1108.54 672,-1143.56 687.59,-1151.15 1274.93,-1212.51 1292,-1215.56 1497.09,-1252.25 1736.79,-1317.46 1838.65,-1346.24"/>
<polygon fill="#757575" stroke="#757575" points="1837.79,-1349.63 1848.36,-1348.99 1839.69,-1342.9 1837.79,-1349.63"/>
</g>
<!-- client/pages/todos/Index.tsx&#45;&gt;client/lib/utils.tsx -->
<g id="edge38" class="edge">
<title>client/pages/todos/Index.tsx&#45;&gt;client/lib/utils.tsx</title>
<path fill="none" stroke="#757575" d="M588.51,-973.05C604.21,-970.42 620.68,-967.52 636,-964.56 652.09,-961.45 655.79,-958.96 672,-956.56 1021.87,-904.74 1446.96,-901.14 1608.2,-901.88"/>
<polygon fill="#757575" stroke="#757575" points="1608.42,-905.38 1618.43,-901.93 1608.45,-898.38 1608.42,-905.38"/>
</g>
<!-- client/pages/todos/Index.tsx&#45;&gt;client/ui/Notifications.tsx -->
<g id="edge41" class="edge">
<title>client/pages/todos/Index.tsx&#45;&gt;client/ui/Notifications.tsx</title>
<path fill="none" stroke="#757575" d="M605.3,-979.73C727.03,-973.24 941.81,-961.81 1063.09,-955.35"/>
<polygon fill="#757575" stroke="#757575" points="1063.29,-958.84 1073.09,-954.82 1062.92,-951.85 1063.29,-958.84"/>
</g>
<!-- client/pages/todos/styles.module.css -->
<g id="node24" class="node">
<title>client/pages/todos/styles.module.css</title>
<path fill="none" stroke="#cfffac" d="M936.33,-1016.06C936.33,-1016.06 715.67,-1016.06 715.67,-1016.06 711.83,-1016.06 708,-1012.23 708,-1008.39 708,-1008.39 708,-1000.73 708,-1000.73 708,-996.89 711.83,-993.06 715.67,-993.06 715.67,-993.06 936.33,-993.06 936.33,-993.06 940.17,-993.06 944,-996.89 944,-1000.73 944,-1000.73 944,-1008.39 944,-1008.39 944,-1012.23 940.17,-1016.06 936.33,-1016.06"/>
<text text-anchor="middle" x="826" y="-1000.86" font-family="Arial" font-size="14.00" fill="#cfffac">client/pages/todos/styles.module.css</text>
</g>
<!-- client/pages/todos/Index.tsx&#45;&gt;client/pages/todos/styles.module.css -->
<g id="edge39" class="edge">
<title>client/pages/todos/Index.tsx&#45;&gt;client/pages/todos/styles.module.css</title>
<path fill="none" stroke="#757575" d="M605.14,-990.4C634.14,-992.27 666.79,-994.37 697.88,-996.37"/>
<polygon fill="#757575" stroke="#757575" points="697.71,-999.87 707.92,-997.02 698.16,-992.88 697.71,-999.87"/>
</g>
<!-- client/ui/HeaderCell.tsx -->
<g id="node25" class="node">
<title>client/ui/HeaderCell.tsx</title>
<path fill="none" stroke="#c6c5fe" d="M895.83,-810.06C895.83,-810.06 756.17,-810.06 756.17,-810.06 752.33,-810.06 748.5,-806.23 748.5,-802.39 748.5,-802.39 748.5,-794.73 748.5,-794.73 748.5,-790.89 752.33,-787.06 756.17,-787.06 756.17,-787.06 895.83,-787.06 895.83,-787.06 899.67,-787.06 903.5,-790.89 903.5,-794.73 903.5,-794.73 903.5,-802.39 903.5,-802.39 903.5,-806.23 899.67,-810.06 895.83,-810.06"/>
<text text-anchor="middle" x="826" y="-794.86" font-family="Arial" font-size="14.00" fill="#c6c5fe">client/ui/HeaderCell.tsx</text>
</g>
<!-- client/pages/todos/Index.tsx&#45;&gt;client/ui/HeaderCell.tsx -->
<g id="edge40" class="edge">
<title>client/pages/todos/Index.tsx&#45;&gt;client/ui/HeaderCell.tsx</title>
<path fill="none" stroke="#757575" d="M605.25,-980.36C616.39,-976.86 627,-971.79 636,-964.56 669.59,-937.58 642.79,-906.23 672,-874.56 699.36,-844.9 740.86,-825.3 773.74,-813.44"/>
<polygon fill="#757575" stroke="#757575" points="774.91,-816.74 783.2,-810.16 772.61,-810.13 774.91,-816.74"/>
</g>
<!-- client/ui/Pagination.tsx -->
<g id="node26" class="node">
<title>client/ui/Pagination.tsx</title>
<path fill="none" stroke="#c6c5fe" d="M893.83,-730.06C893.83,-730.06 758.17,-730.06 758.17,-730.06 754.33,-730.06 750.5,-726.23 750.5,-722.39 750.5,-722.39 750.5,-714.73 750.5,-714.73 750.5,-710.89 754.33,-707.06 758.17,-707.06 758.17,-707.06 893.83,-707.06 893.83,-707.06 897.67,-707.06 901.5,-710.89 901.5,-714.73 901.5,-714.73 901.5,-722.39 901.5,-722.39 901.5,-726.23 897.67,-730.06 893.83,-730.06"/>
<text text-anchor="middle" x="826" y="-714.86" font-family="Arial" font-size="14.00" fill="#c6c5fe">client/ui/Pagination.tsx</text>
</g>
<!-- client/pages/todos/Index.tsx&#45;&gt;client/ui/Pagination.tsx -->
<g id="edge42" class="edge">
<title>client/pages/todos/Index.tsx&#45;&gt;client/ui/Pagination.tsx</title>
<path fill="none" stroke="#757575" d="M605.08,-982.39C616.58,-978.66 627.34,-972.98 636,-964.56 696.37,-905.86 618.14,-843.28 672,-778.56 690.78,-756 719.17,-741.88 746.42,-733.07"/>
<polygon fill="#757575" stroke="#757575" points="747.43,-736.42 755.99,-730.16 745.4,-729.72 747.43,-736.42"/>
</g>
<!-- client/pages/users/@id.tsx&#45;&gt;client/common/Layout.tsx -->
<g id="edge43" class="edge">
<title>client/pages/users/@id.tsx&#45;&gt;client/common/Layout.tsx</title>
<path fill="none" stroke="#757575" d="M601.4,-1151.37C641.68,-1146.18 689.62,-1140 730.77,-1134.7"/>
<polygon fill="#757575" stroke="#757575" points="731.33,-1138.16 740.8,-1133.41 730.43,-1131.21 731.33,-1138.16"/>
</g>
<!-- client/pages/users/@id.tsx&#45;&gt;client/lib/utils.tsx -->
<g id="edge44" class="edge">
<title>client/pages/users/@id.tsx&#45;&gt;client/lib/utils.tsx</title>
<path fill="none" stroke="#757575" d="M538.97,-1150.97C569.42,-1137.08 623.34,-1114.23 672,-1102.56 860.64,-1057.32 1360.53,-1083.2 1540,-1009.56 1588.57,-989.63 1633.92,-946.55 1657.52,-921.56"/>
<polygon fill="#757575" stroke="#757575" points="1660.17,-923.84 1664.4,-914.13 1655.04,-919.09 1660.17,-923.84"/>
</g>
<!-- client/pages/users/UI/InfoCircle.tsx -->
<g id="node27" class="node">
<title>client/pages/users/UI/InfoCircle.tsx</title>
<path fill="none" stroke="#c6c5fe" d="M930.33,-1214.06C930.33,-1214.06 721.67,-1214.06 721.67,-1214.06 717.83,-1214.06 714,-1210.23 714,-1206.39 714,-1206.39 714,-1198.73 714,-1198.73 714,-1194.89 717.83,-1191.06 721.67,-1191.06 721.67,-1191.06 930.33,-1191.06 930.33,-1191.06 934.17,-1191.06 938,-1194.89 938,-1198.73 938,-1198.73 938,-1206.39 938,-1206.39 938,-1210.23 934.17,-1214.06 930.33,-1214.06"/>
<text text-anchor="middle" x="826" y="-1198.86" font-family="Arial" font-size="14.00" fill="#c6c5fe">client/pages/users/UI/InfoCircle.tsx</text>
</g>
<!-- client/pages/users/@id.tsx&#45;&gt;client/pages/users/UI/InfoCircle.tsx -->
<g id="edge45" class="edge">
<title>client/pages/users/@id.tsx&#45;&gt;client/pages/users/UI/InfoCircle.tsx</title>
<path fill="none" stroke="#757575" d="M601.4,-1173.76C640.02,-1178.73 685.69,-1184.61 725.66,-1189.76"/>
<polygon fill="#757575" stroke="#757575" points="725.32,-1193.25 735.69,-1191.06 726.21,-1186.31 725.32,-1193.25"/>
</g>
<!-- client/pages/users/Index.tsx&#45;&gt;client/common/Layout.tsx -->
<g id="edge46" class="edge">
<title>client/pages/users/Index.tsx&#45;&gt;client/common/Layout.tsx</title>
<path fill="none" stroke="#757575" d="M522.46,-730.13C543.23,-760.66 599.92,-846.35 636,-923.56 656.35,-967.11 642.05,-987.96 672,-1025.56 702.27,-1063.57 751.72,-1091.02 786.18,-1106.83"/>
<polygon fill="#757575" stroke="#757575" points="784.91,-1110.09 795.47,-1110.97 787.77,-1103.7 784.91,-1110.09"/>
</g>
<!-- client/pages/users/Index.tsx&#45;&gt;client/lib/utils.tsx -->
<g id="edge47" class="edge">
<title>client/pages/users/Index.tsx&#45;&gt;client/lib/utils.tsx</title>
<path fill="none" stroke="#757575" d="M549.24,-707.06C630,-680.98 837.17,-618 1016,-596.56 1137.79,-581.96 1169.81,-585.81 1292,-596.56 1403.51,-606.38 1449.95,-574.06 1540,-640.56 1623.34,-702.11 1659.02,-830.37 1670.27,-881.17"/>
<polygon fill="#757575" stroke="#757575" points="1666.86,-881.99 1672.36,-891.05 1673.71,-880.54 1666.86,-881.99"/>
</g>
<!-- client/pages/users/Index.tsx&#45;&gt;client/ui/HeaderCell.tsx -->
<g id="edge50" class="edge">
<title>client/pages/users/Index.tsx&#45;&gt;client/ui/HeaderCell.tsx</title>
<path fill="none" stroke="#757575" d="M559.32,-730.11C615.04,-744.47 710.12,-768.96 770.14,-784.43"/>
<polygon fill="#757575" stroke="#757575" points="769.64,-787.91 780.2,-787.02 771.39,-781.13 769.64,-787.91"/>
</g>
<!-- client/pages/users/Index.tsx&#45;&gt;client/ui/Pagination.tsx -->
<g id="edge51" class="edge">
<title>client/pages/users/Index.tsx&#45;&gt;client/ui/Pagination.tsx</title>
<path fill="none" stroke="#757575" d="M605.14,-718.56C647.81,-718.56 698.4,-718.56 740.28,-718.56"/>
<polygon fill="#757575" stroke="#757575" points="740.46,-722.06 750.46,-718.56 740.46,-715.06 740.46,-722.06"/>
</g>
<!-- client/ui/Checkbox.tsx -->
<g id="node28" class="node">
<title>client/ui/Checkbox.tsx</title>
<path fill="none" stroke="#c6c5fe" d="M1499.83,-529.06C1499.83,-529.06 1368.17,-529.06 1368.17,-529.06 1364.33,-529.06 1360.5,-525.23 1360.5,-521.39 1360.5,-521.39 1360.5,-513.73 1360.5,-513.73 1360.5,-509.89 1364.33,-506.06 1368.17,-506.06 1368.17,-506.06 1499.83,-506.06 1499.83,-506.06 1503.67,-506.06 1507.5,-509.89 1507.5,-513.73 1507.5,-513.73 1507.5,-521.39 1507.5,-521.39 1507.5,-525.23 1503.67,-529.06 1499.83,-529.06"/>
<text text-anchor="middle" x="1434" y="-513.86" font-family="Arial" font-size="14.00" fill="#c6c5fe">client/ui/Checkbox.tsx</text>
</g>
<!-- client/pages/users/Index.tsx&#45;&gt;client/ui/Checkbox.tsx -->
<g id="edge48" class="edge">
<title>client/pages/users/Index.tsx&#45;&gt;client/ui/Checkbox.tsx</title>
<path fill="none" stroke="#757575" d="M519.13,-706.9C534.37,-670.36 586.89,-558.13 672,-516.56 789.27,-459.29 1178.77,-491.01 1350.48,-508.48"/>
<polygon fill="#757575" stroke="#757575" points="1350.17,-511.96 1360.48,-509.5 1350.89,-505 1350.17,-511.96"/>
</g>
<!-- client/ui/Collapse.tsx -->
<g id="node29" class="node">
<title>client/ui/Collapse.tsx</title>
<path fill="none" stroke="#c6c5fe" d="M888.33,-548.06C888.33,-548.06 763.67,-548.06 763.67,-548.06 759.83,-548.06 756,-544.23 756,-540.39 756,-540.39 756,-532.73 756,-532.73 756,-528.89 759.83,-525.06 763.67,-525.06 763.67,-525.06 888.33,-525.06 888.33,-525.06 892.17,-525.06 896,-528.89 896,-532.73 896,-532.73 896,-540.39 896,-540.39 896,-544.23 892.17,-548.06 888.33,-548.06"/>
<text text-anchor="middle" x="826" y="-532.86" font-family="Arial" font-size="14.00" fill="#c6c5fe">client/ui/Collapse.tsx</text>
</g>
<!-- client/pages/users/Index.tsx&#45;&gt;client/ui/Collapse.tsx -->
<g id="edge49" class="edge">
<title>client/pages/users/Index.tsx&#45;&gt;client/ui/Collapse.tsx</title>
<path fill="none" stroke="#757575" d="M522.41,-706.75C543.04,-676.96 601.82,-598.61 672,-562.56 694.54,-550.98 721.17,-544.4 745.84,-540.71"/>
<polygon fill="#757575" stroke="#757575" points="746.47,-544.16 755.9,-539.35 745.52,-537.22 746.47,-544.16"/>
</g>
<!-- client/main/entry&#45;client.tsx -->
<g id="node22" class="node">
<title>client/main/entry&#45;client.tsx</title>
<path fill="none" stroke="#c6c5fe" d="M165.33,-1410.06C165.33,-1410.06 7.67,-1410.06 7.67,-1410.06 3.83,-1410.06 0,-1406.23 0,-1402.39 0,-1402.39 0,-1394.73 0,-1394.73 0,-1390.89 3.83,-1387.06 7.67,-1387.06 7.67,-1387.06 165.33,-1387.06 165.33,-1387.06 169.17,-1387.06 173,-1390.89 173,-1394.73 173,-1394.73 173,-1402.39 173,-1402.39 173,-1406.23 169.17,-1410.06 165.33,-1410.06"/>
<text text-anchor="middle" x="86.5" y="-1394.86" font-family="Arial" font-size="14.00" fill="#c6c5fe">client/main/entry&#45;client.tsx</text>
</g>
<!-- client/main/entry&#45;client.tsx&#45;&gt;client/lib/router.tsx -->
<g id="edge26" class="edge">
<title>client/main/entry&#45;client.tsx&#45;&gt;client/lib/router.tsx</title>
<path fill="none" stroke="#757575" d="M92.63,-1410.16C106.84,-1441.13 149.64,-1526.81 209,-1576.56 317.95,-1667.88 370.34,-1677.56 512.5,-1677.56 512.5,-1677.56 512.5,-1677.56 1435,-1677.56 1643.23,-1677.56 1823.97,-1450.28 1874.48,-1380.61"/>
<polygon fill="#757575" stroke="#757575" points="1877.52,-1382.39 1880.49,-1372.22 1871.82,-1378.32 1877.52,-1382.39"/>
</g>
<!-- client/main/entry&#45;client.tsx&#45;&gt;client/lib/utils.tsx -->
<g id="edge27" class="edge">
<title>client/main/entry&#45;client.tsx&#45;&gt;client/lib/utils.tsx</title>
<path fill="none" stroke="#757575" d="M87.22,-1387.02C85.22,-1279.58 84,-458.56 512.5,-458.56 512.5,-458.56 512.5,-458.56 1155,-458.56 1326.99,-458.56 1405.79,-390.01 1540,-497.56 1602.82,-547.9 1655.91,-804.62 1670.52,-881.06"/>
<polygon fill="#757575" stroke="#757575" points="1667.1,-881.8 1672.39,-890.98 1673.97,-880.51 1667.1,-881.8"/>
</g>
<!-- client/main/entry&#45;client.tsx&#45;&gt;client/css/index.css -->
<g id="edge25" class="edge">
<title>client/main/entry&#45;client.tsx&#45;&gt;client/css/index.css</title>
<path fill="none" stroke="#757575" d="M101.73,-1410.11C135.14,-1437.21 218.79,-1505.09 258.89,-1537.62"/>
<polygon fill="#757575" stroke="#757575" points="256.78,-1540.42 266.75,-1544 261.19,-1534.98 256.78,-1540.42"/>
</g>
<!-- client/main/entry&#45;client.tsx&#45;&gt;client/main/App.tsx -->
<g id="edge28" class="edge">
<title>client/main/entry&#45;client.tsx&#45;&gt;client/main/App.tsx</title>
<path fill="none" stroke="#757575" d="M102.04,-1386.84C135.6,-1359.78 218.64,-1292.83 258.69,-1260.55"/>
<polygon fill="#757575" stroke="#757575" points="260.96,-1263.21 266.55,-1254.21 256.57,-1257.76 260.96,-1263.21"/>
</g>
<!-- client/ui/HeaderCell.tsx&#45;&gt;client/lib/utils.tsx -->
<g id="edge55" class="edge">
<title>client/ui/HeaderCell.tsx&#45;&gt;client/lib/utils.tsx</title>
<path fill="none" stroke="#757575" d="M873.67,-810.13C911.73,-819.09 967.01,-831.04 1016,-837.56 1247.29,-868.33 1309.33,-834.51 1540,-869.56 1568.75,-873.93 1600.35,-881.54 1625.7,-888.35"/>
<polygon fill="#757575" stroke="#757575" points="1624.87,-891.75 1635.44,-891.01 1626.72,-885 1624.87,-891.75"/>
</g>
<!-- client/ui/HeaderCell.module.css -->
<g id="node33" class="node">
<title>client/ui/HeaderCell.module.css</title>
<path fill="none" stroke="#cfffac" d="M1249.33,-828.06C1249.33,-828.06 1058.67,-828.06 1058.67,-828.06 1054.83,-828.06 1051,-824.23 1051,-820.39 1051,-820.39 1051,-812.73 1051,-812.73 1051,-808.89 1054.83,-805.06 1058.67,-805.06 1058.67,-805.06 1249.33,-805.06 1249.33,-805.06 1253.17,-805.06 1257,-808.89 1257,-812.73 1257,-812.73 1257,-820.39 1257,-820.39 1257,-824.23 1253.17,-828.06 1249.33,-828.06"/>
<text text-anchor="middle" x="1154" y="-812.86" font-family="Arial" font-size="14.00" fill="#cfffac">client/ui/HeaderCell.module.css</text>
</g>
<!-- client/ui/HeaderCell.tsx&#45;&gt;client/ui/HeaderCell.module.css -->
<g id="edge56" class="edge">
<title>client/ui/HeaderCell.tsx&#45;&gt;client/ui/HeaderCell.module.css</title>
<path fill="none" stroke="#757575" d="M903.84,-802.8C944.62,-805.06 995.49,-807.86 1040.62,-810.36"/>
<polygon fill="#757575" stroke="#757575" points="1040.57,-813.86 1050.75,-810.92 1040.96,-806.87 1040.57,-813.86"/>
</g>
<!-- client/ui/Popup.tsx -->
<g id="node34" class="node">
<title>client/ui/Popup.tsx</title>
<path fill="none" stroke="#c6c5fe" d="M1489.33,-779.06C1489.33,-779.06 1378.67,-779.06 1378.67,-779.06 1374.83,-779.06 1371,-775.23 1371,-771.39 1371,-771.39 1371,-763.73 1371,-763.73 1371,-759.89 1374.83,-756.06 1378.67,-756.06 1378.67,-756.06 1489.33,-756.06 1489.33,-756.06 1493.17,-756.06 1497,-759.89 1497,-763.73 1497,-763.73 1497,-771.39 1497,-771.39 1497,-775.23 1493.17,-779.06 1489.33,-779.06"/>
<text text-anchor="middle" x="1434" y="-763.86" font-family="Arial" font-size="14.00" fill="#c6c5fe">client/ui/Popup.tsx</text>
</g>
<!-- client/ui/HeaderCell.tsx&#45;&gt;client/ui/Popup.tsx -->
<g id="edge57" class="edge">
<title>client/ui/HeaderCell.tsx&#45;&gt;client/ui/Popup.tsx</title>
<path fill="none" stroke="#757575" d="M903.75,-794.63C1021.54,-788.61 1245.31,-777.16 1360.49,-771.27"/>
<polygon fill="#757575" stroke="#757575" points="1360.81,-774.76 1370.62,-770.75 1360.45,-767.77 1360.81,-774.76"/>
</g>
<!-- client/ui/TableFilters.tsx -->
<g id="node35" class="node">
<title>client/ui/TableFilters.tsx</title>
<path fill="none" stroke="#c6c5fe" d="M1224.33,-669.06C1224.33,-669.06 1083.67,-669.06 1083.67,-669.06 1079.83,-669.06 1076,-665.23 1076,-661.39 1076,-661.39 1076,-653.73 1076,-653.73 1076,-649.89 1079.83,-646.06 1083.67,-646.06 1083.67,-646.06 1224.33,-646.06 1224.33,-646.06 1228.17,-646.06 1232,-649.89 1232,-653.73 1232,-653.73 1232,-661.39 1232,-661.39 1232,-665.23 1228.17,-669.06 1224.33,-669.06"/>
<text text-anchor="middle" x="1154" y="-653.86" font-family="Arial" font-size="14.00" fill="#c6c5fe">client/ui/TableFilters.tsx</text>
</g>
<!-- client/ui/HeaderCell.tsx&#45;&gt;client/ui/TableFilters.tsx -->
<g id="edge58" class="edge">
<title>client/ui/HeaderCell.tsx&#45;&gt;client/ui/TableFilters.tsx</title>
<path fill="none" stroke="#757575" d="M881.55,-787.04C913.05,-778.21 951.87,-763.39 980,-739.56 1004.02,-719.21 989.93,-696.2 1016,-678.56 1030.58,-668.7 1048.01,-662.76 1065.47,-659.3"/>
<polygon fill="#757575" stroke="#757575" points="1066.47,-662.68 1075.74,-657.54 1065.29,-655.78 1066.47,-662.68"/>
</g>
<!-- client/ui/Pagination.tsx&#45;&gt;client/lib/utils.tsx -->
<g id="edge61" class="edge">
<title>client/ui/Pagination.tsx&#45;&gt;client/lib/utils.tsx</title>
<path fill="none" stroke="#757575" d="M901.73,-726.28C1033.06,-741.11 1312.85,-778.42 1540,-847.56 1575.25,-858.29 1614.06,-874.68 1640.89,-886.78"/>
<polygon fill="#757575" stroke="#757575" points="1639.66,-890.06 1650.21,-891.02 1642.56,-883.69 1639.66,-890.06"/>
</g>
<!-- client/ui/Pagination.module.css -->
<g id="node37" class="node">
<title>client/ui/Pagination.module.css</title>
<path fill="none" stroke="#cfffac" d="M1247.83,-628.06C1247.83,-628.06 1060.17,-628.06 1060.17,-628.06 1056.33,-628.06 1052.5,-624.23 1052.5,-620.39 1052.5,-620.39 1052.5,-612.73 1052.5,-612.73 1052.5,-608.89 1056.33,-605.06 1060.17,-605.06 1060.17,-605.06 1247.83,-605.06 1247.83,-605.06 1251.67,-605.06 1255.5,-608.89 1255.5,-612.73 1255.5,-612.73 1255.5,-620.39 1255.5,-620.39 1255.5,-624.23 1251.67,-628.06 1247.83,-628.06"/>
<text text-anchor="middle" x="1154" y="-612.86" font-family="Arial" font-size="14.00" fill="#cfffac">client/ui/Pagination.module.css</text>
</g>
<!-- client/ui/Pagination.tsx&#45;&gt;client/ui/Pagination.module.css -->
<g id="edge62" class="edge">
<title>client/ui/Pagination.tsx&#45;&gt;client/ui/Pagination.module.css</title>
<path fill="none" stroke="#757575" d="M849.02,-706.94C883.6,-689.19 953.19,-655.52 1016,-637.56 1026.1,-634.67 1036.73,-632.16 1047.43,-629.98"/>
<polygon fill="#757575" stroke="#757575" points="1048.11,-633.41 1057.26,-628.07 1046.77,-626.54 1048.11,-633.41"/>
</g>
<!-- client/ui/Select.tsx -->
<g id="node38" class="node">
<title>client/ui/Select.tsx</title>
<path fill="none" stroke="#c6c5fe" d="M1208.83,-710.06C1208.83,-710.06 1099.17,-710.06 1099.17,-710.06 1095.33,-710.06 1091.5,-706.23 1091.5,-702.39 1091.5,-702.39 1091.5,-694.73 1091.5,-694.73 1091.5,-690.89 1095.33,-687.06 1099.17,-687.06 1099.17,-687.06 1208.83,-687.06 1208.83,-687.06 1212.67,-687.06 1216.5,-690.89 1216.5,-694.73 1216.5,-694.73 1216.5,-702.39 1216.5,-702.39 1216.5,-706.23 1212.67,-710.06 1208.83,-710.06"/>
<text text-anchor="middle" x="1154" y="-694.86" font-family="Arial" font-size="14.00" fill="#c6c5fe">client/ui/Select.tsx</text>
</g>
<!-- client/ui/Pagination.tsx&#45;&gt;client/ui/Select.tsx -->
<g id="edge63" class="edge">
<title>client/ui/Pagination.tsx&#45;&gt;client/ui/Select.tsx</title>
<path fill="none" stroke="#757575" d="M901.79,-713.97C955.74,-710.66 1028.14,-706.22 1081.36,-702.96"/>
<polygon fill="#757575" stroke="#757575" points="1081.63,-706.45 1091.4,-702.34 1081.2,-699.46 1081.63,-706.45"/>
</g>
<!-- client/pages/users/UI/InfoCircle.module.css -->
<g id="node30" class="node">
<title>client/pages/users/UI/InfoCircle.module.css</title>
<path fill="none" stroke="#cfffac" d="M1284.33,-1247.06C1284.33,-1247.06 1023.67,-1247.06 1023.67,-1247.06 1019.83,-1247.06 1016,-1243.23 1016,-1239.39 1016,-1239.39 1016,-1231.73 1016,-1231.73 1016,-1227.89 1019.83,-1224.06 1023.67,-1224.06 1023.67,-1224.06 1284.33,-1224.06 1284.33,-1224.06 1288.17,-1224.06 1292,-1227.89 1292,-1231.73 1292,-1231.73 1292,-1239.39 1292,-1239.39 1292,-1243.23 1288.17,-1247.06 1284.33,-1247.06"/>
<text text-anchor="middle" x="1154" y="-1231.86" font-family="Arial" font-size="14.00" fill="#cfffac">client/pages/users/UI/InfoCircle.module.css</text>
</g>
<!-- client/pages/users/UI/InfoCircle.tsx&#45;&gt;client/pages/users/UI/InfoCircle.module.css -->
<g id="edge52" class="edge">
<title>client/pages/users/UI/InfoCircle.tsx&#45;&gt;client/pages/users/UI/InfoCircle.module.css</title>
<path fill="none" stroke="#757575" d="M938.28,-1213.83C967.53,-1216.79 999.26,-1220 1029.12,-1223.02"/>
<polygon fill="#757575" stroke="#757575" points="1028.87,-1226.51 1039.17,-1224.04 1029.58,-1219.55 1028.87,-1226.51"/>
</g>
<!-- client/ui/Checkbox.module.css -->
<g id="node31" class="node">
<title>client/ui/Checkbox.module.css</title>
<path fill="none" stroke="#cfffac" d="M1767.33,-529.06C1767.33,-529.06 1583.67,-529.06 1583.67,-529.06 1579.83,-529.06 1576,-525.23 1576,-521.39 1576,-521.39 1576,-513.73 1576,-513.73 1576,-509.89 1579.83,-506.06 1583.67,-506.06 1583.67,-506.06 1767.33,-506.06 1767.33,-506.06 1771.17,-506.06 1775,-509.89 1775,-513.73 1775,-513.73 1775,-521.39 1775,-521.39 1775,-525.23 1771.17,-529.06 1767.33,-529.06"/>
<text text-anchor="middle" x="1675.5" y="-513.86" font-family="Arial" font-size="14.00" fill="#cfffac">client/ui/Checkbox.module.css</text>
</g>
<!-- client/ui/Checkbox.tsx&#45;&gt;client/ui/Checkbox.module.css -->
<g id="edge53" class="edge">
<title>client/ui/Checkbox.tsx&#45;&gt;client/ui/Checkbox.module.css</title>
<path fill="none" stroke="#757575" d="M1507.51,-517.56C1525.8,-517.56 1545.84,-517.56 1565.49,-517.56"/>
<polygon fill="#757575" stroke="#757575" points="1565.72,-521.06 1575.72,-517.56 1565.72,-514.06 1565.72,-521.06"/>
</g>
<!-- client/ui/Collapse.module.css -->
<g id="node32" class="node">
<title>client/ui/Collapse.module.css</title>
<path fill="none" stroke="#cfffac" d="M1241.83,-548.06C1241.83,-548.06 1066.17,-548.06 1066.17,-548.06 1062.33,-548.06 1058.5,-544.23 1058.5,-540.39 1058.5,-540.39 1058.5,-532.73 1058.5,-532.73 1058.5,-528.89 1062.33,-525.06 1066.17,-525.06 1066.17,-525.06 1241.83,-525.06 1241.83,-525.06 1245.67,-525.06 1249.5,-528.89 1249.5,-532.73 1249.5,-532.73 1249.5,-540.39 1249.5,-540.39 1249.5,-544.23 1245.67,-548.06 1241.83,-548.06"/>
<text text-anchor="middle" x="1154" y="-532.86" font-family="Arial" font-size="14.00" fill="#cfffac">client/ui/Collapse.module.css</text>
</g>
<!-- client/ui/Collapse.tsx&#45;&gt;client/ui/Collapse.module.css -->
<g id="edge54" class="edge">
<title>client/ui/Collapse.tsx&#45;&gt;client/ui/Collapse.module.css</title>
<path fill="none" stroke="#757575" d="M896.14,-536.56C940.29,-536.56 998.38,-536.56 1048.14,-536.56"/>
<polygon fill="#757575" stroke="#757575" points="1048.3,-540.06 1058.3,-536.56 1048.3,-533.06 1048.3,-540.06"/>
</g>
<!-- client/ui/Popup.tsx&#45;&gt;client/lib/utils.tsx -->
<g id="edge64" class="edge">
<title>client/ui/Popup.tsx&#45;&gt;client/lib/utils.tsx</title>
<path fill="none" stroke="#757575" d="M1497.13,-778.18C1511.64,-781.94 1526.72,-786.95 1540,-793.56 1587.1,-817.01 1632.68,-859.36 1656.79,-883.79"/>
<polygon fill="#757575" stroke="#757575" points="1654.36,-886.32 1663.84,-891.05 1659.38,-881.44 1654.36,-886.32"/>
</g>
<!-- client/ui/TableFilters.tsx&#45;&gt;client/lib/utils.tsx -->
<g id="edge68" class="edge">
<title>client/ui/TableFilters.tsx&#45;&gt;client/lib/utils.tsx</title>
<path fill="none" stroke="#757575" d="M1232.41,-650.83C1329.69,-643.85 1489.99,-637.69 1540,-667.56 1620.87,-715.87 1657.55,-832.54 1669.67,-880.95"/>
<polygon fill="#757575" stroke="#757575" points="1666.33,-882.04 1672.06,-890.96 1673.14,-880.42 1666.33,-882.04"/>
</g>
<!-- client/ui/TableFilters.tsx&#45;&gt;client/ui/Checkbox.tsx -->
<g id="edge69" class="edge">
<title>client/ui/TableFilters.tsx&#45;&gt;client/ui/Checkbox.tsx</title>
<path fill="none" stroke="#757575" d="M1232.16,-653.94C1252.28,-650.96 1273.5,-645.94 1292,-637.56 1344.55,-613.78 1392.7,-564.38 1416.81,-536.96"/>
<polygon fill="#757575" stroke="#757575" points="1419.61,-539.07 1423.5,-529.21 1414.31,-534.49 1419.61,-539.07"/>
</g>
<!-- client/ui/Select.tsx&#45;&gt;client/lib/utils.tsx -->
<g id="edge65" class="edge">
<title>client/ui/Select.tsx&#45;&gt;client/lib/utils.tsx</title>
<path fill="none" stroke="#757575" d="M1216.65,-701.09C1310.84,-705.83 1485.42,-718.35 1540,-747.56 1598.86,-779.06 1643.62,-847.49 1663.38,-881.91"/>
<polygon fill="#757575" stroke="#757575" points="1660.34,-883.65 1668.28,-890.66 1666.44,-880.23 1660.34,-883.65"/>
</g>
<!-- client/ui/Select.tsx&#45;&gt;client/ui/Popup.tsx -->
<g id="edge66" class="edge">
<title>client/ui/Select.tsx&#45;&gt;client/ui/Popup.tsx</title>
<path fill="none" stroke="#757575" d="M1216.53,-706.82C1240.44,-710.91 1267.83,-716.7 1292,-724.56 1308.83,-730.03 1311.33,-735.63 1328,-741.56 1340.62,-746.05 1354.36,-750.06 1367.61,-753.5"/>
<polygon fill="#757575" stroke="#757575" points="1367.07,-756.98 1377.62,-756.03 1368.78,-750.19 1367.07,-756.98"/>
</g>
<!-- client/ui/Select.module.css -->
<g id="node39" class="node">
<title>client/ui/Select.module.css</title>
<path fill="none" stroke="#cfffac" d="M1514.33,-699.06C1514.33,-699.06 1353.67,-699.06 1353.67,-699.06 1349.83,-699.06 1346,-695.23 1346,-691.39 1346,-691.39 1346,-683.73 1346,-683.73 1346,-679.89 1349.83,-676.06 1353.67,-676.06 1353.67,-676.06 1514.33,-676.06 1514.33,-676.06 1518.17,-676.06 1522,-679.89 1522,-683.73 1522,-683.73 1522,-691.39 1522,-691.39 1522,-695.23 1518.17,-699.06 1514.33,-699.06"/>
<text text-anchor="middle" x="1434" y="-683.86" font-family="Arial" font-size="14.00" fill="#cfffac">client/ui/Select.module.css</text>
</g>
<!-- client/ui/Select.tsx&#45;&gt;client/ui/Select.module.css -->
<g id="edge67" class="edge">
<title>client/ui/Select.tsx&#45;&gt;client/ui/Select.module.css</title>
<path fill="none" stroke="#757575" d="M1216.7,-696.12C1251.65,-694.74 1296.16,-692.98 1335.7,-691.41"/>
<polygon fill="#757575" stroke="#757575" points="1336.05,-694.9 1345.91,-691.01 1335.78,-687.91 1336.05,-694.9"/>
</g>
<!-- knexfile.js -->
<g id="node40" class="node">
<title>knexfile.js</title>
<path fill="none" stroke="#cfffac" d="M1919.83,-218.06C1919.83,-218.06 1859.17,-218.06 1859.17,-218.06 1855.33,-218.06 1851.5,-214.23 1851.5,-210.39 1851.5,-210.39 1851.5,-202.73 1851.5,-202.73 1851.5,-198.89 1855.33,-195.06 1859.17,-195.06 1859.17,-195.06 1919.83,-195.06 1919.83,-195.06 1923.67,-195.06 1927.5,-198.89 1927.5,-202.73 1927.5,-202.73 1927.5,-210.39 1927.5,-210.39 1927.5,-214.23 1923.67,-218.06 1919.83,-218.06"/>
<text text-anchor="middle" x="1889.5" y="-202.86" font-family="Arial" font-size="14.00" fill="#cfffac">knexfile.js</text>
</g>
<!-- scripts/devUtils.js -->
<g id="node41" class="node">
<title>scripts/devUtils.js</title>
<path fill="none" stroke="#cfffac" d="M1942.33,-259.06C1942.33,-259.06 1836.67,-259.06 1836.67,-259.06 1832.83,-259.06 1829,-255.23 1829,-251.39 1829,-251.39 1829,-243.73 1829,-243.73 1829,-239.89 1832.83,-236.06 1836.67,-236.06 1836.67,-236.06 1942.33,-236.06 1942.33,-236.06 1946.17,-236.06 1950,-239.89 1950,-243.73 1950,-243.73 1950,-251.39 1950,-251.39 1950,-255.23 1946.17,-259.06 1942.33,-259.06"/>
<text text-anchor="middle" x="1889.5" y="-243.86" font-family="Arial" font-size="14.00" fill="#cfffac">scripts/devUtils.js</text>
</g>
<!-- server/lib/graphql/index.ts -->
<g id="node42" class="node">
<title>server/lib/graphql/index.ts</title>
<path fill="none" stroke="#c6c5fe" d="M903.33,-74.06C903.33,-74.06 748.67,-74.06 748.67,-74.06 744.83,-74.06 741,-70.23 741,-66.39 741,-66.39 741,-58.73 741,-58.73 741,-54.89 744.83,-51.06 748.67,-51.06 748.67,-51.06 903.33,-51.06 903.33,-51.06 907.17,-51.06 911,-54.89 911,-58.73 911,-58.73 911,-66.39 911,-66.39 911,-70.23 907.17,-74.06 903.33,-74.06"/>
<text text-anchor="middle" x="826" y="-58.86" font-family="Arial" font-size="14.00" fill="#c6c5fe">server/lib/graphql/index.ts</text>
</g>
<!-- server/lib/utils.ts -->
<g id="node43" class="node">
<title>server/lib/utils.ts</title>
<path fill="none" stroke="#c6c5fe" d="M1724.33,-238.06C1724.33,-238.06 1626.67,-238.06 1626.67,-238.06 1622.83,-238.06 1619,-234.23 1619,-230.39 1619,-230.39 1619,-222.73 1619,-222.73 1619,-218.89 1622.83,-215.06 1626.67,-215.06 1626.67,-215.06 1724.33,-215.06 1724.33,-215.06 1728.17,-215.06 1732,-218.89 1732,-222.73 1732,-222.73 1732,-230.39 1732,-230.39 1732,-234.23 1728.17,-238.06 1724.33,-238.06"/>
<text text-anchor="middle" x="1675.5" y="-222.86" font-family="Arial" font-size="14.00" fill="#c6c5fe">server/lib/utils.ts</text>
</g>
<!-- server/lib/graphql/index.ts&#45;&gt;server/lib/utils.ts -->
<g id="edge70" class="edge">
<title>server/lib/graphql/index.ts&#45;&gt;server/lib/utils.ts</title>
<path fill="none" stroke="#757575" d="M867.06,-51.02C979.81,-20.84 1306.76,50.65 1540,-60.56 1603.66,-90.91 1646.95,-167.74 1665.01,-205.27"/>
<polygon fill="#757575" stroke="#757575" points="1662.03,-207.16 1669.43,-214.74 1668.37,-204.2 1662.03,-207.16"/>
</g>
<!-- server/models/Todo.ts -->
<g id="node44" class="node">
<title>server/models/Todo.ts</title>
<path fill="none" stroke="#ff6c60" d="M1220.83,-119.06C1220.83,-119.06 1087.17,-119.06 1087.17,-119.06 1083.33,-119.06 1079.5,-115.23 1079.5,-111.39 1079.5,-111.39 1079.5,-103.73 1079.5,-103.73 1079.5,-99.89 1083.33,-96.06 1087.17,-96.06 1087.17,-96.06 1220.83,-96.06 1220.83,-96.06 1224.67,-96.06 1228.5,-99.89 1228.5,-103.73 1228.5,-103.73 1228.5,-111.39 1228.5,-111.39 1228.5,-115.23 1224.67,-119.06 1220.83,-119.06"/>
<text text-anchor="middle" x="1154" y="-103.86" font-family="Arial" font-size="14.00" fill="#ff6c60">server/models/Todo.ts</text>
</g>
<!-- server/lib/graphql/index.ts&#45;&gt;server/models/Todo.ts -->
<g id="edge71" class="edge">
<title>server/lib/graphql/index.ts&#45;&gt;server/models/Todo.ts</title>
<path fill="none" stroke="#757575" d="M911.2,-73.36C933.57,-76.29 957.71,-79.49 980,-82.56 1009.05,-86.56 1040.82,-91.1 1069.12,-95.21"/>
<polygon fill="#757575" stroke="#757575" points="1068.97,-98.72 1079.37,-96.7 1069.98,-91.79 1068.97,-98.72"/>
</g>
<!-- server/lib/utils.ts&#45;&gt;server/lib/sharedUtils.ts -->
<g id="edge77" class="edge">
<title>server/lib/utils.ts&#45;&gt;server/lib/sharedUtils.ts</title>
<path fill="none" stroke="#757575" d="M1699.19,-238.12C1737.1,-257.43 1813.44,-296.32 1856.69,-318.36"/>
<polygon fill="#757575" stroke="#757575" points="1855.16,-321.5 1865.65,-322.92 1858.33,-315.26 1855.16,-321.5"/>
</g>
<!-- server/lib/utils.ts&#45;&gt;knexfile.js -->
<g id="edge75" class="edge">
<title>server/lib/utils.ts&#45;&gt;knexfile.js</title>
<path fill="none" stroke="#757575" d="M1732.2,-221.31C1766.07,-218.11 1808.87,-214.07 1841.11,-211.03"/>
<polygon fill="#757575" stroke="#757575" points="1841.56,-214.51 1851.19,-210.08 1840.9,-207.54 1841.56,-214.51"/>
</g>
<!-- server/lib/utils.ts&#45;&gt;scripts/devUtils.js -->
<g id="edge76" class="edge">
<title>server/lib/utils.ts&#45;&gt;scripts/devUtils.js</title>
<path fill="none" stroke="#757575" d="M1732.2,-232.08C1758.64,-234.7 1790.52,-237.86 1818.57,-240.63"/>
<polygon fill="#757575" stroke="#757575" points="1818.42,-244.14 1828.71,-241.64 1819.11,-237.17 1818.42,-244.14"/>
</g>
<!-- server/models/Todo.ts&#45;&gt;server/lib/utils.ts -->
<g id="edge81" class="edge">
<title>server/models/Todo.ts&#45;&gt;server/lib/utils.ts</title>
<path fill="none" stroke="#757575" d="M1191.02,-95.99C1261.33,-75.48 1420.45,-39.4 1540,-89.56 1596.79,-113.39 1641.66,-174.18 1662.24,-206.17"/>
<polygon fill="#757575" stroke="#757575" points="1659.34,-208.13 1667.61,-214.74 1665.27,-204.41 1659.34,-208.13"/>
</g>
<!-- server/models/User.ts -->
<g id="node49" class="node">
<title>server/models/User.ts</title>
<path fill="none" stroke="#ff6c60" d="M1500.33,-122.06C1500.33,-122.06 1367.67,-122.06 1367.67,-122.06 1363.83,-122.06 1360,-118.23 1360,-114.39 1360,-114.39 1360,-106.73 1360,-106.73 1360,-102.89 1363.83,-99.06 1367.67,-99.06 1367.67,-99.06 1500.33,-99.06 1500.33,-99.06 1504.17,-99.06 1508,-102.89 1508,-106.73 1508,-106.73 1508,-114.39 1508,-114.39 1508,-118.23 1504.17,-122.06 1500.33,-122.06"/>
<text text-anchor="middle" x="1434" y="-106.86" font-family="Arial" font-size="14.00" fill="#ff6c60">server/models/User.ts</text>
</g>
<!-- server/models/Todo.ts&#45;&gt;server/models/User.ts -->
<g id="edge82" class="edge">
<title>server/models/Todo.ts&#45;&gt;server/models/User.ts</title>
<path fill="none" stroke="#757575" d="M1228.77,-102.32C1265.98,-101.85 1311.26,-102.27 1349.71,-103.42"/>
<polygon fill="#757575" stroke="#757575" points="1349.74,-106.92 1359.85,-103.75 1349.97,-99.93 1349.74,-106.92"/>
</g>
<!-- server/lib/ssrRoutes.ts -->
<g id="node45" class="node">
<title>server/lib/ssrRoutes.ts</title>
<path fill="none" stroke="#c6c5fe" d="M893.33,-236.06C893.33,-236.06 758.67,-236.06 758.67,-236.06 754.83,-236.06 751,-232.23 751,-228.39 751,-228.39 751,-220.73 751,-220.73 751,-216.89 754.83,-213.06 758.67,-213.06 758.67,-213.06 893.33,-213.06 893.33,-213.06 897.17,-213.06 901,-216.89 901,-220.73 901,-220.73 901,-228.39 901,-228.39 901,-232.23 897.17,-236.06 893.33,-236.06"/>
<text text-anchor="middle" x="826" y="-220.86" font-family="Arial" font-size="14.00" fill="#c6c5fe">server/lib/ssrRoutes.ts</text>
</g>
<!-- server/lib/ssrRoutes.ts&#45;&gt;client/lib/routerUtils.ts -->
<g id="edge72" class="edge">
<title>server/lib/ssrRoutes.ts&#45;&gt;client/lib/routerUtils.ts</title>
<path fill="none" stroke="#757575" d="M846.9,-236.09C921.37,-278.1 1191.67,-420.56 1433,-420.56 1433,-420.56 1433,-420.56 1676.5,-420.56 1914.24,-420.56 2040.5,-774.72 2069.15,-866.2"/>
<polygon fill="#757575" stroke="#757575" points="2065.88,-867.48 2072.16,-876.02 2072.57,-865.43 2065.88,-867.48"/>
</g>
<!-- server/lib/ssrRoutes.ts&#45;&gt;server/lib/utils.ts -->
<g id="edge73" class="edge">
<title>server/lib/ssrRoutes.ts&#45;&gt;server/lib/utils.ts</title>
<path fill="none" stroke="#757575" d="M901.1,-224.74C1064.42,-225.12 1453.19,-226.04 1608.62,-226.41"/>
<polygon fill="#757575" stroke="#757575" points="1608.95,-229.91 1618.96,-226.43 1608.97,-222.91 1608.95,-229.91"/>
</g>
<!-- server/lib/ssrRoutes.ts&#45;&gt;server/models/Todo.ts -->
<g id="edge74" class="edge">
<title>server/lib/ssrRoutes.ts&#45;&gt;server/models/Todo.ts</title>
<path fill="none" stroke="#757575" d="M901.37,-228.55C928.32,-226.54 957.62,-219.96 980,-203.56 1010.15,-181.47 985.95,-149.78 1016,-127.56 1031.32,-116.23 1050.28,-110 1069.17,-106.8"/>
<polygon fill="#757575" stroke="#757575" points="1069.91,-110.23 1079.32,-105.35 1068.93,-103.3 1069.91,-110.23"/>
</g>
<!-- server/main/index.ts -->
<g id="node46" class="node">
<title>server/main/index.ts</title>
<path fill="none" stroke="#c6c5fe" d="M147.83,-216.06C147.83,-216.06 25.17,-216.06 25.17,-216.06 21.33,-216.06 17.5,-212.23 17.5,-208.39 17.5,-208.39 17.5,-200.73 17.5,-200.73 17.5,-196.89 21.33,-193.06 25.17,-193.06 25.17,-193.06 147.83,-193.06 147.83,-193.06 151.67,-193.06 155.5,-196.89 155.5,-200.73 155.5,-200.73 155.5,-208.39 155.5,-208.39 155.5,-212.23 151.67,-216.06 147.83,-216.06"/>
<text text-anchor="middle" x="86.5" y="-200.86" font-family="Arial" font-size="14.00" fill="#c6c5fe">server/main/index.ts</text>
</g>
<!-- server/main/index.ts&#45;&gt;server/lib/utils.ts -->
<g id="edge78" class="edge">
<title>server/main/index.ts&#45;&gt;server/lib/utils.ts</title>
<path fill="none" stroke="#757575" d="M102.73,-216.24C155.94,-255.84 339.71,-382.56 512.5,-382.56 512.5,-382.56 512.5,-382.56 1155,-382.56 1326.32,-382.56 1383.71,-433.72 1540,-363.56 1596.18,-338.34 1641.33,-278.16 1662.1,-246.62"/>
<polygon fill="#757575" stroke="#757575" points="1665.07,-248.49 1667.53,-238.18 1659.18,-244.7 1665.07,-248.49"/>
</g>
<!-- server/models/index.ts -->
<g id="node47" class="node">
<title>server/models/index.ts</title>
<path fill="none" stroke="#c6c5fe" d="M894.33,-115.06C894.33,-115.06 757.67,-115.06 757.67,-115.06 753.83,-115.06 750,-111.23 750,-107.39 750,-107.39 750,-99.73 750,-99.73 750,-95.89 753.83,-92.06 757.67,-92.06 757.67,-92.06 894.33,-92.06 894.33,-92.06 898.17,-92.06 902,-95.89 902,-99.73 902,-99.73 902,-107.39 902,-107.39 902,-111.23 898.17,-115.06 894.33,-115.06"/>
<text text-anchor="middle" x="826" y="-99.86" font-family="Arial" font-size="14.00" fill="#c6c5fe">server/models/index.ts</text>
</g>
<!-- server/main/index.ts&#45;&gt;server/models/index.ts -->
<g id="edge79" class="edge">
<title>server/main/index.ts&#45;&gt;server/models/index.ts</title>
<path fill="none" stroke="#757575" d="M151.11,-193.05C169.74,-189.82 190.16,-186.41 209,-183.56 398.09,-154.95 620.79,-127.59 739.81,-113.48"/>
<polygon fill="#757575" stroke="#757575" points="740.43,-116.93 749.95,-112.28 739.6,-109.98 740.43,-116.93"/>
</g>
<!-- server/routes/index.ts -->
<g id="node48" class="node">
<title>server/routes/index.ts</title>
<path fill="none" stroke="#c6c5fe" d="M347.33,-216.06C347.33,-216.06 216.67,-216.06 216.67,-216.06 212.83,-216.06 209,-212.23 209,-208.39 209,-208.39 209,-200.73 209,-200.73 209,-196.89 212.83,-193.06 216.67,-193.06 216.67,-193.06 347.33,-193.06 347.33,-193.06 351.17,-193.06 355,-196.89 355,-200.73 355,-200.73 355,-208.39 355,-208.39 355,-212.23 351.17,-216.06 347.33,-216.06"/>
<text text-anchor="middle" x="282" y="-200.86" font-family="Arial" font-size="14.00" fill="#c6c5fe">server/routes/index.ts</text>
</g>
<!-- server/main/index.ts&#45;&gt;server/routes/index.ts -->
<g id="edge80" class="edge">
<title>server/main/index.ts&#45;&gt;server/routes/index.ts</title>
<path fill="none" stroke="#757575" d="M155.72,-204.56C169.55,-204.56 184.24,-204.56 198.51,-204.56"/>
<polygon fill="#757575" stroke="#757575" points="198.8,-208.06 208.8,-204.56 198.8,-201.06 198.8,-208.06"/>
</g>
<!-- server/models/index.ts&#45;&gt;server/models/Todo.ts -->
<g id="edge85" class="edge">
<title>server/models/index.ts&#45;&gt;server/models/Todo.ts</title>
<path fill="none" stroke="#757575" d="M902.2,-104.48C952.09,-105.1 1017.62,-105.9 1069.18,-106.53"/>
<polygon fill="#757575" stroke="#757575" points="1069.26,-110.03 1079.3,-106.66 1069.35,-103.03 1069.26,-110.03"/>
</g>
<!-- server/models/index.ts&#45;&gt;server/models/User.ts -->
<g id="edge86" class="edge">
<title>server/models/index.ts&#45;&gt;server/models/User.ts</title>
<path fill="none" stroke="#757575" d="M902.03,-95.26C994.06,-86.36 1154.75,-74.96 1292,-86.56 1317.11,-88.68 1344.48,-92.9 1368.36,-97.21"/>
<polygon fill="#757575" stroke="#757575" points="1367.9,-100.68 1378.37,-99.05 1369.17,-93.8 1367.9,-100.68"/>
</g>
<!-- server/routes/index.ts&#45;&gt;server/lib/graphql/index.ts -->
<g id="edge87" class="edge">
<title>server/routes/index.ts&#45;&gt;server/lib/graphql/index.ts</title>
<path fill="none" stroke="#757575" d="M295.52,-193.03C314.59,-176.18 352.73,-145.13 391,-129.56 502.01,-84.4 640.32,-69.44 730.56,-64.62"/>
<polygon fill="#757575" stroke="#757575" points="730.96,-68.1 740.77,-64.1 730.61,-61.11 730.96,-68.1"/>
</g>
<!-- server/routes/index.ts&#45;&gt;server/lib/utils.ts -->
<g id="edge88" class="edge">
<title>server/routes/index.ts&#45;&gt;server/lib/utils.ts</title>
<path fill="none" stroke="#757575" d="M308.64,-216.24C330.19,-225.57 362.02,-238.26 391,-245.56 579.65,-293.07 630.45,-302.56 825,-302.56 825,-302.56 825,-302.56 1155,-302.56 1324.74,-302.56 1522.41,-262.35 1617.57,-240.42"/>
<polygon fill="#757575" stroke="#757575" points="1618.61,-243.78 1627.56,-238.1 1617.03,-236.96 1618.61,-243.78"/>
</g>
<!-- server/routes/session.ts -->
<g id="node50" class="node">
<title>server/routes/session.ts</title>
<path fill="none" stroke="#c6c5fe" d="M1505.83,-354.06C1505.83,-354.06 1362.17,-354.06 1362.17,-354.06 1358.33,-354.06 1354.5,-350.23 1354.5,-346.39 1354.5,-346.39 1354.5,-338.73 1354.5,-338.73 1354.5,-334.89 1358.33,-331.06 1362.17,-331.06 1362.17,-331.06 1505.83,-331.06 1505.83,-331.06 1509.67,-331.06 1513.5,-334.89 1513.5,-338.73 1513.5,-338.73 1513.5,-346.39 1513.5,-346.39 1513.5,-350.23 1509.67,-354.06 1505.83,-354.06"/>
<text text-anchor="middle" x="1434" y="-338.86" font-family="Arial" font-size="14.00" fill="#c6c5fe">server/routes/session.ts</text>
</g>
<!-- server/routes/index.ts&#45;&gt;server/routes/session.ts -->
<g id="edge89" class="edge">
<title>server/routes/index.ts&#45;&gt;server/routes/session.ts</title>
<path fill="none" stroke="#757575" d="M289.8,-216.25C304.59,-240.36 342.29,-295.14 391,-316.56 560.38,-391.04 1124.1,-363.12 1344.03,-348.87"/>
<polygon fill="#757575" stroke="#757575" points="1344.49,-352.35 1354.24,-348.2 1344.04,-345.36 1344.49,-352.35"/>
</g>
<!-- server/routes/ssr.ts -->
<g id="node51" class="node">
<title>server/routes/ssr.ts</title>
<path fill="none" stroke="#c6c5fe" d="M571.33,-236.06C571.33,-236.06 455.67,-236.06 455.67,-236.06 451.83,-236.06 448,-232.23 448,-228.39 448,-228.39 448,-220.73 448,-220.73 448,-216.89 451.83,-213.06 455.67,-213.06 455.67,-213.06 571.33,-213.06 571.33,-213.06 575.17,-213.06 579,-216.89 579,-220.73 579,-220.73 579,-228.39 579,-228.39 579,-232.23 575.17,-236.06 571.33,-236.06"/>
<text text-anchor="middle" x="513.5" y="-220.86" font-family="Arial" font-size="14.00" fill="#c6c5fe">server/routes/ssr.ts</text>
</g>
<!-- server/routes/index.ts&#45;&gt;server/routes/ssr.ts -->
<g id="edge90" class="edge">
<title>server/routes/index.ts&#45;&gt;server/routes/ssr.ts</title>
<path fill="none" stroke="#757575" d="M355.3,-210.86C381.63,-213.16 411.43,-215.75 437.95,-218.06"/>
<polygon fill="#757575" stroke="#757575" points="437.68,-221.55 447.94,-218.94 438.28,-214.58 437.68,-221.55"/>
</g>
<!-- server/routes/todos.ts -->
<g id="node52" class="node">
<title>server/routes/todos.ts</title>
<path fill="none" stroke="#c6c5fe" d="M891.33,-195.06C891.33,-195.06 760.67,-195.06 760.67,-195.06 756.83,-195.06 753,-191.23 753,-187.39 753,-187.39 753,-179.73 753,-179.73 753,-175.89 756.83,-172.06 760.67,-172.06 760.67,-172.06 891.33,-172.06 891.33,-172.06 895.17,-172.06 899,-175.89 899,-179.73 899,-179.73 899,-187.39 899,-187.39 899,-191.23 895.17,-195.06 891.33,-195.06"/>
<text text-anchor="middle" x="826" y="-179.86" font-family="Arial" font-size="14.00" fill="#c6c5fe">server/routes/todos.ts</text>
</g>
<!-- server/routes/index.ts&#45;&gt;server/routes/todos.ts -->
<g id="edge91" class="edge">
<title>server/routes/index.ts&#45;&gt;server/routes/todos.ts</title>
<path fill="none" stroke="#757575" d="M355.25,-201.76C455.66,-197.87 636.93,-190.85 742.52,-186.76"/>
<polygon fill="#757575" stroke="#757575" points="742.96,-190.24 752.81,-186.36 742.68,-183.25 742.96,-190.24"/>
</g>
<!-- server/routes/users.ts -->
<g id="node53" class="node">
<title>server/routes/users.ts</title>
<path fill="none" stroke="#c6c5fe" d="M1219.33,-160.06C1219.33,-160.06 1088.67,-160.06 1088.67,-160.06 1084.83,-160.06 1081,-156.23 1081,-152.39 1081,-152.39 1081,-144.73 1081,-144.73 1081,-140.89 1084.83,-137.06 1088.67,-137.06 1088.67,-137.06 1219.33,-137.06 1219.33,-137.06 1223.17,-137.06 1227,-140.89 1227,-144.73 1227,-144.73 1227,-152.39 1227,-152.39 1227,-156.23 1223.17,-160.06 1219.33,-160.06"/>
<text text-anchor="middle" x="1154" y="-144.86" font-family="Arial" font-size="14.00" fill="#c6c5fe">server/routes/users.ts</text>
</g>
<!-- server/routes/index.ts&#45;&gt;server/routes/users.ts -->
<g id="edge92" class="edge">
<title>server/routes/index.ts&#45;&gt;server/routes/users.ts</title>
<path fill="none" stroke="#757575" d="M351.75,-193.03C364.76,-191.05 378.28,-189.13 391,-187.56 515.44,-172.25 546.84,-169.94 672,-162.56 811.81,-154.31 974.78,-150.86 1070.62,-149.47"/>
<polygon fill="#757575" stroke="#757575" points="1070.87,-152.96 1080.82,-149.32 1070.77,-145.96 1070.87,-152.96"/>
</g>
<!-- server/models/User.ts&#45;&gt;server/lib/utils.ts -->
<g id="edge83" class="edge">
<title>server/models/User.ts&#45;&gt;server/lib/utils.ts</title>
<path fill="none" stroke="#757575" d="M1496.99,-122.13C1511.43,-125.85 1526.52,-130.6 1540,-136.56 1582.94,-155.54 1627.13,-188.09 1652.64,-208.41"/>
<polygon fill="#757575" stroke="#757575" points="1650.57,-211.23 1660.55,-214.79 1654.97,-205.79 1650.57,-211.23"/>
</g>
<!-- server/models/User.ts&#45;&gt;server/models/Todo.ts -->
<g id="edge84" class="edge">
<title>server/models/User.ts&#45;&gt;server/models/Todo.ts</title>
<path fill="none" stroke="#757575" d="M1359.85,-115.8C1322.73,-116.28 1277.46,-115.87 1238.93,-114.72"/>
<polygon fill="#757575" stroke="#757575" points="1238.88,-111.22 1228.77,-114.4 1238.65,-118.21 1238.88,-111.22"/>
</g>
<!-- server/routes/session.ts&#45;&gt;server/lib/utils.ts -->
<g id="edge93" class="edge">
<title>server/routes/session.ts&#45;&gt;server/lib/utils.ts</title>
<path fill="none" stroke="#757575" d="M1496.99,-330.99C1511.43,-327.27 1526.52,-322.52 1540,-316.56 1582.94,-297.58 1627.13,-265.03 1652.64,-244.71"/>
<polygon fill="#757575" stroke="#757575" points="1654.97,-247.33 1660.55,-238.33 1650.57,-241.89 1654.97,-247.33"/>
</g>
<!-- server/routes/ssr.ts&#45;&gt;server/lib/utils.ts -->
<g id="edge95" class="edge">
<title>server/routes/ssr.ts&#45;&gt;server/lib/utils.ts</title>
<path fill="none" stroke="#757575" d="M579.06,-235.13C607.48,-239.28 641.31,-243.52 672,-245.56 792.97,-253.59 1444.22,-244.69 1540,-239.56 1562.45,-238.36 1586.94,-236.23 1608.79,-234.05"/>
<polygon fill="#757575" stroke="#757575" points="1609.37,-237.51 1618.96,-233.01 1608.65,-230.54 1609.37,-237.51"/>
</g>
<!-- server/routes/ssr.ts&#45;&gt;server/lib/ssrRoutes.ts -->
<g id="edge94" class="edge">
<title>server/routes/ssr.ts&#45;&gt;server/lib/ssrRoutes.ts</title>
<path fill="none" stroke="#757575" d="M579.21,-224.56C626.02,-224.56 689.7,-224.56 740.52,-224.56"/>
<polygon fill="#757575" stroke="#757575" points="740.83,-228.06 750.83,-224.56 740.83,-221.06 740.83,-228.06"/>
</g>
<!-- server/routes/todos.ts&#45;&gt;server/lib/utils.ts -->
<g id="edge96" class="edge">
<title>server/routes/todos.ts&#45;&gt;server/lib/utils.ts</title>
<path fill="none" stroke="#757575" d="M899.26,-187.23C1061.45,-195.46 1452.46,-215.3 1608.54,-223.21"/>
<polygon fill="#757575" stroke="#757575" points="1608.75,-226.73 1618.92,-223.74 1609.11,-219.74 1608.75,-226.73"/>
</g>
<!-- server/routes/todos.ts&#45;&gt;server/models/Todo.ts -->
<g id="edge97" class="edge">
<title>server/routes/todos.ts&#45;&gt;server/models/Todo.ts</title>
<path fill="none" stroke="#757575" d="M860.76,-171.96C898.28,-159.45 960.85,-139.69 1016,-127.56 1033.07,-123.81 1051.5,-120.57 1069.14,-117.86"/>
<polygon fill="#757575" stroke="#757575" points="1070.04,-121.27 1079.42,-116.33 1069.01,-114.34 1070.04,-121.27"/>
</g>
<!-- server/routes/users.ts&#45;&gt;server/lib/utils.ts -->
<g id="edge98" class="edge">
<title>server/routes/users.ts&#45;&gt;server/lib/utils.ts</title>
<path fill="none" stroke="#757575" d="M1227.23,-147.01C1305.29,-146.81 1432.9,-150.82 1540,-174.56 1575.92,-182.52 1614.92,-198.48 1641.63,-210.63"/>
<polygon fill="#757575" stroke="#757575" points="1640.34,-213.89 1650.88,-214.91 1643.28,-207.53 1640.34,-213.89"/>
</g>
<!-- server/routes/users.ts&#45;&gt;server/models/User.ts -->
<g id="edge99" class="edge">
<title>server/routes/users.ts&#45;&gt;server/models/User.ts</title>
<path fill="none" stroke="#757575" d="M1227.32,-138.68C1264.68,-133.57 1310.47,-127.31 1349.35,-122"/>
<polygon fill="#757575" stroke="#757575" points="1350.16,-125.42 1359.6,-120.59 1349.21,-118.48 1350.16,-125.42"/>
</g>
</g>
</svg>
