<?xml version="1.0" encoding="UTF-8" standalone="no"?>
<!DOCTYPE svg PUBLIC "-//W3C//DTD SVG 1.1//EN"
 "http://www.w3.org/Graphics/SVG/1.1/DTD/svg11.dtd">
<!-- Generated by graphviz version 2.43.0 (0)
 -->
<!-- Title: G Pages: 1 -->
<svg width="2011pt" height="1617pt"
 viewBox="0.00 0.00 2011.20 1617.39" xmlns="http://www.w3.org/2000/svg" xmlns:xlink="http://www.w3.org/1999/xlink">
<g id="graph0" class="graph" transform="scale(1 1) rotate(0) translate(21.6 1595.79)">
<title>G</title>
<polygon fill="#111111" stroke="transparent" points="-21.6,21.6 -21.6,-1595.79 1989.6,-1595.79 1989.6,21.6 -21.6,21.6"/>
<!-- client/common/Layout.module.css -->
<g id="node1" class="node">
<title>client/common/Layout.module.css</title>
<path fill="none" stroke="#cfffac" d="M1257.33,-1063.19C1257.33,-1063.19 1050.67,-1063.19 1050.67,-1063.19 1046.83,-1063.19 1043,-1059.36 1043,-1055.52 1043,-1055.52 1043,-1047.86 1043,-1047.86 1043,-1044.02 1046.83,-1040.19 1050.67,-1040.19 1050.67,-1040.19 1257.33,-1040.19 1257.33,-1040.19 1261.17,-1040.19 1265,-1044.02 1265,-1047.86 1265,-1047.86 1265,-1055.52 1265,-1055.52 1265,-1059.36 1261.17,-1063.19 1257.33,-1063.19"/>
<text text-anchor="middle" x="1154" y="-1047.99" font-family="Arial" font-size="14.00" fill="#cfffac">client/common/Layout.module.css</text>
</g>
<!-- client/common/Layout.tsx -->
<g id="node2" class="node">
<title>client/common/Layout.tsx</title>
<path fill="none" stroke="#c6c5fe" d="M903.33,-989.19C903.33,-989.19 748.67,-989.19 748.67,-989.19 744.83,-989.19 741,-985.36 741,-981.52 741,-981.52 741,-973.86 741,-973.86 741,-970.02 744.83,-966.19 748.67,-966.19 748.67,-966.19 903.33,-966.19 903.33,-966.19 907.17,-966.19 911,-970.02 911,-973.86 911,-973.86 911,-981.52 911,-981.52 911,-985.36 907.17,-989.19 903.33,-989.19"/>
<text text-anchor="middle" x="826" y="-973.99" font-family="Arial" font-size="14.00" fill="#c6c5fe">client/common/Layout.tsx</text>
</g>
<!-- client/common/Layout.tsx&#45;&gt;client/common/Layout.module.css -->
<g id="edge1" class="edge">
<title>client/common/Layout.tsx&#45;&gt;client/common/Layout.module.css</title>
<path fill="none" stroke="#757575" d="M911.1,-986.11C933.91,-989.96 958.3,-995.56 980,-1003.69 997.56,-1010.27 998.5,-1018.94 1016,-1025.69 1028.72,-1030.6 1042.48,-1034.6 1056.2,-1037.87"/>
<polygon fill="#757575" stroke="#757575" points="1055.64,-1041.33 1066.17,-1040.11 1057.18,-1034.5 1055.64,-1041.33"/>
</g>
<!-- client/globalStore/store.ts -->
<g id="node3" class="node">
<title>client/globalStore/store.ts</title>
<path fill="none" stroke="#c6c5fe" d="M1230.33,-1104.19C1230.33,-1104.19 1077.67,-1104.19 1077.67,-1104.19 1073.83,-1104.19 1070,-1100.36 1070,-1096.52 1070,-1096.52 1070,-1088.86 1070,-1088.86 1070,-1085.02 1073.83,-1081.19 1077.67,-1081.19 1077.67,-1081.19 1230.33,-1081.19 1230.33,-1081.19 1234.17,-1081.19 1238,-1085.02 1238,-1088.86 1238,-1088.86 1238,-1096.52 1238,-1096.52 1238,-1100.36 1234.17,-1104.19 1230.33,-1104.19"/>
<text text-anchor="middle" x="1154" y="-1088.99" font-family="Arial" font-size="14.00" fill="#c6c5fe">client/globalStore/store.ts</text>
</g>
<!-- client/common/Layout.tsx&#45;&gt;client/globalStore/store.ts -->
<g id="edge2" class="edge">
<title>client/common/Layout.tsx&#45;&gt;client/globalStore/store.ts</title>
<path fill="none" stroke="#757575" d="M911.04,-978.19C935.11,-981.81 960.18,-989.26 980,-1003.69 1007.97,-1024.04 987.8,-1052.66 1016,-1072.69 1028.78,-1081.77 1043.94,-1087.51 1059.44,-1091.04"/>
<polygon fill="#757575" stroke="#757575" points="1059.16,-1094.56 1069.65,-1093.06 1060.51,-1087.69 1059.16,-1094.56"/>
</g>
<!-- client/lib/router.tsx -->
<g id="node4" class="node">
<title>client/lib/router.tsx</title>
<path fill="none" stroke="#c6c5fe" d="M1208.83,-1257.19C1208.83,-1257.19 1099.17,-1257.19 1099.17,-1257.19 1095.33,-1257.19 1091.5,-1253.36 1091.5,-1249.52 1091.5,-1249.52 1091.5,-1241.86 1091.5,-1241.86 1091.5,-1238.02 1095.33,-1234.19 1099.17,-1234.19 1099.17,-1234.19 1208.83,-1234.19 1208.83,-1234.19 1212.67,-1234.19 1216.5,-1238.02 1216.5,-1241.86 1216.5,-1241.86 1216.5,-1249.52 1216.5,-1249.52 1216.5,-1253.36 1212.67,-1257.19 1208.83,-1257.19"/>
<text text-anchor="middle" x="1154" y="-1241.99" font-family="Arial" font-size="14.00" fill="#c6c5fe">client/lib/router.tsx</text>
</g>
<!-- client/common/Layout.tsx&#45;&gt;client/lib/router.tsx -->
<g id="edge3" class="edge">
<title>client/common/Layout.tsx&#45;&gt;client/lib/router.tsx</title>
<path fill="none" stroke="#757575" d="M911.01,-975.99C935.64,-979.43 961.02,-987.33 980,-1003.69 1018.96,-1037.28 988.67,-1070.11 1016,-1113.69 1046.19,-1161.82 1097.66,-1204.87 1128.19,-1227.93"/>
<polygon fill="#757575" stroke="#757575" points="1126.46,-1231.01 1136.58,-1234.17 1130.64,-1225.39 1126.46,-1231.01"/>
</g>
<!-- client/lib/utils.tsx -->
<g id="node5" class="node">
<title>client/lib/utils.tsx</title>
<path fill="none" stroke="#c6c5fe" d="M1724.83,-905.19C1724.83,-905.19 1626.17,-905.19 1626.17,-905.19 1622.33,-905.19 1618.5,-901.36 1618.5,-897.52 1618.5,-897.52 1618.5,-889.86 1618.5,-889.86 1618.5,-886.02 1622.33,-882.19 1626.17,-882.19 1626.17,-882.19 1724.83,-882.19 1724.83,-882.19 1728.67,-882.19 1732.5,-886.02 1732.5,-889.86 1732.5,-889.86 1732.5,-897.52 1732.5,-897.52 1732.5,-901.36 1728.67,-905.19 1724.83,-905.19"/>
<text text-anchor="middle" x="1675.5" y="-889.99" font-family="Arial" font-size="14.00" fill="#c6c5fe">client/lib/utils.tsx</text>
</g>
<!-- client/common/Layout.tsx&#45;&gt;client/lib/utils.tsx -->
<g id="edge4" class="edge">
<title>client/common/Layout.tsx&#45;&gt;client/lib/utils.tsx</title>
<path fill="none" stroke="#757575" d="M911.12,-985.8C943.83,-988.58 981.63,-991.33 1016,-992.69 1248.78,-1001.91 1318.19,-1050.9 1540,-979.69 1584.57,-965.38 1628.88,-932.52 1653.87,-911.81"/>
<polygon fill="#757575" stroke="#757575" points="1656.19,-914.43 1661.57,-905.3 1651.68,-909.08 1656.19,-914.43"/>
</g>
<!-- client/ui/Notifications.tsx -->
<g id="node6" class="node">
<title>client/ui/Notifications.tsx</title>
<path fill="none" stroke="#c6c5fe" d="M1226.83,-983.19C1226.83,-983.19 1081.17,-983.19 1081.17,-983.19 1077.33,-983.19 1073.5,-979.36 1073.5,-975.52 1073.5,-975.52 1073.5,-967.86 1073.5,-967.86 1073.5,-964.02 1077.33,-960.19 1081.17,-960.19 1081.17,-960.19 1226.83,-960.19 1226.83,-960.19 1230.67,-960.19 1234.5,-964.02 1234.5,-967.86 1234.5,-967.86 1234.5,-975.52 1234.5,-975.52 1234.5,-979.36 1230.67,-983.19 1226.83,-983.19"/>
<text text-anchor="middle" x="1154" y="-967.99" font-family="Arial" font-size="14.00" fill="#c6c5fe">client/ui/Notifications.tsx</text>
</g>
<!-- client/common/Layout.tsx&#45;&gt;client/ui/Notifications.tsx -->
<g id="edge5" class="edge">
<title>client/common/Layout.tsx&#45;&gt;client/ui/Notifications.tsx</title>
<path fill="none" stroke="#757575" d="M911.38,-976.14C957.95,-975.28 1015.79,-974.22 1063.2,-973.34"/>
<polygon fill="#757575" stroke="#757575" points="1063.53,-976.84 1073.46,-973.15 1063.4,-969.84 1063.53,-976.84"/>
</g>
<!-- client/globalStore/store.ts&#45;&gt;client/lib/utils.tsx -->
<g id="edge10" class="edge">
<title>client/globalStore/store.ts&#45;&gt;client/lib/utils.tsx</title>
<path fill="none" stroke="#757575" d="M1238.14,-1092.63C1319.43,-1089.36 1444.55,-1075.58 1540,-1025.69 1592.55,-998.22 1638.11,-943.48 1660.24,-913.85"/>
<polygon fill="#757575" stroke="#757575" points="1663.25,-915.66 1666.33,-905.52 1657.6,-911.53 1663.25,-915.66"/>
</g>
<!-- client/lib/router.tsx&#45;&gt;client/lib/utils.tsx -->
<g id="edge12" class="edge">
<title>client/lib/router.tsx&#45;&gt;client/lib/utils.tsx</title>
<path fill="none" stroke="#757575" d="M1216.81,-1252.61C1299.07,-1258.42 1445.14,-1256.43 1540,-1184.69 1631.16,-1115.75 1662.62,-970.17 1671.49,-915.26"/>
<polygon fill="#757575" stroke="#757575" points="1674.97,-915.67 1673.02,-905.26 1668.05,-914.61 1674.97,-915.67"/>
</g>
<!-- client/lib/context.tsx -->
<g id="node13" class="node">
<title>client/lib/context.tsx</title>
<path fill="none" stroke="#cfffac" d="M1948.83,-1451.19C1948.83,-1451.19 1830.17,-1451.19 1830.17,-1451.19 1826.33,-1451.19 1822.5,-1447.36 1822.5,-1443.52 1822.5,-1443.52 1822.5,-1435.86 1822.5,-1435.86 1822.5,-1432.02 1826.33,-1428.19 1830.17,-1428.19 1830.17,-1428.19 1948.83,-1428.19 1948.83,-1428.19 1952.67,-1428.19 1956.5,-1432.02 1956.5,-1435.86 1956.5,-1435.86 1956.5,-1443.52 1956.5,-1443.52 1956.5,-1447.36 1952.67,-1451.19 1948.83,-1451.19"/>
<text text-anchor="middle" x="1889.5" y="-1435.99" font-family="Arial" font-size="14.00" fill="#cfffac">client/lib/context.tsx</text>
</g>
<!-- client/lib/router.tsx&#45;&gt;client/lib/context.tsx -->
<g id="edge11" class="edge">
<title>client/lib/router.tsx&#45;&gt;client/lib/context.tsx</title>
<path fill="none" stroke="#757575" d="M1198.69,-1257.24C1325.81,-1290.87 1695.32,-1388.6 1834.57,-1425.43"/>
<polygon fill="#757575" stroke="#757575" points="1834.02,-1428.9 1844.58,-1428.07 1835.81,-1422.13 1834.02,-1428.9"/>
</g>
<!-- client/lib/utils.tsx&#45;&gt;client/lib/context.tsx -->
<g id="edge13" class="edge">
<title>client/lib/utils.tsx&#45;&gt;client/lib/context.tsx</title>
<path fill="none" stroke="#757575" d="M1681.03,-905.35C1707.75,-974.18 1844.97,-1327.57 1880.23,-1418.39"/>
<polygon fill="#757575" stroke="#757575" points="1877.04,-1419.86 1883.93,-1427.91 1883.57,-1417.32 1877.04,-1419.86"/>
</g>
<!-- server/lib/sharedUtils.ts -->
<g id="node14" class="node">
<title>server/lib/sharedUtils.ts</title>
<path fill="none" stroke="#cfffac" d="M1960.33,-622.19C1960.33,-622.19 1818.67,-622.19 1818.67,-622.19 1814.83,-622.19 1811,-618.36 1811,-614.52 1811,-614.52 1811,-606.86 1811,-606.86 1811,-603.02 1814.83,-599.19 1818.67,-599.19 1818.67,-599.19 1960.33,-599.19 1960.33,-599.19 1964.17,-599.19 1968,-603.02 1968,-606.86 1968,-606.86 1968,-614.52 1968,-614.52 1968,-618.36 1964.17,-622.19 1960.33,-622.19"/>
<text text-anchor="middle" x="1889.5" y="-606.99" font-family="Arial" font-size="14.00" fill="#cfffac">server/lib/sharedUtils.ts</text>
</g>
<!-- client/lib/utils.tsx&#45;&gt;server/lib/sharedUtils.ts -->
<g id="edge14" class="edge">
<title>client/lib/utils.tsx&#45;&gt;server/lib/sharedUtils.ts</title>
<path fill="none" stroke="#757575" d="M1685.34,-881.89C1718.08,-838.19 1832.64,-685.26 1873.71,-630.44"/>
<polygon fill="#757575" stroke="#757575" points="1876.66,-632.33 1879.86,-622.23 1871.06,-628.13 1876.66,-632.33"/>
</g>
<!-- client/ui/Notifications.tsx&#45;&gt;client/lib/utils.tsx -->
<g id="edge60" class="edge">
<title>client/ui/Notifications.tsx&#45;&gt;client/lib/utils.tsx</title>
<path fill="none" stroke="#757575" d="M1234.75,-976.9C1313.47,-980.01 1436.71,-979.42 1540,-954.69 1578.64,-945.44 1619.79,-925.04 1646.24,-910.37"/>
<polygon fill="#757575" stroke="#757575" points="1648.31,-913.22 1655.3,-905.26 1644.87,-907.13 1648.31,-913.22"/>
</g>
<!-- client/ui/Notifications.module.css -->
<g id="node35" class="node">
<title>client/ui/Notifications.module.css</title>
<path fill="none" stroke="#cfffac" d="M1532.33,-945.19C1532.33,-945.19 1335.67,-945.19 1335.67,-945.19 1331.83,-945.19 1328,-941.36 1328,-937.52 1328,-937.52 1328,-929.86 1328,-929.86 1328,-926.02 1331.83,-922.19 1335.67,-922.19 1335.67,-922.19 1532.33,-922.19 1532.33,-922.19 1536.17,-922.19 1540,-926.02 1540,-929.86 1540,-929.86 1540,-937.52 1540,-937.52 1540,-941.36 1536.17,-945.19 1532.33,-945.19"/>
<text text-anchor="middle" x="1434" y="-929.99" font-family="Arial" font-size="14.00" fill="#cfffac">client/ui/Notifications.module.css</text>
</g>
<!-- client/ui/Notifications.tsx&#45;&gt;client/ui/Notifications.module.css -->
<g id="edge61" class="edge">
<title>client/ui/Notifications.tsx&#45;&gt;client/ui/Notifications.module.css</title>
<path fill="none" stroke="#757575" d="M1234.66,-960.8C1266.94,-956.39 1304.48,-951.26 1338.16,-946.65"/>
<polygon fill="#757575" stroke="#757575" points="1339.04,-950.07 1348.47,-945.24 1338.09,-943.13 1339.04,-950.07"/>
</g>
<!-- client/css/bootstrap&#45;grid.css -->
<g id="node7" class="node">
<title>client/css/bootstrap&#45;grid.css</title>
<path fill="none" stroke="#cfffac" d="M597.33,-1533.19C597.33,-1533.19 429.67,-1533.19 429.67,-1533.19 425.83,-1533.19 422,-1529.36 422,-1525.52 422,-1525.52 422,-1517.86 422,-1517.86 422,-1514.02 425.83,-1510.19 429.67,-1510.19 429.67,-1510.19 597.33,-1510.19 597.33,-1510.19 601.17,-1510.19 605,-1514.02 605,-1517.86 605,-1517.86 605,-1525.52 605,-1525.52 605,-1529.36 601.17,-1533.19 597.33,-1533.19"/>
<text text-anchor="middle" x="513.5" y="-1517.99" font-family="Arial" font-size="14.00" fill="#cfffac">client/css/bootstrap&#45;grid.css</text>
</g>
<!-- client/css/fontawesome.min.css -->
<g id="node8" class="node">
<title>client/css/fontawesome.min.css</title>
<path fill="none" stroke="#cfffac" d="M609.33,-1492.19C609.33,-1492.19 417.67,-1492.19 417.67,-1492.19 413.83,-1492.19 410,-1488.36 410,-1484.52 410,-1484.52 410,-1476.86 410,-1476.86 410,-1473.02 413.83,-1469.19 417.67,-1469.19 417.67,-1469.19 609.33,-1469.19 609.33,-1469.19 613.17,-1469.19 617,-1473.02 617,-1476.86 617,-1476.86 617,-1484.52 617,-1484.52 617,-1488.36 613.17,-1492.19 609.33,-1492.19"/>
<text text-anchor="middle" x="513.5" y="-1476.99" font-family="Arial" font-size="14.00" fill="#cfffac">client/css/fontawesome.min.css</text>
</g>
<!-- client/css/index.css -->
<g id="node9" class="node">
<title>client/css/index.css</title>
<path fill="none" stroke="#c6c5fe" d="M340.33,-1492.19C340.33,-1492.19 223.67,-1492.19 223.67,-1492.19 219.83,-1492.19 216,-1488.36 216,-1484.52 216,-1484.52 216,-1476.86 216,-1476.86 216,-1473.02 219.83,-1469.19 223.67,-1469.19 223.67,-1469.19 340.33,-1469.19 340.33,-1469.19 344.17,-1469.19 348,-1473.02 348,-1476.86 348,-1476.86 348,-1484.52 348,-1484.52 348,-1488.36 344.17,-1492.19 340.33,-1492.19"/>
<text text-anchor="middle" x="282" y="-1476.99" font-family="Arial" font-size="14.00" fill="#c6c5fe">client/css/index.css</text>
</g>
<!-- client/css/index.css&#45;&gt;client/css/bootstrap&#45;grid.css -->
<g id="edge6" class="edge">
<title>client/css/index.css&#45;&gt;client/css/bootstrap&#45;grid.css</title>
<path fill="none" stroke="#757575" d="M340.67,-1492.22C356.93,-1495.39 374.64,-1498.75 391,-1501.69 403.74,-1503.98 417.26,-1506.3 430.46,-1508.52"/>
<polygon fill="#757575" stroke="#757575" points="430.05,-1512 440.48,-1510.19 431.2,-1505.09 430.05,-1512"/>
</g>
<!-- client/css/index.css&#45;&gt;client/css/fontawesome.min.css -->
<g id="edge7" class="edge">
<title>client/css/index.css&#45;&gt;client/css/fontawesome.min.css</title>
<path fill="none" stroke="#757575" d="M348.15,-1480.69C364.21,-1480.69 381.88,-1480.69 399.5,-1480.69"/>
<polygon fill="#757575" stroke="#757575" points="399.85,-1484.19 409.85,-1480.69 399.85,-1477.19 399.85,-1484.19"/>
</g>
<!-- client/css/regular.css -->
<g id="node10" class="node">
<title>client/css/regular.css</title>
<path fill="none" stroke="#cfffac" d="M576.33,-1451.19C576.33,-1451.19 450.67,-1451.19 450.67,-1451.19 446.83,-1451.19 443,-1447.36 443,-1443.52 443,-1443.52 443,-1435.86 443,-1435.86 443,-1432.02 446.83,-1428.19 450.67,-1428.19 450.67,-1428.19 576.33,-1428.19 576.33,-1428.19 580.17,-1428.19 584,-1432.02 584,-1435.86 584,-1435.86 584,-1443.52 584,-1443.52 584,-1447.36 580.17,-1451.19 576.33,-1451.19"/>
<text text-anchor="middle" x="513.5" y="-1435.99" font-family="Arial" font-size="14.00" fill="#cfffac">client/css/regular.css</text>
</g>
<!-- client/css/index.css&#45;&gt;client/css/regular.css -->
<g id="edge8" class="edge">
<title>client/css/index.css&#45;&gt;client/css/regular.css</title>
<path fill="none" stroke="#757575" d="M344.66,-1469.14C359.81,-1466.34 375.98,-1463.38 391,-1460.69 405.21,-1458.15 420.36,-1455.49 434.98,-1452.95"/>
<polygon fill="#757575" stroke="#757575" points="435.74,-1456.37 444.99,-1451.21 434.54,-1449.47 435.74,-1456.37"/>
</g>
<!-- client/css/solid.css -->
<g id="node11" class="node">
<title>client/css/solid.css</title>
<path fill="none" stroke="#cfffac" d="M569.83,-1574.19C569.83,-1574.19 457.17,-1574.19 457.17,-1574.19 453.33,-1574.19 449.5,-1570.36 449.5,-1566.52 449.5,-1566.52 449.5,-1558.86 449.5,-1558.86 449.5,-1555.02 453.33,-1551.19 457.17,-1551.19 457.17,-1551.19 569.83,-1551.19 569.83,-1551.19 573.67,-1551.19 577.5,-1555.02 577.5,-1558.86 577.5,-1558.86 577.5,-1566.52 577.5,-1566.52 577.5,-1570.36 573.67,-1574.19 569.83,-1574.19"/>
<text text-anchor="middle" x="513.5" y="-1558.99" font-family="Arial" font-size="14.00" fill="#cfffac">client/css/solid.css</text>
</g>
<!-- client/css/index.css&#45;&gt;client/css/solid.css -->
<g id="edge9" class="edge">
<title>client/css/index.css&#45;&gt;client/css/solid.css</title>
<path fill="none" stroke="#757575" d="M298.94,-1492.31C319.26,-1506.51 355.97,-1530.21 391,-1542.69 406.26,-1548.12 423.13,-1552.09 439.32,-1554.99"/>
<polygon fill="#757575" stroke="#757575" points="438.85,-1558.46 449.3,-1556.66 440.01,-1551.56 438.85,-1558.46"/>
</g>
<!-- client/globalStore/actions.ts -->
<g id="node12" class="node">
<title>client/globalStore/actions.ts</title>
<path fill="none" stroke="#cfffac" d="M596.33,-1292.19C596.33,-1292.19 430.67,-1292.19 430.67,-1292.19 426.83,-1292.19 423,-1288.36 423,-1284.52 423,-1284.52 423,-1276.86 423,-1276.86 423,-1273.02 426.83,-1269.19 430.67,-1269.19 430.67,-1269.19 596.33,-1269.19 596.33,-1269.19 600.17,-1269.19 604,-1273.02 604,-1276.86 604,-1276.86 604,-1284.52 604,-1284.52 604,-1288.36 600.17,-1292.19 596.33,-1292.19"/>
<text text-anchor="middle" x="513.5" y="-1276.99" font-family="Arial" font-size="14.00" fill="#cfffac">client/globalStore/actions.ts</text>
</g>
<!-- client/main/App.tsx -->
<g id="node15" class="node">
<title>client/main/App.tsx</title>
<path fill="none" stroke="#c6c5fe" d="M339.83,-1181.19C339.83,-1181.19 224.17,-1181.19 224.17,-1181.19 220.33,-1181.19 216.5,-1177.36 216.5,-1173.52 216.5,-1173.52 216.5,-1165.86 216.5,-1165.86 216.5,-1162.02 220.33,-1158.19 224.17,-1158.19 224.17,-1158.19 339.83,-1158.19 339.83,-1158.19 343.67,-1158.19 347.5,-1162.02 347.5,-1165.86 347.5,-1165.86 347.5,-1173.52 347.5,-1173.52 347.5,-1177.36 343.67,-1181.19 339.83,-1181.19"/>
<text text-anchor="middle" x="282" y="-1165.99" font-family="Arial" font-size="14.00" fill="#c6c5fe">client/main/App.tsx</text>
</g>
<!-- client/main/App.tsx&#45;&gt;client/globalStore/store.ts -->
<g id="edge16" class="edge">
<title>client/main/App.tsx&#45;&gt;client/globalStore/store.ts</title>
<path fill="none" stroke="#757575" d="M338.87,-1158.15C355.58,-1155.02 373.98,-1151.9 391,-1149.69 630.93,-1118.59 915.73,-1102.88 1059.7,-1096.41"/>
<polygon fill="#757575" stroke="#757575" points="1059.99,-1099.9 1069.82,-1095.96 1059.68,-1092.9 1059.99,-1099.9"/>
</g>
<!-- client/main/App.tsx&#45;&gt;client/lib/router.tsx -->
<g id="edge18" class="edge">
<title>client/main/App.tsx&#45;&gt;client/lib/router.tsx</title>
<path fill="none" stroke="#757575" d="M325.46,-1181.23C396.51,-1199.88 544.29,-1235.85 672,-1248.69 808.2,-1262.38 843.12,-1249.88 980,-1248.69 1013.19,-1248.4 1049.97,-1247.8 1081.04,-1247.22"/>
<polygon fill="#757575" stroke="#757575" points="1081.42,-1250.71 1091.35,-1247.02 1081.29,-1243.71 1081.42,-1250.71"/>
</g>
<!-- client/main/App.tsx&#45;&gt;client/lib/utils.tsx -->
<g id="edge19" class="edge">
<title>client/main/App.tsx&#45;&gt;client/lib/utils.tsx</title>
<path fill="none" stroke="#757575" d="M284.05,-1157.92C290.54,-1087.62 326.86,-723.37 391,-634.69 513.38,-465.49 616.18,-454.69 825,-454.69 825,-454.69 825,-454.69 1155,-454.69 1328.84,-454.69 1407.01,-411.74 1540,-523.69 1554.23,-535.67 1641.57,-794.98 1667.35,-872.19"/>
<polygon fill="#757575" stroke="#757575" points="1664.08,-873.45 1670.56,-881.83 1670.72,-871.24 1664.08,-873.45"/>
</g>
<!-- client/main/App.tsx&#45;&gt;client/globalStore/actions.ts -->
<g id="edge15" class="edge">
<title>client/main/App.tsx&#45;&gt;client/globalStore/actions.ts</title>
<path fill="none" stroke="#757575" d="M294.09,-1181.35C312.43,-1199.9 351.04,-1235.94 391,-1254.69 401.12,-1259.44 412.12,-1263.33 423.23,-1266.52"/>
<polygon fill="#757575" stroke="#757575" points="422.44,-1269.93 433,-1269.14 424.25,-1263.17 422.44,-1269.93"/>
</g>
<!-- client/main/App.tsx&#45;&gt;client/lib/context.tsx -->
<g id="edge17" class="edge">
<title>client/main/App.tsx&#45;&gt;client/lib/context.tsx</title>
<path fill="none" stroke="#757575" d="M286.98,-1181.35C298.2,-1212.41 333.04,-1297.83 391,-1342.69 481.27,-1412.55 533.98,-1368.51 636,-1419.69 653.64,-1428.54 653.43,-1439 672,-1445.69 873.56,-1518.34 938.75,-1477.69 1153,-1477.69 1153,-1477.69 1153,-1477.69 1435,-1477.69 1567.94,-1477.69 1722.05,-1461.27 1812.06,-1450.02"/>
<polygon fill="#757575" stroke="#757575" points="1812.69,-1453.47 1822.17,-1448.74 1811.82,-1446.52 1812.69,-1453.47"/>
</g>
<!-- client/pages/projectStructure/Index.tsx -->
<g id="node16" class="node">
<title>client/pages/projectStructure/Index.tsx</title>
<path fill="none" stroke="#c6c5fe" d="M628.33,-666.19C628.33,-666.19 398.67,-666.19 398.67,-666.19 394.83,-666.19 391,-662.36 391,-658.52 391,-658.52 391,-650.86 391,-650.86 391,-647.02 394.83,-643.19 398.67,-643.19 398.67,-643.19 628.33,-643.19 628.33,-643.19 632.17,-643.19 636,-647.02 636,-650.86 636,-650.86 636,-658.52 636,-658.52 636,-662.36 632.17,-666.19 628.33,-666.19"/>
<text text-anchor="middle" x="513.5" y="-650.99" font-family="Arial" font-size="14.00" fill="#c6c5fe">client/pages/projectStructure/Index.tsx</text>
</g>
<!-- client/main/App.tsx&#45;&gt;client/pages/projectStructure/Index.tsx -->
<g id="edge20" class="edge">
<title>client/main/App.tsx&#45;&gt;client/pages/projectStructure/Index.tsx</title>
<path fill="none" stroke="#757575" d="M285,-1158.13C293.19,-1112.55 326.82,-941.64 391,-815.69 419.65,-759.46 468.17,-702.62 494.39,-673.88"/>
<polygon fill="#757575" stroke="#757575" points="497.25,-675.95 501.46,-666.22 492.11,-671.2 497.25,-675.95"/>
</g>
<!-- client/pages/session/New.tsx -->
<g id="node17" class="node">
<title>client/pages/session/New.tsx</title>
<path fill="none" stroke="#c6c5fe" d="M600.33,-1181.19C600.33,-1181.19 426.67,-1181.19 426.67,-1181.19 422.83,-1181.19 419,-1177.36 419,-1173.52 419,-1173.52 419,-1165.86 419,-1165.86 419,-1162.02 422.83,-1158.19 426.67,-1158.19 426.67,-1158.19 600.33,-1158.19 600.33,-1158.19 604.17,-1158.19 608,-1162.02 608,-1165.86 608,-1165.86 608,-1173.52 608,-1173.52 608,-1177.36 604.17,-1181.19 600.33,-1181.19"/>
<text text-anchor="middle" x="513.5" y="-1165.99" font-family="Arial" font-size="14.00" fill="#c6c5fe">client/pages/session/New.tsx</text>
</g>
<!-- client/main/App.tsx&#45;&gt;client/pages/session/New.tsx -->
<g id="edge21" class="edge">
<title>client/main/App.tsx&#45;&gt;client/pages/session/New.tsx</title>
<path fill="none" stroke="#757575" d="M347.54,-1169.69C366.57,-1169.69 387.89,-1169.69 408.72,-1169.69"/>
<polygon fill="#757575" stroke="#757575" points="408.9,-1173.19 418.9,-1169.69 408.9,-1166.19 408.9,-1173.19"/>
</g>
<!-- client/pages/todos/Index.tsx -->
<g id="node18" class="node">
<title>client/pages/todos/Index.tsx</title>
<path fill="none" stroke="#c6c5fe" d="M597.33,-989.19C597.33,-989.19 429.67,-989.19 429.67,-989.19 425.83,-989.19 422,-985.36 422,-981.52 422,-981.52 422,-973.86 422,-973.86 422,-970.02 425.83,-966.19 429.67,-966.19 429.67,-966.19 597.33,-966.19 597.33,-966.19 601.17,-966.19 605,-970.02 605,-973.86 605,-973.86 605,-981.52 605,-981.52 605,-985.36 601.17,-989.19 597.33,-989.19"/>
<text text-anchor="middle" x="513.5" y="-973.99" font-family="Arial" font-size="14.00" fill="#c6c5fe">client/pages/todos/Index.tsx</text>
</g>
<!-- client/main/App.tsx&#45;&gt;client/pages/todos/Index.tsx -->
<g id="edge22" class="edge">
<title>client/main/App.tsx&#45;&gt;client/pages/todos/Index.tsx</title>
<path fill="none" stroke="#757575" d="M297.01,-1157.97C335.67,-1125.62 444.07,-1034.93 490.71,-995.92"/>
<polygon fill="#757575" stroke="#757575" points="493.25,-998.36 498.67,-989.26 488.76,-992.99 493.25,-998.36"/>
</g>
<!-- client/pages/users/@id.tsx -->
<g id="node19" class="node">
<title>client/pages/users/@id.tsx</title>
<path fill="none" stroke="#c6c5fe" d="M593.33,-1333.19C593.33,-1333.19 433.67,-1333.19 433.67,-1333.19 429.83,-1333.19 426,-1329.36 426,-1325.52 426,-1325.52 426,-1317.86 426,-1317.86 426,-1314.02 429.83,-1310.19 433.67,-1310.19 433.67,-1310.19 593.33,-1310.19 593.33,-1310.19 597.17,-1310.19 601,-1314.02 601,-1317.86 601,-1317.86 601,-1325.52 601,-1325.52 601,-1329.36 597.17,-1333.19 593.33,-1333.19"/>
<text text-anchor="middle" x="513.5" y="-1317.99" font-family="Arial" font-size="14.00" fill="#c6c5fe">client/pages/users/@id.tsx</text>
</g>
<!-- client/main/App.tsx&#45;&gt;client/pages/users/@id.tsx -->
<g id="edge23" class="edge">
<title>client/main/App.tsx&#45;&gt;client/pages/users/@id.tsx</title>
<path fill="none" stroke="#757575" d="M288.68,-1181.23C302.28,-1207.52 339.47,-1271.91 391,-1301.69 398.82,-1306.21 407.36,-1309.78 416.18,-1312.59"/>
<polygon fill="#757575" stroke="#757575" points="415.25,-1315.97 425.83,-1315.36 417.18,-1309.24 415.25,-1315.97"/>
</g>
<!-- client/pages/users/Index.tsx -->
<g id="node20" class="node">
<title>client/pages/users/Index.tsx</title>
<path fill="none" stroke="#c6c5fe" d="M597.33,-847.19C597.33,-847.19 429.67,-847.19 429.67,-847.19 425.83,-847.19 422,-843.36 422,-839.52 422,-839.52 422,-831.86 422,-831.86 422,-828.02 425.83,-824.19 429.67,-824.19 429.67,-824.19 597.33,-824.19 597.33,-824.19 601.17,-824.19 605,-828.02 605,-831.86 605,-831.86 605,-839.52 605,-839.52 605,-843.36 601.17,-847.19 597.33,-847.19"/>
<text text-anchor="middle" x="513.5" y="-831.99" font-family="Arial" font-size="14.00" fill="#c6c5fe">client/pages/users/Index.tsx</text>
</g>
<!-- client/main/App.tsx&#45;&gt;client/pages/users/Index.tsx -->
<g id="edge24" class="edge">
<title>client/main/App.tsx&#45;&gt;client/pages/users/Index.tsx</title>
<path fill="none" stroke="#757575" d="M287.46,-1157.94C300.41,-1124.66 340.33,-1027.59 391,-957.69 420.76,-916.63 464.43,-876.42 490.51,-853.96"/>
<polygon fill="#757575" stroke="#757575" points="492.97,-856.46 498.32,-847.31 488.43,-851.13 492.97,-856.46"/>
</g>
<!-- client/pages/projectStructure/Index.tsx&#45;&gt;client/common/Layout.tsx -->
<g id="edge28" class="edge">
<title>client/pages/projectStructure/Index.tsx&#45;&gt;client/common/Layout.tsx</title>
<path fill="none" stroke="#757575" d="M526.13,-666.49C550.29,-691.68 606.16,-753.49 636,-815.69 664.17,-874.39 623.32,-914.45 672,-957.69 688.17,-972.05 709.35,-979.34 730.78,-982.6"/>
<polygon fill="#757575" stroke="#757575" points="730.6,-986.1 740.96,-983.85 731.46,-979.15 730.6,-986.1"/>
</g>
<!-- client/pages/projectStructure/Index.tsx&#45;&gt;client/lib/utils.tsx -->
<g id="edge29" class="edge">
<title>client/pages/projectStructure/Index.tsx&#45;&gt;client/lib/utils.tsx</title>
<path fill="none" stroke="#757575" d="M529,-642.98C555.48,-622.41 614.29,-580.49 672,-564.69 765.03,-539.22 1460.21,-500.51 1540,-554.69 1595.95,-592.68 1652.17,-803.3 1669.26,-872.01"/>
<polygon fill="#757575" stroke="#757575" points="1665.96,-873.23 1671.74,-882.11 1672.75,-871.56 1665.96,-873.23"/>
</g>
<!-- client/pages/projectStructure/projectStructure.tsx -->
<g id="node22" class="node">
<title>client/pages/projectStructure/projectStructure.tsx</title>
<path fill="none" stroke="#cfffac" d="M972.33,-506.19C972.33,-506.19 679.67,-506.19 679.67,-506.19 675.83,-506.19 672,-502.36 672,-498.52 672,-498.52 672,-490.86 672,-490.86 672,-487.02 675.83,-483.19 679.67,-483.19 679.67,-483.19 972.33,-483.19 972.33,-483.19 976.17,-483.19 980,-487.02 980,-490.86 980,-490.86 980,-498.52 980,-498.52 980,-502.36 976.17,-506.19 972.33,-506.19"/>
<text text-anchor="middle" x="826" y="-490.99" font-family="Arial" font-size="14.00" fill="#cfffac">client/pages/projectStructure/projectStructure.tsx</text>
</g>
<!-- client/pages/projectStructure/Index.tsx&#45;&gt;client/pages/projectStructure/projectStructure.tsx -->
<g id="edge30" class="edge">
<title>client/pages/projectStructure/Index.tsx&#45;&gt;client/pages/projectStructure/projectStructure.tsx</title>
<path fill="none" stroke="#757575" d="M524.13,-643.02C546.81,-616.41 606.61,-551.21 672,-520.69 682.2,-515.93 693.14,-512.03 704.31,-508.84"/>
<polygon fill="#757575" stroke="#757575" points="705.41,-512.17 714.18,-506.21 703.61,-505.41 705.41,-512.17"/>
</g>
<!-- client/pages/session/New.tsx&#45;&gt;client/common/Layout.tsx -->
<g id="edge31" class="edge">
<title>client/pages/session/New.tsx&#45;&gt;client/common/Layout.tsx</title>
<path fill="none" stroke="#757575" d="M533.46,-1157.97C586.31,-1125.29 735.48,-1033.05 797.46,-994.72"/>
<polygon fill="#757575" stroke="#757575" points="799.63,-997.49 806.29,-989.26 795.95,-991.54 799.63,-997.49"/>
</g>
<!-- client/pages/session/New.tsx&#45;&gt;client/lib/router.tsx -->
<g id="edge32" class="edge">
<title>client/pages/session/New.tsx&#45;&gt;client/lib/router.tsx</title>
<path fill="none" stroke="#757575" d="M541.79,-1181.2C572.74,-1193.66 625.01,-1212.93 672,-1221.69 815.34,-1248.42 986.61,-1249.87 1081.23,-1248.08"/>
<polygon fill="#757575" stroke="#757575" points="1081.34,-1251.58 1091.26,-1247.87 1081.19,-1244.58 1081.34,-1251.58"/>
</g>
<!-- client/pages/session/New.tsx&#45;&gt;client/lib/utils.tsx -->
<g id="edge33" class="edge">
<title>client/pages/session/New.tsx&#45;&gt;client/lib/utils.tsx</title>
<path fill="none" stroke="#757575" d="M608.03,-1174.74C830.99,-1185.05 1386.56,-1200.06 1540,-1103.69 1612.15,-1058.38 1652.85,-958.65 1667.82,-914.93"/>
<polygon fill="#757575" stroke="#757575" points="1671.18,-915.92 1671,-905.32 1664.53,-913.72 1671.18,-915.92"/>
</g>
<!-- client/pages/todos/Index.tsx&#45;&gt;client/common/Layout.tsx -->
<g id="edge34" class="edge">
<title>client/pages/todos/Index.tsx&#45;&gt;client/common/Layout.tsx</title>
<path fill="none" stroke="#757575" d="M605.14,-977.69C644.58,-977.69 690.79,-977.69 730.64,-977.69"/>
<polygon fill="#757575" stroke="#757575" points="730.89,-981.19 740.89,-977.69 730.89,-974.19 730.89,-981.19"/>
</g>
<!-- client/pages/todos/Index.tsx&#45;&gt;client/globalStore/store.ts -->
<g id="edge35" class="edge">
<title>client/pages/todos/Index.tsx&#45;&gt;client/globalStore/store.ts</title>
<path fill="none" stroke="#757575" d="M571.14,-989.23C663.91,-1007.94 854.1,-1045.55 1016,-1072.69 1030.16,-1075.06 1045.16,-1077.42 1059.85,-1079.63"/>
<polygon fill="#757575" stroke="#757575" points="1059.55,-1083.13 1069.96,-1081.14 1060.59,-1076.2 1059.55,-1083.13"/>
</g>
<!-- client/pages/todos/Index.tsx&#45;&gt;client/lib/router.tsx -->
<g id="edge36" class="edge">
<title>client/pages/todos/Index.tsx&#45;&gt;client/lib/router.tsx</title>
<path fill="none" stroke="#757575" d="M521.67,-989.35C541.39,-1020.35 599.83,-1105.19 672,-1145.69 741.32,-1184.58 964.65,-1219.85 1081,-1236.15"/>
<polygon fill="#757575" stroke="#757575" points="1080.85,-1239.67 1091.23,-1237.58 1081.81,-1232.73 1080.85,-1239.67"/>
</g>
<!-- client/pages/todos/Index.tsx&#45;&gt;client/lib/utils.tsx -->
<g id="edge37" class="edge">
<title>client/pages/todos/Index.tsx&#45;&gt;client/lib/utils.tsx</title>
<path fill="none" stroke="#757575" d="M534.69,-989.29C564,-1005.62 620.48,-1035.26 672,-1051.69 935.83,-1135.85 1016.18,-1138.51 1292,-1113.69 1403.57,-1103.65 1444.35,-1127 1540,-1068.69 1602.2,-1030.77 1646.2,-952.65 1664.72,-914.96"/>
<polygon fill="#757575" stroke="#757575" points="1668.1,-916 1669.27,-905.46 1661.79,-912.97 1668.1,-916"/>
</g>
<!-- client/pages/todos/Index.tsx&#45;&gt;client/ui/Notifications.tsx -->
<g id="edge40" class="edge">
<title>client/pages/todos/Index.tsx&#45;&gt;client/ui/Notifications.tsx</title>
<path fill="none" stroke="#757575" d="M536.68,-966.07C566.48,-951.16 621.56,-926.12 672,-916.69 806.56,-891.54 850.9,-871.16 980,-916.69 999.38,-923.52 997.35,-937.07 1016,-945.69 1030.74,-952.5 1047.16,-957.53 1063.37,-961.24"/>
<polygon fill="#757575" stroke="#757575" points="1062.91,-964.72 1073.42,-963.38 1064.37,-957.87 1062.91,-964.72"/>
</g>
<!-- client/pages/todos/styles.module.css -->
<g id="node23" class="node">
<title>client/pages/todos/styles.module.css</title>
<path fill="none" stroke="#cfffac" d="M936.33,-948.19C936.33,-948.19 715.67,-948.19 715.67,-948.19 711.83,-948.19 708,-944.36 708,-940.52 708,-940.52 708,-932.86 708,-932.86 708,-929.02 711.83,-925.19 715.67,-925.19 715.67,-925.19 936.33,-925.19 936.33,-925.19 940.17,-925.19 944,-929.02 944,-932.86 944,-932.86 944,-940.52 944,-940.52 944,-944.36 940.17,-948.19 936.33,-948.19"/>
<text text-anchor="middle" x="826" y="-932.99" font-family="Arial" font-size="14.00" fill="#cfffac">client/pages/todos/styles.module.css</text>
</g>
<!-- client/pages/todos/Index.tsx&#45;&gt;client/pages/todos/styles.module.css -->
<g id="edge38" class="edge">
<title>client/pages/todos/Index.tsx&#45;&gt;client/pages/todos/styles.module.css</title>
<path fill="none" stroke="#757575" d="M601.82,-966.16C641.01,-960.99 687.39,-954.86 727.69,-949.54"/>
<polygon fill="#757575" stroke="#757575" points="728.34,-952.98 737.8,-948.2 727.43,-946.04 728.34,-952.98"/>
</g>
<!-- client/ui/HeaderCell.tsx -->
<g id="node24" class="node">
<title>client/ui/HeaderCell.tsx</title>
<path fill="none" stroke="#c6c5fe" d="M895.83,-868.19C895.83,-868.19 756.17,-868.19 756.17,-868.19 752.33,-868.19 748.5,-864.36 748.5,-860.52 748.5,-860.52 748.5,-852.86 748.5,-852.86 748.5,-849.02 752.33,-845.19 756.17,-845.19 756.17,-845.19 895.83,-845.19 895.83,-845.19 899.67,-845.19 903.5,-849.02 903.5,-852.86 903.5,-852.86 903.5,-860.52 903.5,-860.52 903.5,-864.36 899.67,-868.19 895.83,-868.19"/>
<text text-anchor="middle" x="826" y="-852.99" font-family="Arial" font-size="14.00" fill="#c6c5fe">client/ui/HeaderCell.tsx</text>
</g>
<!-- client/pages/todos/Index.tsx&#45;&gt;client/ui/HeaderCell.tsx -->
<g id="edge39" class="edge">
<title>client/pages/todos/Index.tsx&#45;&gt;client/ui/HeaderCell.tsx</title>
<path fill="none" stroke="#757575" d="M529.59,-965.89C556.54,-945.47 615.42,-903.7 672,-882.69 692.92,-874.92 716.31,-869.46 738.4,-865.62"/>
<polygon fill="#757575" stroke="#757575" points="739.14,-869.05 748.43,-863.97 738,-862.14 739.14,-869.05"/>
</g>
<!-- client/ui/Pagination.tsx -->
<g id="node25" class="node">
<title>client/ui/Pagination.tsx</title>
<path fill="none" stroke="#c6c5fe" d="M893.83,-825.19C893.83,-825.19 758.17,-825.19 758.17,-825.19 754.33,-825.19 750.5,-821.36 750.5,-817.52 750.5,-817.52 750.5,-809.86 750.5,-809.86 750.5,-806.02 754.33,-802.19 758.17,-802.19 758.17,-802.19 893.83,-802.19 893.83,-802.19 897.67,-802.19 901.5,-806.02 901.5,-809.86 901.5,-809.86 901.5,-817.52 901.5,-817.52 901.5,-821.36 897.67,-825.19 893.83,-825.19"/>
<text text-anchor="middle" x="826" y="-809.99" font-family="Arial" font-size="14.00" fill="#c6c5fe">client/ui/Pagination.tsx</text>
</g>
<!-- client/pages/todos/Index.tsx&#45;&gt;client/ui/Pagination.tsx -->
<g id="edge41" class="edge">
<title>client/pages/todos/Index.tsx&#45;&gt;client/ui/Pagination.tsx</title>
<path fill="none" stroke="#757575" d="M523.29,-966.14C545.05,-938.48 604.58,-868.4 672,-836.69 693.07,-826.78 717.41,-820.94 740.39,-817.56"/>
<polygon fill="#757575" stroke="#757575" points="741.04,-821 750.49,-816.21 740.11,-814.07 741.04,-821"/>
</g>
<!-- client/pages/users/@id.tsx&#45;&gt;client/common/Layout.tsx -->
<g id="edge42" class="edge">
<title>client/pages/users/@id.tsx&#45;&gt;client/common/Layout.tsx</title>
<path fill="none" stroke="#757575" d="M601.16,-1317.09C613.56,-1313.76 625.61,-1308.84 636,-1301.69 747.85,-1224.69 802.88,-1058.16 819.45,-999.04"/>
<polygon fill="#757575" stroke="#757575" points="822.85,-999.87 822.1,-989.3 816.1,-998.03 822.85,-999.87"/>
</g>
<!-- client/pages/users/@id.tsx&#45;&gt;client/lib/router.tsx -->
<g id="edge43" class="edge">
<title>client/pages/users/@id.tsx&#45;&gt;client/lib/router.tsx</title>
<path fill="none" stroke="#757575" d="M601.41,-1323.41C695.44,-1323.83 849.44,-1320.34 980,-1297.69 1026.55,-1289.62 1078.21,-1273.04 1112.86,-1260.76"/>
<polygon fill="#757575" stroke="#757575" points="1114.37,-1263.94 1122.6,-1257.27 1112,-1257.35 1114.37,-1263.94"/>
</g>
<!-- client/pages/users/@id.tsx&#45;&gt;client/lib/utils.tsx -->
<g id="edge44" class="edge">
<title>client/pages/users/@id.tsx&#45;&gt;client/lib/utils.tsx</title>
<path fill="none" stroke="#757575" d="M601.15,-1330.09C613.69,-1334.08 625.79,-1339.74 636,-1347.69 664.54,-1369.92 641.28,-1401.59 672,-1420.69 730.5,-1457.07 1226.73,-1442.73 1292,-1420.69 1423.3,-1376.36 1456.22,-1342.08 1540,-1231.69 1618.74,-1127.93 1657.91,-971.97 1670.16,-915.27"/>
<polygon fill="#757575" stroke="#757575" points="1673.62,-915.8 1672.25,-905.3 1666.77,-914.36 1673.62,-915.8"/>
</g>
<!-- client/pages/users/UI/InfoCircle.tsx -->
<g id="node26" class="node">
<title>client/pages/users/UI/InfoCircle.tsx</title>
<path fill="none" stroke="#c6c5fe" d="M930.33,-1411.19C930.33,-1411.19 721.67,-1411.19 721.67,-1411.19 717.83,-1411.19 714,-1407.36 714,-1403.52 714,-1403.52 714,-1395.86 714,-1395.86 714,-1392.02 717.83,-1388.19 721.67,-1388.19 721.67,-1388.19 930.33,-1388.19 930.33,-1388.19 934.17,-1388.19 938,-1392.02 938,-1395.86 938,-1395.86 938,-1403.52 938,-1403.52 938,-1407.36 934.17,-1411.19 930.33,-1411.19"/>
<text text-anchor="middle" x="826" y="-1395.99" font-family="Arial" font-size="14.00" fill="#c6c5fe">client/pages/users/UI/InfoCircle.tsx</text>
</g>
<!-- client/pages/users/@id.tsx&#45;&gt;client/pages/users/UI/InfoCircle.tsx -->
<g id="edge45" class="edge">
<title>client/pages/users/@id.tsx&#45;&gt;client/pages/users/UI/InfoCircle.tsx</title>
<path fill="none" stroke="#757575" d="M571.83,-1333.25C592.15,-1337.53 615.15,-1342.6 636,-1347.69 683.8,-1359.37 737.89,-1374.44 775.92,-1385.35"/>
<polygon fill="#757575" stroke="#757575" points="775.14,-1388.77 785.72,-1388.17 777.07,-1382.04 775.14,-1388.77"/>
</g>
<!-- client/pages/users/Index.tsx&#45;&gt;client/common/Layout.tsx -->
<g id="edge46" class="edge">
<title>client/pages/users/Index.tsx&#45;&gt;client/common/Layout.tsx</title>
<path fill="none" stroke="#757575" d="M525,-847.21C548.53,-872.19 608.46,-931.23 672,-957.69 690.3,-965.31 710.8,-970.19 730.71,-973.29"/>
<polygon fill="#757575" stroke="#757575" points="730.34,-976.77 740.73,-974.71 731.32,-969.84 730.34,-976.77"/>
</g>
<!-- client/pages/users/Index.tsx&#45;&gt;client/lib/router.tsx -->
<g id="edge47" class="edge">
<title>client/pages/users/Index.tsx&#45;&gt;client/lib/router.tsx</title>
<path fill="none" stroke="#757575" d="M526.48,-847.23C548.56,-868.6 597,-915.99 636,-957.69 652.56,-975.4 652.59,-984.16 672,-998.69 792.83,-1089.12 846.69,-1070.93 980,-1141.69 1033.19,-1169.92 1092.93,-1207.11 1126.45,-1228.52"/>
<polygon fill="#757575" stroke="#757575" points="1124.88,-1231.66 1135.18,-1234.11 1128.65,-1225.77 1124.88,-1231.66"/>
</g>
<!-- client/pages/users/Index.tsx&#45;&gt;client/lib/utils.tsx -->
<g id="edge48" class="edge">
<title>client/pages/users/Index.tsx&#45;&gt;client/lib/utils.tsx</title>
<path fill="none" stroke="#757575" d="M523.28,-824.01C545.03,-796.01 604.54,-724.95 672,-691.69 920.34,-569.24 1018.96,-584.69 1292,-630.69 1407.04,-650.07 1445.56,-648.21 1540,-716.69 1599.12,-759.56 1644.32,-835.75 1663.88,-872.59"/>
<polygon fill="#757575" stroke="#757575" points="1660.99,-874.62 1668.71,-881.87 1667.2,-871.39 1660.99,-874.62"/>
</g>
<!-- client/pages/users/Index.tsx&#45;&gt;client/ui/HeaderCell.tsx -->
<g id="edge51" class="edge">
<title>client/pages/users/Index.tsx&#45;&gt;client/ui/HeaderCell.tsx</title>
<path fill="none" stroke="#757575" d="M605.14,-841.82C647.15,-844.66 696.83,-848.02 738.33,-850.83"/>
<polygon fill="#757575" stroke="#757575" points="738.2,-854.33 748.42,-851.51 738.68,-847.34 738.2,-854.33"/>
</g>
<!-- client/pages/users/Index.tsx&#45;&gt;client/ui/Pagination.tsx -->
<g id="edge52" class="edge">
<title>client/pages/users/Index.tsx&#45;&gt;client/ui/Pagination.tsx</title>
<path fill="none" stroke="#757575" d="M605.14,-829.27C647.81,-826.24 698.4,-822.66 740.28,-819.69"/>
<polygon fill="#757575" stroke="#757575" points="740.73,-823.17 750.46,-818.97 740.24,-816.19 740.73,-823.17"/>
</g>
<!-- client/ui/Checkbox.tsx -->
<g id="node27" class="node">
<title>client/ui/Checkbox.tsx</title>
<path fill="none" stroke="#c6c5fe" d="M1499.83,-586.19C1499.83,-586.19 1368.17,-586.19 1368.17,-586.19 1364.33,-586.19 1360.5,-582.36 1360.5,-578.52 1360.5,-578.52 1360.5,-570.86 1360.5,-570.86 1360.5,-567.02 1364.33,-563.19 1368.17,-563.19 1368.17,-563.19 1499.83,-563.19 1499.83,-563.19 1503.67,-563.19 1507.5,-567.02 1507.5,-570.86 1507.5,-570.86 1507.5,-578.52 1507.5,-578.52 1507.5,-582.36 1503.67,-586.19 1499.83,-586.19"/>
<text text-anchor="middle" x="1434" y="-570.99" font-family="Arial" font-size="14.00" fill="#c6c5fe">client/ui/Checkbox.tsx</text>
</g>
<!-- client/pages/users/Index.tsx&#45;&gt;client/ui/Checkbox.tsx -->
<g id="edge49" class="edge">
<title>client/pages/users/Index.tsx&#45;&gt;client/ui/Checkbox.tsx</title>
<path fill="none" stroke="#757575" d="M524.93,-823.9C547.27,-798.27 600.58,-734.98 636,-675.69 655.79,-642.57 639.85,-618.03 672,-596.69 727.32,-559.96 1164.7,-567.34 1350.24,-572.21"/>
<polygon fill="#757575" stroke="#757575" points="1350.4,-575.72 1360.49,-572.48 1350.59,-568.72 1350.4,-575.72"/>
</g>
<!-- client/ui/Collapse.tsx -->
<g id="node28" class="node">
<title>client/ui/Collapse.tsx</title>
<path fill="none" stroke="#c6c5fe" d="M888.33,-723.19C888.33,-723.19 763.67,-723.19 763.67,-723.19 759.83,-723.19 756,-719.36 756,-715.52 756,-715.52 756,-707.86 756,-707.86 756,-704.02 759.83,-700.19 763.67,-700.19 763.67,-700.19 888.33,-700.19 888.33,-700.19 892.17,-700.19 896,-704.02 896,-707.86 896,-707.86 896,-715.52 896,-715.52 896,-719.36 892.17,-723.19 888.33,-723.19"/>
<text text-anchor="middle" x="826" y="-707.99" font-family="Arial" font-size="14.00" fill="#c6c5fe">client/ui/Collapse.tsx</text>
</g>
<!-- client/pages/users/Index.tsx&#45;&gt;client/ui/Collapse.tsx -->
<g id="edge50" class="edge">
<title>client/pages/users/Index.tsx&#45;&gt;client/ui/Collapse.tsx</title>
<path fill="none" stroke="#757575" d="M543.43,-824.14C599.59,-801.71 723.39,-752.27 786.45,-727.09"/>
<polygon fill="#757575" stroke="#757575" points="788.04,-730.22 796.03,-723.26 785.44,-723.72 788.04,-730.22"/>
</g>
<!-- client/main/entry&#45;client.tsx -->
<g id="node21" class="node">
<title>client/main/entry&#45;client.tsx</title>
<path fill="none" stroke="#c6c5fe" d="M165.33,-1411.19C165.33,-1411.19 7.67,-1411.19 7.67,-1411.19 3.83,-1411.19 0,-1407.36 0,-1403.52 0,-1403.52 0,-1395.86 0,-1395.86 0,-1392.02 3.83,-1388.19 7.67,-1388.19 7.67,-1388.19 165.33,-1388.19 165.33,-1388.19 169.17,-1388.19 173,-1392.02 173,-1395.86 173,-1395.86 173,-1403.52 173,-1403.52 173,-1407.36 169.17,-1411.19 165.33,-1411.19"/>
<text text-anchor="middle" x="86.5" y="-1395.99" font-family="Arial" font-size="14.00" fill="#c6c5fe">client/main/entry&#45;client.tsx</text>
</g>
<!-- client/main/entry&#45;client.tsx&#45;&gt;client/lib/router.tsx -->
<g id="edge26" class="edge">
<title>client/main/entry&#45;client.tsx&#45;&gt;client/lib/router.tsx</title>
<path fill="none" stroke="#757575" d="M173.08,-1401.9C333.95,-1403.98 691.21,-1398.74 980,-1323.69 1033.48,-1309.79 1091.15,-1280.62 1124.56,-1262.16"/>
<polygon fill="#757575" stroke="#757575" points="1126.3,-1265.19 1133.31,-1257.26 1122.88,-1259.09 1126.3,-1265.19"/>
</g>
<!-- client/main/entry&#45;client.tsx&#45;&gt;client/css/index.css -->
<g id="edge25" class="edge">
<title>client/main/entry&#45;client.tsx&#45;&gt;client/css/index.css</title>
<path fill="none" stroke="#757575" d="M115.22,-1411.3C148.99,-1425.43 206.16,-1449.36 243.75,-1465.1"/>
<polygon fill="#757575" stroke="#757575" points="242.75,-1468.47 253.33,-1469.11 245.45,-1462.02 242.75,-1468.47"/>
</g>
<!-- client/main/entry&#45;client.tsx&#45;&gt;client/main/App.tsx -->
<g id="edge27" class="edge">
<title>client/main/entry&#45;client.tsx&#45;&gt;client/main/App.tsx</title>
<path fill="none" stroke="#757575" d="M97.36,-1387.97C128.61,-1350.83 225.66,-1235.47 264.59,-1189.19"/>
<polygon fill="#757575" stroke="#757575" points="267.4,-1191.29 271.16,-1181.39 262.04,-1186.79 267.4,-1191.29"/>
</g>
<!-- client/ui/HeaderCell.tsx&#45;&gt;client/lib/utils.tsx -->
<g id="edge56" class="edge">
<title>client/ui/HeaderCell.tsx&#45;&gt;client/lib/utils.tsx</title>
<path fill="none" stroke="#757575" d="M903.86,-863.41C928.91,-867.51 956.34,-874.1 980,-884.69 998.5,-892.97 996.83,-906.11 1016,-912.69 1132.03,-952.5 1169.37,-915.73 1292,-912.69 1402.93,-909.94 1531.8,-902.7 1608.06,-897.99"/>
<polygon fill="#757575" stroke="#757575" points="1608.7,-901.46 1618.47,-897.35 1608.27,-894.47 1608.7,-901.46"/>
</g>
<!-- client/ui/HeaderCell.module.css -->
<g id="node32" class="node">
<title>client/ui/HeaderCell.module.css</title>
<path fill="none" stroke="#cfffac" d="M1249.33,-903.19C1249.33,-903.19 1058.67,-903.19 1058.67,-903.19 1054.83,-903.19 1051,-899.36 1051,-895.52 1051,-895.52 1051,-887.86 1051,-887.86 1051,-884.02 1054.83,-880.19 1058.67,-880.19 1058.67,-880.19 1249.33,-880.19 1249.33,-880.19 1253.17,-880.19 1257,-884.02 1257,-887.86 1257,-887.86 1257,-895.52 1257,-895.52 1257,-899.36 1253.17,-903.19 1249.33,-903.19"/>
<text text-anchor="middle" x="1154" y="-887.99" font-family="Arial" font-size="14.00" fill="#cfffac">client/ui/HeaderCell.module.css</text>
</g>
<!-- client/ui/HeaderCell.tsx&#45;&gt;client/ui/HeaderCell.module.css -->
<g id="edge57" class="edge">
<title>client/ui/HeaderCell.tsx&#45;&gt;client/ui/HeaderCell.module.css</title>
<path fill="none" stroke="#757575" d="M903.84,-864.94C944.62,-869.32 995.49,-874.78 1040.62,-879.62"/>
<polygon fill="#757575" stroke="#757575" points="1040.43,-883.12 1050.75,-880.71 1041.18,-876.16 1040.43,-883.12"/>
</g>
<!-- client/ui/Popup.tsx -->
<g id="node33" class="node">
<title>client/ui/Popup.tsx</title>
<path fill="none" stroke="#c6c5fe" d="M1489.33,-827.19C1489.33,-827.19 1378.67,-827.19 1378.67,-827.19 1374.83,-827.19 1371,-823.36 1371,-819.52 1371,-819.52 1371,-811.86 1371,-811.86 1371,-808.02 1374.83,-804.19 1378.67,-804.19 1378.67,-804.19 1489.33,-804.19 1489.33,-804.19 1493.17,-804.19 1497,-808.02 1497,-811.86 1497,-811.86 1497,-819.52 1497,-819.52 1497,-823.36 1493.17,-827.19 1489.33,-827.19"/>
<text text-anchor="middle" x="1434" y="-811.99" font-family="Arial" font-size="14.00" fill="#c6c5fe">client/ui/Popup.tsx</text>
</g>
<!-- client/ui/HeaderCell.tsx&#45;&gt;client/ui/Popup.tsx -->
<g id="edge58" class="edge">
<title>client/ui/HeaderCell.tsx&#45;&gt;client/ui/Popup.tsx</title>
<path fill="none" stroke="#757575" d="M903.75,-851.5C1021.54,-843.53 1245.31,-828.39 1360.49,-820.6"/>
<polygon fill="#757575" stroke="#757575" points="1360.88,-824.08 1370.62,-819.91 1360.41,-817.09 1360.88,-824.08"/>
</g>
<!-- client/ui/TableFilters.tsx -->
<g id="node34" class="node">
<title>client/ui/TableFilters.tsx</title>
<path fill="none" stroke="#c6c5fe" d="M1224.33,-744.19C1224.33,-744.19 1083.67,-744.19 1083.67,-744.19 1079.83,-744.19 1076,-740.36 1076,-736.52 1076,-736.52 1076,-728.86 1076,-728.86 1076,-725.02 1079.83,-721.19 1083.67,-721.19 1083.67,-721.19 1224.33,-721.19 1224.33,-721.19 1228.17,-721.19 1232,-725.02 1232,-728.86 1232,-728.86 1232,-736.52 1232,-736.52 1232,-740.36 1228.17,-744.19 1224.33,-744.19"/>
<text text-anchor="middle" x="1154" y="-728.99" font-family="Arial" font-size="14.00" fill="#c6c5fe">client/ui/TableFilters.tsx</text>
</g>
<!-- client/ui/HeaderCell.tsx&#45;&gt;client/ui/TableFilters.tsx -->
<g id="edge59" class="edge">
<title>client/ui/HeaderCell.tsx&#45;&gt;client/ui/TableFilters.tsx</title>
<path fill="none" stroke="#757575" d="M903.57,-860.25C930.01,-857.92 958.39,-851.04 980,-834.69 1011.42,-810.92 984.69,-777.6 1016,-753.69 1030.36,-742.72 1048.08,-736.38 1065.96,-732.9"/>
<polygon fill="#757575" stroke="#757575" points="1066.6,-736.34 1075.89,-731.24 1065.45,-729.43 1066.6,-736.34"/>
</g>
<!-- client/ui/Pagination.tsx&#45;&gt;client/lib/utils.tsx -->
<g id="edge62" class="edge">
<title>client/ui/Pagination.tsx&#45;&gt;client/lib/utils.tsx</title>
<path fill="none" stroke="#757575" d="M901.84,-820.75C1065.35,-836.19 1452.26,-872.71 1607.93,-887.41"/>
<polygon fill="#757575" stroke="#757575" points="1608,-890.93 1618.28,-888.38 1608.66,-883.96 1608,-890.93"/>
</g>
<!-- client/ui/Pagination.module.css -->
<g id="node36" class="node">
<title>client/ui/Pagination.module.css</title>
<path fill="none" stroke="#cfffac" d="M1247.83,-703.19C1247.83,-703.19 1060.17,-703.19 1060.17,-703.19 1056.33,-703.19 1052.5,-699.36 1052.5,-695.52 1052.5,-695.52 1052.5,-687.86 1052.5,-687.86 1052.5,-684.02 1056.33,-680.19 1060.17,-680.19 1060.17,-680.19 1247.83,-680.19 1247.83,-680.19 1251.67,-680.19 1255.5,-684.02 1255.5,-687.86 1255.5,-687.86 1255.5,-695.52 1255.5,-695.52 1255.5,-699.36 1251.67,-703.19 1247.83,-703.19"/>
<text text-anchor="middle" x="1154" y="-687.99" font-family="Arial" font-size="14.00" fill="#cfffac">client/ui/Pagination.module.css</text>
</g>
<!-- client/ui/Pagination.tsx&#45;&gt;client/ui/Pagination.module.css -->
<g id="edge63" class="edge">
<title>client/ui/Pagination.tsx&#45;&gt;client/ui/Pagination.module.css</title>
<path fill="none" stroke="#757575" d="M849.12,-802.16C878.93,-786.57 933.63,-757.84 980,-732.69 996.09,-723.96 998.68,-718.61 1016,-712.69 1024.53,-709.77 1033.49,-707.26 1042.58,-705.1"/>
<polygon fill="#757575" stroke="#757575" points="1043.49,-708.48 1052.48,-702.88 1041.96,-701.65 1043.49,-708.48"/>
</g>
<!-- client/ui/Select.tsx -->
<g id="node37" class="node">
<title>client/ui/Select.tsx</title>
<path fill="none" stroke="#c6c5fe" d="M1208.83,-785.19C1208.83,-785.19 1099.17,-785.19 1099.17,-785.19 1095.33,-785.19 1091.5,-781.36 1091.5,-777.52 1091.5,-777.52 1091.5,-769.86 1091.5,-769.86 1091.5,-766.02 1095.33,-762.19 1099.17,-762.19 1099.17,-762.19 1208.83,-762.19 1208.83,-762.19 1212.67,-762.19 1216.5,-766.02 1216.5,-769.86 1216.5,-769.86 1216.5,-777.52 1216.5,-777.52 1216.5,-781.36 1212.67,-785.19 1208.83,-785.19"/>
<text text-anchor="middle" x="1154" y="-769.99" font-family="Arial" font-size="14.00" fill="#c6c5fe">client/ui/Select.tsx</text>
</g>
<!-- client/ui/Pagination.tsx&#45;&gt;client/ui/Select.tsx -->
<g id="edge64" class="edge">
<title>client/ui/Pagination.tsx&#45;&gt;client/ui/Select.tsx</title>
<path fill="none" stroke="#757575" d="M901.79,-804.51C955.74,-797.89 1028.14,-789.01 1081.36,-782.48"/>
<polygon fill="#757575" stroke="#757575" points="1081.9,-785.94 1091.4,-781.25 1081.04,-778.99 1081.9,-785.94"/>
</g>
<!-- client/pages/users/UI/InfoCircle.module.css -->
<g id="node29" class="node">
<title>client/pages/users/UI/InfoCircle.module.css</title>
<path fill="none" stroke="#cfffac" d="M1284.33,-1411.19C1284.33,-1411.19 1023.67,-1411.19 1023.67,-1411.19 1019.83,-1411.19 1016,-1407.36 1016,-1403.52 1016,-1403.52 1016,-1395.86 1016,-1395.86 1016,-1392.02 1019.83,-1388.19 1023.67,-1388.19 1023.67,-1388.19 1284.33,-1388.19 1284.33,-1388.19 1288.17,-1388.19 1292,-1392.02 1292,-1395.86 1292,-1395.86 1292,-1403.52 1292,-1403.52 1292,-1407.36 1288.17,-1411.19 1284.33,-1411.19"/>
<text text-anchor="middle" x="1154" y="-1395.99" font-family="Arial" font-size="14.00" fill="#cfffac">client/pages/users/UI/InfoCircle.module.css</text>
</g>
<!-- client/pages/users/UI/InfoCircle.tsx&#45;&gt;client/pages/users/UI/InfoCircle.module.css -->
<g id="edge53" class="edge">
<title>client/pages/users/UI/InfoCircle.tsx&#45;&gt;client/pages/users/UI/InfoCircle.module.css</title>
<path fill="none" stroke="#757575" d="M938.28,-1399.69C960.05,-1399.69 983.2,-1399.69 1005.92,-1399.69"/>
<polygon fill="#757575" stroke="#757575" points="1005.98,-1403.19 1015.98,-1399.69 1005.98,-1396.19 1005.98,-1403.19"/>
</g>
<!-- client/ui/Checkbox.module.css -->
<g id="node30" class="node">
<title>client/ui/Checkbox.module.css</title>
<path fill="none" stroke="#cfffac" d="M1767.33,-586.19C1767.33,-586.19 1583.67,-586.19 1583.67,-586.19 1579.83,-586.19 1576,-582.36 1576,-578.52 1576,-578.52 1576,-570.86 1576,-570.86 1576,-567.02 1579.83,-563.19 1583.67,-563.19 1583.67,-563.19 1767.33,-563.19 1767.33,-563.19 1771.17,-563.19 1775,-567.02 1775,-570.86 1775,-570.86 1775,-578.52 1775,-578.52 1775,-582.36 1771.17,-586.19 1767.33,-586.19"/>
<text text-anchor="middle" x="1675.5" y="-570.99" font-family="Arial" font-size="14.00" fill="#cfffac">client/ui/Checkbox.module.css</text>
</g>
<!-- client/ui/Checkbox.tsx&#45;&gt;client/ui/Checkbox.module.css -->
<g id="edge54" class="edge">
<title>client/ui/Checkbox.tsx&#45;&gt;client/ui/Checkbox.module.css</title>
<path fill="none" stroke="#757575" d="M1507.51,-574.69C1525.8,-574.69 1545.84,-574.69 1565.49,-574.69"/>
<polygon fill="#757575" stroke="#757575" points="1565.72,-578.19 1575.72,-574.69 1565.72,-571.19 1565.72,-578.19"/>
</g>
<!-- client/ui/Collapse.module.css -->
<g id="node31" class="node">
<title>client/ui/Collapse.module.css</title>
<path fill="none" stroke="#cfffac" d="M1241.83,-662.19C1241.83,-662.19 1066.17,-662.19 1066.17,-662.19 1062.33,-662.19 1058.5,-658.36 1058.5,-654.52 1058.5,-654.52 1058.5,-646.86 1058.5,-646.86 1058.5,-643.02 1062.33,-639.19 1066.17,-639.19 1066.17,-639.19 1241.83,-639.19 1241.83,-639.19 1245.67,-639.19 1249.5,-643.02 1249.5,-646.86 1249.5,-646.86 1249.5,-654.52 1249.5,-654.52 1249.5,-658.36 1245.67,-662.19 1241.83,-662.19"/>
<text text-anchor="middle" x="1154" y="-646.99" font-family="Arial" font-size="14.00" fill="#cfffac">client/ui/Collapse.module.css</text>
</g>
<!-- client/ui/Collapse.tsx&#45;&gt;client/ui/Collapse.module.css -->
<g id="edge55" class="edge">
<title>client/ui/Collapse.tsx&#45;&gt;client/ui/Collapse.module.css</title>
<path fill="none" stroke="#757575" d="M877.78,-700.13C915.75,-691.68 968.98,-680.26 1016,-671.69 1031.05,-668.95 1047.07,-666.27 1062.66,-663.8"/>
<polygon fill="#757575" stroke="#757575" points="1063.49,-667.21 1072.82,-662.2 1062.4,-660.3 1063.49,-667.21"/>
</g>
<!-- client/ui/Popup.tsx&#45;&gt;client/lib/utils.tsx -->
<g id="edge65" class="edge">
<title>client/ui/Popup.tsx&#45;&gt;client/lib/utils.tsx</title>
<path fill="none" stroke="#757575" d="M1487.17,-827.23C1504.14,-831.35 1522.99,-836.32 1540,-841.69 1573.81,-852.36 1611.37,-867.14 1638.19,-878.21"/>
<polygon fill="#757575" stroke="#757575" points="1636.97,-881.5 1647.55,-882.11 1639.66,-875.04 1636.97,-881.5"/>
</g>
<!-- client/ui/TableFilters.tsx&#45;&gt;client/lib/utils.tsx -->
<g id="edge69" class="edge">
<title>client/ui/TableFilters.tsx&#45;&gt;client/lib/utils.tsx</title>
<path fill="none" stroke="#757575" d="M1232.39,-726.56C1328.82,-720.17 1487.35,-714.17 1540,-738.69 1600.82,-767.01 1644.93,-837.53 1664.01,-872.84"/>
<polygon fill="#757575" stroke="#757575" points="1660.98,-874.58 1668.73,-881.81 1667.17,-871.33 1660.98,-874.58"/>
</g>
<!-- client/ui/TableFilters.tsx&#45;&gt;client/ui/Checkbox.tsx -->
<g id="edge70" class="edge">
<title>client/ui/TableFilters.tsx&#45;&gt;client/ui/Checkbox.tsx</title>
<path fill="none" stroke="#757575" d="M1232.21,-729.98C1252.44,-727.01 1273.69,-721.76 1292,-712.69 1306.84,-705.34 1379.71,-630.35 1414.48,-594.11"/>
<polygon fill="#757575" stroke="#757575" points="1417.28,-596.24 1421.67,-586.59 1412.23,-591.4 1417.28,-596.24"/>
</g>
<!-- client/ui/Select.tsx&#45;&gt;client/lib/utils.tsx -->
<g id="edge66" class="edge">
<title>client/ui/Select.tsx&#45;&gt;client/lib/utils.tsx</title>
<path fill="none" stroke="#757575" d="M1216.54,-764.22C1310.17,-750.88 1483.47,-730.73 1540,-754.69 1597.4,-779.02 1642.29,-841.18 1662.62,-873.49"/>
<polygon fill="#757575" stroke="#757575" points="1659.7,-875.43 1667.91,-882.12 1665.67,-871.77 1659.7,-875.43"/>
</g>
<!-- client/ui/Select.tsx&#45;&gt;client/ui/Popup.tsx -->
<g id="edge67" class="edge">
<title>client/ui/Select.tsx&#45;&gt;client/ui/Popup.tsx</title>
<path fill="none" stroke="#757575" d="M1216.7,-783.01C1259.38,-789.46 1316.32,-798.06 1361.06,-804.82"/>
<polygon fill="#757575" stroke="#757575" points="1360.58,-808.29 1371,-806.32 1361.63,-801.37 1360.58,-808.29"/>
</g>
<!-- client/ui/Select.module.css -->
<g id="node38" class="node">
<title>client/ui/Select.module.css</title>
<path fill="none" stroke="#cfffac" d="M1514.33,-786.19C1514.33,-786.19 1353.67,-786.19 1353.67,-786.19 1349.83,-786.19 1346,-782.36 1346,-778.52 1346,-778.52 1346,-770.86 1346,-770.86 1346,-767.02 1349.83,-763.19 1353.67,-763.19 1353.67,-763.19 1514.33,-763.19 1514.33,-763.19 1518.17,-763.19 1522,-767.02 1522,-770.86 1522,-770.86 1522,-778.52 1522,-778.52 1522,-782.36 1518.17,-786.19 1514.33,-786.19"/>
<text text-anchor="middle" x="1434" y="-770.99" font-family="Arial" font-size="14.00" fill="#cfffac">client/ui/Select.module.css</text>
</g>
<!-- client/ui/Select.tsx&#45;&gt;client/ui/Select.module.css -->
<g id="edge68" class="edge">
<title>client/ui/Select.tsx&#45;&gt;client/ui/Select.module.css</title>
<path fill="none" stroke="#757575" d="M1216.7,-773.91C1251.65,-774.04 1296.16,-774.2 1335.7,-774.34"/>
<polygon fill="#757575" stroke="#757575" points="1335.89,-777.84 1345.91,-774.38 1335.92,-770.84 1335.89,-777.84"/>
</g>
<!-- devUtils.js -->
<g id="node39" class="node">
<title>devUtils.js</title>
<path fill="none" stroke="#cfffac" d="M1920.83,-297.19C1920.83,-297.19 1858.17,-297.19 1858.17,-297.19 1854.33,-297.19 1850.5,-293.36 1850.5,-289.52 1850.5,-289.52 1850.5,-281.86 1850.5,-281.86 1850.5,-278.02 1854.33,-274.19 1858.17,-274.19 1858.17,-274.19 1920.83,-274.19 1920.83,-274.19 1924.67,-274.19 1928.5,-278.02 1928.5,-281.86 1928.5,-281.86 1928.5,-289.52 1928.5,-289.52 1928.5,-293.36 1924.67,-297.19 1920.83,-297.19"/>
<text text-anchor="middle" x="1889.5" y="-281.99" font-family="Arial" font-size="14.00" fill="#cfffac">devUtils.js</text>
</g>
<!-- knexfile.js -->
<g id="node40" class="node">
<title>knexfile.js</title>
<path fill="none" stroke="#cfffac" d="M1919.83,-256.19C1919.83,-256.19 1859.17,-256.19 1859.17,-256.19 1855.33,-256.19 1851.5,-252.36 1851.5,-248.52 1851.5,-248.52 1851.5,-240.86 1851.5,-240.86 1851.5,-237.02 1855.33,-233.19 1859.17,-233.19 1859.17,-233.19 1919.83,-233.19 1919.83,-233.19 1923.67,-233.19 1927.5,-237.02 1927.5,-240.86 1927.5,-240.86 1927.5,-248.52 1927.5,-248.52 1927.5,-252.36 1923.67,-256.19 1919.83,-256.19"/>
<text text-anchor="middle" x="1889.5" y="-240.99" font-family="Arial" font-size="14.00" fill="#cfffac">knexfile.js</text>
</g>
<!-- server/lib/graphql/index.ts -->
<g id="node41" class="node">
<title>server/lib/graphql/index.ts</title>
<path fill="none" stroke="#c6c5fe" d="M903.33,-245.19C903.33,-245.19 748.67,-245.19 748.67,-245.19 744.83,-245.19 741,-241.36 741,-237.52 741,-237.52 741,-229.86 741,-229.86 741,-226.02 744.83,-222.19 748.67,-222.19 748.67,-222.19 903.33,-222.19 903.33,-222.19 907.17,-222.19 911,-226.02 911,-229.86 911,-229.86 911,-237.52 911,-237.52 911,-241.36 907.17,-245.19 903.33,-245.19"/>
<text text-anchor="middle" x="826" y="-229.99" font-family="Arial" font-size="14.00" fill="#c6c5fe">server/lib/graphql/index.ts</text>
</g>
<!-- server/lib/utils.ts -->
<g id="node42" class="node">
<title>server/lib/utils.ts</title>
<path fill="none" stroke="#c6c5fe" d="M1724.33,-276.19C1724.33,-276.19 1626.67,-276.19 1626.67,-276.19 1622.83,-276.19 1619,-272.36 1619,-268.52 1619,-268.52 1619,-260.86 1619,-260.86 1619,-257.02 1622.83,-253.19 1626.67,-253.19 1626.67,-253.19 1724.33,-253.19 1724.33,-253.19 1728.17,-253.19 1732,-257.02 1732,-260.86 1732,-260.86 1732,-268.52 1732,-268.52 1732,-272.36 1728.17,-276.19 1724.33,-276.19"/>
<text text-anchor="middle" x="1675.5" y="-260.99" font-family="Arial" font-size="14.00" fill="#c6c5fe">server/lib/utils.ts</text>
</g>
<!-- server/lib/graphql/index.ts&#45;&gt;server/lib/utils.ts -->
<g id="edge71" class="edge">
<title>server/lib/graphql/index.ts&#45;&gt;server/lib/utils.ts</title>
<path fill="none" stroke="#757575" d="M911.17,-239.66C943.88,-241.82 981.68,-244.11 1016,-245.69 1232.81,-255.7 1490.04,-261.31 1608.62,-263.54"/>
<polygon fill="#757575" stroke="#757575" points="1608.91,-267.05 1618.97,-263.74 1609.04,-260.05 1608.91,-267.05"/>
</g>
<!-- server/models/Todo.ts -->
<g id="node43" class="node">
<title>server/models/Todo.ts</title>
<path fill="none" stroke="#ff6c60" d="M1220.83,-236.19C1220.83,-236.19 1087.17,-236.19 1087.17,-236.19 1083.33,-236.19 1079.5,-232.36 1079.5,-228.52 1079.5,-228.52 1079.5,-220.86 1079.5,-220.86 1079.5,-217.02 1083.33,-213.19 1087.17,-213.19 1087.17,-213.19 1220.83,-213.19 1220.83,-213.19 1224.67,-213.19 1228.5,-217.02 1228.5,-220.86 1228.5,-220.86 1228.5,-228.52 1228.5,-228.52 1228.5,-232.36 1224.67,-236.19 1220.83,-236.19"/>
<text text-anchor="middle" x="1154" y="-220.99" font-family="Arial" font-size="14.00" fill="#ff6c60">server/models/Todo.ts</text>
</g>
<!-- server/lib/graphql/index.ts&#45;&gt;server/models/Todo.ts -->
<g id="edge72" class="edge">
<title>server/lib/graphql/index.ts&#45;&gt;server/models/Todo.ts</title>
<path fill="none" stroke="#757575" d="M911.38,-231.36C959.9,-230.02 1020.65,-228.34 1069.09,-227.01"/>
<polygon fill="#757575" stroke="#757575" points="1069.33,-230.5 1079.23,-226.73 1069.14,-223.5 1069.33,-230.5"/>
</g>
<!-- server/lib/utils.ts&#45;&gt;server/lib/sharedUtils.ts -->
<g id="edge77" class="edge">
<title>server/lib/utils.ts&#45;&gt;server/lib/sharedUtils.ts</title>
<path fill="none" stroke="#757575" d="M1683.55,-276.2C1714.24,-326.28 1836.33,-525.54 1875.99,-590.27"/>
<polygon fill="#757575" stroke="#757575" points="1873.21,-592.44 1881.42,-599.13 1879.18,-588.78 1873.21,-592.44"/>
</g>
<!-- server/lib/utils.ts&#45;&gt;devUtils.js -->
<g id="edge75" class="edge">
<title>server/lib/utils.ts&#45;&gt;devUtils.js</title>
<path fill="none" stroke="#757575" d="M1732.2,-270.21C1765.74,-273.53 1808.03,-277.72 1840.16,-280.9"/>
<polygon fill="#757575" stroke="#757575" points="1839.92,-284.39 1850.21,-281.9 1840.61,-277.43 1839.92,-284.39"/>
</g>
<!-- server/lib/utils.ts&#45;&gt;knexfile.js -->
<g id="edge76" class="edge">
<title>server/lib/utils.ts&#45;&gt;knexfile.js</title>
<path fill="none" stroke="#757575" d="M1732.2,-259.44C1766.07,-256.24 1808.87,-252.2 1841.11,-249.16"/>
<polygon fill="#757575" stroke="#757575" points="1841.56,-252.63 1851.19,-248.21 1840.9,-245.67 1841.56,-252.63"/>
</g>
<!-- server/models/Todo.ts&#45;&gt;server/lib/utils.ts -->
<g id="edge81" class="edge">
<title>server/models/Todo.ts&#45;&gt;server/lib/utils.ts</title>
<path fill="none" stroke="#757575" d="M1228.51,-228.86C1306.03,-233.44 1431.7,-241.4 1540,-250.69 1562.41,-252.61 1586.89,-255.06 1608.75,-257.36"/>
<polygon fill="#757575" stroke="#757575" points="1608.61,-260.87 1618.92,-258.45 1609.35,-253.91 1608.61,-260.87"/>
</g>
<!-- server/models/User.ts -->
<g id="node48" class="node">
<title>server/models/User.ts</title>
<path fill="none" stroke="#ff6c60" d="M1500.33,-198.19C1500.33,-198.19 1367.67,-198.19 1367.67,-198.19 1363.83,-198.19 1360,-194.36 1360,-190.52 1360,-190.52 1360,-182.86 1360,-182.86 1360,-179.02 1363.83,-175.19 1367.67,-175.19 1367.67,-175.19 1500.33,-175.19 1500.33,-175.19 1504.17,-175.19 1508,-179.02 1508,-182.86 1508,-182.86 1508,-190.52 1508,-190.52 1508,-194.36 1504.17,-198.19 1500.33,-198.19"/>
<text text-anchor="middle" x="1434" y="-182.99" font-family="Arial" font-size="14.00" fill="#ff6c60">server/models/User.ts</text>
</g>
<!-- server/models/Todo.ts&#45;&gt;server/models/User.ts -->
<g id="edge82" class="edge">
<title>server/models/Todo.ts&#45;&gt;server/models/User.ts</title>
<path fill="none" stroke="#757575" d="M1201.53,-213.14C1241.86,-205.99 1301.21,-197.53 1349.71,-191.83"/>
<polygon fill="#757575" stroke="#757575" points="1350.35,-195.28 1359.88,-190.66 1349.55,-188.33 1350.35,-195.28"/>
</g>
<!-- server/lib/ssrRoutes.ts -->
<g id="node44" class="node">
<title>server/lib/ssrRoutes.ts</title>
<path fill="none" stroke="#c6c5fe" d="M893.33,-335.19C893.33,-335.19 758.67,-335.19 758.67,-335.19 754.83,-335.19 751,-331.36 751,-327.52 751,-327.52 751,-319.86 751,-319.86 751,-316.02 754.83,-312.19 758.67,-312.19 758.67,-312.19 893.33,-312.19 893.33,-312.19 897.17,-312.19 901,-316.02 901,-319.86 901,-319.86 901,-327.52 901,-327.52 901,-331.36 897.17,-335.19 893.33,-335.19"/>
<text text-anchor="middle" x="826" y="-319.99" font-family="Arial" font-size="14.00" fill="#c6c5fe">server/lib/ssrRoutes.ts</text>
</g>
<!-- server/lib/ssrRoutes.ts&#45;&gt;server/lib/utils.ts -->
<g id="edge73" class="edge">
<title>server/lib/ssrRoutes.ts&#45;&gt;server/lib/utils.ts</title>
<path fill="none" stroke="#757575" d="M901.02,-325.02C1030.95,-326.39 1308.29,-325 1540,-294.69 1567.31,-291.12 1597.26,-284.69 1621.96,-278.7"/>
<polygon fill="#757575" stroke="#757575" points="1622.97,-282.05 1631.84,-276.26 1621.29,-275.26 1622.97,-282.05"/>
</g>
<!-- server/lib/ssrRoutes.ts&#45;&gt;server/models/Todo.ts -->
<g id="edge74" class="edge">
<title>server/lib/ssrRoutes.ts&#45;&gt;server/models/Todo.ts</title>
<path fill="none" stroke="#757575" d="M901.27,-313.3C926.52,-308.92 954.74,-303.1 980,-295.69 1030.26,-280.95 1085.88,-256.59 1120.14,-240.59"/>
<polygon fill="#757575" stroke="#757575" points="1121.67,-243.74 1129.22,-236.31 1118.68,-237.41 1121.67,-243.74"/>
</g>
<!-- server/main/index.ts -->
<g id="node45" class="node">
<title>server/main/index.ts</title>
<path fill="none" stroke="#c6c5fe" d="M147.83,-214.19C147.83,-214.19 25.17,-214.19 25.17,-214.19 21.33,-214.19 17.5,-210.36 17.5,-206.52 17.5,-206.52 17.5,-198.86 17.5,-198.86 17.5,-195.02 21.33,-191.19 25.17,-191.19 25.17,-191.19 147.83,-191.19 147.83,-191.19 151.67,-191.19 155.5,-195.02 155.5,-198.86 155.5,-198.86 155.5,-206.52 155.5,-206.52 155.5,-210.36 151.67,-214.19 147.83,-214.19"/>
<text text-anchor="middle" x="86.5" y="-198.99" font-family="Arial" font-size="14.00" fill="#c6c5fe">server/main/index.ts</text>
</g>
<!-- server/main/index.ts&#45;&gt;server/lib/utils.ts -->
<g id="edge78" class="edge">
<title>server/main/index.ts&#45;&gt;server/lib/utils.ts</title>
<path fill="none" stroke="#757575" d="M99.57,-214.2C147.51,-258.65 330.76,-416.69 512.5,-416.69 512.5,-416.69 512.5,-416.69 1155,-416.69 1328.61,-416.69 1378.1,-413.36 1540,-350.69 1583.19,-333.97 1627.31,-302.43 1652.74,-282.55"/>
<polygon fill="#757575" stroke="#757575" points="1654.96,-285.25 1660.61,-276.29 1650.61,-279.77 1654.96,-285.25"/>
</g>
<!-- server/models/index.ts -->
<g id="node46" class="node">
<title>server/models/index.ts</title>
<path fill="none" stroke="#c6c5fe" d="M894.33,-204.19C894.33,-204.19 757.67,-204.19 757.67,-204.19 753.83,-204.19 750,-200.36 750,-196.52 750,-196.52 750,-188.86 750,-188.86 750,-185.02 753.83,-181.19 757.67,-181.19 757.67,-181.19 894.33,-181.19 894.33,-181.19 898.17,-181.19 902,-185.02 902,-188.86 902,-188.86 902,-196.52 902,-196.52 902,-200.36 898.17,-204.19 894.33,-204.19"/>
<text text-anchor="middle" x="826" y="-188.99" font-family="Arial" font-size="14.00" fill="#c6c5fe">server/models/index.ts</text>
</g>
<!-- server/main/index.ts&#45;&gt;server/models/index.ts -->
<g id="edge79" class="edge">
<title>server/main/index.ts&#45;&gt;server/models/index.ts</title>
<path fill="none" stroke="#757575" d="M142.28,-191.17C163.07,-187.34 187.03,-183.57 209,-181.69 397.98,-165.48 620.73,-177 739.78,-185.62"/>
<polygon fill="#757575" stroke="#757575" points="739.69,-189.12 749.92,-186.36 740.2,-182.14 739.69,-189.12"/>
</g>
<!-- server/routes/index.ts -->
<g id="node47" class="node">
<title>server/routes/index.ts</title>
<path fill="none" stroke="#c6c5fe" d="M347.33,-214.19C347.33,-214.19 216.67,-214.19 216.67,-214.19 212.83,-214.19 209,-210.36 209,-206.52 209,-206.52 209,-198.86 209,-198.86 209,-195.02 212.83,-191.19 216.67,-191.19 216.67,-191.19 347.33,-191.19 347.33,-191.19 351.17,-191.19 355,-195.02 355,-198.86 355,-198.86 355,-206.52 355,-206.52 355,-210.36 351.17,-214.19 347.33,-214.19"/>
<text text-anchor="middle" x="282" y="-198.99" font-family="Arial" font-size="14.00" fill="#c6c5fe">server/routes/index.ts</text>
</g>
<!-- server/main/index.ts&#45;&gt;server/routes/index.ts -->
<g id="edge80" class="edge">
<title>server/main/index.ts&#45;&gt;server/routes/index.ts</title>
<path fill="none" stroke="#757575" d="M155.72,-202.69C169.55,-202.69 184.24,-202.69 198.51,-202.69"/>
<polygon fill="#757575" stroke="#757575" points="198.8,-206.19 208.8,-202.69 198.8,-199.19 198.8,-206.19"/>
</g>
<!-- server/models/index.ts&#45;&gt;server/models/Todo.ts -->
<g id="edge85" class="edge">
<title>server/models/index.ts&#45;&gt;server/models/Todo.ts</title>
<path fill="none" stroke="#757575" d="M902.2,-200.07C952.09,-204.97 1017.62,-211.4 1069.18,-216.46"/>
<polygon fill="#757575" stroke="#757575" points="1069.01,-219.96 1079.3,-217.46 1069.69,-213 1069.01,-219.96"/>
</g>
<!-- server/models/index.ts&#45;&gt;server/models/User.ts -->
<g id="edge86" class="edge">
<title>server/models/index.ts&#45;&gt;server/models/User.ts</title>
<path fill="none" stroke="#757575" d="M902.22,-191.95C1016.03,-190.82 1231.23,-188.69 1349.65,-187.52"/>
<polygon fill="#757575" stroke="#757575" points="1349.79,-191.01 1359.76,-187.42 1349.72,-184.01 1349.79,-191.01"/>
</g>
<!-- server/routes/index.ts&#45;&gt;server/lib/graphql/index.ts -->
<g id="edge87" class="edge">
<title>server/routes/index.ts&#45;&gt;server/lib/graphql/index.ts</title>
<path fill="none" stroke="#757575" d="M355.25,-206.82C452,-212.36 623.8,-222.18 730.65,-228.29"/>
<polygon fill="#757575" stroke="#757575" points="730.6,-231.8 740.79,-228.87 731,-224.81 730.6,-231.8"/>
</g>
<!-- server/routes/index.ts&#45;&gt;server/lib/utils.ts -->
<g id="edge88" class="edge">
<title>server/routes/index.ts&#45;&gt;server/lib/utils.ts</title>
<path fill="none" stroke="#757575" d="M317.7,-191.09C338.72,-184.39 366.19,-176.23 391,-170.69 581.43,-128.21 629.89,-104.69 825,-104.69 825,-104.69 825,-104.69 1155,-104.69 1326.47,-104.69 1383.86,-58.82 1540,-129.69 1595.15,-154.72 1640.2,-212.99 1661.4,-244.15"/>
<polygon fill="#757575" stroke="#757575" points="1658.75,-246.49 1667.19,-252.89 1664.58,-242.62 1658.75,-246.49"/>
</g>
<!-- server/routes/session.ts -->
<g id="node49" class="node">
<title>server/routes/session.ts</title>
<path fill="none" stroke="#c6c5fe" d="M1505.83,-76.19C1505.83,-76.19 1362.17,-76.19 1362.17,-76.19 1358.33,-76.19 1354.5,-72.36 1354.5,-68.52 1354.5,-68.52 1354.5,-60.86 1354.5,-60.86 1354.5,-57.02 1358.33,-53.19 1362.17,-53.19 1362.17,-53.19 1505.83,-53.19 1505.83,-53.19 1509.67,-53.19 1513.5,-57.02 1513.5,-60.86 1513.5,-60.86 1513.5,-68.52 1513.5,-68.52 1513.5,-72.36 1509.67,-76.19 1505.83,-76.19"/>
<text text-anchor="middle" x="1434" y="-60.99" font-family="Arial" font-size="14.00" fill="#c6c5fe">server/routes/session.ts</text>
</g>
<!-- server/routes/index.ts&#45;&gt;server/routes/session.ts -->
<g id="edge89" class="edge">
<title>server/routes/index.ts&#45;&gt;server/routes/session.ts</title>
<path fill="none" stroke="#757575" d="M289.8,-191C304.59,-166.89 342.29,-112.11 391,-90.69 735.39,60.74 1207.62,-16.64 1372.93,-51.06"/>
<polygon fill="#757575" stroke="#757575" points="1372.4,-54.52 1382.91,-53.16 1373.85,-47.67 1372.4,-54.52"/>
</g>
<!-- server/routes/ssr.ts -->
<g id="node50" class="node">
<title>server/routes/ssr.ts</title>
<path fill="none" stroke="#c6c5fe" d="M571.33,-335.19C571.33,-335.19 455.67,-335.19 455.67,-335.19 451.83,-335.19 448,-331.36 448,-327.52 448,-327.52 448,-319.86 448,-319.86 448,-316.02 451.83,-312.19 455.67,-312.19 455.67,-312.19 571.33,-312.19 571.33,-312.19 575.17,-312.19 579,-316.02 579,-319.86 579,-319.86 579,-327.52 579,-327.52 579,-331.36 575.17,-335.19 571.33,-335.19"/>
<text text-anchor="middle" x="513.5" y="-319.99" font-family="Arial" font-size="14.00" fill="#c6c5fe">server/routes/ssr.ts</text>
</g>
<!-- server/routes/index.ts&#45;&gt;server/routes/ssr.ts -->
<g id="edge90" class="edge">
<title>server/routes/index.ts&#45;&gt;server/routes/ssr.ts</title>
<path fill="none" stroke="#757575" d="M294.97,-214.22C313.91,-231.9 352.6,-265.74 391,-285.69 410.05,-295.59 432.12,-303.44 452.2,-309.38"/>
<polygon fill="#757575" stroke="#757575" points="451.29,-312.76 461.87,-312.14 453.21,-306.03 451.29,-312.76"/>
</g>
<!-- server/routes/todos.ts -->
<g id="node51" class="node">
<title>server/routes/todos.ts</title>
<path fill="none" stroke="#c6c5fe" d="M891.33,-286.19C891.33,-286.19 760.67,-286.19 760.67,-286.19 756.83,-286.19 753,-282.36 753,-278.52 753,-278.52 753,-270.86 753,-270.86 753,-267.02 756.83,-263.19 760.67,-263.19 760.67,-263.19 891.33,-263.19 891.33,-263.19 895.17,-263.19 899,-267.02 899,-270.86 899,-270.86 899,-278.52 899,-278.52 899,-282.36 895.17,-286.19 891.33,-286.19"/>
<text text-anchor="middle" x="826" y="-270.99" font-family="Arial" font-size="14.00" fill="#c6c5fe">server/routes/todos.ts</text>
</g>
<!-- server/routes/index.ts&#45;&gt;server/routes/todos.ts -->
<g id="edge91" class="edge">
<title>server/routes/index.ts&#45;&gt;server/routes/todos.ts</title>
<path fill="none" stroke="#757575" d="M321.67,-214.25C342.12,-219.97 367.74,-226.52 391,-230.69 512.36,-252.44 654.89,-264.32 742.58,-270.09"/>
<polygon fill="#757575" stroke="#757575" points="742.53,-273.59 752.73,-270.75 742.98,-266.61 742.53,-273.59"/>
</g>
<!-- server/routes/users.ts -->
<g id="node52" class="node">
<title>server/routes/users.ts</title>
<path fill="none" stroke="#c6c5fe" d="M1219.33,-156.19C1219.33,-156.19 1088.67,-156.19 1088.67,-156.19 1084.83,-156.19 1081,-152.36 1081,-148.52 1081,-148.52 1081,-140.86 1081,-140.86 1081,-137.02 1084.83,-133.19 1088.67,-133.19 1088.67,-133.19 1219.33,-133.19 1219.33,-133.19 1223.17,-133.19 1227,-137.02 1227,-140.86 1227,-140.86 1227,-148.52 1227,-148.52 1227,-152.36 1223.17,-156.19 1219.33,-156.19"/>
<text text-anchor="middle" x="1154" y="-140.99" font-family="Arial" font-size="14.00" fill="#c6c5fe">server/routes/users.ts</text>
</g>
<!-- server/routes/index.ts&#45;&gt;server/routes/users.ts -->
<g id="edge92" class="edge">
<title>server/routes/index.ts&#45;&gt;server/routes/users.ts</title>
<path fill="none" stroke="#757575" d="M355.02,-196.44C433.07,-189.79 561.32,-179.21 672,-171.69 811.89,-162.19 974.83,-153.55 1070.65,-148.72"/>
<polygon fill="#757575" stroke="#757575" points="1071.04,-152.21 1080.85,-148.21 1070.69,-145.22 1071.04,-152.21"/>
</g>
<!-- server/models/User.ts&#45;&gt;server/lib/utils.ts -->
<g id="edge83" class="edge">
<title>server/models/User.ts&#45;&gt;server/lib/utils.ts</title>
<path fill="none" stroke="#757575" d="M1487.17,-198.23C1504.14,-202.35 1522.99,-207.32 1540,-212.69 1573.81,-223.36 1611.37,-238.14 1638.19,-249.21"/>
<polygon fill="#757575" stroke="#757575" points="1636.97,-252.5 1647.55,-253.11 1639.66,-246.04 1636.97,-252.5"/>
</g>
<!-- server/models/User.ts&#45;&gt;server/models/Todo.ts -->
<g id="edge84" class="edge">
<title>server/models/User.ts&#45;&gt;server/models/Todo.ts</title>
<path fill="none" stroke="#757575" d="M1386.42,-198.25C1346.26,-205.36 1287.28,-213.78 1238.92,-219.47"/>
<polygon fill="#757575" stroke="#757575" points="1238.3,-216.02 1228.77,-220.65 1239.1,-222.98 1238.3,-216.02"/>
</g>
<!-- server/routes/session.ts&#45;&gt;server/lib/utils.ts -->
<g id="edge93" class="edge">
<title>server/routes/session.ts&#45;&gt;server/lib/utils.ts</title>
<path fill="none" stroke="#757575" d="M1508.8,-76.25C1519.78,-79.84 1530.56,-84.54 1540,-90.69 1600.52,-130.14 1645.05,-206.33 1664.17,-243.4"/>
<polygon fill="#757575" stroke="#757575" points="1661.26,-245.39 1668.88,-252.75 1667.51,-242.24 1661.26,-245.39"/>
</g>
<!-- server/routes/ssr.ts&#45;&gt;server/lib/utils.ts -->
<g id="edge95" class="edge">
<title>server/routes/ssr.ts&#45;&gt;server/lib/utils.ts</title>
<path fill="none" stroke="#757575" d="M579.06,-334.26C607.48,-338.41 641.31,-342.65 672,-344.69 1057.12,-370.25 1163.5,-402.64 1540,-317.69 1576.2,-309.52 1615.44,-293.11 1642.15,-280.7"/>
<polygon fill="#757575" stroke="#757575" points="1643.84,-283.77 1651.39,-276.34 1640.85,-277.45 1643.84,-283.77"/>
</g>
<!-- server/routes/ssr.ts&#45;&gt;server/lib/ssrRoutes.ts -->
<g id="edge94" class="edge">
<title>server/routes/ssr.ts&#45;&gt;server/lib/ssrRoutes.ts</title>
<path fill="none" stroke="#757575" d="M579.21,-323.69C626.02,-323.69 689.7,-323.69 740.52,-323.69"/>
<polygon fill="#757575" stroke="#757575" points="740.83,-327.19 750.83,-323.69 740.83,-320.19 740.83,-327.19"/>
</g>
<!-- server/routes/todos.ts&#45;&gt;server/lib/utils.ts -->
<g id="edge96" class="edge">
<title>server/routes/todos.ts&#45;&gt;server/lib/utils.ts</title>
<path fill="none" stroke="#757575" d="M899.24,-276.58C934.46,-277.41 977.44,-278.28 1016,-278.69 1248.88,-281.15 1307.42,-290.76 1540,-278.69 1562.47,-277.52 1586.96,-275.27 1608.81,-272.9"/>
<polygon fill="#757575" stroke="#757575" points="1609.43,-276.36 1618.98,-271.78 1608.65,-269.4 1609.43,-276.36"/>
</g>
<!-- server/routes/todos.ts&#45;&gt;server/models/Todo.ts -->
<g id="edge97" class="edge">
<title>server/routes/todos.ts&#45;&gt;server/models/Todo.ts</title>
<path fill="none" stroke="#757575" d="M899.08,-265.9C924.67,-262.61 953.65,-258.7 980,-254.69 1012.9,-249.69 1049.19,-243.5 1080.01,-238.04"/>
<polygon fill="#757575" stroke="#757575" points="1081.01,-241.42 1090.24,-236.22 1079.78,-234.53 1081.01,-241.42"/>
</g>
<!-- server/routes/users.ts&#45;&gt;server/lib/utils.ts -->
<g id="edge98" class="edge">
<title>server/routes/users.ts&#45;&gt;server/lib/utils.ts</title>
<path fill="none" stroke="#757575" d="M1227.31,-136.6C1306.55,-130.44 1436.2,-128.44 1540,-165.69 1587.32,-182.67 1632.24,-222.07 1656.31,-245.72"/>
<polygon fill="#757575" stroke="#757575" points="1654.11,-248.47 1663.64,-253.09 1659.07,-243.53 1654.11,-248.47"/>
</g>
<!-- server/routes/users.ts&#45;&gt;server/models/User.ts -->
<g id="edge99" class="edge">
<title>server/routes/users.ts&#45;&gt;server/models/User.ts</title>
<path fill="none" stroke="#757575" d="M1227.32,-155.62C1264.68,-161.26 1310.47,-168.18 1349.35,-174.05"/>
<polygon fill="#757575" stroke="#757575" points="1349.19,-177.57 1359.6,-175.6 1350.23,-170.65 1349.19,-177.57"/>
</g>
</g>
</svg>
