<?xml version="1.0" encoding="UTF-8" standalone="no"?>
<!DOCTYPE svg PUBLIC "-//W3C//DTD SVG 1.1//EN"
 "http://www.w3.org/Graphics/SVG/1.1/DTD/svg11.dtd">
<!-- Generated by graphviz version 2.43.0 (0)
 -->
<!-- Title: G Pages: 1 -->
<svg width="2603pt" height="1021pt"
 viewBox="0.00 0.00 2603.20 1021.14" xmlns="http://www.w3.org/2000/svg" xmlns:xlink="http://www.w3.org/1999/xlink">
<g id="graph0" class="graph" transform="scale(1 1) rotate(0) translate(21.6 999.54)">
<title>G</title>
<polygon fill="#111111" stroke="transparent" points="-21.6,21.6 -21.6,-999.54 2581.6,-999.54 2581.6,21.6 -21.6,21.6"/>
<!-- client/common/Layout.module.css -->
<g id="node1" class="node">
<title>client/common/Layout.module.css</title>
<path fill="none" stroke="#cfffac" d="M1243.33,-393.26C1243.33,-393.26 1036.67,-393.26 1036.67,-393.26 1032.83,-393.26 1029,-389.43 1029,-385.6 1029,-385.6 1029,-377.93 1029,-377.93 1029,-374.1 1032.83,-370.26 1036.67,-370.26 1036.67,-370.26 1243.33,-370.26 1243.33,-370.26 1247.17,-370.26 1251,-374.1 1251,-377.93 1251,-377.93 1251,-385.6 1251,-385.6 1251,-389.43 1247.17,-393.26 1243.33,-393.26"/>
<text text-anchor="middle" x="1140" y="-378.06" font-family="Arial" font-size="14.00" fill="#cfffac">client/common/Layout.module.css</text>
</g>
<!-- client/common/Layout.tsx -->
<g id="node2" class="node">
<title>client/common/Layout.tsx</title>
<path fill="none" stroke="#c6c5fe" d="M889.33,-355.26C889.33,-355.26 734.67,-355.26 734.67,-355.26 730.83,-355.26 727,-351.43 727,-347.6 727,-347.6 727,-339.93 727,-339.93 727,-336.1 730.83,-332.26 734.67,-332.26 734.67,-332.26 889.33,-332.26 889.33,-332.26 893.17,-332.26 897,-336.1 897,-339.93 897,-339.93 897,-347.6 897,-347.6 897,-351.43 893.17,-355.26 889.33,-355.26"/>
<text text-anchor="middle" x="812" y="-340.06" font-family="Arial" font-size="14.00" fill="#c6c5fe">client/common/Layout.tsx</text>
</g>
<!-- client/common/Layout.tsx&#45;&gt;client/common/Layout.module.css -->
<g id="edge1" class="edge">
<title>client/common/Layout.tsx&#45;&gt;client/common/Layout.module.css</title>
<path fill="none" stroke="#757575" d="M897.38,-353.6C937.9,-358.32 986.94,-364.04 1030.22,-369.08"/>
<polygon fill="#757575" stroke="#757575" points="1029.89,-372.57 1040.22,-370.25 1030.7,-365.61 1029.89,-372.57"/>
</g>
<!-- client/globalStore/store.ts -->
<g id="node3" class="node">
<title>client/globalStore/store.ts</title>
<path fill="none" stroke="#c6c5fe" d="M1216.33,-473.26C1216.33,-473.26 1063.67,-473.26 1063.67,-473.26 1059.83,-473.26 1056,-469.43 1056,-465.6 1056,-465.6 1056,-457.93 1056,-457.93 1056,-454.1 1059.83,-450.26 1063.67,-450.26 1063.67,-450.26 1216.33,-450.26 1216.33,-450.26 1220.17,-450.26 1224,-454.1 1224,-457.93 1224,-457.93 1224,-465.6 1224,-465.6 1224,-469.43 1220.17,-473.26 1216.33,-473.26"/>
<text text-anchor="middle" x="1140" y="-458.06" font-family="Arial" font-size="14.00" fill="#c6c5fe">client/globalStore/store.ts</text>
</g>
<!-- client/common/Layout.tsx&#45;&gt;client/globalStore/store.ts -->
<g id="edge2" class="edge">
<title>client/common/Layout.tsx&#45;&gt;client/globalStore/store.ts</title>
<path fill="none" stroke="#757575" d="M897.27,-344.55C921.22,-348.2 946.15,-355.6 966,-369.76 993.2,-389.17 974.99,-416.09 1002,-435.76 1014.96,-445.2 1030.39,-451.5 1046.14,-455.65"/>
<polygon fill="#757575" stroke="#757575" points="1045.44,-459.08 1055.97,-457.96 1047.04,-452.26 1045.44,-459.08"/>
</g>
<!-- client/lib/router.tsx -->
<g id="node4" class="node">
<title>client/lib/router.tsx</title>
<path fill="none" stroke="#c6c5fe" d="M1617.83,-513.26C1617.83,-513.26 1508.17,-513.26 1508.17,-513.26 1504.33,-513.26 1500.5,-509.43 1500.5,-505.6 1500.5,-505.6 1500.5,-497.93 1500.5,-497.93 1500.5,-494.1 1504.33,-490.26 1508.17,-490.26 1508.17,-490.26 1617.83,-490.26 1617.83,-490.26 1621.67,-490.26 1625.5,-494.1 1625.5,-497.93 1625.5,-497.93 1625.5,-505.6 1625.5,-505.6 1625.5,-509.43 1621.67,-513.26 1617.83,-513.26"/>
<text text-anchor="middle" x="1563" y="-498.06" font-family="Arial" font-size="14.00" fill="#c6c5fe">client/lib/router.tsx</text>
</g>
<!-- client/common/Layout.tsx&#45;&gt;client/lib/router.tsx -->
<g id="edge3" class="edge">
<title>client/common/Layout.tsx&#45;&gt;client/lib/router.tsx</title>
<path fill="none" stroke="#757575" d="M897.23,-346.97C920.41,-350.33 944.94,-356.32 966,-366.76 985.99,-376.67 981.96,-391.94 1002,-401.76 1113.24,-456.3 1156.03,-419.07 1278,-440.76 1356.46,-454.71 1446.26,-474.68 1503.51,-487.92"/>
<polygon fill="#757575" stroke="#757575" points="1502.93,-491.38 1513.46,-490.23 1504.51,-484.56 1502.93,-491.38"/>
</g>
<!-- client/lib/utils.tsx -->
<g id="node5" class="node">
<title>client/lib/utils.tsx</title>
<path fill="none" stroke="#c6c5fe" d="M1436.33,-334.26C1436.33,-334.26 1337.67,-334.26 1337.67,-334.26 1333.83,-334.26 1330,-330.43 1330,-326.6 1330,-326.6 1330,-318.93 1330,-318.93 1330,-315.1 1333.83,-311.26 1337.67,-311.26 1337.67,-311.26 1436.33,-311.26 1436.33,-311.26 1440.17,-311.26 1444,-315.1 1444,-318.93 1444,-318.93 1444,-326.6 1444,-326.6 1444,-330.43 1440.17,-334.26 1436.33,-334.26"/>
<text text-anchor="middle" x="1387" y="-319.06" font-family="Arial" font-size="14.00" fill="#c6c5fe">client/lib/utils.tsx</text>
</g>
<!-- client/common/Layout.tsx&#45;&gt;client/lib/utils.tsx -->
<g id="edge4" class="edge">
<title>client/common/Layout.tsx&#45;&gt;client/lib/utils.tsx</title>
<path fill="none" stroke="#757575" d="M897.24,-340.67C1011.94,-336.47 1214.92,-329.03 1319.54,-325.2"/>
<polygon fill="#757575" stroke="#757575" points="1319.8,-328.69 1329.66,-324.83 1319.54,-321.7 1319.8,-328.69"/>
</g>
<!-- client/globalStore/store.ts&#45;&gt;client/lib/utils.tsx -->
<g id="edge12" class="edge">
<title>client/globalStore/store.ts&#45;&gt;client/lib/utils.tsx</title>
<path fill="none" stroke="#757575" d="M1172.69,-450.17C1201.08,-439.25 1243.45,-421.64 1278,-401.76 1309.68,-383.53 1343.21,-357.87 1364.35,-340.8"/>
<polygon fill="#757575" stroke="#757575" points="1366.81,-343.31 1372.35,-334.27 1362.39,-337.89 1366.81,-343.31"/>
</g>
<!-- client/lib/routerTypes.ts -->
<g id="node16" class="node">
<title>client/lib/routerTypes.ts</title>
<path fill="none" stroke="#c6c5fe" d="M1820.83,-629.26C1820.83,-629.26 1681.17,-629.26 1681.17,-629.26 1677.33,-629.26 1673.5,-625.43 1673.5,-621.6 1673.5,-621.6 1673.5,-613.93 1673.5,-613.93 1673.5,-610.1 1677.33,-606.26 1681.17,-606.26 1681.17,-606.26 1820.83,-606.26 1820.83,-606.26 1824.67,-606.26 1828.5,-610.1 1828.5,-613.93 1828.5,-613.93 1828.5,-621.6 1828.5,-621.6 1828.5,-625.43 1824.67,-629.26 1820.83,-629.26"/>
<text text-anchor="middle" x="1751" y="-614.06" font-family="Arial" font-size="14.00" fill="#c6c5fe">client/lib/routerTypes.ts</text>
</g>
<!-- client/lib/router.tsx&#45;&gt;client/lib/routerTypes.ts -->
<g id="edge13" class="edge">
<title>client/lib/router.tsx&#45;&gt;client/lib/routerTypes.ts</title>
<path fill="none" stroke="#757575" d="M1574.12,-513.45C1591.21,-532.49 1627.7,-570.26 1666,-591.76 1673.64,-596.05 1682.08,-599.72 1690.57,-602.84"/>
<polygon fill="#757575" stroke="#757575" points="1689.55,-606.19 1700.14,-606.13 1691.82,-599.57 1689.55,-606.19"/>
</g>
<!-- server/lib/routerUtils.ts -->
<g id="node17" class="node">
<title>server/lib/routerUtils.ts</title>
<path fill="none" stroke="#cfffac" d="M2015.33,-629.26C2015.33,-629.26 1879.67,-629.26 1879.67,-629.26 1875.83,-629.26 1872,-625.43 1872,-621.6 1872,-621.6 1872,-613.93 1872,-613.93 1872,-610.1 1875.83,-606.26 1879.67,-606.26 1879.67,-606.26 2015.33,-606.26 2015.33,-606.26 2019.17,-606.26 2023,-610.1 2023,-613.93 2023,-613.93 2023,-621.6 2023,-621.6 2023,-625.43 2019.17,-629.26 2015.33,-629.26"/>
<text text-anchor="middle" x="1947.5" y="-614.06" font-family="Arial" font-size="14.00" fill="#cfffac">server/lib/routerUtils.ts</text>
</g>
<!-- client/lib/router.tsx&#45;&gt;server/lib/routerUtils.ts -->
<g id="edge14" class="edge">
<title>client/lib/router.tsx&#45;&gt;server/lib/routerUtils.ts</title>
<path fill="none" stroke="#757575" d="M1602.07,-513.31C1672.15,-534.56 1821.41,-579.83 1898.38,-603.17"/>
<polygon fill="#757575" stroke="#757575" points="1897.71,-606.62 1908.3,-606.18 1899.74,-599.92 1897.71,-606.62"/>
</g>
<!-- client/lib/utils.tsx&#45;&gt;client/lib/router.tsx -->
<g id="edge17" class="edge">
<title>client/lib/utils.tsx&#45;&gt;client/lib/router.tsx</title>
<path fill="none" stroke="#757575" d="M1399.42,-334.51C1428.92,-364.86 1507.9,-446.11 1543.8,-483.03"/>
<polygon fill="#757575" stroke="#757575" points="1541.29,-485.48 1550.77,-490.21 1546.31,-480.6 1541.29,-485.48"/>
</g>
<!-- client/lib/context.tsx -->
<g id="node15" class="node">
<title>client/lib/context.tsx</title>
<path fill="none" stroke="#cfffac" d="M1622.33,-218.26C1622.33,-218.26 1503.67,-218.26 1503.67,-218.26 1499.83,-218.26 1496,-214.43 1496,-210.6 1496,-210.6 1496,-202.93 1496,-202.93 1496,-199.1 1499.83,-195.26 1503.67,-195.26 1503.67,-195.26 1622.33,-195.26 1622.33,-195.26 1626.17,-195.26 1630,-199.1 1630,-202.93 1630,-202.93 1630,-210.6 1630,-210.6 1630,-214.43 1626.17,-218.26 1622.33,-218.26"/>
<text text-anchor="middle" x="1563" y="-203.06" font-family="Arial" font-size="14.00" fill="#cfffac">client/lib/context.tsx</text>
</g>
<!-- client/lib/utils.tsx&#45;&gt;client/lib/context.tsx -->
<g id="edge16" class="edge">
<title>client/lib/utils.tsx&#45;&gt;client/lib/context.tsx</title>
<path fill="none" stroke="#757575" d="M1405.32,-311.22C1435.99,-290.77 1499.99,-248.1 1535.98,-224.11"/>
<polygon fill="#757575" stroke="#757575" points="1538.11,-226.89 1544.49,-218.43 1534.23,-221.07 1538.11,-226.89"/>
</g>
<!-- server/lib/sharedUtils.ts -->
<g id="node18" class="node">
<title>server/lib/sharedUtils.ts</title>
<path fill="none" stroke="#cfffac" d="M2552.33,-570.26C2552.33,-570.26 2410.67,-570.26 2410.67,-570.26 2406.83,-570.26 2403,-566.43 2403,-562.6 2403,-562.6 2403,-554.93 2403,-554.93 2403,-551.1 2406.83,-547.26 2410.67,-547.26 2410.67,-547.26 2552.33,-547.26 2552.33,-547.26 2556.17,-547.26 2560,-551.1 2560,-554.93 2560,-554.93 2560,-562.6 2560,-562.6 2560,-566.43 2556.17,-570.26 2552.33,-570.26"/>
<text text-anchor="middle" x="2481.5" y="-555.06" font-family="Arial" font-size="14.00" fill="#cfffac">server/lib/sharedUtils.ts</text>
</g>
<!-- client/lib/utils.tsx&#45;&gt;server/lib/sharedUtils.ts -->
<g id="edge18" class="edge">
<title>client/lib/utils.tsx&#45;&gt;server/lib/sharedUtils.ts</title>
<path fill="none" stroke="#757575" d="M1429.98,-334.33C1497.06,-351.77 1632.78,-382.76 1750,-382.76 1750,-382.76 1750,-382.76 2139.5,-382.76 2275.81,-382.76 2412.06,-495.19 2461.27,-540.33"/>
<polygon fill="#757575" stroke="#757575" points="2458.96,-542.96 2468.67,-547.21 2463.73,-537.84 2458.96,-542.96"/>
</g>
<!-- client/css/afterStyles.css -->
<g id="node6" class="node">
<title>client/css/afterStyles.css</title>
<path fill="none" stroke="#cfffac" d="M573.83,-826.26C573.83,-826.26 425.17,-826.26 425.17,-826.26 421.33,-826.26 417.5,-822.43 417.5,-818.6 417.5,-818.6 417.5,-810.93 417.5,-810.93 417.5,-807.1 421.33,-803.26 425.17,-803.26 425.17,-803.26 573.83,-803.26 573.83,-803.26 577.67,-803.26 581.5,-807.1 581.5,-810.93 581.5,-810.93 581.5,-818.6 581.5,-818.6 581.5,-822.43 577.67,-826.26 573.83,-826.26"/>
<text text-anchor="middle" x="499.5" y="-811.06" font-family="Arial" font-size="14.00" fill="#cfffac">client/css/afterStyles.css</text>
</g>
<!-- client/css/beforeStyles.css -->
<g id="node7" class="node">
<title>client/css/beforeStyles.css</title>
<path fill="none" stroke="#c6c5fe" d="M579.33,-867.26C579.33,-867.26 419.67,-867.26 419.67,-867.26 415.83,-867.26 412,-863.43 412,-859.6 412,-859.6 412,-851.93 412,-851.93 412,-848.1 415.83,-844.26 419.67,-844.26 419.67,-844.26 579.33,-844.26 579.33,-844.26 583.17,-844.26 587,-848.1 587,-851.93 587,-851.93 587,-859.6 587,-859.6 587,-863.43 583.17,-867.26 579.33,-867.26"/>
<text text-anchor="middle" x="499.5" y="-852.06" font-family="Arial" font-size="14.00" fill="#c6c5fe">client/css/beforeStyles.css</text>
</g>
<!-- client/css/vendor/bootstrap&#45;grid.css -->
<g id="node8" class="node">
<title>client/css/vendor/bootstrap&#45;grid.css</title>
<path fill="none" stroke="#cfffac" d="M918.33,-846.26C918.33,-846.26 705.67,-846.26 705.67,-846.26 701.83,-846.26 698,-842.43 698,-838.6 698,-838.6 698,-830.93 698,-830.93 698,-827.1 701.83,-823.26 705.67,-823.26 705.67,-823.26 918.33,-823.26 918.33,-823.26 922.17,-823.26 926,-827.1 926,-830.93 926,-830.93 926,-838.6 926,-838.6 926,-842.43 922.17,-846.26 918.33,-846.26"/>
<text text-anchor="middle" x="812" y="-831.06" font-family="Arial" font-size="14.00" fill="#cfffac">client/css/vendor/bootstrap&#45;grid.css</text>
</g>
<!-- client/css/beforeStyles.css&#45;&gt;client/css/vendor/bootstrap&#45;grid.css -->
<g id="edge5" class="edge">
<title>client/css/beforeStyles.css&#45;&gt;client/css/vendor/bootstrap&#45;grid.css</title>
<path fill="none" stroke="#757575" d="M587.4,-849.88C618.46,-847.78 654.07,-845.38 687.61,-843.11"/>
<polygon fill="#757575" stroke="#757575" points="688.2,-846.57 697.95,-842.41 687.73,-839.59 688.2,-846.57"/>
</g>
<!-- client/css/vendor/fontawesome.min.css -->
<g id="node9" class="node">
<title>client/css/vendor/fontawesome.min.css</title>
<path fill="none" stroke="#cfffac" d="M930.33,-805.26C930.33,-805.26 693.67,-805.26 693.67,-805.26 689.83,-805.26 686,-801.43 686,-797.6 686,-797.6 686,-789.93 686,-789.93 686,-786.1 689.83,-782.26 693.67,-782.26 693.67,-782.26 930.33,-782.26 930.33,-782.26 934.17,-782.26 938,-786.1 938,-789.93 938,-789.93 938,-797.6 938,-797.6 938,-801.43 934.17,-805.26 930.33,-805.26"/>
<text text-anchor="middle" x="812" y="-790.06" font-family="Arial" font-size="14.00" fill="#cfffac">client/css/vendor/fontawesome.min.css</text>
</g>
<!-- client/css/beforeStyles.css&#45;&gt;client/css/vendor/fontawesome.min.css -->
<g id="edge6" class="edge">
<title>client/css/beforeStyles.css&#45;&gt;client/css/vendor/fontawesome.min.css</title>
<path fill="none" stroke="#757575" d="M587.13,-844.71C599.02,-842.06 610.94,-838.79 622,-834.76 639.4,-828.42 640.47,-819.75 658,-813.76 664.56,-811.52 671.35,-809.53 678.27,-807.76"/>
<polygon fill="#757575" stroke="#757575" points="679.56,-811.05 688.48,-805.32 677.94,-804.24 679.56,-811.05"/>
</g>
<!-- client/css/vendor/regular.css -->
<g id="node10" class="node">
<title>client/css/vendor/regular.css</title>
<path fill="none" stroke="#cfffac" d="M897.33,-928.26C897.33,-928.26 726.67,-928.26 726.67,-928.26 722.83,-928.26 719,-924.43 719,-920.6 719,-920.6 719,-912.93 719,-912.93 719,-909.1 722.83,-905.26 726.67,-905.26 726.67,-905.26 897.33,-905.26 897.33,-905.26 901.17,-905.26 905,-909.1 905,-912.93 905,-912.93 905,-920.6 905,-920.6 905,-924.43 901.17,-928.26 897.33,-928.26"/>
<text text-anchor="middle" x="812" y="-913.06" font-family="Arial" font-size="14.00" fill="#cfffac">client/css/vendor/regular.css</text>
</g>
<!-- client/css/beforeStyles.css&#45;&gt;client/css/vendor/regular.css -->
<g id="edge7" class="edge">
<title>client/css/beforeStyles.css&#45;&gt;client/css/vendor/regular.css</title>
<path fill="none" stroke="#757575" d="M539.35,-867.32C571.04,-876.4 617.09,-888.8 658,-896.76 674.38,-899.95 691.84,-902.77 708.89,-905.21"/>
<polygon fill="#757575" stroke="#757575" points="708.48,-908.69 718.87,-906.61 709.45,-901.76 708.48,-908.69"/>
</g>
<!-- client/css/vendor/solid.css -->
<g id="node11" class="node">
<title>client/css/vendor/solid.css</title>
<path fill="none" stroke="#cfffac" d="M890.83,-887.26C890.83,-887.26 733.17,-887.26 733.17,-887.26 729.33,-887.26 725.5,-883.43 725.5,-879.6 725.5,-879.6 725.5,-871.93 725.5,-871.93 725.5,-868.1 729.33,-864.26 733.17,-864.26 733.17,-864.26 890.83,-864.26 890.83,-864.26 894.67,-864.26 898.5,-868.1 898.5,-871.93 898.5,-871.93 898.5,-879.6 898.5,-879.6 898.5,-883.43 894.67,-887.26 890.83,-887.26"/>
<text text-anchor="middle" x="812" y="-872.06" font-family="Arial" font-size="14.00" fill="#cfffac">client/css/vendor/solid.css</text>
</g>
<!-- client/css/beforeStyles.css&#45;&gt;client/css/vendor/solid.css -->
<g id="edge8" class="edge">
<title>client/css/beforeStyles.css&#45;&gt;client/css/vendor/solid.css</title>
<path fill="none" stroke="#757575" d="M587.4,-861.36C627.18,-863.92 674.44,-866.97 715.23,-869.59"/>
<polygon fill="#757575" stroke="#757575" points="715.25,-873.1 725.46,-870.25 715.7,-866.12 715.25,-873.1"/>
</g>
<!-- client/css/globalStyles.css -->
<g id="node12" class="node">
<title>client/css/globalStyles.css</title>
<path fill="none" stroke="#cfffac" d="M578.33,-785.26C578.33,-785.26 420.67,-785.26 420.67,-785.26 416.83,-785.26 413,-781.43 413,-777.6 413,-777.6 413,-769.93 413,-769.93 413,-766.1 416.83,-762.26 420.67,-762.26 420.67,-762.26 578.33,-762.26 578.33,-762.26 582.17,-762.26 586,-766.1 586,-769.93 586,-769.93 586,-777.6 586,-777.6 586,-781.43 582.17,-785.26 578.33,-785.26"/>
<text text-anchor="middle" x="499.5" y="-770.06" font-family="Arial" font-size="14.00" fill="#cfffac">client/css/globalStyles.css</text>
</g>
<!-- client/css/index.css -->
<g id="node13" class="node">
<title>client/css/index.css</title>
<path fill="none" stroke="#c6c5fe" d="M333.33,-805.26C333.33,-805.26 216.67,-805.26 216.67,-805.26 212.83,-805.26 209,-801.43 209,-797.6 209,-797.6 209,-789.93 209,-789.93 209,-786.1 212.83,-782.26 216.67,-782.26 216.67,-782.26 333.33,-782.26 333.33,-782.26 337.17,-782.26 341,-786.1 341,-789.93 341,-789.93 341,-797.6 341,-797.6 341,-801.43 337.17,-805.26 333.33,-805.26"/>
<text text-anchor="middle" x="275" y="-790.06" font-family="Arial" font-size="14.00" fill="#c6c5fe">client/css/index.css</text>
</g>
<!-- client/css/index.css&#45;&gt;client/css/afterStyles.css -->
<g id="edge9" class="edge">
<title>client/css/index.css&#45;&gt;client/css/afterStyles.css</title>
<path fill="none" stroke="#757575" d="M341.25,-799.92C361.94,-801.87 385.19,-804.07 407.35,-806.16"/>
<polygon fill="#757575" stroke="#757575" points="407.16,-809.66 417.44,-807.11 407.81,-802.69 407.16,-809.66"/>
</g>
<!-- client/css/index.css&#45;&gt;client/css/beforeStyles.css -->
<g id="edge10" class="edge">
<title>client/css/index.css&#45;&gt;client/css/beforeStyles.css</title>
<path fill="none" stroke="#757575" d="M300.38,-805.39C320.52,-814.56 350.07,-827.07 377,-834.76 386.75,-837.55 397.05,-840.02 407.36,-842.2"/>
<polygon fill="#757575" stroke="#757575" points="406.74,-845.65 417.24,-844.21 408.13,-838.79 406.74,-845.65"/>
</g>
<!-- client/css/index.css&#45;&gt;client/css/globalStyles.css -->
<g id="edge11" class="edge">
<title>client/css/index.css&#45;&gt;client/css/globalStyles.css</title>
<path fill="none" stroke="#757575" d="M341.25,-787.9C360.54,-786.16 382.06,-784.23 402.84,-782.36"/>
<polygon fill="#757575" stroke="#757575" points="403.33,-785.83 412.97,-781.45 402.7,-778.86 403.33,-785.83"/>
</g>
<!-- client/globalStore/actions.ts -->
<g id="node14" class="node">
<title>client/globalStore/actions.ts</title>
<path fill="none" stroke="#cfffac" d="M582.33,-232.26C582.33,-232.26 416.67,-232.26 416.67,-232.26 412.83,-232.26 409,-228.43 409,-224.6 409,-224.6 409,-216.93 409,-216.93 409,-213.1 412.83,-209.26 416.67,-209.26 416.67,-209.26 582.33,-209.26 582.33,-209.26 586.17,-209.26 590,-213.1 590,-216.93 590,-216.93 590,-224.6 590,-224.6 590,-228.43 586.17,-232.26 582.33,-232.26"/>
<text text-anchor="middle" x="499.5" y="-217.06" font-family="Arial" font-size="14.00" fill="#cfffac">client/globalStore/actions.ts</text>
</g>
<!-- client/lib/routerTypes.ts&#45;&gt;server/lib/routerUtils.ts -->
<g id="edge15" class="edge">
<title>client/lib/routerTypes.ts&#45;&gt;server/lib/routerUtils.ts</title>
<path fill="none" stroke="#757575" d="M1828.59,-617.76C1839.5,-617.76 1850.77,-617.76 1861.82,-617.76"/>
<polygon fill="#757575" stroke="#757575" points="1861.89,-621.26 1871.89,-617.76 1861.89,-614.26 1861.89,-621.26"/>
</g>
<!-- client/main/App.tsx -->
<g id="node19" class="node">
<title>client/main/App.tsx</title>
<path fill="none" stroke="#c6c5fe" d="M332.83,-355.26C332.83,-355.26 217.17,-355.26 217.17,-355.26 213.33,-355.26 209.5,-351.43 209.5,-347.6 209.5,-347.6 209.5,-339.93 209.5,-339.93 209.5,-336.1 213.33,-332.26 217.17,-332.26 217.17,-332.26 332.83,-332.26 332.83,-332.26 336.67,-332.26 340.5,-336.1 340.5,-339.93 340.5,-339.93 340.5,-347.6 340.5,-347.6 340.5,-351.43 336.67,-355.26 332.83,-355.26"/>
<text text-anchor="middle" x="275" y="-340.06" font-family="Arial" font-size="14.00" fill="#c6c5fe">client/main/App.tsx</text>
</g>
<!-- client/main/App.tsx&#45;&gt;client/globalStore/store.ts -->
<g id="edge20" class="edge">
<title>client/main/App.tsx&#45;&gt;client/globalStore/store.ts</title>
<path fill="none" stroke="#757575" d="M327.43,-355.28C343.26,-358.47 360.78,-361.63 377,-363.76 507.05,-380.87 845.39,-351.19 966,-402.76 985.96,-411.29 982.6,-426.03 1002,-435.76 1015.58,-442.57 1030.74,-447.6 1045.88,-451.32"/>
<polygon fill="#757575" stroke="#757575" points="1045.28,-454.78 1055.81,-453.58 1046.83,-447.95 1045.28,-454.78"/>
</g>
<!-- client/main/App.tsx&#45;&gt;client/lib/router.tsx -->
<g id="edge22" class="edge">
<title>client/main/App.tsx&#45;&gt;client/lib/router.tsx</title>
<path fill="none" stroke="#757575" d="M278.89,-355.27C287.81,-388.58 317.95,-486.27 377,-541.76 526.15,-681.93 606.33,-695.76 811,-695.76 811,-695.76 811,-695.76 1141,-695.76 1308.22,-695.76 1481.33,-567.96 1540.62,-519.82"/>
<polygon fill="#757575" stroke="#757575" points="1543.02,-522.37 1548.52,-513.32 1538.57,-516.96 1543.02,-522.37"/>
</g>
<!-- client/main/App.tsx&#45;&gt;client/lib/utils.tsx -->
<g id="edge23" class="edge">
<title>client/main/App.tsx&#45;&gt;client/lib/utils.tsx</title>
<path fill="none" stroke="#757575" d="M280.39,-331.95C291.57,-303.65 324.05,-231.99 377,-199.76 484.65,-134.24 532.26,-170.23 658,-161.76 795.47,-152.51 1156.43,-96.92 1278,-161.76 1333.95,-191.6 1366.04,-264.72 1379.09,-301.26"/>
<polygon fill="#757575" stroke="#757575" points="1375.85,-302.6 1382.4,-310.93 1382.47,-300.33 1375.85,-302.6"/>
</g>
<!-- client/main/App.tsx&#45;&gt;client/globalStore/actions.ts -->
<g id="edge19" class="edge">
<title>client/main/App.tsx&#45;&gt;client/globalStore/actions.ts</title>
<path fill="none" stroke="#757575" d="M283.55,-332.17C298.48,-310.27 334.11,-263.05 377,-240.76 383.94,-237.16 391.37,-234.18 399.02,-231.71"/>
<polygon fill="#757575" stroke="#757575" points="400.18,-235.02 408.79,-228.86 398.21,-228.3 400.18,-235.02"/>
</g>
<!-- client/main/App.tsx&#45;&gt;client/lib/context.tsx -->
<g id="edge21" class="edge">
<title>client/main/App.tsx&#45;&gt;client/lib/context.tsx</title>
<path fill="none" stroke="#757575" d="M278.32,-331.88C285.7,-297.67 312.06,-198.61 377,-155.76 759.19,96.43 1371.51,-127.98 1525.81,-191.29"/>
<polygon fill="#757575" stroke="#757575" points="1524.72,-194.63 1535.3,-195.22 1527.4,-188.17 1524.72,-194.63"/>
</g>
<!-- client/pages/projectStructure/Index.tsx -->
<g id="node20" class="node">
<title>client/pages/projectStructure/Index.tsx</title>
<path fill="none" stroke="#c6c5fe" d="M614.33,-435.26C614.33,-435.26 384.67,-435.26 384.67,-435.26 380.83,-435.26 377,-431.43 377,-427.6 377,-427.6 377,-419.93 377,-419.93 377,-416.1 380.83,-412.26 384.67,-412.26 384.67,-412.26 614.33,-412.26 614.33,-412.26 618.17,-412.26 622,-416.1 622,-419.93 622,-419.93 622,-427.6 622,-427.6 622,-431.43 618.17,-435.26 614.33,-435.26"/>
<text text-anchor="middle" x="499.5" y="-420.06" font-family="Arial" font-size="14.00" fill="#c6c5fe">client/pages/projectStructure/Index.tsx</text>
</g>
<!-- client/main/App.tsx&#45;&gt;client/pages/projectStructure/Index.tsx -->
<g id="edge24" class="edge">
<title>client/main/App.tsx&#45;&gt;client/pages/projectStructure/Index.tsx</title>
<path fill="none" stroke="#757575" d="M293.89,-355.33C313.54,-367.54 346.38,-386.55 377,-397.76 390.04,-402.54 404.21,-406.55 418.1,-409.89"/>
<polygon fill="#757575" stroke="#757575" points="417.63,-413.37 428.16,-412.2 419.2,-406.55 417.63,-413.37"/>
</g>
<!-- client/pages/session/New.tsx -->
<g id="node21" class="node">
<title>client/pages/session/New.tsx</title>
<path fill="none" stroke="#c6c5fe" d="M586.33,-355.26C586.33,-355.26 412.67,-355.26 412.67,-355.26 408.83,-355.26 405,-351.43 405,-347.6 405,-347.6 405,-339.93 405,-339.93 405,-336.1 408.83,-332.26 412.67,-332.26 412.67,-332.26 586.33,-332.26 586.33,-332.26 590.17,-332.26 594,-336.1 594,-339.93 594,-339.93 594,-347.6 594,-347.6 594,-351.43 590.17,-355.26 586.33,-355.26"/>
<text text-anchor="middle" x="499.5" y="-340.06" font-family="Arial" font-size="14.00" fill="#c6c5fe">client/pages/session/New.tsx</text>
</g>
<!-- client/main/App.tsx&#45;&gt;client/pages/session/New.tsx -->
<g id="edge25" class="edge">
<title>client/main/App.tsx&#45;&gt;client/pages/session/New.tsx</title>
<path fill="none" stroke="#757575" d="M340.66,-343.76C357.54,-343.76 376.18,-343.76 394.55,-343.76"/>
<polygon fill="#757575" stroke="#757575" points="394.72,-347.26 404.72,-343.76 394.72,-340.26 394.72,-347.26"/>
</g>
<!-- client/pages/todos/Index.tsx -->
<g id="node22" class="node">
<title>client/pages/todos/Index.tsx</title>
<path fill="none" stroke="#c6c5fe" d="M583.33,-533.26C583.33,-533.26 415.67,-533.26 415.67,-533.26 411.83,-533.26 408,-529.43 408,-525.6 408,-525.6 408,-517.93 408,-517.93 408,-514.1 411.83,-510.26 415.67,-510.26 415.67,-510.26 583.33,-510.26 583.33,-510.26 587.17,-510.26 591,-514.1 591,-517.93 591,-517.93 591,-525.6 591,-525.6 591,-529.43 587.17,-533.26 583.33,-533.26"/>
<text text-anchor="middle" x="499.5" y="-518.06" font-family="Arial" font-size="14.00" fill="#c6c5fe">client/pages/todos/Index.tsx</text>
</g>
<!-- client/main/App.tsx&#45;&gt;client/pages/todos/Index.tsx -->
<g id="edge26" class="edge">
<title>client/main/App.tsx&#45;&gt;client/pages/todos/Index.tsx</title>
<path fill="none" stroke="#757575" d="M286.21,-355.35C303.7,-374.85 340.99,-414.91 377,-443.76 406.44,-467.36 443.26,-490.17 468.61,-504.96"/>
<polygon fill="#757575" stroke="#757575" points="466.98,-508.07 477.39,-510.04 470.49,-502 466.98,-508.07"/>
</g>
<!-- client/pages/users/@id.tsx -->
<g id="node23" class="node">
<title>client/pages/users/@id.tsx</title>
<path fill="none" stroke="#c6c5fe" d="M579.33,-314.26C579.33,-314.26 419.67,-314.26 419.67,-314.26 415.83,-314.26 412,-310.43 412,-306.6 412,-306.6 412,-298.93 412,-298.93 412,-295.1 415.83,-291.26 419.67,-291.26 419.67,-291.26 579.33,-291.26 579.33,-291.26 583.17,-291.26 587,-295.1 587,-298.93 587,-298.93 587,-306.6 587,-306.6 587,-310.43 583.17,-314.26 579.33,-314.26"/>
<text text-anchor="middle" x="499.5" y="-299.06" font-family="Arial" font-size="14.00" fill="#c6c5fe">client/pages/users/@id.tsx</text>
</g>
<!-- client/main/App.tsx&#45;&gt;client/pages/users/@id.tsx -->
<g id="edge27" class="edge">
<title>client/main/App.tsx&#45;&gt;client/pages/users/@id.tsx</title>
<path fill="none" stroke="#757575" d="M329.38,-332.23C344.73,-329.03 361.51,-325.65 377,-322.76 389.35,-320.46 402.44,-318.16 415.27,-315.99"/>
<polygon fill="#757575" stroke="#757575" points="416.21,-319.38 425.49,-314.27 415.05,-312.48 416.21,-319.38"/>
</g>
<!-- client/pages/users/Index.tsx -->
<g id="node24" class="node">
<title>client/pages/users/Index.tsx</title>
<path fill="none" stroke="#c6c5fe" d="M583.33,-273.26C583.33,-273.26 415.67,-273.26 415.67,-273.26 411.83,-273.26 408,-269.43 408,-265.6 408,-265.6 408,-257.93 408,-257.93 408,-254.1 411.83,-250.26 415.67,-250.26 415.67,-250.26 583.33,-250.26 583.33,-250.26 587.17,-250.26 591,-254.1 591,-257.93 591,-257.93 591,-265.6 591,-265.6 591,-269.43 587.17,-273.26 583.33,-273.26"/>
<text text-anchor="middle" x="499.5" y="-258.06" font-family="Arial" font-size="14.00" fill="#c6c5fe">client/pages/users/Index.tsx</text>
</g>
<!-- client/main/App.tsx&#45;&gt;client/pages/users/Index.tsx -->
<g id="edge28" class="edge">
<title>client/main/App.tsx&#45;&gt;client/pages/users/Index.tsx</title>
<path fill="none" stroke="#757575" d="M290.78,-332.11C309.65,-317.86 343.84,-294.12 377,-281.76 383.75,-279.25 390.82,-277.05 398.02,-275.12"/>
<polygon fill="#757575" stroke="#757575" points="399.04,-278.48 407.9,-272.67 397.35,-271.68 399.04,-278.48"/>
</g>
<!-- client/pages/projectStructure/Index.tsx&#45;&gt;client/common/Layout.tsx -->
<g id="edge33" class="edge">
<title>client/pages/projectStructure/Index.tsx&#45;&gt;client/common/Layout.tsx</title>
<path fill="none" stroke="#757575" d="M545.32,-412.21C601.04,-397.86 696.12,-373.36 756.14,-357.9"/>
<polygon fill="#757575" stroke="#757575" points="757.39,-361.19 766.2,-355.31 755.64,-354.41 757.39,-361.19"/>
</g>
<!-- client/pages/projectStructure/Index.tsx&#45;&gt;client/lib/utils.tsx -->
<g id="edge34" class="edge">
<title>client/pages/projectStructure/Index.tsx&#45;&gt;client/lib/utils.tsx</title>
<path fill="none" stroke="#757575" d="M527.04,-435.3C630.66,-478.45 1015.14,-620.98 1278,-481.76 1333.56,-452.34 1365.84,-380.1 1379.01,-344.01"/>
<polygon fill="#757575" stroke="#757575" points="1382.35,-345.05 1382.35,-334.45 1375.75,-342.74 1382.35,-345.05"/>
</g>
<!-- client/pages/projectStructure/projectStructure.tsx -->
<g id="node26" class="node">
<title>client/pages/projectStructure/projectStructure.tsx</title>
<path fill="none" stroke="#cfffac" d="M958.33,-435.26C958.33,-435.26 665.67,-435.26 665.67,-435.26 661.83,-435.26 658,-431.43 658,-427.6 658,-427.6 658,-419.93 658,-419.93 658,-416.1 661.83,-412.26 665.67,-412.26 665.67,-412.26 958.33,-412.26 958.33,-412.26 962.17,-412.26 966,-416.1 966,-419.93 966,-419.93 966,-427.6 966,-427.6 966,-431.43 962.17,-435.26 958.33,-435.26"/>
<text text-anchor="middle" x="812" y="-420.06" font-family="Arial" font-size="14.00" fill="#cfffac">client/pages/projectStructure/projectStructure.tsx</text>
</g>
<!-- client/pages/projectStructure/Index.tsx&#45;&gt;client/pages/projectStructure/projectStructure.tsx -->
<g id="edge35" class="edge">
<title>client/pages/projectStructure/Index.tsx&#45;&gt;client/pages/projectStructure/projectStructure.tsx</title>
<path fill="none" stroke="#757575" d="M622.33,-423.76C630.69,-423.76 639.19,-423.76 647.73,-423.76"/>
<polygon fill="#757575" stroke="#757575" points="647.75,-427.26 657.75,-423.76 647.75,-420.26 647.75,-427.26"/>
</g>
<!-- client/pages/session/New.tsx&#45;&gt;client/common/Layout.tsx -->
<g id="edge36" class="edge">
<title>client/pages/session/New.tsx&#45;&gt;client/common/Layout.tsx</title>
<path fill="none" stroke="#757575" d="M594.08,-343.76C632.85,-343.76 677.74,-343.76 716.59,-343.76"/>
<polygon fill="#757575" stroke="#757575" points="716.85,-347.26 726.85,-343.76 716.85,-340.26 716.85,-347.26"/>
</g>
<!-- client/pages/session/New.tsx&#45;&gt;client/lib/router.tsx -->
<g id="edge37" class="edge">
<title>client/pages/session/New.tsx&#45;&gt;client/lib/router.tsx</title>
<path fill="none" stroke="#757575" d="M532.65,-355.28C558.35,-365.41 594.49,-381.8 622,-402.76 641.29,-417.46 636.49,-432.56 658,-443.76 802.16,-518.84 1302.85,-510.49 1490.37,-504.49"/>
<polygon fill="#757575" stroke="#757575" points="1490.51,-507.99 1500.39,-504.16 1490.28,-500.99 1490.51,-507.99"/>
</g>
<!-- client/pages/session/New.tsx&#45;&gt;client/lib/utils.tsx -->
<g id="edge38" class="edge">
<title>client/pages/session/New.tsx&#45;&gt;client/lib/utils.tsx</title>
<path fill="none" stroke="#757575" d="M571.65,-332.24C598.62,-328.41 629.65,-324.64 658,-322.76 901.42,-306.61 1191.64,-314.81 1319.7,-319.83"/>
<polygon fill="#757575" stroke="#757575" points="1319.61,-323.33 1329.74,-320.23 1319.89,-316.33 1319.61,-323.33"/>
</g>
<!-- client/pages/todos/Index.tsx&#45;&gt;client/common/Layout.tsx -->
<g id="edge39" class="edge">
<title>client/pages/todos/Index.tsx&#45;&gt;client/common/Layout.tsx</title>
<path fill="none" stroke="#757575" d="M522.38,-510.18C547.73,-496.24 590.08,-471.23 622,-443.76 640.38,-427.95 638.11,-416.64 658,-402.76 687.29,-382.33 724.6,-367.76 755.05,-358.21"/>
<polygon fill="#757575" stroke="#757575" points="756.12,-361.54 764.67,-355.28 754.09,-354.84 756.12,-361.54"/>
</g>
<!-- client/pages/todos/Index.tsx&#45;&gt;client/globalStore/store.ts -->
<g id="edge40" class="edge">
<title>client/pages/todos/Index.tsx&#45;&gt;client/globalStore/store.ts</title>
<path fill="none" stroke="#757575" d="M591.3,-513.23C711.86,-501.9 923.69,-481.99 1045.56,-470.54"/>
<polygon fill="#757575" stroke="#757575" points="1045.99,-474.02 1055.62,-469.6 1045.34,-467.05 1045.99,-474.02"/>
</g>
<!-- client/pages/todos/Index.tsx&#45;&gt;client/lib/router.tsx -->
<g id="edge41" class="edge">
<title>client/pages/todos/Index.tsx&#45;&gt;client/lib/router.tsx</title>
<path fill="none" stroke="#757575" d="M510.9,-533.32C534.24,-558.27 593.8,-616.67 658,-637.76 788.05,-680.49 829.97,-653.08 966,-637.76 1174,-614.33 1415.26,-546.28 1515.07,-516.27"/>
<polygon fill="#757575" stroke="#757575" points="1516.29,-519.56 1524.85,-513.32 1514.26,-512.86 1516.29,-519.56"/>
</g>
<!-- client/pages/todos/Index.tsx&#45;&gt;client/lib/utils.tsx -->
<g id="edge42" class="edge">
<title>client/pages/todos/Index.tsx&#45;&gt;client/lib/utils.tsx</title>
<path fill="none" stroke="#757575" d="M587.55,-533.28C765.6,-555.09 1164.21,-594.37 1278,-525.76 1344.99,-485.38 1372.7,-387.89 1382.02,-344.37"/>
<polygon fill="#757575" stroke="#757575" points="1385.5,-344.8 1384.05,-334.3 1378.64,-343.42 1385.5,-344.8"/>
</g>
<!-- client/pages/todos/styles.module.css -->
<g id="node27" class="node">
<title>client/pages/todos/styles.module.css</title>
<path fill="none" stroke="#cfffac" d="M922.33,-629.26C922.33,-629.26 701.67,-629.26 701.67,-629.26 697.83,-629.26 694,-625.43 694,-621.6 694,-621.6 694,-613.93 694,-613.93 694,-610.1 697.83,-606.26 701.67,-606.26 701.67,-606.26 922.33,-606.26 922.33,-606.26 926.17,-606.26 930,-610.1 930,-613.93 930,-613.93 930,-621.6 930,-621.6 930,-625.43 926.17,-629.26 922.33,-629.26"/>
<text text-anchor="middle" x="812" y="-614.06" font-family="Arial" font-size="14.00" fill="#cfffac">client/pages/todos/styles.module.css</text>
</g>
<!-- client/pages/todos/Index.tsx&#45;&gt;client/pages/todos/styles.module.css -->
<g id="edge43" class="edge">
<title>client/pages/todos/Index.tsx&#45;&gt;client/pages/todos/styles.module.css</title>
<path fill="none" stroke="#757575" d="M521.75,-533.27C551.42,-548.85 607.3,-576.45 658,-591.76 674.6,-596.78 692.53,-600.91 710.06,-604.29"/>
<polygon fill="#757575" stroke="#757575" points="709.86,-607.82 720.33,-606.2 711.14,-600.93 709.86,-607.82"/>
</g>
<!-- client/pages/users/@id.tsx&#45;&gt;client/common/Layout.tsx -->
<g id="edge44" class="edge">
<title>client/pages/users/@id.tsx&#45;&gt;client/common/Layout.tsx</title>
<path fill="none" stroke="#757575" d="M587.4,-314.24C627.68,-319.56 675.62,-325.89 716.77,-331.32"/>
<polygon fill="#757575" stroke="#757575" points="716.42,-334.8 726.8,-332.64 717.34,-327.86 716.42,-334.8"/>
</g>
<!-- client/pages/users/@id.tsx&#45;&gt;client/lib/utils.tsx -->
<g id="edge45" class="edge">
<title>client/pages/users/@id.tsx&#45;&gt;client/lib/utils.tsx</title>
<path fill="none" stroke="#757575" d="M587.07,-294.33C610.1,-292.44 634.97,-290.71 658,-289.76 933.32,-278.42 1005.47,-249.05 1278,-289.76 1301.5,-293.27 1326.95,-300.85 1347.24,-307.86"/>
<polygon fill="#757575" stroke="#757575" points="1346.16,-311.19 1356.75,-311.24 1348.5,-304.6 1346.16,-311.19"/>
</g>
<!-- client/pages/users/UI/InfoCircle.tsx -->
<g id="node28" class="node">
<title>client/pages/users/UI/InfoCircle.tsx</title>
<path fill="none" stroke="#c6c5fe" d="M916.33,-237.26C916.33,-237.26 707.67,-237.26 707.67,-237.26 703.83,-237.26 700,-233.43 700,-229.6 700,-229.6 700,-221.93 700,-221.93 700,-218.1 703.83,-214.26 707.67,-214.26 707.67,-214.26 916.33,-214.26 916.33,-214.26 920.17,-214.26 924,-218.1 924,-221.93 924,-221.93 924,-229.6 924,-229.6 924,-233.43 920.17,-237.26 916.33,-237.26"/>
<text text-anchor="middle" x="812" y="-222.06" font-family="Arial" font-size="14.00" fill="#c6c5fe">client/pages/users/UI/InfoCircle.tsx</text>
</g>
<!-- client/pages/users/@id.tsx&#45;&gt;client/pages/users/UI/InfoCircle.tsx -->
<g id="edge46" class="edge">
<title>client/pages/users/@id.tsx&#45;&gt;client/pages/users/UI/InfoCircle.tsx</title>
<path fill="none" stroke="#757575" d="M587.18,-293.55C599.18,-290.63 611.12,-286.79 622,-281.76 640.91,-273.02 639.08,-260.47 658,-251.76 668.32,-247.01 679.38,-243.12 690.67,-239.93"/>
<polygon fill="#757575" stroke="#757575" points="691.86,-243.24 700.64,-237.31 690.08,-236.47 691.86,-243.24"/>
</g>
<!-- client/pages/users/Index.tsx&#45;&gt;client/common/Layout.tsx -->
<g id="edge47" class="edge">
<title>client/pages/users/Index.tsx&#45;&gt;client/common/Layout.tsx</title>
<path fill="none" stroke="#757575" d="M581.24,-273.26C594.92,-275.72 608.92,-278.56 622,-281.76 674.34,-294.58 733.1,-314.81 771.01,-328.65"/>
<polygon fill="#757575" stroke="#757575" points="770.05,-332.03 780.65,-332.2 772.47,-325.46 770.05,-332.03"/>
</g>
<!-- client/pages/users/Index.tsx&#45;&gt;client/lib/utils.tsx -->
<g id="edge48" class="edge">
<title>client/pages/users/Index.tsx&#45;&gt;client/lib/utils.tsx</title>
<path fill="none" stroke="#757575" d="M591.13,-252.51C601.86,-249.57 612.4,-245.74 622,-240.76 642.09,-230.35 637.09,-213.42 658,-204.76 785.29,-152.04 1151.91,-149.24 1278,-204.76 1323.24,-224.69 1357.79,-273.96 1374.63,-302.13"/>
<polygon fill="#757575" stroke="#757575" points="1371.81,-304.23 1379.84,-311.13 1377.86,-300.72 1371.81,-304.23"/>
</g>
<!-- client/main/entry&#45;client.tsx -->
<g id="node25" class="node">
<title>client/main/entry&#45;client.tsx</title>
<path fill="none" stroke="#c6c5fe" d="M165.33,-550.26C165.33,-550.26 7.67,-550.26 7.67,-550.26 3.83,-550.26 0,-546.43 0,-542.6 0,-542.6 0,-534.93 0,-534.93 0,-531.1 3.83,-527.26 7.67,-527.26 7.67,-527.26 165.33,-527.26 165.33,-527.26 169.17,-527.26 173,-531.1 173,-534.93 173,-534.93 173,-542.6 173,-542.6 173,-546.43 169.17,-550.26 165.33,-550.26"/>
<text text-anchor="middle" x="86.5" y="-535.06" font-family="Arial" font-size="14.00" fill="#c6c5fe">client/main/entry&#45;client.tsx</text>
</g>
<!-- client/main/entry&#45;client.tsx&#45;&gt;client/lib/router.tsx -->
<g id="edge30" class="edge">
<title>client/main/entry&#45;client.tsx&#45;&gt;client/lib/router.tsx</title>
<path fill="none" stroke="#757575" d="M100.6,-550.38C149.35,-592.36 326.33,-733.76 498.5,-733.76 498.5,-733.76 498.5,-733.76 1141,-733.76 1289.85,-733.76 1350.52,-732.61 1460,-631.76 1485.15,-608.59 1475.26,-590.95 1496,-563.76 1508.48,-547.41 1525.44,-531.58 1539.05,-520"/>
<polygon fill="#757575" stroke="#757575" points="1541.56,-522.46 1547.01,-513.38 1537.09,-517.08 1541.56,-522.46"/>
</g>
<!-- client/main/entry&#45;client.tsx&#45;&gt;client/lib/utils.tsx -->
<g id="edge31" class="edge">
<title>client/main/entry&#45;client.tsx&#45;&gt;client/lib/utils.tsx</title>
<path fill="none" stroke="#757575" d="M91.59,-527.12C111.77,-471.83 206.59,-235.07 377,-155.76 740.23,13.28 932.83,75.64 1278,-127.76 1343.02,-166.08 1371.65,-259.18 1381.6,-301.36"/>
<polygon fill="#757575" stroke="#757575" points="1378.19,-302.15 1383.79,-311.15 1385.03,-300.63 1378.19,-302.15"/>
</g>
<!-- client/main/entry&#45;client.tsx&#45;&gt;client/css/index.css -->
<g id="edge29" class="edge">
<title>client/main/entry&#45;client.tsx&#45;&gt;client/css/index.css</title>
<path fill="none" stroke="#757575" d="M92.1,-550.28C105.87,-583.75 149.52,-682.72 209,-747.76 219.19,-758.9 232.5,-768.9 244.43,-776.72"/>
<polygon fill="#757575" stroke="#757575" points="242.88,-779.87 253.21,-782.24 246.61,-773.95 242.88,-779.87"/>
</g>
<!-- client/main/entry&#45;client.tsx&#45;&gt;client/main/App.tsx -->
<g id="edge32" class="edge">
<title>client/main/entry&#45;client.tsx&#45;&gt;client/main/App.tsx</title>
<path fill="none" stroke="#757575" d="M98.61,-527.15C129.63,-494.71 217.43,-402.91 255.74,-362.85"/>
<polygon fill="#757575" stroke="#757575" points="258.33,-365.21 262.71,-355.56 253.27,-360.37 258.33,-365.21"/>
</g>
<!-- client/pages/users/UI/InfoCircle.module.css -->
<g id="node29" class="node">
<title>client/pages/users/UI/InfoCircle.module.css</title>
<path fill="none" stroke="#cfffac" d="M1270.33,-237.26C1270.33,-237.26 1009.67,-237.26 1009.67,-237.26 1005.83,-237.26 1002,-233.43 1002,-229.6 1002,-229.6 1002,-221.93 1002,-221.93 1002,-218.1 1005.83,-214.26 1009.67,-214.26 1009.67,-214.26 1270.33,-214.26 1270.33,-214.26 1274.17,-214.26 1278,-218.1 1278,-221.93 1278,-221.93 1278,-229.6 1278,-229.6 1278,-233.43 1274.17,-237.26 1270.33,-237.26"/>
<text text-anchor="middle" x="1140" y="-222.06" font-family="Arial" font-size="14.00" fill="#cfffac">client/pages/users/UI/InfoCircle.module.css</text>
</g>
<!-- client/pages/users/UI/InfoCircle.tsx&#45;&gt;client/pages/users/UI/InfoCircle.module.css -->
<g id="edge49" class="edge">
<title>client/pages/users/UI/InfoCircle.tsx&#45;&gt;client/pages/users/UI/InfoCircle.module.css</title>
<path fill="none" stroke="#757575" d="M924.28,-225.76C946.05,-225.76 969.2,-225.76 991.92,-225.76"/>
<polygon fill="#757575" stroke="#757575" points="991.98,-229.26 1001.98,-225.76 991.98,-222.26 991.98,-229.26"/>
</g>
<!-- knexfile.js -->
<g id="node30" class="node">
<title>knexfile.js</title>
<path fill="none" stroke="#cfffac" d="M2511.83,-767.26C2511.83,-767.26 2451.17,-767.26 2451.17,-767.26 2447.33,-767.26 2443.5,-763.43 2443.5,-759.6 2443.5,-759.6 2443.5,-751.93 2443.5,-751.93 2443.5,-748.1 2447.33,-744.26 2451.17,-744.26 2451.17,-744.26 2511.83,-744.26 2511.83,-744.26 2515.67,-744.26 2519.5,-748.1 2519.5,-751.93 2519.5,-751.93 2519.5,-759.6 2519.5,-759.6 2519.5,-763.43 2515.67,-767.26 2511.83,-767.26"/>
<text text-anchor="middle" x="2481.5" y="-752.06" font-family="Arial" font-size="14.00" fill="#cfffac">knexfile.js</text>
</g>
<!-- scripts/devUtils.js -->
<g id="node31" class="node">
<title>scripts/devUtils.js</title>
<path fill="none" stroke="#cfffac" d="M2534.33,-808.26C2534.33,-808.26 2428.67,-808.26 2428.67,-808.26 2424.83,-808.26 2421,-804.43 2421,-800.6 2421,-800.6 2421,-792.93 2421,-792.93 2421,-789.1 2424.83,-785.26 2428.67,-785.26 2428.67,-785.26 2534.33,-785.26 2534.33,-785.26 2538.17,-785.26 2542,-789.1 2542,-792.93 2542,-792.93 2542,-800.6 2542,-800.6 2542,-804.43 2538.17,-808.26 2534.33,-808.26"/>
<text text-anchor="middle" x="2481.5" y="-793.06" font-family="Arial" font-size="14.00" fill="#cfffac">scripts/devUtils.js</text>
</g>
<!-- server/lib/graphql/index.ts -->
<g id="node32" class="node">
<title>server/lib/graphql/index.ts</title>
<path fill="none" stroke="#c6c5fe" d="M1828.33,-827.26C1828.33,-827.26 1673.67,-827.26 1673.67,-827.26 1669.83,-827.26 1666,-823.43 1666,-819.6 1666,-819.6 1666,-811.93 1666,-811.93 1666,-808.1 1669.83,-804.26 1673.67,-804.26 1673.67,-804.26 1828.33,-804.26 1828.33,-804.26 1832.17,-804.26 1836,-808.1 1836,-811.93 1836,-811.93 1836,-819.6 1836,-819.6 1836,-823.43 1832.17,-827.26 1828.33,-827.26"/>
<text text-anchor="middle" x="1751" y="-812.06" font-family="Arial" font-size="14.00" fill="#c6c5fe">server/lib/graphql/index.ts</text>
</g>
<!-- server/lib/utils.ts -->
<g id="node33" class="node">
<title>server/lib/utils.ts</title>
<path fill="none" stroke="#c6c5fe" d="M2359.33,-787.26C2359.33,-787.26 2261.67,-787.26 2261.67,-787.26 2257.83,-787.26 2254,-783.43 2254,-779.6 2254,-779.6 2254,-771.93 2254,-771.93 2254,-768.1 2257.83,-764.26 2261.67,-764.26 2261.67,-764.26 2359.33,-764.26 2359.33,-764.26 2363.17,-764.26 2367,-768.1 2367,-771.93 2367,-771.93 2367,-779.6 2367,-779.6 2367,-783.43 2363.17,-787.26 2359.33,-787.26"/>
<text text-anchor="middle" x="2310.5" y="-772.06" font-family="Arial" font-size="14.00" fill="#c6c5fe">server/lib/utils.ts</text>
</g>
<!-- server/lib/graphql/index.ts&#45;&gt;server/lib/utils.ts -->
<g id="edge50" class="edge">
<title>server/lib/graphql/index.ts&#45;&gt;server/lib/utils.ts</title>
<path fill="none" stroke="#757575" d="M1836.38,-813.49C1929.88,-810.41 2085.02,-803.61 2218,-789.76 2226.39,-788.89 2235.18,-787.78 2243.86,-786.58"/>
<polygon fill="#757575" stroke="#757575" points="2244.56,-790.02 2253.96,-785.13 2243.57,-783.09 2244.56,-790.02"/>
</g>
<!-- server/models/Todo.ts -->
<g id="node34" class="node">
<title>server/models/Todo.ts</title>
<path fill="none" stroke="#ff6c60" d="M2014.33,-867.26C2014.33,-867.26 1880.67,-867.26 1880.67,-867.26 1876.83,-867.26 1873,-863.43 1873,-859.6 1873,-859.6 1873,-851.93 1873,-851.93 1873,-848.1 1876.83,-844.26 1880.67,-844.26 1880.67,-844.26 2014.33,-844.26 2014.33,-844.26 2018.17,-844.26 2022,-848.1 2022,-851.93 2022,-851.93 2022,-859.6 2022,-859.6 2022,-863.43 2018.17,-867.26 2014.33,-867.26"/>
<text text-anchor="middle" x="1947.5" y="-852.06" font-family="Arial" font-size="14.00" fill="#ff6c60">server/models/Todo.ts</text>
</g>
<!-- server/lib/graphql/index.ts&#45;&gt;server/models/Todo.ts -->
<g id="edge51" class="edge">
<title>server/lib/graphql/index.ts&#45;&gt;server/models/Todo.ts</title>
<path fill="none" stroke="#757575" d="M1808,-827.28C1830.68,-831.94 1857.04,-837.36 1880.64,-842.22"/>
<polygon fill="#757575" stroke="#757575" points="1880.06,-845.67 1890.56,-844.26 1881.47,-838.82 1880.06,-845.67"/>
</g>
<!-- server/lib/utils.ts&#45;&gt;server/lib/sharedUtils.ts -->
<g id="edge57" class="edge">
<title>server/lib/utils.ts&#45;&gt;server/lib/sharedUtils.ts</title>
<path fill="none" stroke="#757575" d="M2320.59,-764.09C2348.1,-728.77 2430.7,-622.7 2465.15,-578.47"/>
<polygon fill="#757575" stroke="#757575" points="2467.99,-580.53 2471.37,-570.49 2462.46,-576.23 2467.99,-580.53"/>
</g>
<!-- server/lib/utils.ts&#45;&gt;knexfile.js -->
<g id="edge55" class="edge">
<title>server/lib/utils.ts&#45;&gt;knexfile.js</title>
<path fill="none" stroke="#757575" d="M2367.31,-769.16C2388.69,-766.63 2412.86,-763.77 2433.35,-761.34"/>
<polygon fill="#757575" stroke="#757575" points="2433.88,-764.8 2443.4,-760.15 2433.05,-757.85 2433.88,-764.8"/>
</g>
<!-- server/lib/utils.ts&#45;&gt;scripts/devUtils.js -->
<g id="edge56" class="edge">
<title>server/lib/utils.ts&#45;&gt;scripts/devUtils.js</title>
<path fill="none" stroke="#757575" d="M2367.31,-782.7C2381.29,-784.43 2396.46,-786.32 2411.02,-788.13"/>
<polygon fill="#757575" stroke="#757575" points="2410.62,-791.61 2420.98,-789.37 2411.49,-784.66 2410.62,-791.61"/>
</g>
<!-- server/models/Todo.ts&#45;&gt;server/lib/utils.ts -->
<g id="edge61" class="edge">
<title>server/models/Todo.ts&#45;&gt;server/lib/utils.ts</title>
<path fill="none" stroke="#757575" d="M1979.2,-867.27C2030.95,-884.73 2137.77,-912.33 2218,-876.76 2255.04,-860.34 2283.48,-820.68 2298.24,-796.23"/>
<polygon fill="#757575" stroke="#757575" points="2301.38,-797.79 2303.38,-787.39 2295.33,-794.27 2301.38,-797.79"/>
</g>
<!-- server/models/User.ts -->
<g id="node39" class="node">
<title>server/models/User.ts</title>
<path fill="none" stroke="#ff6c60" d="M2204.83,-867.26C2204.83,-867.26 2072.17,-867.26 2072.17,-867.26 2068.33,-867.26 2064.5,-863.43 2064.5,-859.6 2064.5,-859.6 2064.5,-851.93 2064.5,-851.93 2064.5,-848.1 2068.33,-844.26 2072.17,-844.26 2072.17,-844.26 2204.83,-844.26 2204.83,-844.26 2208.67,-844.26 2212.5,-848.1 2212.5,-851.93 2212.5,-851.93 2212.5,-859.6 2212.5,-859.6 2212.5,-863.43 2208.67,-867.26 2204.83,-867.26"/>
<text text-anchor="middle" x="2138.5" y="-852.06" font-family="Arial" font-size="14.00" fill="#ff6c60">server/models/User.ts</text>
</g>
<!-- server/models/Todo.ts&#45;&gt;server/models/User.ts -->
<g id="edge62" class="edge">
<title>server/models/Todo.ts&#45;&gt;server/models/User.ts</title>
<path fill="none" stroke="#757575" d="M2022.11,-849.16C2032.64,-849.01 2043.53,-848.97 2054.22,-849.05"/>
<polygon fill="#757575" stroke="#757575" points="2054.36,-852.56 2064.4,-849.17 2054.44,-845.56 2054.36,-852.56"/>
</g>
<!-- server/lib/ssrRoutes.ts -->
<g id="node35" class="node">
<title>server/lib/ssrRoutes.ts</title>
<path fill="none" stroke="#c6c5fe" d="M1818.33,-709.26C1818.33,-709.26 1683.67,-709.26 1683.67,-709.26 1679.83,-709.26 1676,-705.43 1676,-701.6 1676,-701.6 1676,-693.93 1676,-693.93 1676,-690.1 1679.83,-686.26 1683.67,-686.26 1683.67,-686.26 1818.33,-686.26 1818.33,-686.26 1822.17,-686.26 1826,-690.1 1826,-693.93 1826,-693.93 1826,-701.6 1826,-701.6 1826,-705.43 1822.17,-709.26 1818.33,-709.26"/>
<text text-anchor="middle" x="1751" y="-694.06" font-family="Arial" font-size="14.00" fill="#c6c5fe">server/lib/ssrRoutes.ts</text>
</g>
<!-- server/lib/ssrRoutes.ts&#45;&gt;server/lib/routerUtils.ts -->
<g id="edge52" class="edge">
<title>server/lib/ssrRoutes.ts&#45;&gt;server/lib/routerUtils.ts</title>
<path fill="none" stroke="#757575" d="M1780.28,-686.13C1814.23,-672.17 1871.28,-648.7 1908.91,-633.22"/>
<polygon fill="#757575" stroke="#757575" points="1910.58,-636.32 1918.5,-629.28 1907.92,-629.85 1910.58,-636.32"/>
</g>
<!-- server/lib/ssrRoutes.ts&#45;&gt;server/lib/utils.ts -->
<g id="edge53" class="edge">
<title>server/lib/ssrRoutes.ts&#45;&gt;server/lib/utils.ts</title>
<path fill="none" stroke="#757575" d="M1826.09,-690.88C1919.6,-684.59 2084.38,-681.55 2218,-721.76 2243.27,-729.37 2268.87,-745.34 2286.54,-757.95"/>
<polygon fill="#757575" stroke="#757575" points="2284.89,-761.07 2295.02,-764.17 2289.03,-755.43 2284.89,-761.07"/>
</g>
<!-- server/lib/ssrRoutes.ts&#45;&gt;server/models/Todo.ts -->
<g id="edge54" class="edge">
<title>server/lib/ssrRoutes.ts&#45;&gt;server/models/Todo.ts</title>
<path fill="none" stroke="#757575" d="M1766.38,-709.56C1788.88,-728 1833.77,-764.76 1872,-795.76 1889.36,-809.84 1909.06,-825.7 1923.84,-837.58"/>
<polygon fill="#757575" stroke="#757575" points="1921.93,-840.53 1931.92,-844.06 1926.31,-835.07 1921.93,-840.53"/>
</g>
<!-- server/main/index.ts -->
<g id="node36" class="node">
<title>server/main/index.ts</title>
<path fill="none" stroke="#c6c5fe" d="M1201.33,-868.26C1201.33,-868.26 1078.67,-868.26 1078.67,-868.26 1074.83,-868.26 1071,-864.43 1071,-860.6 1071,-860.6 1071,-852.93 1071,-852.93 1071,-849.1 1074.83,-845.26 1078.67,-845.26 1078.67,-845.26 1201.33,-845.26 1201.33,-845.26 1205.17,-845.26 1209,-849.1 1209,-852.93 1209,-852.93 1209,-860.6 1209,-860.6 1209,-864.43 1205.17,-868.26 1201.33,-868.26"/>
<text text-anchor="middle" x="1140" y="-853.06" font-family="Arial" font-size="14.00" fill="#c6c5fe">server/main/index.ts</text>
</g>
<!-- server/main/index.ts&#45;&gt;server/lib/utils.ts -->
<g id="edge58" class="edge">
<title>server/main/index.ts&#45;&gt;server/lib/utils.ts</title>
<path fill="none" stroke="#757575" d="M1165.51,-868.42C1229.29,-897.66 1406.3,-971.76 1562,-971.76 1562,-971.76 1562,-971.76 1948.5,-971.76 2069.59,-971.76 2117.64,-999.52 2218,-931.76 2266.35,-899.12 2292.71,-831.7 2303.54,-797.17"/>
<polygon fill="#757575" stroke="#757575" points="2306.89,-798.16 2306.4,-787.58 2300.18,-796.16 2306.89,-798.16"/>
</g>
<!-- server/models/index.ts -->
<g id="node37" class="node">
<title>server/models/index.ts</title>
<path fill="none" stroke="#c6c5fe" d="M1819.33,-868.26C1819.33,-868.26 1682.67,-868.26 1682.67,-868.26 1678.83,-868.26 1675,-864.43 1675,-860.6 1675,-860.6 1675,-852.93 1675,-852.93 1675,-849.1 1678.83,-845.26 1682.67,-845.26 1682.67,-845.26 1819.33,-845.26 1819.33,-845.26 1823.17,-845.26 1827,-849.1 1827,-852.93 1827,-852.93 1827,-860.6 1827,-860.6 1827,-864.43 1823.17,-868.26 1819.33,-868.26"/>
<text text-anchor="middle" x="1751" y="-853.06" font-family="Arial" font-size="14.00" fill="#c6c5fe">server/models/index.ts</text>
</g>
<!-- server/main/index.ts&#45;&gt;server/models/index.ts -->
<g id="edge59" class="edge">
<title>server/main/index.ts&#45;&gt;server/models/index.ts</title>
<path fill="none" stroke="#757575" d="M1209.09,-856.76C1320.79,-856.76 1542.71,-856.76 1664.71,-856.76"/>
<polygon fill="#757575" stroke="#757575" points="1664.76,-860.26 1674.76,-856.76 1664.76,-853.26 1664.76,-860.26"/>
</g>
<!-- server/routes/index.ts -->
<g id="node38" class="node">
<title>server/routes/index.ts</title>
<path fill="none" stroke="#c6c5fe" d="M1452.33,-787.26C1452.33,-787.26 1321.67,-787.26 1321.67,-787.26 1317.83,-787.26 1314,-783.43 1314,-779.6 1314,-779.6 1314,-771.93 1314,-771.93 1314,-768.1 1317.83,-764.26 1321.67,-764.26 1321.67,-764.26 1452.33,-764.26 1452.33,-764.26 1456.17,-764.26 1460,-768.1 1460,-771.93 1460,-771.93 1460,-779.6 1460,-779.6 1460,-783.43 1456.17,-787.26 1452.33,-787.26"/>
<text text-anchor="middle" x="1387" y="-772.06" font-family="Arial" font-size="14.00" fill="#c6c5fe">server/routes/index.ts</text>
</g>
<!-- server/main/index.ts&#45;&gt;server/routes/index.ts -->
<g id="edge60" class="edge">
<title>server/main/index.ts&#45;&gt;server/routes/index.ts</title>
<path fill="none" stroke="#757575" d="M1175.84,-845.24C1219.26,-830.89 1293.52,-806.34 1341.14,-790.59"/>
<polygon fill="#757575" stroke="#757575" points="1342.49,-793.83 1350.88,-787.37 1340.29,-787.19 1342.49,-793.83"/>
</g>
<!-- server/models/index.ts&#45;&gt;server/models/Todo.ts -->
<g id="edge65" class="edge">
<title>server/models/index.ts&#45;&gt;server/models/Todo.ts</title>
<path fill="none" stroke="#757575" d="M1827.2,-856.38C1838.77,-856.32 1850.79,-856.25 1862.54,-856.19"/>
<polygon fill="#757575" stroke="#757575" points="1862.8,-859.69 1872.78,-856.14 1862.76,-852.69 1862.8,-859.69"/>
</g>
<!-- server/models/index.ts&#45;&gt;server/models/User.ts -->
<g id="edge66" class="edge">
<title>server/models/index.ts&#45;&gt;server/models/User.ts</title>
<path fill="none" stroke="#757575" d="M1809.13,-868.26C1828.95,-871.72 1851.37,-875.05 1872,-876.76 1938.88,-882.3 1956.16,-882.84 2023,-876.76 2040.33,-875.19 2058.95,-872.29 2076.04,-869.15"/>
<polygon fill="#757575" stroke="#757575" points="2076.73,-872.58 2085.91,-867.28 2075.43,-865.7 2076.73,-872.58"/>
</g>
<!-- server/routes/index.ts&#45;&gt;server/lib/graphql/index.ts -->
<g id="edge67" class="edge">
<title>server/routes/index.ts&#45;&gt;server/lib/graphql/index.ts</title>
<path fill="none" stroke="#757575" d="M1460,-785.37C1472.02,-786.89 1484.36,-788.41 1496,-789.76 1548.82,-795.89 1607.92,-801.98 1655.81,-806.73"/>
<polygon fill="#757575" stroke="#757575" points="1655.55,-810.22 1665.85,-807.72 1656.24,-803.26 1655.55,-810.22"/>
</g>
<!-- server/routes/index.ts&#45;&gt;server/lib/utils.ts -->
<g id="edge68" class="edge">
<title>server/routes/index.ts&#45;&gt;server/lib/utils.ts</title>
<path fill="none" stroke="#757575" d="M1430.23,-764.13C1440.62,-760.03 1451.26,-754.66 1460,-747.76 1482.07,-730.35 1472.14,-710.62 1496,-695.76 1592.9,-635.43 1635.85,-657.76 1750,-657.76 1750,-657.76 1750,-657.76 1948.5,-657.76 2069.12,-657.76 2108.68,-638.79 2218,-689.76 2250.33,-704.84 2278.71,-735.77 2294.99,-756.14"/>
<polygon fill="#757575" stroke="#757575" points="2292.3,-758.39 2301.19,-764.14 2297.83,-754.1 2292.3,-758.39"/>
</g>
<!-- server/routes/session.ts -->
<g id="node40" class="node">
<title>server/routes/session.ts</title>
<path fill="none" stroke="#c6c5fe" d="M2210.33,-590.26C2210.33,-590.26 2066.67,-590.26 2066.67,-590.26 2062.83,-590.26 2059,-586.43 2059,-582.6 2059,-582.6 2059,-574.93 2059,-574.93 2059,-571.1 2062.83,-567.26 2066.67,-567.26 2066.67,-567.26 2210.33,-567.26 2210.33,-567.26 2214.17,-567.26 2218,-571.1 2218,-574.93 2218,-574.93 2218,-582.6 2218,-582.6 2218,-586.43 2214.17,-590.26 2210.33,-590.26"/>
<text text-anchor="middle" x="2138.5" y="-575.06" font-family="Arial" font-size="14.00" fill="#c6c5fe">server/routes/session.ts</text>
</g>
<!-- server/routes/index.ts&#45;&gt;server/routes/session.ts -->
<g id="edge69" class="edge">
<title>server/routes/index.ts&#45;&gt;server/routes/session.ts</title>
<path fill="none" stroke="#757575" d="M1435.36,-764.1C1444.44,-760.12 1453.21,-754.81 1460,-747.76 1493.93,-712.53 1460.33,-677.23 1496,-643.76 1659.56,-490.28 1960.07,-537.23 2082.95,-564.89"/>
<polygon fill="#757575" stroke="#757575" points="2082.36,-568.35 2092.89,-567.17 2083.93,-561.52 2082.36,-568.35"/>
</g>
<!-- server/routes/ssr.ts -->
<g id="node41" class="node">
<title>server/routes/ssr.ts</title>
<path fill="none" stroke="#c6c5fe" d="M1620.83,-728.26C1620.83,-728.26 1505.17,-728.26 1505.17,-728.26 1501.33,-728.26 1497.5,-724.43 1497.5,-720.6 1497.5,-720.6 1497.5,-712.93 1497.5,-712.93 1497.5,-709.1 1501.33,-705.26 1505.17,-705.26 1505.17,-705.26 1620.83,-705.26 1620.83,-705.26 1624.67,-705.26 1628.5,-709.1 1628.5,-712.93 1628.5,-712.93 1628.5,-720.6 1628.5,-720.6 1628.5,-724.43 1624.67,-728.26 1620.83,-728.26"/>
<text text-anchor="middle" x="1563" y="-713.06" font-family="Arial" font-size="14.00" fill="#c6c5fe">server/routes/ssr.ts</text>
</g>
<!-- server/routes/index.ts&#45;&gt;server/routes/ssr.ts -->
<g id="edge70" class="edge">
<title>server/routes/index.ts&#45;&gt;server/routes/ssr.ts</title>
<path fill="none" stroke="#757575" d="M1421.96,-764.25C1449.42,-754.94 1488.27,-741.76 1518.09,-731.65"/>
<polygon fill="#757575" stroke="#757575" points="1519.48,-734.88 1527.83,-728.35 1517.23,-728.25 1519.48,-734.88"/>
</g>
<!-- server/routes/todos.ts -->
<g id="node42" class="node">
<title>server/routes/todos.ts</title>
<path fill="none" stroke="#c6c5fe" d="M1816.33,-909.26C1816.33,-909.26 1685.67,-909.26 1685.67,-909.26 1681.83,-909.26 1678,-905.43 1678,-901.6 1678,-901.6 1678,-893.93 1678,-893.93 1678,-890.1 1681.83,-886.26 1685.67,-886.26 1685.67,-886.26 1816.33,-886.26 1816.33,-886.26 1820.17,-886.26 1824,-890.1 1824,-893.93 1824,-893.93 1824,-901.6 1824,-901.6 1824,-905.43 1820.17,-909.26 1816.33,-909.26"/>
<text text-anchor="middle" x="1751" y="-894.06" font-family="Arial" font-size="14.00" fill="#c6c5fe">server/routes/todos.ts</text>
</g>
<!-- server/routes/index.ts&#45;&gt;server/routes/todos.ts -->
<g id="edge71" class="edge">
<title>server/routes/index.ts&#45;&gt;server/routes/todos.ts</title>
<path fill="none" stroke="#757575" d="M1416.04,-787.3C1465.78,-807.49 1572.97,-849.73 1666,-877.76 1672.91,-879.84 1680.19,-881.85 1687.45,-883.73"/>
<polygon fill="#757575" stroke="#757575" points="1686.77,-887.17 1697.32,-886.23 1688.48,-880.38 1686.77,-887.17"/>
</g>
<!-- server/routes/users.ts -->
<g id="node43" class="node">
<title>server/routes/users.ts</title>
<path fill="none" stroke="#c6c5fe" d="M2012.83,-787.26C2012.83,-787.26 1882.17,-787.26 1882.17,-787.26 1878.33,-787.26 1874.5,-783.43 1874.5,-779.6 1874.5,-779.6 1874.5,-771.93 1874.5,-771.93 1874.5,-768.1 1878.33,-764.26 1882.17,-764.26 1882.17,-764.26 2012.83,-764.26 2012.83,-764.26 2016.67,-764.26 2020.5,-768.1 2020.5,-771.93 2020.5,-771.93 2020.5,-779.6 2020.5,-779.6 2020.5,-783.43 2016.67,-787.26 2012.83,-787.26"/>
<text text-anchor="middle" x="1947.5" y="-772.06" font-family="Arial" font-size="14.00" fill="#c6c5fe">server/routes/users.ts</text>
</g>
<!-- server/routes/index.ts&#45;&gt;server/routes/users.ts -->
<g id="edge72" class="edge">
<title>server/routes/index.ts&#45;&gt;server/routes/users.ts</title>
<path fill="none" stroke="#757575" d="M1460.16,-775.76C1563.85,-775.76 1754.53,-775.76 1863.79,-775.76"/>
<polygon fill="#757575" stroke="#757575" points="1864.1,-779.26 1874.1,-775.76 1864.1,-772.26 1864.1,-779.26"/>
</g>
<!-- server/models/User.ts&#45;&gt;server/lib/utils.ts -->
<g id="edge63" class="edge">
<title>server/models/User.ts&#45;&gt;server/lib/utils.ts</title>
<path fill="none" stroke="#757575" d="M2180.07,-844.15C2192.45,-840.12 2205.98,-835.23 2218,-829.76 2241.02,-819.3 2265.63,-804.56 2283.52,-793.12"/>
<polygon fill="#757575" stroke="#757575" points="2285.73,-795.85 2292.22,-787.48 2281.93,-789.98 2285.73,-795.85"/>
</g>
<!-- server/models/User.ts&#45;&gt;server/models/Todo.ts -->
<g id="edge64" class="edge">
<title>server/models/User.ts&#45;&gt;server/models/Todo.ts</title>
<path fill="none" stroke="#757575" d="M2064.4,-862.36C2053.88,-862.51 2043,-862.55 2032.3,-862.47"/>
<polygon fill="#757575" stroke="#757575" points="2032.15,-858.97 2022.11,-862.36 2032.08,-865.97 2032.15,-858.97"/>
</g>
<!-- server/routes/session.ts&#45;&gt;server/lib/utils.ts -->
<g id="edge73" class="edge">
<title>server/routes/session.ts&#45;&gt;server/lib/utils.ts</title>
<path fill="none" stroke="#757575" d="M2155.95,-590.3C2172.65,-602.48 2198.74,-622.78 2218,-643.76 2250.92,-679.62 2281.49,-727.95 2297.61,-755.07"/>
<polygon fill="#757575" stroke="#757575" points="2294.79,-757.19 2302.87,-764.04 2300.83,-753.65 2294.79,-757.19"/>
</g>
<!-- server/routes/ssr.ts&#45;&gt;client/lib/routerTypes.ts -->
<g id="edge74" class="edge">
<title>server/routes/ssr.ts&#45;&gt;client/lib/routerTypes.ts</title>
<path fill="none" stroke="#757575" d="M1585.7,-705.21C1618.65,-687.67 1681.45,-654.25 1719.14,-634.19"/>
<polygon fill="#757575" stroke="#757575" points="1720.97,-637.18 1728.15,-629.39 1717.68,-631 1720.97,-637.18"/>
</g>
<!-- server/routes/ssr.ts&#45;&gt;server/lib/utils.ts -->
<g id="edge76" class="edge">
<title>server/routes/ssr.ts&#45;&gt;server/lib/utils.ts</title>
<path fill="none" stroke="#757575" d="M1628.53,-721.87C1769.15,-733 2101.95,-759.34 2243.71,-770.56"/>
<polygon fill="#757575" stroke="#757575" points="2243.75,-774.07 2253.99,-771.37 2244.3,-767.09 2243.75,-774.07"/>
</g>
<!-- server/routes/ssr.ts&#45;&gt;server/lib/ssrRoutes.ts -->
<g id="edge75" class="edge">
<title>server/routes/ssr.ts&#45;&gt;server/lib/ssrRoutes.ts</title>
<path fill="none" stroke="#757575" d="M1628.53,-710.17C1640.54,-708.94 1653.24,-707.65 1665.73,-706.37"/>
<polygon fill="#757575" stroke="#757575" points="1666.1,-709.85 1675.69,-705.35 1665.39,-702.89 1666.1,-709.85"/>
</g>
<!-- server/routes/todos.ts&#45;&gt;server/lib/utils.ts -->
<g id="edge77" class="edge">
<title>server/routes/todos.ts&#45;&gt;server/lib/utils.ts</title>
<path fill="none" stroke="#757575" d="M1792.15,-909.3C1876.4,-931.15 2075.59,-970.32 2218,-898.76 2260.55,-877.38 2288.31,-825.81 2301.18,-796.69"/>
<polygon fill="#757575" stroke="#757575" points="2304.43,-797.99 2305.11,-787.41 2297.99,-795.26 2304.43,-797.99"/>
</g>
<!-- server/routes/todos.ts&#45;&gt;server/models/Todo.ts -->
<g id="edge78" class="edge">
<title>server/routes/todos.ts&#45;&gt;server/models/Todo.ts</title>
<path fill="none" stroke="#757575" d="M1805.41,-886.23C1829.53,-881.02 1858.21,-874.83 1883.39,-869.39"/>
<polygon fill="#757575" stroke="#757575" points="1884.18,-872.8 1893.21,-867.27 1882.7,-865.96 1884.18,-872.8"/>
</g>
<!-- server/routes/users.ts&#45;&gt;server/lib/utils.ts -->
<g id="edge79" class="edge">
<title>server/routes/users.ts&#45;&gt;server/lib/utils.ts</title>
<path fill="none" stroke="#757575" d="M2020.69,-775.76C2085.79,-775.76 2180.71,-775.76 2243.75,-775.76"/>
<polygon fill="#757575" stroke="#757575" points="2243.97,-779.26 2253.97,-775.76 2243.97,-772.26 2243.97,-779.26"/>
</g>
<!-- server/routes/users.ts&#45;&gt;server/models/User.ts -->
<g id="edge80" class="edge">
<title>server/routes/users.ts&#45;&gt;server/models/User.ts</title>
<path fill="none" stroke="#757575" d="M1975.98,-787.39C2008.97,-801.36 2064.4,-824.82 2100.97,-840.3"/>
<polygon fill="#757575" stroke="#757575" points="2099.72,-843.57 2110.29,-844.24 2102.45,-837.12 2099.72,-843.57"/>
</g>
</g>
</svg>
