<?xml version="1.0" encoding="UTF-8" standalone="no"?>
<!DOCTYPE svg PUBLIC "-//W3C//DTD SVG 1.1//EN"
 "http://www.w3.org/Graphics/SVG/1.1/DTD/svg11.dtd">
<!-- Generated by graphviz version 2.43.0 (0)
 -->
<!-- Title: G Pages: 1 -->
<svg width="2352pt" height="1818pt"
 viewBox="0.00 0.00 2352.20 1818.29" xmlns="http://www.w3.org/2000/svg" xmlns:xlink="http://www.w3.org/1999/xlink">
<g id="graph0" class="graph" transform="scale(1 1) rotate(0) translate(21.6 1796.69)">
<title>G</title>
<polygon fill="#111111" stroke="transparent" points="-21.6,21.6 -21.6,-1796.69 2330.6,-1796.69 2330.6,21.6 -21.6,21.6"/>
<!-- client/common/App.tsx -->
<g id="node1" class="node">
<title>client/common/App.tsx</title>
<path fill="none" stroke="#c6c5fe" d="M355.33,-1064C355.33,-1064 216.67,-1064 216.67,-1064 212.83,-1064 209,-1060.17 209,-1056.33 209,-1056.33 209,-1048.67 209,-1048.67 209,-1044.83 212.83,-1041 216.67,-1041 216.67,-1041 355.33,-1041 355.33,-1041 359.17,-1041 363,-1044.83 363,-1048.67 363,-1048.67 363,-1056.33 363,-1056.33 363,-1060.17 359.17,-1064 355.33,-1064"/>
<text text-anchor="middle" x="286" y="-1048.8" font-family="Arial" font-size="14.00" fill="#c6c5fe">client/common/App.tsx</text>
</g>
<!-- client/common/AppRoutes.tsx -->
<g id="node2" class="node">
<title>client/common/AppRoutes.tsx</title>
<path fill="none" stroke="#c6c5fe" d="M593.33,-729C593.33,-729 411.67,-729 411.67,-729 407.83,-729 404,-725.17 404,-721.33 404,-721.33 404,-713.67 404,-713.67 404,-709.83 407.83,-706 411.67,-706 411.67,-706 593.33,-706 593.33,-706 597.17,-706 601,-709.83 601,-713.67 601,-713.67 601,-721.33 601,-721.33 601,-725.17 597.17,-729 593.33,-729"/>
<text text-anchor="middle" x="502.5" y="-713.8" font-family="Arial" font-size="14.00" fill="#c6c5fe">client/common/AppRoutes.tsx</text>
</g>
<!-- client/common/App.tsx&#45;&gt;client/common/AppRoutes.tsx -->
<g id="edge1" class="edge">
<title>client/common/App.tsx&#45;&gt;client/common/AppRoutes.tsx</title>
<path fill="none" stroke="#757575" d="M294.38,-1040.97C325.71,-992.05 447.83,-801.32 488.35,-738.03"/>
<polygon fill="#757575" stroke="#757575" points="491.48,-739.64 493.93,-729.33 485.59,-735.86 491.48,-739.64"/>
</g>
<!-- client/globalStore/actions.ts -->
<g id="node3" class="node">
<title>client/globalStore/actions.ts</title>
<path fill="none" stroke="#cfffac" d="M585.33,-1064C585.33,-1064 419.67,-1064 419.67,-1064 415.83,-1064 412,-1060.17 412,-1056.33 412,-1056.33 412,-1048.67 412,-1048.67 412,-1044.83 415.83,-1041 419.67,-1041 419.67,-1041 585.33,-1041 585.33,-1041 589.17,-1041 593,-1044.83 593,-1048.67 593,-1048.67 593,-1056.33 593,-1056.33 593,-1060.17 589.17,-1064 585.33,-1064"/>
<text text-anchor="middle" x="502.5" y="-1048.8" font-family="Arial" font-size="14.00" fill="#cfffac">client/globalStore/actions.ts</text>
</g>
<!-- client/common/App.tsx&#45;&gt;client/globalStore/actions.ts -->
<g id="edge2" class="edge">
<title>client/common/App.tsx&#45;&gt;client/globalStore/actions.ts</title>
<path fill="none" stroke="#757575" d="M363.23,-1052.5C375.68,-1052.5 388.73,-1052.5 401.65,-1052.5"/>
<polygon fill="#757575" stroke="#757575" points="401.96,-1056 411.96,-1052.5 401.96,-1049 401.96,-1056"/>
</g>
<!-- client/globalStore/store.ts -->
<g id="node4" class="node">
<title>client/globalStore/store.ts</title>
<path fill="none" stroke="#c6c5fe" d="M1829.33,-1282C1829.33,-1282 1676.67,-1282 1676.67,-1282 1672.83,-1282 1669,-1278.17 1669,-1274.33 1669,-1274.33 1669,-1266.67 1669,-1266.67 1669,-1262.83 1672.83,-1259 1676.67,-1259 1676.67,-1259 1829.33,-1259 1829.33,-1259 1833.17,-1259 1837,-1262.83 1837,-1266.67 1837,-1266.67 1837,-1274.33 1837,-1274.33 1837,-1278.17 1833.17,-1282 1829.33,-1282"/>
<text text-anchor="middle" x="1753" y="-1266.8" font-family="Arial" font-size="14.00" fill="#c6c5fe">client/globalStore/store.ts</text>
</g>
<!-- client/common/App.tsx&#45;&gt;client/globalStore/store.ts -->
<g id="edge3" class="edge">
<title>client/common/App.tsx&#45;&gt;client/globalStore/store.ts</title>
<path fill="none" stroke="#757575" d="M297.79,-1064.07C345.35,-1113.76 542.9,-1306.5 746,-1306.5 746,-1306.5 746,-1306.5 1062,-1306.5 1291.87,-1306.5 1349.77,-1308.7 1579,-1291.5 1605.24,-1289.53 1633.61,-1286.48 1659.64,-1283.3"/>
<polygon fill="#757575" stroke="#757575" points="1660.38,-1286.74 1669.87,-1282.03 1659.52,-1279.79 1660.38,-1286.74"/>
</g>
<!-- client/lib/context.tsx -->
<g id="node5" class="node">
<title>client/lib/context.tsx</title>
<path fill="none" stroke="#cfffac" d="M2301.33,-302C2301.33,-302 2182.67,-302 2182.67,-302 2178.83,-302 2175,-298.17 2175,-294.33 2175,-294.33 2175,-286.67 2175,-286.67 2175,-282.83 2178.83,-279 2182.67,-279 2182.67,-279 2301.33,-279 2301.33,-279 2305.17,-279 2309,-282.83 2309,-286.67 2309,-286.67 2309,-294.33 2309,-294.33 2309,-298.17 2305.17,-302 2301.33,-302"/>
<text text-anchor="middle" x="2242" y="-286.8" font-family="Arial" font-size="14.00" fill="#cfffac">client/lib/context.tsx</text>
</g>
<!-- client/common/App.tsx&#45;&gt;client/lib/context.tsx -->
<g id="edge4" class="edge">
<title>client/common/App.tsx&#45;&gt;client/lib/context.tsx</title>
<path fill="none" stroke="#757575" d="M287.39,-1040.75C291.52,-936.56 335.77,-174.5 746,-174.5 746,-174.5 746,-174.5 1754,-174.5 1925.7,-174.5 2122.41,-243.58 2203.28,-275.12"/>
<polygon fill="#757575" stroke="#757575" points="2202.43,-278.54 2213.01,-278.95 2204.99,-272.03 2202.43,-278.54"/>
</g>
<!-- lib/sharedUtils.ts -->
<g id="node6" class="node">
<title>lib/sharedUtils.ts</title>
<path fill="none" stroke="#cfffac" d="M2292.33,-1125C2292.33,-1125 2191.67,-1125 2191.67,-1125 2187.83,-1125 2184,-1121.17 2184,-1117.33 2184,-1117.33 2184,-1109.67 2184,-1109.67 2184,-1105.83 2187.83,-1102 2191.67,-1102 2191.67,-1102 2292.33,-1102 2292.33,-1102 2296.17,-1102 2300,-1105.83 2300,-1109.67 2300,-1109.67 2300,-1117.33 2300,-1117.33 2300,-1121.17 2296.17,-1125 2292.33,-1125"/>
<text text-anchor="middle" x="2242" y="-1109.8" font-family="Arial" font-size="14.00" fill="#cfffac">lib/sharedUtils.ts</text>
</g>
<!-- client/common/App.tsx&#45;&gt;lib/sharedUtils.ts -->
<g id="edge5" class="edge">
<title>client/common/App.tsx&#45;&gt;lib/sharedUtils.ts</title>
<path fill="none" stroke="#757575" d="M291.47,-1064.07C303.94,-1094.97 341.96,-1180.38 399,-1229.5 526.72,-1339.49 577.45,-1382.5 746,-1382.5 746,-1382.5 746,-1382.5 1754,-1382.5 1926.79,-1382.5 1999.75,-1430.8 2139,-1328.5 2204.38,-1280.47 2229.47,-1179.63 2237.62,-1135.25"/>
<polygon fill="#757575" stroke="#757575" points="2241.09,-1135.7 2239.34,-1125.25 2234.19,-1134.51 2241.09,-1135.7"/>
</g>
<!-- client/common/AppRoutes.tsx&#45;&gt;lib/sharedUtils.ts -->
<g id="edge12" class="edge">
<title>client/common/AppRoutes.tsx&#45;&gt;lib/sharedUtils.ts</title>
<path fill="none" stroke="#757575" d="M507.13,-729.19C534.55,-815.02 717.6,-1344.5 1060,-1344.5 1060,-1344.5 1060,-1344.5 1754,-1344.5 1927.46,-1344.5 1995.21,-1377.53 2139,-1280.5 2192.06,-1244.7 2222.26,-1171.14 2234.52,-1134.79"/>
<polygon fill="#757575" stroke="#757575" points="2237.88,-1135.78 2237.63,-1125.19 2231.22,-1133.63 2237.88,-1135.78"/>
</g>
<!-- client/lib/router.tsx -->
<g id="node7" class="node">
<title>client/lib/router.tsx</title>
<path fill="none" stroke="#c6c5fe" d="M1807.83,-338C1807.83,-338 1698.17,-338 1698.17,-338 1694.33,-338 1690.5,-334.17 1690.5,-330.33 1690.5,-330.33 1690.5,-322.67 1690.5,-322.67 1690.5,-318.83 1694.33,-315 1698.17,-315 1698.17,-315 1807.83,-315 1807.83,-315 1811.67,-315 1815.5,-318.83 1815.5,-322.67 1815.5,-322.67 1815.5,-330.33 1815.5,-330.33 1815.5,-334.17 1811.67,-338 1807.83,-338"/>
<text text-anchor="middle" x="1753" y="-322.8" font-family="Arial" font-size="14.00" fill="#c6c5fe">client/lib/router.tsx</text>
</g>
<!-- client/common/AppRoutes.tsx&#45;&gt;client/lib/router.tsx -->
<g id="edge6" class="edge">
<title>client/common/AppRoutes.tsx&#45;&gt;client/lib/router.tsx</title>
<path fill="none" stroke="#757575" d="M503.97,-705.67C506.72,-653.29 524.99,-440.26 642,-333.5 795.96,-193.04 1372.29,-267.98 1579,-294.5 1615.38,-299.17 1655.69,-306.5 1688.25,-312.96"/>
<polygon fill="#757575" stroke="#757575" points="1687.59,-316.4 1698.09,-314.94 1688.97,-309.54 1687.59,-316.4"/>
</g>
<!-- client/pages/projectStructure/ProjectStructureAsync.tsx -->
<g id="node8" class="node">
<title>client/pages/projectStructure/ProjectStructureAsync.tsx</title>
<path fill="none" stroke="#c6c5fe" d="M1226.33,-492C1226.33,-492 895.67,-492 895.67,-492 891.83,-492 888,-488.17 888,-484.33 888,-484.33 888,-476.67 888,-476.67 888,-472.83 891.83,-469 895.67,-469 895.67,-469 1226.33,-469 1226.33,-469 1230.17,-469 1234,-472.83 1234,-476.67 1234,-476.67 1234,-484.33 1234,-484.33 1234,-488.17 1230.17,-492 1226.33,-492"/>
<text text-anchor="middle" x="1061" y="-476.8" font-family="Arial" font-size="14.00" fill="#c6c5fe">client/pages/projectStructure/ProjectStructureAsync.tsx</text>
</g>
<!-- client/common/AppRoutes.tsx&#45;&gt;client/pages/projectStructure/ProjectStructureAsync.tsx -->
<g id="edge7" class="edge">
<title>client/common/AppRoutes.tsx&#45;&gt;client/pages/projectStructure/ProjectStructureAsync.tsx</title>
<path fill="none" stroke="#757575" d="M519.75,-705.78C570.97,-669.49 734.71,-558.31 888,-506.5 903.04,-501.41 919.17,-497.32 935.29,-494.03"/>
<polygon fill="#757575" stroke="#757575" points="936.17,-497.42 945.32,-492.08 934.83,-490.55 936.17,-497.42"/>
</g>
<!-- client/pages/session/Login.tsx -->
<g id="node9" class="node">
<title>client/pages/session/Login.tsx</title>
<path fill="none" stroke="#c6c5fe" d="M1151.33,-302C1151.33,-302 970.67,-302 970.67,-302 966.83,-302 963,-298.17 963,-294.33 963,-294.33 963,-286.67 963,-286.67 963,-282.83 966.83,-279 970.67,-279 970.67,-279 1151.33,-279 1151.33,-279 1155.17,-279 1159,-282.83 1159,-286.67 1159,-286.67 1159,-294.33 1159,-294.33 1159,-298.17 1155.17,-302 1151.33,-302"/>
<text text-anchor="middle" x="1061" y="-286.8" font-family="Arial" font-size="14.00" fill="#c6c5fe">client/pages/session/Login.tsx</text>
</g>
<!-- client/common/AppRoutes.tsx&#45;&gt;client/pages/session/Login.tsx -->
<g id="edge8" class="edge">
<title>client/common/AppRoutes.tsx&#45;&gt;client/pages/session/Login.tsx</title>
<path fill="none" stroke="#757575" d="M509.9,-705.93C541.69,-649.85 688.96,-405.38 888,-316.5 908.09,-307.53 930.67,-301.56 952.7,-297.61"/>
<polygon fill="#757575" stroke="#757575" points="953.48,-301.03 962.77,-295.93 952.33,-294.12 953.48,-301.03"/>
</g>
<!-- client/pages/todoList/Todolist.tsx -->
<g id="node10" class="node">
<title>client/pages/todoList/Todolist.tsx</title>
<path fill="none" stroke="#c6c5fe" d="M844.33,-988C844.33,-988 649.67,-988 649.67,-988 645.83,-988 642,-984.17 642,-980.33 642,-980.33 642,-972.67 642,-972.67 642,-968.83 645.83,-965 649.67,-965 649.67,-965 844.33,-965 844.33,-965 848.17,-965 852,-968.83 852,-972.67 852,-972.67 852,-980.33 852,-980.33 852,-984.17 848.17,-988 844.33,-988"/>
<text text-anchor="middle" x="747" y="-972.8" font-family="Arial" font-size="14.00" fill="#c6c5fe">client/pages/todoList/Todolist.tsx</text>
</g>
<!-- client/common/AppRoutes.tsx&#45;&gt;client/pages/todoList/Todolist.tsx -->
<g id="edge9" class="edge">
<title>client/common/AppRoutes.tsx&#45;&gt;client/pages/todoList/Todolist.tsx</title>
<path fill="none" stroke="#757575" d="M514.55,-729.3C552.98,-770.35 681.06,-907.14 728.3,-957.6"/>
<polygon fill="#757575" stroke="#757575" points="725.77,-960.02 735.16,-964.92 730.88,-955.23 725.77,-960.02"/>
</g>
<!-- client/pages/users/User.tsx -->
<g id="node11" class="node">
<title>client/pages/users/User.tsx</title>
<path fill="none" stroke="#c6c5fe" d="M1142.33,-649C1142.33,-649 979.67,-649 979.67,-649 975.83,-649 972,-645.17 972,-641.33 972,-641.33 972,-633.67 972,-633.67 972,-629.83 975.83,-626 979.67,-626 979.67,-626 1142.33,-626 1142.33,-626 1146.17,-626 1150,-629.83 1150,-633.67 1150,-633.67 1150,-641.33 1150,-641.33 1150,-645.17 1146.17,-649 1142.33,-649"/>
<text text-anchor="middle" x="1061" y="-633.8" font-family="Arial" font-size="14.00" fill="#c6c5fe">client/pages/users/User.tsx</text>
</g>
<!-- client/common/AppRoutes.tsx&#45;&gt;client/pages/users/User.tsx -->
<g id="edge10" class="edge">
<title>client/common/AppRoutes.tsx&#45;&gt;client/pages/users/User.tsx</title>
<path fill="none" stroke="#757575" d="M583.53,-706C685.8,-691.29 862.38,-665.91 969.46,-650.51"/>
<polygon fill="#757575" stroke="#757575" points="970.21,-653.94 979.61,-649.06 969.21,-647.02 970.21,-653.94"/>
</g>
<!-- client/pages/users/Users.tsx -->
<g id="node12" class="node">
<title>client/pages/users/Users.tsx</title>
<path fill="none" stroke="#c6c5fe" d="M831.83,-769C831.83,-769 662.17,-769 662.17,-769 658.33,-769 654.5,-765.17 654.5,-761.33 654.5,-761.33 654.5,-753.67 654.5,-753.67 654.5,-749.83 658.33,-746 662.17,-746 662.17,-746 831.83,-746 831.83,-746 835.67,-746 839.5,-749.83 839.5,-753.67 839.5,-753.67 839.5,-761.33 839.5,-761.33 839.5,-765.17 835.67,-769 831.83,-769"/>
<text text-anchor="middle" x="747" y="-753.8" font-family="Arial" font-size="14.00" fill="#c6c5fe">client/pages/users/Users.tsx</text>
</g>
<!-- client/common/AppRoutes.tsx&#45;&gt;client/pages/users/Users.tsx -->
<g id="edge11" class="edge">
<title>client/common/AppRoutes.tsx&#45;&gt;client/pages/users/Users.tsx</title>
<path fill="none" stroke="#757575" d="M573.32,-729.02C602.35,-733.81 636.23,-739.39 666.24,-744.34"/>
<polygon fill="#757575" stroke="#757575" points="665.82,-747.82 676.26,-746 666.96,-740.92 665.82,-747.82"/>
</g>
<!-- client/globalStore/store.ts&#45;&gt;lib/sharedUtils.ts -->
<g id="edge23" class="edge">
<title>client/globalStore/store.ts&#45;&gt;lib/sharedUtils.ts</title>
<path fill="none" stroke="#757575" d="M1823.25,-1282.02C1904.06,-1291.97 2039.31,-1297.46 2139,-1244.5 2184.97,-1220.08 2216.84,-1164.93 2231.63,-1134.55"/>
<polygon fill="#757575" stroke="#757575" points="2234.9,-1135.82 2235.98,-1125.28 2228.56,-1132.84 2234.9,-1135.82"/>
</g>
<!-- client/lib/router.tsx&#45;&gt;client/lib/context.tsx -->
<g id="edge24" class="edge">
<title>client/lib/router.tsx&#45;&gt;client/lib/context.tsx</title>
<path fill="none" stroke="#757575" d="M1815.68,-321.94C1904.46,-315.38 2068.15,-303.28 2164.51,-296.15"/>
<polygon fill="#757575" stroke="#757575" points="2165.05,-299.62 2174.77,-295.4 2164.54,-292.64 2165.05,-299.62"/>
</g>
<!-- client/lib/router.tsx&#45;&gt;lib/sharedUtils.ts -->
<g id="edge26" class="edge">
<title>client/lib/router.tsx&#45;&gt;lib/sharedUtils.ts</title>
<path fill="none" stroke="#757575" d="M1815.58,-321.64C1912.36,-315.44 2093.7,-310.09 2139,-352.5 2194.73,-404.68 2232.41,-972.99 2239.71,-1091.8"/>
<polygon fill="#757575" stroke="#757575" points="2236.22,-1092.09 2240.32,-1101.86 2243.2,-1091.67 2236.22,-1092.09"/>
</g>
<!-- client/lib/utils.tsx -->
<g id="node15" class="node">
<title>client/lib/utils.tsx</title>
<path fill="none" stroke="#c6c5fe" d="M2082.33,-650C2082.33,-650 1983.67,-650 1983.67,-650 1979.83,-650 1976,-646.17 1976,-642.33 1976,-642.33 1976,-634.67 1976,-634.67 1976,-630.83 1979.83,-627 1983.67,-627 1983.67,-627 2082.33,-627 2082.33,-627 2086.17,-627 2090,-630.83 2090,-634.67 2090,-634.67 2090,-642.33 2090,-642.33 2090,-646.17 2086.17,-650 2082.33,-650"/>
<text text-anchor="middle" x="2033" y="-634.8" font-family="Arial" font-size="14.00" fill="#c6c5fe">client/lib/utils.tsx</text>
</g>
<!-- client/lib/router.tsx&#45;&gt;client/lib/utils.tsx -->
<g id="edge25" class="edge">
<title>client/lib/router.tsx&#45;&gt;client/lib/utils.tsx</title>
<path fill="none" stroke="#757575" d="M1766.04,-338.37C1790.28,-362.39 1846.46,-418.72 1891,-468.5 1938.21,-521.26 1990.67,-586.35 2016.25,-618.54"/>
<polygon fill="#757575" stroke="#757575" points="2013.77,-621.04 2022.72,-626.7 2019.25,-616.69 2013.77,-621.04"/>
</g>
<!-- client/common/Layout.tsx -->
<g id="node14" class="node">
<title>client/common/Layout.tsx</title>
<path fill="none" stroke="#c6c5fe" d="M1501.83,-689C1501.83,-689 1347.17,-689 1347.17,-689 1343.33,-689 1339.5,-685.17 1339.5,-681.33 1339.5,-681.33 1339.5,-673.67 1339.5,-673.67 1339.5,-669.83 1343.33,-666 1347.17,-666 1347.17,-666 1501.83,-666 1501.83,-666 1505.67,-666 1509.5,-669.83 1509.5,-673.67 1509.5,-673.67 1509.5,-681.33 1509.5,-681.33 1509.5,-685.17 1505.67,-689 1501.83,-689"/>
<text text-anchor="middle" x="1424.5" y="-673.8" font-family="Arial" font-size="14.00" fill="#c6c5fe">client/common/Layout.tsx</text>
</g>
<!-- client/pages/projectStructure/ProjectStructureAsync.tsx&#45;&gt;client/common/Layout.tsx -->
<g id="edge32" class="edge">
<title>client/pages/projectStructure/ProjectStructureAsync.tsx&#45;&gt;client/common/Layout.tsx</title>
<path fill="none" stroke="#757575" d="M1078.39,-492.02C1109.87,-514.46 1180.42,-566.23 1234,-616.5 1251.44,-632.86 1248.86,-645.31 1270,-656.5 1288.08,-666.07 1308.96,-671.81 1329.39,-675.15"/>
<polygon fill="#757575" stroke="#757575" points="1328.97,-678.62 1339.37,-676.6 1329.98,-671.7 1328.97,-678.62"/>
</g>
<!-- client/pages/projectStructure/ProjectStructureAsync.tsx&#45;&gt;client/lib/utils.tsx -->
<g id="edge33" class="edge">
<title>client/pages/projectStructure/ProjectStructureAsync.tsx&#45;&gt;client/lib/utils.tsx</title>
<path fill="none" stroke="#757575" d="M1234.23,-471.78C1441.67,-463.72 1776.55,-459.2 1891,-506.5 1947.98,-530.05 1995.84,-587.85 2018.29,-618.57"/>
<polygon fill="#757575" stroke="#757575" points="2015.52,-620.71 2024.18,-626.81 2021.22,-616.64 2015.52,-620.71"/>
</g>
<!-- client/pages/projectStructure/ProjectStructure.tsx -->
<g id="node24" class="node">
<title>client/pages/projectStructure/ProjectStructure.tsx</title>
<path fill="none" stroke="#cfffac" d="M1571.33,-454C1571.33,-454 1277.67,-454 1277.67,-454 1273.83,-454 1270,-450.17 1270,-446.33 1270,-446.33 1270,-438.67 1270,-438.67 1270,-434.83 1273.83,-431 1277.67,-431 1277.67,-431 1571.33,-431 1571.33,-431 1575.17,-431 1579,-434.83 1579,-438.67 1579,-438.67 1579,-446.33 1579,-446.33 1579,-450.17 1575.17,-454 1571.33,-454"/>
<text text-anchor="middle" x="1424.5" y="-438.8" font-family="Arial" font-size="14.00" fill="#cfffac">client/pages/projectStructure/ProjectStructure.tsx</text>
</g>
<!-- client/pages/projectStructure/ProjectStructureAsync.tsx&#45;&gt;client/pages/projectStructure/ProjectStructure.tsx -->
<g id="edge34" class="edge">
<title>client/pages/projectStructure/ProjectStructureAsync.tsx&#45;&gt;client/pages/projectStructure/ProjectStructure.tsx</title>
<path fill="none" stroke="#757575" d="M1171.44,-469C1213.19,-464.61 1260.98,-459.58 1303.65,-455.1"/>
<polygon fill="#757575" stroke="#757575" points="1304.23,-458.56 1313.81,-454.03 1303.49,-451.6 1304.23,-458.56"/>
</g>
<!-- client/pages/session/Login.tsx&#45;&gt;lib/sharedUtils.ts -->
<g id="edge38" class="edge">
<title>client/pages/session/Login.tsx&#45;&gt;lib/sharedUtils.ts</title>
<path fill="none" stroke="#757575" d="M1131.55,-302.03C1304.68,-331.25 1751.09,-409.79 1891,-465.5 2011.11,-513.33 2064.74,-511.68 2139,-617.5 2194.58,-696.7 2229.99,-1006.4 2238.83,-1091.67"/>
<polygon fill="#757575" stroke="#757575" points="2235.36,-1092.16 2239.85,-1101.75 2242.32,-1091.45 2235.36,-1092.16"/>
</g>
<!-- client/pages/session/Login.tsx&#45;&gt;client/lib/router.tsx -->
<g id="edge36" class="edge">
<title>client/pages/session/Login.tsx&#45;&gt;client/lib/router.tsx</title>
<path fill="none" stroke="#757575" d="M1159.25,-293.53C1263.21,-297.03 1432.84,-303.48 1579,-312.5 1612.24,-314.55 1649.01,-317.44 1680.08,-320.06"/>
<polygon fill="#757575" stroke="#757575" points="1680.13,-323.58 1690.39,-320.94 1680.72,-316.6 1680.13,-323.58"/>
</g>
<!-- client/pages/session/Login.tsx&#45;&gt;client/common/Layout.tsx -->
<g id="edge35" class="edge">
<title>client/pages/session/Login.tsx&#45;&gt;client/common/Layout.tsx</title>
<path fill="none" stroke="#757575" d="M1079.58,-302.05C1115.16,-326.45 1195.57,-387.01 1234,-459.5 1275.69,-538.14 1205.67,-594.99 1270,-656.5 1285.93,-671.73 1307.39,-679.37 1329.21,-682.7"/>
<polygon fill="#757575" stroke="#757575" points="1328.89,-686.19 1339.24,-683.95 1329.75,-679.24 1328.89,-686.19"/>
</g>
<!-- client/pages/session/Login.tsx&#45;&gt;client/lib/utils.tsx -->
<g id="edge37" class="edge">
<title>client/pages/session/Login.tsx&#45;&gt;client/lib/utils.tsx</title>
<path fill="none" stroke="#757575" d="M1096.36,-278.98C1217.9,-240.51 1633.98,-128.62 1891,-305.5 1999.33,-380.05 2024.78,-555.54 2030.46,-616.88"/>
<polygon fill="#757575" stroke="#757575" points="2026.98,-617.28 2031.3,-626.95 2033.95,-616.7 2026.98,-617.28"/>
</g>
<!-- client/pages/todoList/Todolist.tsx&#45;&gt;client/globalStore/store.ts -->
<g id="edge40" class="edge">
<title>client/pages/todoList/Todolist.tsx&#45;&gt;client/globalStore/store.ts</title>
<path fill="none" stroke="#757575" d="M749.74,-988.07C756.99,-1031.78 789.21,-1187.48 888,-1249.5 951.88,-1289.61 1448.47,-1279.66 1658.59,-1273.55"/>
<polygon fill="#757575" stroke="#757575" points="1658.79,-1277.05 1668.68,-1273.26 1658.59,-1270.05 1658.79,-1277.05"/>
</g>
<!-- client/pages/todoList/Todolist.tsx&#45;&gt;lib/sharedUtils.ts -->
<g id="edge47" class="edge">
<title>client/pages/todoList/Todolist.tsx&#45;&gt;lib/sharedUtils.ts</title>
<path fill="none" stroke="#757575" d="M753.09,-988.23C768.07,-1021.03 815.51,-1113.57 888,-1148.5 909.46,-1158.84 1647.08,-1155.94 1891,-1152.5 2001.26,-1150.94 2030.25,-1163.73 2139,-1145.5 2160.26,-1141.94 2183.22,-1135.02 2201.96,-1128.53"/>
<polygon fill="#757575" stroke="#757575" points="2203.38,-1131.74 2211.63,-1125.09 2201.03,-1125.14 2203.38,-1131.74"/>
</g>
<!-- client/pages/todoList/Todolist.tsx&#45;&gt;client/lib/router.tsx -->
<g id="edge41" class="edge">
<title>client/pages/todoList/Todolist.tsx&#45;&gt;client/lib/router.tsx</title>
<path fill="none" stroke="#757575" d="M756.25,-964.68C776.51,-934.99 828.74,-854.22 852,-778.5 872.95,-710.31 838.58,-510.95 888,-459.5 942.89,-402.34 1483.36,-349.92 1680.51,-332.55"/>
<polygon fill="#757575" stroke="#757575" points="1680.82,-336.04 1690.48,-331.68 1680.21,-329.07 1680.82,-336.04"/>
</g>
<!-- client/pages/todoList/Todolist.tsx&#45;&gt;client/common/Layout.tsx -->
<g id="edge39" class="edge">
<title>client/pages/todoList/Todolist.tsx&#45;&gt;client/common/Layout.tsx</title>
<path fill="none" stroke="#757575" d="M754.04,-964.82C777.96,-918.79 865.72,-751.86 888,-737.5 952.99,-695.64 1157.21,-710.36 1234,-701.5 1264.93,-697.93 1298.66,-693.75 1328.98,-689.89"/>
<polygon fill="#757575" stroke="#757575" points="1329.64,-693.34 1339.12,-688.6 1328.76,-686.39 1329.64,-693.34"/>
</g>
<!-- client/pages/todoList/Todolist.tsx&#45;&gt;client/lib/utils.tsx -->
<g id="edge42" class="edge">
<title>client/pages/todoList/Todolist.tsx&#45;&gt;client/lib/utils.tsx</title>
<path fill="none" stroke="#757575" d="M759.89,-964.87C782.63,-943.4 834.75,-897.8 888,-876.5 960,-847.7 1511.85,-817.29 1579,-778.5 1601.48,-765.51 1592.4,-745.28 1615,-732.5 1722.58,-671.66 1771.64,-730.57 1891,-698.5 1930.3,-687.94 1972.98,-668.58 2000.96,-654.7"/>
<polygon fill="#757575" stroke="#757575" points="2002.86,-657.67 2010.22,-650.05 1999.71,-651.41 2002.86,-657.67"/>
</g>
<!-- client/ui/Notifications.tsx -->
<g id="node16" class="node">
<title>client/ui/Notifications.tsx</title>
<path fill="none" stroke="#c6c5fe" d="M1825.83,-926C1825.83,-926 1680.17,-926 1680.17,-926 1676.33,-926 1672.5,-922.17 1672.5,-918.33 1672.5,-918.33 1672.5,-910.67 1672.5,-910.67 1672.5,-906.83 1676.33,-903 1680.17,-903 1680.17,-903 1825.83,-903 1825.83,-903 1829.67,-903 1833.5,-906.83 1833.5,-910.67 1833.5,-910.67 1833.5,-918.33 1833.5,-918.33 1833.5,-922.17 1829.67,-926 1825.83,-926"/>
<text text-anchor="middle" x="1753" y="-910.8" font-family="Arial" font-size="14.00" fill="#c6c5fe">client/ui/Notifications.tsx</text>
</g>
<!-- client/pages/todoList/Todolist.tsx&#45;&gt;client/ui/Notifications.tsx -->
<g id="edge45" class="edge">
<title>client/pages/todoList/Todolist.tsx&#45;&gt;client/ui/Notifications.tsx</title>
<path fill="none" stroke="#757575" d="M757,-988.07C777.25,-1013.14 829.27,-1072.26 888,-1097.5 1029.29,-1158.23 1455.93,-1227.71 1579,-1135.5 1624.58,-1101.35 1582.03,-1058.95 1615,-1012.5 1641.31,-975.44 1686.17,-947.26 1717.36,-930.83"/>
<polygon fill="#757575" stroke="#757575" points="1719.26,-933.79 1726.56,-926.12 1716.07,-927.56 1719.26,-933.79"/>
</g>
<!-- client/pages/todoList/styles.module.css -->
<g id="node25" class="node">
<title>client/pages/todoList/styles.module.css</title>
<path fill="none" stroke="#cfffac" d="M1178.83,-1240C1178.83,-1240 943.17,-1240 943.17,-1240 939.33,-1240 935.5,-1236.17 935.5,-1232.33 935.5,-1232.33 935.5,-1224.67 935.5,-1224.67 935.5,-1220.83 939.33,-1217 943.17,-1217 943.17,-1217 1178.83,-1217 1178.83,-1217 1182.67,-1217 1186.5,-1220.83 1186.5,-1224.67 1186.5,-1224.67 1186.5,-1232.33 1186.5,-1232.33 1186.5,-1236.17 1182.67,-1240 1178.83,-1240"/>
<text text-anchor="middle" x="1061" y="-1224.8" font-family="Arial" font-size="14.00" fill="#cfffac">client/pages/todoList/styles.module.css</text>
</g>
<!-- client/pages/todoList/Todolist.tsx&#45;&gt;client/pages/todoList/styles.module.css -->
<g id="edge43" class="edge">
<title>client/pages/todoList/Todolist.tsx&#45;&gt;client/pages/todoList/styles.module.css</title>
<path fill="none" stroke="#757575" d="M751.33,-988.09C762.92,-1026.16 805.36,-1147.99 888,-1202.5 899.46,-1210.06 912.28,-1215.76 925.6,-1220.01"/>
<polygon fill="#757575" stroke="#757575" points="924.81,-1223.42 935.39,-1222.86 926.76,-1216.7 924.81,-1223.42"/>
</g>
<!-- client/ui/HeaderCell.tsx -->
<g id="node26" class="node">
<title>client/ui/HeaderCell.tsx</title>
<path fill="none" stroke="#c6c5fe" d="M1130.83,-908C1130.83,-908 991.17,-908 991.17,-908 987.33,-908 983.5,-904.17 983.5,-900.33 983.5,-900.33 983.5,-892.67 983.5,-892.67 983.5,-888.83 987.33,-885 991.17,-885 991.17,-885 1130.83,-885 1130.83,-885 1134.67,-885 1138.5,-888.83 1138.5,-892.67 1138.5,-892.67 1138.5,-900.33 1138.5,-900.33 1138.5,-904.17 1134.67,-908 1130.83,-908"/>
<text text-anchor="middle" x="1061" y="-892.8" font-family="Arial" font-size="14.00" fill="#c6c5fe">client/ui/HeaderCell.tsx</text>
</g>
<!-- client/pages/todoList/Todolist.tsx&#45;&gt;client/ui/HeaderCell.tsx -->
<g id="edge44" class="edge">
<title>client/pages/todoList/Todolist.tsx&#45;&gt;client/ui/HeaderCell.tsx</title>
<path fill="none" stroke="#757575" d="M793.03,-964.95C849.14,-950.57 944.96,-926 1005.25,-910.54"/>
<polygon fill="#757575" stroke="#757575" points="1006.16,-913.92 1014.98,-908.04 1004.42,-907.14 1006.16,-913.92"/>
</g>
<!-- client/ui/Pagination.tsx -->
<g id="node27" class="node">
<title>client/ui/Pagination.tsx</title>
<path fill="none" stroke="#c6c5fe" d="M1128.83,-1088C1128.83,-1088 993.17,-1088 993.17,-1088 989.33,-1088 985.5,-1084.17 985.5,-1080.33 985.5,-1080.33 985.5,-1072.67 985.5,-1072.67 985.5,-1068.83 989.33,-1065 993.17,-1065 993.17,-1065 1128.83,-1065 1128.83,-1065 1132.67,-1065 1136.5,-1068.83 1136.5,-1072.67 1136.5,-1072.67 1136.5,-1080.33 1136.5,-1080.33 1136.5,-1084.17 1132.67,-1088 1128.83,-1088"/>
<text text-anchor="middle" x="1061" y="-1072.8" font-family="Arial" font-size="14.00" fill="#c6c5fe">client/ui/Pagination.tsx</text>
</g>
<!-- client/pages/todoList/Todolist.tsx&#45;&gt;client/ui/Pagination.tsx -->
<g id="edge46" class="edge">
<title>client/pages/todoList/Todolist.tsx&#45;&gt;client/ui/Pagination.tsx</title>
<path fill="none" stroke="#757575" d="M765.26,-988.1C790.88,-1004.72 841,-1035.02 888,-1050.5 915.72,-1059.63 947.02,-1065.57 975.25,-1069.43"/>
<polygon fill="#757575" stroke="#757575" points="975.13,-1072.94 985.5,-1070.76 976.03,-1066 975.13,-1072.94"/>
</g>
<!-- client/pages/users/User.tsx&#45;&gt;lib/sharedUtils.ts -->
<g id="edge53" class="edge">
<title>client/pages/users/User.tsx&#45;&gt;lib/sharedUtils.ts</title>
<path fill="none" stroke="#757575" d="M1096.19,-649.1C1137.08,-662.57 1207.81,-684.58 1270,-697.5 1337.79,-711.58 1528.8,-689.81 1579,-737.5 1643.84,-799.11 1548.73,-875.43 1615,-935.5 1701.56,-1013.97 2036.62,-922.2 2139,-978.5 2185.71,-1004.19 2217.46,-1061.3 2231.98,-1092.37"/>
<polygon fill="#757575" stroke="#757575" points="2228.94,-1094.15 2236.24,-1101.83 2235.32,-1091.28 2228.94,-1094.15"/>
</g>
<!-- client/pages/users/User.tsx&#45;&gt;client/lib/router.tsx -->
<g id="edge50" class="edge">
<title>client/pages/users/User.tsx&#45;&gt;client/lib/router.tsx</title>
<path fill="none" stroke="#757575" d="M1101.71,-625.97C1207.27,-595 1492.65,-509.26 1579,-462.5 1640.37,-429.27 1702.25,-374.21 1732.66,-345.4"/>
<polygon fill="#757575" stroke="#757575" points="1735.23,-347.78 1740.03,-338.34 1730.39,-342.73 1735.23,-347.78"/>
</g>
<!-- client/pages/users/User.tsx&#45;&gt;client/common/Layout.tsx -->
<g id="edge49" class="edge">
<title>client/pages/users/User.tsx&#45;&gt;client/common/Layout.tsx</title>
<path fill="none" stroke="#757575" d="M1150.43,-647.29C1204.65,-653.28 1274,-660.96 1329.25,-667.07"/>
<polygon fill="#757575" stroke="#757575" points="1329.07,-670.57 1339.4,-668.19 1329.84,-663.62 1329.07,-670.57"/>
</g>
<!-- client/pages/users/User.tsx&#45;&gt;client/lib/utils.tsx -->
<g id="edge51" class="edge">
<title>client/pages/users/User.tsx&#45;&gt;client/lib/utils.tsx</title>
<path fill="none" stroke="#757575" d="M1105.71,-625.99C1230.02,-595.04 1595.68,-516.36 1891,-577.5 1931.89,-585.96 1975.49,-606.89 2003.2,-621.87"/>
<polygon fill="#757575" stroke="#757575" points="2001.86,-625.12 2012.31,-626.89 2005.24,-618.99 2001.86,-625.12"/>
</g>
<!-- client/pages/users/UI/InfoCircle.tsx -->
<g id="node29" class="node">
<title>client/pages/users/UI/InfoCircle.tsx</title>
<path fill="none" stroke="#c6c5fe" d="M1528.83,-648C1528.83,-648 1320.17,-648 1320.17,-648 1316.33,-648 1312.5,-644.17 1312.5,-640.33 1312.5,-640.33 1312.5,-632.67 1312.5,-632.67 1312.5,-628.83 1316.33,-625 1320.17,-625 1320.17,-625 1528.83,-625 1528.83,-625 1532.67,-625 1536.5,-628.83 1536.5,-632.67 1536.5,-632.67 1536.5,-640.33 1536.5,-640.33 1536.5,-644.17 1532.67,-648 1528.83,-648"/>
<text text-anchor="middle" x="1424.5" y="-632.8" font-family="Arial" font-size="14.00" fill="#c6c5fe">client/pages/users/UI/InfoCircle.tsx</text>
</g>
<!-- client/pages/users/User.tsx&#45;&gt;client/pages/users/UI/InfoCircle.tsx -->
<g id="edge52" class="edge">
<title>client/pages/users/User.tsx&#45;&gt;client/pages/users/UI/InfoCircle.tsx</title>
<path fill="none" stroke="#757575" d="M1150.43,-637.26C1196.09,-637.13 1252.5,-636.97 1302.17,-636.84"/>
<polygon fill="#757575" stroke="#757575" points="1302.35,-640.34 1312.34,-636.81 1302.33,-633.34 1302.35,-640.34"/>
</g>
<!-- client/pages/users/Users.tsx&#45;&gt;lib/sharedUtils.ts -->
<g id="edge61" class="edge">
<title>client/pages/users/Users.tsx&#45;&gt;lib/sharedUtils.ts</title>
<path fill="none" stroke="#757575" d="M753.91,-769.08C770.31,-799.8 819.67,-883.32 888,-917.5 1012.67,-979.87 2012.18,-954.62 2139,-1012.5 2177.8,-1030.21 2210.31,-1069.38 2227.6,-1093.4"/>
<polygon fill="#757575" stroke="#757575" points="2224.86,-1095.6 2233.46,-1101.79 2230.6,-1091.59 2224.86,-1095.6"/>
</g>
<!-- client/pages/users/Users.tsx&#45;&gt;client/lib/router.tsx -->
<g id="edge55" class="edge">
<title>client/pages/users/Users.tsx&#45;&gt;client/lib/router.tsx</title>
<path fill="none" stroke="#757575" d="M751.66,-745.66C770.48,-685.09 856.74,-411.77 888,-388.5 1012.24,-296.02 1495.9,-312.22 1680.17,-322.08"/>
<polygon fill="#757575" stroke="#757575" points="1680.12,-325.59 1690.29,-322.64 1680.5,-318.6 1680.12,-325.59"/>
</g>
<!-- client/pages/users/Users.tsx&#45;&gt;client/common/Layout.tsx -->
<g id="edge54" class="edge">
<title>client/pages/users/Users.tsx&#45;&gt;client/common/Layout.tsx</title>
<path fill="none" stroke="#757575" d="M770.56,-745.96C797.65,-732.74 844.84,-711.72 888,-702.5 1039.88,-670.05 1221.28,-669.28 1329.19,-672.68"/>
<polygon fill="#757575" stroke="#757575" points="1329.29,-676.19 1339.4,-673.02 1329.52,-669.19 1329.29,-676.19"/>
</g>
<!-- client/pages/users/Users.tsx&#45;&gt;client/lib/utils.tsx -->
<g id="edge56" class="edge">
<title>client/pages/users/Users.tsx&#45;&gt;client/lib/utils.tsx</title>
<path fill="none" stroke="#757575" d="M755.51,-746C774.2,-718.45 825.76,-648.6 888,-616.5 1040.93,-537.62 1098.54,-568.04 1270,-553.5 1545.01,-530.17 1625.48,-476.18 1891,-551.5 1938.19,-564.89 1985.08,-599.05 2011.13,-620.36"/>
<polygon fill="#757575" stroke="#757575" points="2008.91,-623.07 2018.83,-626.79 2013.39,-617.7 2008.91,-623.07"/>
</g>
<!-- client/pages/users/Users.tsx&#45;&gt;client/ui/HeaderCell.tsx -->
<g id="edge59" class="edge">
<title>client/pages/users/Users.tsx&#45;&gt;client/ui/HeaderCell.tsx</title>
<path fill="none" stroke="#757575" d="M774.06,-769.11C829.93,-794 961.24,-852.5 1024.59,-880.72"/>
<polygon fill="#757575" stroke="#757575" points="1023.23,-883.95 1033.79,-884.82 1026.08,-877.56 1023.23,-883.95"/>
</g>
<!-- client/pages/users/Users.tsx&#45;&gt;client/ui/Pagination.tsx -->
<g id="edge60" class="edge">
<title>client/pages/users/Users.tsx&#45;&gt;client/ui/Pagination.tsx</title>
<path fill="none" stroke="#757575" d="M754.83,-769.37C772.22,-799.87 819.15,-883.65 852,-956.5 870.39,-997.28 853.14,-1022.46 888,-1050.5 912.21,-1069.98 944.73,-1078 974.98,-1080.63"/>
<polygon fill="#757575" stroke="#757575" points="974.92,-1084.13 985.14,-1081.32 975.4,-1077.15 974.92,-1084.13"/>
</g>
<!-- client/ui/Checkbox.tsx -->
<g id="node30" class="node">
<title>client/ui/Checkbox.tsx</title>
<path fill="none" stroke="#c6c5fe" d="M1818.83,-1044C1818.83,-1044 1687.17,-1044 1687.17,-1044 1683.33,-1044 1679.5,-1040.17 1679.5,-1036.33 1679.5,-1036.33 1679.5,-1028.67 1679.5,-1028.67 1679.5,-1024.83 1683.33,-1021 1687.17,-1021 1687.17,-1021 1818.83,-1021 1818.83,-1021 1822.67,-1021 1826.5,-1024.83 1826.5,-1028.67 1826.5,-1028.67 1826.5,-1036.33 1826.5,-1036.33 1826.5,-1040.17 1822.67,-1044 1818.83,-1044"/>
<text text-anchor="middle" x="1753" y="-1028.8" font-family="Arial" font-size="14.00" fill="#c6c5fe">client/ui/Checkbox.tsx</text>
</g>
<!-- client/pages/users/Users.tsx&#45;&gt;client/ui/Checkbox.tsx -->
<g id="edge57" class="edge">
<title>client/pages/users/Users.tsx&#45;&gt;client/ui/Checkbox.tsx</title>
<path fill="none" stroke="#757575" d="M751.66,-769.04C763.98,-805.8 807.75,-920.65 888,-970.5 1016.81,-1050.52 1478.84,-1042.94 1669.16,-1036.12"/>
<polygon fill="#757575" stroke="#757575" points="1669.52,-1039.61 1679.39,-1035.75 1669.27,-1032.61 1669.52,-1039.61"/>
</g>
<!-- client/ui/Collapse.tsx -->
<g id="node31" class="node">
<title>client/ui/Collapse.tsx</title>
<path fill="none" stroke="#c6c5fe" d="M1123.33,-769C1123.33,-769 998.67,-769 998.67,-769 994.83,-769 991,-765.17 991,-761.33 991,-761.33 991,-753.67 991,-753.67 991,-749.83 994.83,-746 998.67,-746 998.67,-746 1123.33,-746 1123.33,-746 1127.17,-746 1131,-749.83 1131,-753.67 1131,-753.67 1131,-761.33 1131,-761.33 1131,-765.17 1127.17,-769 1123.33,-769"/>
<text text-anchor="middle" x="1061" y="-753.8" font-family="Arial" font-size="14.00" fill="#c6c5fe">client/ui/Collapse.tsx</text>
</g>
<!-- client/pages/users/Users.tsx&#45;&gt;client/ui/Collapse.tsx -->
<g id="edge58" class="edge">
<title>client/pages/users/Users.tsx&#45;&gt;client/ui/Collapse.tsx</title>
<path fill="none" stroke="#757575" d="M839.5,-757.5C884.28,-757.5 937.66,-757.5 980.69,-757.5"/>
<polygon fill="#757575" stroke="#757575" points="980.83,-761 990.83,-757.5 980.83,-754 980.83,-761"/>
</g>
<!-- client/common/Layout.module.css -->
<g id="node13" class="node">
<title>client/common/Layout.module.css</title>
<path fill="none" stroke="#cfffac" d="M1856.33,-690C1856.33,-690 1649.67,-690 1649.67,-690 1645.83,-690 1642,-686.17 1642,-682.33 1642,-682.33 1642,-674.67 1642,-674.67 1642,-670.83 1645.83,-667 1649.67,-667 1649.67,-667 1856.33,-667 1856.33,-667 1860.17,-667 1864,-670.83 1864,-674.67 1864,-674.67 1864,-682.33 1864,-682.33 1864,-686.17 1860.17,-690 1856.33,-690"/>
<text text-anchor="middle" x="1753" y="-674.8" font-family="Arial" font-size="14.00" fill="#cfffac">client/common/Layout.module.css</text>
</g>
<!-- client/common/Layout.tsx&#45;&gt;client/globalStore/store.ts -->
<g id="edge14" class="edge">
<title>client/common/Layout.tsx&#45;&gt;client/globalStore/store.ts</title>
<path fill="none" stroke="#757575" d="M1498.97,-689.09C1528.39,-697.56 1559.8,-712.2 1579,-737.5 1627.21,-801.01 1585.35,-1020.48 1615,-1094.5 1641.41,-1160.44 1700.32,-1222.26 1731.59,-1252"/>
<polygon fill="#757575" stroke="#757575" points="1729.22,-1254.57 1738.91,-1258.85 1734,-1249.46 1729.22,-1254.57"/>
</g>
<!-- client/common/Layout.tsx&#45;&gt;lib/sharedUtils.ts -->
<g id="edge18" class="edge">
<title>client/common/Layout.tsx&#45;&gt;lib/sharedUtils.ts</title>
<path fill="none" stroke="#757575" d="M1508.46,-689.05C1531.46,-692.92 1556.34,-697.76 1579,-703.5 1833.91,-768.11 1943.36,-718.78 2139,-894.5 2200.13,-949.4 2227.43,-1048.52 2236.88,-1092.03"/>
<polygon fill="#757575" stroke="#757575" points="2233.46,-1092.75 2238.91,-1101.84 2240.31,-1091.34 2233.46,-1092.75"/>
</g>
<!-- client/common/Layout.tsx&#45;&gt;client/lib/router.tsx -->
<g id="edge15" class="edge">
<title>client/common/Layout.tsx&#45;&gt;client/lib/router.tsx</title>
<path fill="none" stroke="#757575" d="M1509.73,-680.83C1534.01,-678.06 1559.25,-671.19 1579,-656.5 1609.96,-633.47 1597.75,-612.01 1615,-577.5 1658.56,-490.37 1715.83,-389.35 1740.2,-346.92"/>
<polygon fill="#757575" stroke="#757575" points="1743.32,-348.52 1745.28,-338.1 1737.25,-345.02 1743.32,-348.52"/>
</g>
<!-- client/common/Layout.tsx&#45;&gt;client/common/Layout.module.css -->
<g id="edge13" class="edge">
<title>client/common/Layout.tsx&#45;&gt;client/common/Layout.module.css</title>
<path fill="none" stroke="#757575" d="M1509.58,-677.76C1546.68,-677.87 1590.98,-678.01 1631.5,-678.13"/>
<polygon fill="#757575" stroke="#757575" points="1631.7,-681.63 1641.71,-678.16 1631.73,-674.63 1631.7,-681.63"/>
</g>
<!-- client/common/Layout.tsx&#45;&gt;client/lib/utils.tsx -->
<g id="edge16" class="edge">
<title>client/common/Layout.tsx&#45;&gt;client/lib/utils.tsx</title>
<path fill="none" stroke="#757575" d="M1509.83,-667.51C1542.62,-663.91 1580.53,-660.1 1615,-657.5 1738.7,-648.16 1883.42,-642.82 1965.74,-640.3"/>
<polygon fill="#757575" stroke="#757575" points="1966.06,-643.79 1975.95,-639.99 1965.85,-636.8 1966.06,-643.79"/>
</g>
<!-- client/common/Layout.tsx&#45;&gt;client/ui/Notifications.tsx -->
<g id="edge17" class="edge">
<title>client/common/Layout.tsx&#45;&gt;client/ui/Notifications.tsx</title>
<path fill="none" stroke="#757575" d="M1509.84,-674.68C1534.84,-678 1560.46,-686.13 1579,-703.5 1629.65,-750.98 1570.36,-802.33 1615,-855.5 1633.09,-877.04 1660.49,-890.93 1686.05,-899.77"/>
<polygon fill="#757575" stroke="#757575" points="1685.14,-903.16 1695.73,-902.92 1687.3,-896.5 1685.14,-903.16"/>
</g>
<!-- client/lib/utils.tsx&#45;&gt;client/lib/context.tsx -->
<g id="edge27" class="edge">
<title>client/lib/utils.tsx&#45;&gt;client/lib/context.tsx</title>
<path fill="none" stroke="#757575" d="M2040.89,-626.92C2070.85,-576.55 2190.06,-376.14 2228.78,-311.04"/>
<polygon fill="#757575" stroke="#757575" points="2231.98,-312.51 2234.09,-302.12 2225.97,-308.93 2231.98,-312.51"/>
</g>
<!-- client/lib/utils.tsx&#45;&gt;lib/sharedUtils.ts -->
<g id="edge28" class="edge">
<title>client/lib/utils.tsx&#45;&gt;lib/sharedUtils.ts</title>
<path fill="none" stroke="#757575" d="M2044.78,-650.11C2065.73,-673.23 2112.22,-727.39 2139,-780.5 2194.64,-890.87 2226.46,-1037.3 2237.02,-1091.83"/>
<polygon fill="#757575" stroke="#757575" points="2233.6,-1092.58 2238.9,-1101.75 2240.48,-1091.27 2233.6,-1092.58"/>
</g>
<!-- client/ui/Notifications.tsx&#45;&gt;client/lib/utils.tsx -->
<g id="edge68" class="edge">
<title>client/ui/Notifications.tsx&#45;&gt;client/lib/utils.tsx</title>
<path fill="none" stroke="#757575" d="M1833.7,-911.19C1853.8,-907.31 1874.38,-900.43 1891,-888.5 1972.49,-830.03 2013,-708.96 2026.6,-659.87"/>
<polygon fill="#757575" stroke="#757575" points="2030.03,-660.59 2029.23,-650.03 2023.26,-658.79 2030.03,-660.59"/>
</g>
<!-- client/ui/Notifications.module.css -->
<g id="node37" class="node">
<title>client/ui/Notifications.module.css</title>
<path fill="none" stroke="#cfffac" d="M2131.33,-926C2131.33,-926 1934.67,-926 1934.67,-926 1930.83,-926 1927,-922.17 1927,-918.33 1927,-918.33 1927,-910.67 1927,-910.67 1927,-906.83 1930.83,-903 1934.67,-903 1934.67,-903 2131.33,-903 2131.33,-903 2135.17,-903 2139,-906.83 2139,-910.67 2139,-910.67 2139,-918.33 2139,-918.33 2139,-922.17 2135.17,-926 2131.33,-926"/>
<text text-anchor="middle" x="2033" y="-910.8" font-family="Arial" font-size="14.00" fill="#cfffac">client/ui/Notifications.module.css</text>
</g>
<!-- client/ui/Notifications.tsx&#45;&gt;client/ui/Notifications.module.css -->
<g id="edge69" class="edge">
<title>client/ui/Notifications.tsx&#45;&gt;client/ui/Notifications.module.css</title>
<path fill="none" stroke="#757575" d="M1833.66,-914.5C1859.53,-914.5 1888.77,-914.5 1916.69,-914.5"/>
<polygon fill="#757575" stroke="#757575" points="1916.91,-918 1926.91,-914.5 1916.91,-911 1916.91,-918"/>
</g>
<!-- client/css/bootstrap&#45;grid.css -->
<g id="node17" class="node">
<title>client/css/bootstrap&#45;grid.css</title>
<path fill="none" stroke="#cfffac" d="M586.33,-146C586.33,-146 418.67,-146 418.67,-146 414.83,-146 411,-142.17 411,-138.33 411,-138.33 411,-130.67 411,-130.67 411,-126.83 414.83,-123 418.67,-123 418.67,-123 586.33,-123 586.33,-123 590.17,-123 594,-126.83 594,-130.67 594,-130.67 594,-138.33 594,-138.33 594,-142.17 590.17,-146 586.33,-146"/>
<text text-anchor="middle" x="502.5" y="-130.8" font-family="Arial" font-size="14.00" fill="#cfffac">client/css/bootstrap&#45;grid.css</text>
</g>
<!-- client/css/fontawesome.min.css -->
<g id="node18" class="node">
<title>client/css/fontawesome.min.css</title>
<path fill="none" stroke="#cfffac" d="M598.33,-105C598.33,-105 406.67,-105 406.67,-105 402.83,-105 399,-101.17 399,-97.33 399,-97.33 399,-89.67 399,-89.67 399,-85.83 402.83,-82 406.67,-82 406.67,-82 598.33,-82 598.33,-82 602.17,-82 606,-85.83 606,-89.67 606,-89.67 606,-97.33 606,-97.33 606,-101.17 602.17,-105 598.33,-105"/>
<text text-anchor="middle" x="502.5" y="-89.8" font-family="Arial" font-size="14.00" fill="#cfffac">client/css/fontawesome.min.css</text>
</g>
<!-- client/css/index.css -->
<g id="node19" class="node">
<title>client/css/index.css</title>
<path fill="none" stroke="#c6c5fe" d="M344.33,-105C344.33,-105 227.67,-105 227.67,-105 223.83,-105 220,-101.17 220,-97.33 220,-97.33 220,-89.67 220,-89.67 220,-85.83 223.83,-82 227.67,-82 227.67,-82 344.33,-82 344.33,-82 348.17,-82 352,-85.83 352,-89.67 352,-89.67 352,-97.33 352,-97.33 352,-101.17 348.17,-105 344.33,-105"/>
<text text-anchor="middle" x="286" y="-89.8" font-family="Arial" font-size="14.00" fill="#c6c5fe">client/css/index.css</text>
</g>
<!-- client/css/index.css&#45;&gt;client/css/bootstrap&#45;grid.css -->
<g id="edge19" class="edge">
<title>client/css/index.css&#45;&gt;client/css/bootstrap&#45;grid.css</title>
<path fill="none" stroke="#757575" d="M347.32,-105.03C373.48,-110.03 404.27,-115.92 431.43,-121.11"/>
<polygon fill="#757575" stroke="#757575" points="430.78,-124.55 441.26,-122.99 432.1,-117.67 430.78,-124.55"/>
</g>
<!-- client/css/index.css&#45;&gt;client/css/fontawesome.min.css -->
<g id="edge20" class="edge">
<title>client/css/index.css&#45;&gt;client/css/fontawesome.min.css</title>
<path fill="none" stroke="#757575" d="M352.23,-93.5C363.9,-93.5 376.36,-93.5 388.92,-93.5"/>
<polygon fill="#757575" stroke="#757575" points="389,-97 399,-93.5 389,-90 389,-97"/>
</g>
<!-- client/css/regular.css -->
<g id="node20" class="node">
<title>client/css/regular.css</title>
<path fill="none" stroke="#cfffac" d="M565.33,-64C565.33,-64 439.67,-64 439.67,-64 435.83,-64 432,-60.17 432,-56.33 432,-56.33 432,-48.67 432,-48.67 432,-44.83 435.83,-41 439.67,-41 439.67,-41 565.33,-41 565.33,-41 569.17,-41 573,-44.83 573,-48.67 573,-48.67 573,-56.33 573,-56.33 573,-60.17 569.17,-64 565.33,-64"/>
<text text-anchor="middle" x="502.5" y="-48.8" font-family="Arial" font-size="14.00" fill="#cfffac">client/css/regular.css</text>
</g>
<!-- client/css/index.css&#45;&gt;client/css/regular.css -->
<g id="edge21" class="edge">
<title>client/css/index.css&#45;&gt;client/css/regular.css</title>
<path fill="none" stroke="#757575" d="M347.32,-81.97C373.48,-76.97 404.27,-71.08 431.43,-65.89"/>
<polygon fill="#757575" stroke="#757575" points="432.1,-69.33 441.26,-64.01 430.78,-62.45 432.1,-69.33"/>
</g>
<!-- client/css/solid.css -->
<g id="node21" class="node">
<title>client/css/solid.css</title>
<path fill="none" stroke="#cfffac" d="M558.83,-23C558.83,-23 446.17,-23 446.17,-23 442.33,-23 438.5,-19.17 438.5,-15.33 438.5,-15.33 438.5,-7.67 438.5,-7.67 438.5,-3.83 442.33,0 446.17,0 446.17,0 558.83,0 558.83,0 562.67,0 566.5,-3.83 566.5,-7.67 566.5,-7.67 566.5,-15.33 566.5,-15.33 566.5,-19.17 562.67,-23 558.83,-23"/>
<text text-anchor="middle" x="502.5" y="-7.8" font-family="Arial" font-size="14.00" fill="#cfffac">client/css/solid.css</text>
</g>
<!-- client/css/index.css&#45;&gt;client/css/solid.css -->
<g id="edge22" class="edge">
<title>client/css/index.css&#45;&gt;client/css/solid.css</title>
<path fill="none" stroke="#757575" d="M304.03,-81.83C325.31,-67.8 363.29,-44.5 399,-31.5 408.33,-28.1 418.35,-25.25 428.35,-22.85"/>
<polygon fill="#757575" stroke="#757575" points="429.33,-26.22 438.32,-20.61 427.79,-19.39 429.33,-26.22"/>
</g>
<!-- client/css/tailwind.css -->
<g id="node22" class="node">
<title>client/css/tailwind.css</title>
<path fill="none" stroke="#cfffac" d="M350.83,-1585C350.83,-1585 221.17,-1585 221.17,-1585 217.33,-1585 213.5,-1581.17 213.5,-1577.33 213.5,-1577.33 213.5,-1569.67 213.5,-1569.67 213.5,-1565.83 217.33,-1562 221.17,-1562 221.17,-1562 350.83,-1562 350.83,-1562 354.67,-1562 358.5,-1565.83 358.5,-1569.67 358.5,-1569.67 358.5,-1577.33 358.5,-1577.33 358.5,-1581.17 354.67,-1585 350.83,-1585"/>
<text text-anchor="middle" x="286" y="-1569.8" font-family="Arial" font-size="14.00" fill="#cfffac">client/css/tailwind.css</text>
</g>
<!-- client/main/entry&#45;client.tsx -->
<g id="node23" class="node">
<title>client/main/entry&#45;client.tsx</title>
<path fill="none" stroke="#c6c5fe" d="M165.33,-1064C165.33,-1064 7.67,-1064 7.67,-1064 3.83,-1064 0,-1060.17 0,-1056.33 0,-1056.33 0,-1048.67 0,-1048.67 0,-1044.83 3.83,-1041 7.67,-1041 7.67,-1041 165.33,-1041 165.33,-1041 169.17,-1041 173,-1044.83 173,-1048.67 173,-1048.67 173,-1056.33 173,-1056.33 173,-1060.17 169.17,-1064 165.33,-1064"/>
<text text-anchor="middle" x="86.5" y="-1048.8" font-family="Arial" font-size="14.00" fill="#c6c5fe">client/main/entry&#45;client.tsx</text>
</g>
<!-- client/main/entry&#45;client.tsx&#45;&gt;client/common/App.tsx -->
<g id="edge29" class="edge">
<title>client/main/entry&#45;client.tsx&#45;&gt;client/common/App.tsx</title>
<path fill="none" stroke="#757575" d="M173.26,-1052.5C181.7,-1052.5 190.27,-1052.5 198.71,-1052.5"/>
<polygon fill="#757575" stroke="#757575" points="198.93,-1056 208.93,-1052.5 198.93,-1049 198.93,-1056"/>
</g>
<!-- client/main/entry&#45;client.tsx&#45;&gt;client/css/index.css -->
<g id="edge30" class="edge">
<title>client/main/entry&#45;client.tsx&#45;&gt;client/css/index.css</title>
<path fill="none" stroke="#757575" d="M89.93,-1040.72C110.34,-941.6 253.36,-247.14 280.54,-115.14"/>
<polygon fill="#757575" stroke="#757575" points="284.03,-115.56 282.62,-105.06 277.17,-114.15 284.03,-115.56"/>
</g>
<!-- client/main/entry&#45;client.tsx&#45;&gt;client/css/tailwind.css -->
<g id="edge31" class="edge">
<title>client/main/entry&#45;client.tsx&#45;&gt;client/css/tailwind.css</title>
<path fill="none" stroke="#757575" d="M88.73,-1064.23C96.11,-1132.67 136.77,-1479.86 209,-1553.5 209.81,-1554.33 210.65,-1555.12 211.52,-1555.89"/>
<polygon fill="#757575" stroke="#757575" points="209.82,-1558.97 219.99,-1561.94 213.89,-1553.28 209.82,-1558.97"/>
</g>
<!-- client/ui/HeaderCell.tsx&#45;&gt;lib/sharedUtils.ts -->
<g id="edge67" class="edge">
<title>client/ui/HeaderCell.tsx&#45;&gt;lib/sharedUtils.ts</title>
<path fill="none" stroke="#757575" d="M1077.84,-908.04C1111.5,-932.01 1193.37,-987.49 1270,-1017.5 1416.29,-1074.79 1459.12,-1074.92 1615,-1094.5 1817.11,-1119.89 2058.67,-1118.29 2173.69,-1115.61"/>
<polygon fill="#757575" stroke="#757575" points="2173.84,-1119.11 2183.75,-1115.37 2173.67,-1112.11 2173.84,-1119.11"/>
</g>
<!-- client/ui/HeaderCell.module.css -->
<g id="node34" class="node">
<title>client/ui/HeaderCell.module.css</title>
<path fill="none" stroke="#cfffac" d="M1519.83,-928C1519.83,-928 1329.17,-928 1329.17,-928 1325.33,-928 1321.5,-924.17 1321.5,-920.33 1321.5,-920.33 1321.5,-912.67 1321.5,-912.67 1321.5,-908.83 1325.33,-905 1329.17,-905 1329.17,-905 1519.83,-905 1519.83,-905 1523.67,-905 1527.5,-908.83 1527.5,-912.67 1527.5,-912.67 1527.5,-920.33 1527.5,-920.33 1527.5,-924.17 1523.67,-928 1519.83,-928"/>
<text text-anchor="middle" x="1424.5" y="-912.8" font-family="Arial" font-size="14.00" fill="#cfffac">client/ui/HeaderCell.module.css</text>
</g>
<!-- client/ui/HeaderCell.tsx&#45;&gt;client/ui/HeaderCell.module.css -->
<g id="edge64" class="edge">
<title>client/ui/HeaderCell.tsx&#45;&gt;client/ui/HeaderCell.module.css</title>
<path fill="none" stroke="#757575" d="M1138.66,-900.74C1188.71,-903.51 1254.91,-907.17 1310.89,-910.27"/>
<polygon fill="#757575" stroke="#757575" points="1311.04,-913.78 1321.21,-910.84 1311.42,-906.79 1311.04,-913.78"/>
</g>
<!-- client/ui/Popup.tsx -->
<g id="node35" class="node">
<title>client/ui/Popup.tsx</title>
<path fill="none" stroke="#c6c5fe" d="M1808.33,-846C1808.33,-846 1697.67,-846 1697.67,-846 1693.83,-846 1690,-842.17 1690,-838.33 1690,-838.33 1690,-830.67 1690,-830.67 1690,-826.83 1693.83,-823 1697.67,-823 1697.67,-823 1808.33,-823 1808.33,-823 1812.17,-823 1816,-826.83 1816,-830.67 1816,-830.67 1816,-838.33 1816,-838.33 1816,-842.17 1812.17,-846 1808.33,-846"/>
<text text-anchor="middle" x="1753" y="-830.8" font-family="Arial" font-size="14.00" fill="#c6c5fe">client/ui/Popup.tsx</text>
</g>
<!-- client/ui/HeaderCell.tsx&#45;&gt;client/ui/Popup.tsx -->
<g id="edge65" class="edge">
<title>client/ui/HeaderCell.tsx&#45;&gt;client/ui/Popup.tsx</title>
<path fill="none" stroke="#757575" d="M1109.59,-884.99C1151.54,-875.35 1214.45,-862.15 1270,-855.5 1414.64,-838.19 1585.21,-834.71 1679.72,-834.25"/>
<polygon fill="#757575" stroke="#757575" points="1679.76,-837.75 1689.75,-834.22 1679.73,-830.75 1679.76,-837.75"/>
</g>
<!-- client/ui/TableFilters.tsx -->
<g id="node36" class="node">
<title>client/ui/TableFilters.tsx</title>
<path fill="none" stroke="#c6c5fe" d="M1494.83,-887C1494.83,-887 1354.17,-887 1354.17,-887 1350.33,-887 1346.5,-883.17 1346.5,-879.33 1346.5,-879.33 1346.5,-871.67 1346.5,-871.67 1346.5,-867.83 1350.33,-864 1354.17,-864 1354.17,-864 1494.83,-864 1494.83,-864 1498.67,-864 1502.5,-867.83 1502.5,-871.67 1502.5,-871.67 1502.5,-879.33 1502.5,-879.33 1502.5,-883.17 1498.67,-887 1494.83,-887"/>
<text text-anchor="middle" x="1424.5" y="-871.8" font-family="Arial" font-size="14.00" fill="#c6c5fe">client/ui/TableFilters.tsx</text>
</g>
<!-- client/ui/HeaderCell.tsx&#45;&gt;client/ui/TableFilters.tsx -->
<g id="edge66" class="edge">
<title>client/ui/HeaderCell.tsx&#45;&gt;client/ui/TableFilters.tsx</title>
<path fill="none" stroke="#757575" d="M1138.66,-892.05C1196.46,-888.69 1275.8,-884.08 1336.06,-880.58"/>
<polygon fill="#757575" stroke="#757575" points="1336.54,-884.06 1346.32,-879.98 1336.14,-877.07 1336.54,-884.06"/>
</g>
<!-- client/ui/Pagination.tsx&#45;&gt;lib/sharedUtils.ts -->
<g id="edge72" class="edge">
<title>client/ui/Pagination.tsx&#45;&gt;lib/sharedUtils.ts</title>
<path fill="none" stroke="#757575" d="M1092.44,-1088.01C1132.47,-1102.48 1205.31,-1126.5 1270,-1135.5 1363.4,-1148.49 1994.38,-1138.42 2139,-1127.5 2150.3,-1126.65 2162.27,-1125.36 2173.87,-1123.9"/>
<polygon fill="#757575" stroke="#757575" points="2174.49,-1127.35 2183.95,-1122.58 2173.58,-1120.41 2174.49,-1127.35"/>
</g>
<!-- client/ui/Pagination.module.css -->
<g id="node38" class="node">
<title>client/ui/Pagination.module.css</title>
<path fill="none" stroke="#cfffac" d="M1518.33,-1126C1518.33,-1126 1330.67,-1126 1330.67,-1126 1326.83,-1126 1323,-1122.17 1323,-1118.33 1323,-1118.33 1323,-1110.67 1323,-1110.67 1323,-1106.83 1326.83,-1103 1330.67,-1103 1330.67,-1103 1518.33,-1103 1518.33,-1103 1522.17,-1103 1526,-1106.83 1526,-1110.67 1526,-1110.67 1526,-1118.33 1526,-1118.33 1526,-1122.17 1522.17,-1126 1518.33,-1126"/>
<text text-anchor="middle" x="1424.5" y="-1110.8" font-family="Arial" font-size="14.00" fill="#cfffac">client/ui/Pagination.module.css</text>
</g>
<!-- client/ui/Pagination.tsx&#45;&gt;client/ui/Pagination.module.css -->
<g id="edge70" class="edge">
<title>client/ui/Pagination.tsx&#45;&gt;client/ui/Pagination.module.css</title>
<path fill="none" stroke="#757575" d="M1136.9,-1084.37C1187.73,-1089.72 1255.78,-1096.87 1312.83,-1102.87"/>
<polygon fill="#757575" stroke="#757575" points="1312.67,-1106.37 1322.98,-1103.93 1313.4,-1099.41 1312.67,-1106.37"/>
</g>
<!-- client/ui/Select.tsx -->
<g id="node39" class="node">
<title>client/ui/Select.tsx</title>
<path fill="none" stroke="#c6c5fe" d="M1479.33,-1008C1479.33,-1008 1369.67,-1008 1369.67,-1008 1365.83,-1008 1362,-1004.17 1362,-1000.33 1362,-1000.33 1362,-992.67 1362,-992.67 1362,-988.83 1365.83,-985 1369.67,-985 1369.67,-985 1479.33,-985 1479.33,-985 1483.17,-985 1487,-988.83 1487,-992.67 1487,-992.67 1487,-1000.33 1487,-1000.33 1487,-1004.17 1483.17,-1008 1479.33,-1008"/>
<text text-anchor="middle" x="1424.5" y="-992.8" font-family="Arial" font-size="14.00" fill="#c6c5fe">client/ui/Select.tsx</text>
</g>
<!-- client/ui/Pagination.tsx&#45;&gt;client/ui/Select.tsx -->
<g id="edge71" class="edge">
<title>client/ui/Pagination.tsx&#45;&gt;client/ui/Select.tsx</title>
<path fill="none" stroke="#757575" d="M1114.18,-1064.95C1179.59,-1050.48 1291.59,-1025.69 1361.36,-1010.25"/>
<polygon fill="#757575" stroke="#757575" points="1362.33,-1013.62 1371.34,-1008.04 1360.82,-1006.79 1362.33,-1013.62"/>
</g>
<!-- client/pages/users/UI/InfoCircle.module.css -->
<g id="node28" class="node">
<title>client/pages/users/UI/InfoCircle.module.css</title>
<path fill="none" stroke="#cfffac" d="M1883.33,-610C1883.33,-610 1622.67,-610 1622.67,-610 1618.83,-610 1615,-606.17 1615,-602.33 1615,-602.33 1615,-594.67 1615,-594.67 1615,-590.83 1618.83,-587 1622.67,-587 1622.67,-587 1883.33,-587 1883.33,-587 1887.17,-587 1891,-590.83 1891,-594.67 1891,-594.67 1891,-602.33 1891,-602.33 1891,-606.17 1887.17,-610 1883.33,-610"/>
<text text-anchor="middle" x="1753" y="-594.8" font-family="Arial" font-size="14.00" fill="#cfffac">client/pages/users/UI/InfoCircle.module.css</text>
</g>
<!-- client/pages/users/UI/InfoCircle.tsx&#45;&gt;client/pages/users/UI/InfoCircle.module.css -->
<g id="edge48" class="edge">
<title>client/pages/users/UI/InfoCircle.tsx&#45;&gt;client/pages/users/UI/InfoCircle.module.css</title>
<path fill="none" stroke="#757575" d="M1524.35,-625C1561.73,-620.64 1604.49,-615.67 1642.78,-611.21"/>
<polygon fill="#757575" stroke="#757575" points="1643.4,-614.66 1652.93,-610.03 1642.59,-607.71 1643.4,-614.66"/>
</g>
<!-- client/ui/Checkbox.module.css -->
<g id="node32" class="node">
<title>client/ui/Checkbox.module.css</title>
<path fill="none" stroke="#cfffac" d="M2124.83,-1044C2124.83,-1044 1941.17,-1044 1941.17,-1044 1937.33,-1044 1933.5,-1040.17 1933.5,-1036.33 1933.5,-1036.33 1933.5,-1028.67 1933.5,-1028.67 1933.5,-1024.83 1937.33,-1021 1941.17,-1021 1941.17,-1021 2124.83,-1021 2124.83,-1021 2128.67,-1021 2132.5,-1024.83 2132.5,-1028.67 2132.5,-1028.67 2132.5,-1036.33 2132.5,-1036.33 2132.5,-1040.17 2128.67,-1044 2124.83,-1044"/>
<text text-anchor="middle" x="2033" y="-1028.8" font-family="Arial" font-size="14.00" fill="#cfffac">client/ui/Checkbox.module.css</text>
</g>
<!-- client/ui/Checkbox.tsx&#45;&gt;client/ui/Checkbox.module.css -->
<g id="edge62" class="edge">
<title>client/ui/Checkbox.tsx&#45;&gt;client/ui/Checkbox.module.css</title>
<path fill="none" stroke="#757575" d="M1826.68,-1032.5C1856.07,-1032.5 1890.64,-1032.5 1922.94,-1032.5"/>
<polygon fill="#757575" stroke="#757575" points="1923.34,-1036 1933.34,-1032.5 1923.34,-1029 1923.34,-1036"/>
</g>
<!-- client/ui/Collapse.module.css -->
<g id="node33" class="node">
<title>client/ui/Collapse.module.css</title>
<path fill="none" stroke="#cfffac" d="M1512.33,-769C1512.33,-769 1336.67,-769 1336.67,-769 1332.83,-769 1329,-765.17 1329,-761.33 1329,-761.33 1329,-753.67 1329,-753.67 1329,-749.83 1332.83,-746 1336.67,-746 1336.67,-746 1512.33,-746 1512.33,-746 1516.17,-746 1520,-749.83 1520,-753.67 1520,-753.67 1520,-761.33 1520,-761.33 1520,-765.17 1516.17,-769 1512.33,-769"/>
<text text-anchor="middle" x="1424.5" y="-753.8" font-family="Arial" font-size="14.00" fill="#cfffac">client/ui/Collapse.module.css</text>
</g>
<!-- client/ui/Collapse.tsx&#45;&gt;client/ui/Collapse.module.css -->
<g id="edge63" class="edge">
<title>client/ui/Collapse.tsx&#45;&gt;client/ui/Collapse.module.css</title>
<path fill="none" stroke="#757575" d="M1131.27,-757.5C1184.28,-757.5 1258.27,-757.5 1318.53,-757.5"/>
<polygon fill="#757575" stroke="#757575" points="1318.85,-761 1328.85,-757.5 1318.85,-754 1318.85,-761"/>
</g>
<!-- client/ui/Popup.tsx&#45;&gt;client/lib/utils.tsx -->
<g id="edge73" class="edge">
<title>client/ui/Popup.tsx&#45;&gt;client/lib/utils.tsx</title>
<path fill="none" stroke="#757575" d="M1785.97,-822.9C1814.74,-811.71 1857.51,-793.15 1891,-770.5 1940.84,-736.79 1990.08,-685.48 2015.08,-657.81"/>
<polygon fill="#757575" stroke="#757575" points="2017.98,-659.82 2022.04,-650.03 2012.76,-655.15 2017.98,-659.82"/>
</g>
<!-- client/ui/TableFilters.tsx&#45;&gt;client/lib/utils.tsx -->
<g id="edge77" class="edge">
<title>client/ui/TableFilters.tsx&#45;&gt;client/lib/utils.tsx</title>
<path fill="none" stroke="#757575" d="M1460.7,-863.91C1498.69,-851.45 1561.02,-831.21 1615,-814.5 1737.25,-776.67 1775.14,-786.82 1891,-732.5 1935.95,-711.43 1982.9,-677.29 2009.69,-656.47"/>
<polygon fill="#757575" stroke="#757575" points="2011.95,-659.15 2017.65,-650.22 2007.62,-653.64 2011.95,-659.15"/>
</g>
<!-- client/ui/TableFilters.tsx&#45;&gt;client/ui/Checkbox.tsx -->
<g id="edge78" class="edge">
<title>client/ui/TableFilters.tsx&#45;&gt;client/ui/Checkbox.tsx</title>
<path fill="none" stroke="#757575" d="M1502.67,-871.94C1528.93,-874.21 1557.13,-880.84 1579,-896.5 1608.09,-917.33 1589.37,-943.54 1615,-968.5 1638.72,-991.6 1672.33,-1007.47 1700.31,-1017.63"/>
<polygon fill="#757575" stroke="#757575" points="1699.36,-1021.01 1709.95,-1020.99 1701.66,-1014.4 1699.36,-1021.01"/>
</g>
<!-- client/ui/Select.tsx&#45;&gt;client/lib/utils.tsx -->
<g id="edge74" class="edge">
<title>client/ui/Select.tsx&#45;&gt;client/lib/utils.tsx</title>
<path fill="none" stroke="#757575" d="M1473.19,-984.95C1505.15,-975.65 1547.06,-960.32 1579,-937.5 1599.28,-923.01 1593.21,-906.6 1615,-894.5 1723.3,-834.34 1786.53,-922.09 1891,-855.5 1965.88,-807.77 2009.19,-704.38 2025.04,-659.74"/>
<polygon fill="#757575" stroke="#757575" points="2028.38,-660.79 2028.32,-650.19 2021.76,-658.51 2028.38,-660.79"/>
</g>
<!-- client/ui/Select.tsx&#45;&gt;client/ui/Popup.tsx -->
<g id="edge75" class="edge">
<title>client/ui/Select.tsx&#45;&gt;client/ui/Popup.tsx</title>
<path fill="none" stroke="#757575" d="M1484.81,-984.97C1515.98,-976.35 1553,-961.73 1579,-937.5 1606.64,-911.74 1585.17,-883.68 1615,-860.5 1633.32,-846.27 1657.12,-839.05 1679.73,-835.58"/>
<polygon fill="#757575" stroke="#757575" points="1680.21,-839.05 1689.67,-834.28 1679.3,-832.11 1680.21,-839.05"/>
</g>
<!-- client/ui/Select.module.css -->
<g id="node40" class="node">
<title>client/ui/Select.module.css</title>
<path fill="none" stroke="#cfffac" d="M1833.33,-1085C1833.33,-1085 1672.67,-1085 1672.67,-1085 1668.83,-1085 1665,-1081.17 1665,-1077.33 1665,-1077.33 1665,-1069.67 1665,-1069.67 1665,-1065.83 1668.83,-1062 1672.67,-1062 1672.67,-1062 1833.33,-1062 1833.33,-1062 1837.17,-1062 1841,-1065.83 1841,-1069.67 1841,-1069.67 1841,-1077.33 1841,-1077.33 1841,-1081.17 1837.17,-1085 1833.33,-1085"/>
<text text-anchor="middle" x="1753" y="-1069.8" font-family="Arial" font-size="14.00" fill="#cfffac">client/ui/Select.module.css</text>
</g>
<!-- client/ui/Select.tsx&#45;&gt;client/ui/Select.module.css -->
<g id="edge76" class="edge">
<title>client/ui/Select.tsx&#45;&gt;client/ui/Select.module.css</title>
<path fill="none" stroke="#757575" d="M1458.65,-1008.1C1496.18,-1020.84 1559.33,-1041.13 1615,-1053.5 1627.72,-1056.32 1641.19,-1058.85 1654.52,-1061.07"/>
<polygon fill="#757575" stroke="#757575" points="1654.25,-1064.58 1664.68,-1062.72 1655.37,-1057.67 1654.25,-1064.58"/>
</g>
<!-- knexfile.js -->
<g id="node41" class="node">
<title>knexfile.js</title>
<path fill="none" stroke="#cfffac" d="M2272.33,-1610C2272.33,-1610 2211.67,-1610 2211.67,-1610 2207.83,-1610 2204,-1606.17 2204,-1602.33 2204,-1602.33 2204,-1594.67 2204,-1594.67 2204,-1590.83 2207.83,-1587 2211.67,-1587 2211.67,-1587 2272.33,-1587 2272.33,-1587 2276.17,-1587 2280,-1590.83 2280,-1594.67 2280,-1594.67 2280,-1602.33 2280,-1602.33 2280,-1606.17 2276.17,-1610 2272.33,-1610"/>
<text text-anchor="middle" x="2242" y="-1594.8" font-family="Arial" font-size="14.00" fill="#cfffac">knexfile.js</text>
</g>
<!-- lib/devUtils.js -->
<g id="node42" class="node">
<title>lib/devUtils.js</title>
<path fill="none" stroke="#cfffac" d="M2281.83,-1569C2281.83,-1569 2202.17,-1569 2202.17,-1569 2198.33,-1569 2194.5,-1565.17 2194.5,-1561.33 2194.5,-1561.33 2194.5,-1553.67 2194.5,-1553.67 2194.5,-1549.83 2198.33,-1546 2202.17,-1546 2202.17,-1546 2281.83,-1546 2281.83,-1546 2285.67,-1546 2289.5,-1549.83 2289.5,-1553.67 2289.5,-1553.67 2289.5,-1561.33 2289.5,-1561.33 2289.5,-1565.17 2285.67,-1569 2281.83,-1569"/>
<text text-anchor="middle" x="2242" y="-1553.8" font-family="Arial" font-size="14.00" fill="#cfffac">lib/devUtils.js</text>
</g>
<!-- lib/graphql/index.ts -->
<g id="node43" class="node">
<title>lib/graphql/index.ts</title>
<path fill="none" stroke="#c6c5fe" d="M1117.83,-1544C1117.83,-1544 1004.17,-1544 1004.17,-1544 1000.33,-1544 996.5,-1540.17 996.5,-1536.33 996.5,-1536.33 996.5,-1528.67 996.5,-1528.67 996.5,-1524.83 1000.33,-1521 1004.17,-1521 1004.17,-1521 1117.83,-1521 1117.83,-1521 1121.67,-1521 1125.5,-1524.83 1125.5,-1528.67 1125.5,-1528.67 1125.5,-1536.33 1125.5,-1536.33 1125.5,-1540.17 1121.67,-1544 1117.83,-1544"/>
<text text-anchor="middle" x="1061" y="-1528.8" font-family="Arial" font-size="14.00" fill="#c6c5fe">lib/graphql/index.ts</text>
</g>
<!-- lib/utils.ts -->
<g id="node44" class="node">
<title>lib/utils.ts</title>
<path fill="none" stroke="#c6c5fe" d="M2061.33,-1590C2061.33,-1590 2004.67,-1590 2004.67,-1590 2000.83,-1590 1997,-1586.17 1997,-1582.33 1997,-1582.33 1997,-1574.67 1997,-1574.67 1997,-1570.83 2000.83,-1567 2004.67,-1567 2004.67,-1567 2061.33,-1567 2061.33,-1567 2065.17,-1567 2069,-1570.83 2069,-1574.67 2069,-1574.67 2069,-1582.33 2069,-1582.33 2069,-1586.17 2065.17,-1590 2061.33,-1590"/>
<text text-anchor="middle" x="2033" y="-1574.8" font-family="Arial" font-size="14.00" fill="#c6c5fe">lib/utils.ts</text>
</g>
<!-- lib/graphql/index.ts&#45;&gt;lib/utils.ts -->
<g id="edge79" class="edge">
<title>lib/graphql/index.ts&#45;&gt;lib/utils.ts</title>
<path fill="none" stroke="#757575" d="M1125.63,-1525.2C1293.76,-1506.66 1746.76,-1461.84 1891,-1499.5 1936.37,-1511.34 1982.59,-1541.39 2009.22,-1560.82"/>
<polygon fill="#757575" stroke="#757575" points="2007.35,-1563.8 2017.47,-1566.97 2011.54,-1558.19 2007.35,-1563.8"/>
</g>
<!-- models/Todo.ts -->
<g id="node45" class="node">
<title>models/Todo.ts</title>
<path fill="none" stroke="#ff6c60" d="M1470.83,-1548C1470.83,-1548 1378.17,-1548 1378.17,-1548 1374.33,-1548 1370.5,-1544.17 1370.5,-1540.33 1370.5,-1540.33 1370.5,-1532.67 1370.5,-1532.67 1370.5,-1528.83 1374.33,-1525 1378.17,-1525 1378.17,-1525 1470.83,-1525 1470.83,-1525 1474.67,-1525 1478.5,-1528.83 1478.5,-1532.67 1478.5,-1532.67 1478.5,-1540.33 1478.5,-1540.33 1478.5,-1544.17 1474.67,-1548 1470.83,-1548"/>
<text text-anchor="middle" x="1424.5" y="-1532.8" font-family="Arial" font-size="14.00" fill="#ff6c60">models/Todo.ts</text>
</g>
<!-- lib/graphql/index.ts&#45;&gt;models/Todo.ts -->
<g id="edge80" class="edge">
<title>lib/graphql/index.ts&#45;&gt;models/Todo.ts</title>
<path fill="none" stroke="#757575" d="M1125.8,-1533.21C1191.79,-1533.94 1294.24,-1535.07 1360.09,-1535.8"/>
<polygon fill="#757575" stroke="#757575" points="1360.29,-1539.3 1370.33,-1535.91 1360.37,-1532.3 1360.29,-1539.3"/>
</g>
<!-- lib/utils.ts&#45;&gt;lib/sharedUtils.ts -->
<g id="edge85" class="edge">
<title>lib/utils.ts&#45;&gt;lib/sharedUtils.ts</title>
<path fill="none" stroke="#757575" d="M2041.63,-1566.96C2060.07,-1538.75 2107.82,-1463.67 2139,-1396.5 2182.86,-1302.01 2220.3,-1182.96 2234.69,-1134.99"/>
<polygon fill="#757575" stroke="#757575" points="2238.13,-1135.7 2237.63,-1125.11 2231.42,-1133.7 2238.13,-1135.7"/>
</g>
<!-- lib/utils.ts&#45;&gt;knexfile.js -->
<g id="edge83" class="edge">
<title>lib/utils.ts&#45;&gt;knexfile.js</title>
<path fill="none" stroke="#757575" d="M2069.11,-1581.89C2103.38,-1585.2 2155.75,-1590.26 2193.68,-1593.93"/>
<polygon fill="#757575" stroke="#757575" points="2193.67,-1597.44 2203.96,-1594.92 2194.35,-1590.48 2193.67,-1597.44"/>
</g>
<!-- lib/utils.ts&#45;&gt;lib/devUtils.js -->
<g id="edge84" class="edge">
<title>lib/utils.ts&#45;&gt;lib/devUtils.js</title>
<path fill="none" stroke="#757575" d="M2069.11,-1574.94C2100.64,-1571.74 2147.49,-1566.99 2184.31,-1563.25"/>
<polygon fill="#757575" stroke="#757575" points="2184.82,-1566.72 2194.41,-1562.23 2184.11,-1559.75 2184.82,-1566.72"/>
</g>
<!-- models/Todo.ts&#45;&gt;lib/utils.ts -->
<g id="edge89" class="edge">
<title>models/Todo.ts&#45;&gt;lib/utils.ts</title>
<path fill="none" stroke="#757575" d="M1478.52,-1526.34C1565.62,-1511.44 1744,-1488.52 1891,-1518.5 1931.57,-1526.77 1974.93,-1547.17 2002.69,-1561.88"/>
<polygon fill="#757575" stroke="#757575" points="2001.37,-1565.15 2011.83,-1566.82 2004.7,-1558.99 2001.37,-1565.15"/>
</g>
<!-- models/User.ts -->
<g id="node50" class="node">
<title>models/User.ts</title>
<path fill="none" stroke="#ff6c60" d="M1798.83,-1550C1798.83,-1550 1707.17,-1550 1707.17,-1550 1703.33,-1550 1699.5,-1546.17 1699.5,-1542.33 1699.5,-1542.33 1699.5,-1534.67 1699.5,-1534.67 1699.5,-1530.83 1703.33,-1527 1707.17,-1527 1707.17,-1527 1798.83,-1527 1798.83,-1527 1802.67,-1527 1806.5,-1530.83 1806.5,-1534.67 1806.5,-1534.67 1806.5,-1542.33 1806.5,-1542.33 1806.5,-1546.17 1802.67,-1550 1798.83,-1550"/>
<text text-anchor="middle" x="1753" y="-1534.8" font-family="Arial" font-size="14.00" fill="#ff6c60">models/User.ts</text>
</g>
<!-- models/Todo.ts&#45;&gt;models/User.ts -->
<g id="edge90" class="edge">
<title>models/Todo.ts&#45;&gt;models/User.ts</title>
<path fill="none" stroke="#757575" d="M1478.68,-1531.69C1536.25,-1530 1627.99,-1530.46 1689.09,-1532.66"/>
<polygon fill="#757575" stroke="#757575" points="1689.25,-1536.17 1699.38,-1533.06 1689.52,-1529.17 1689.25,-1536.17"/>
</g>
<!-- lib/ssrRoutes.ts -->
<g id="node46" class="node">
<title>lib/ssrRoutes.ts</title>
<path fill="none" stroke="#c6c5fe" d="M1107.83,-1665C1107.83,-1665 1014.17,-1665 1014.17,-1665 1010.33,-1665 1006.5,-1661.17 1006.5,-1657.33 1006.5,-1657.33 1006.5,-1649.67 1006.5,-1649.67 1006.5,-1645.83 1010.33,-1642 1014.17,-1642 1014.17,-1642 1107.83,-1642 1107.83,-1642 1111.67,-1642 1115.5,-1645.83 1115.5,-1649.67 1115.5,-1649.67 1115.5,-1657.33 1115.5,-1657.33 1115.5,-1661.17 1111.67,-1665 1107.83,-1665"/>
<text text-anchor="middle" x="1061" y="-1649.8" font-family="Arial" font-size="14.00" fill="#c6c5fe">lib/ssrRoutes.ts</text>
</g>
<!-- lib/ssrRoutes.ts&#45;&gt;lib/utils.ts -->
<g id="edge81" class="edge">
<title>lib/ssrRoutes.ts&#45;&gt;lib/utils.ts</title>
<path fill="none" stroke="#757575" d="M1115.64,-1653.89C1248,-1654.16 1600.49,-1650.7 1891,-1610.5 1923.55,-1606 1959.69,-1597.73 1987.23,-1590.73"/>
<polygon fill="#757575" stroke="#757575" points="1988.15,-1594.1 1996.96,-1588.21 1986.4,-1587.32 1988.15,-1594.1"/>
</g>
<!-- lib/ssrRoutes.ts&#45;&gt;models/Todo.ts -->
<g id="edge82" class="edge">
<title>lib/ssrRoutes.ts&#45;&gt;models/Todo.ts</title>
<path fill="none" stroke="#757575" d="M1115.66,-1660.04C1152.25,-1661.65 1200.04,-1657.85 1234,-1633.5 1264.37,-1611.72 1239.85,-1579.59 1270,-1557.5 1295.52,-1538.8 1330,-1532.86 1359.82,-1531.89"/>
<polygon fill="#757575" stroke="#757575" points="1360.19,-1535.38 1370.14,-1531.74 1360.09,-1528.38 1360.19,-1535.38"/>
</g>
<!-- main/index.ts -->
<g id="node47" class="node">
<title>main/index.ts</title>
<path fill="none" stroke="#c6c5fe" d="M326.83,-1544C326.83,-1544 245.17,-1544 245.17,-1544 241.33,-1544 237.5,-1540.17 237.5,-1536.33 237.5,-1536.33 237.5,-1528.67 237.5,-1528.67 237.5,-1524.83 241.33,-1521 245.17,-1521 245.17,-1521 326.83,-1521 326.83,-1521 330.67,-1521 334.5,-1524.83 334.5,-1528.67 334.5,-1528.67 334.5,-1536.33 334.5,-1536.33 334.5,-1540.17 330.67,-1544 326.83,-1544"/>
<text text-anchor="middle" x="286" y="-1528.8" font-family="Arial" font-size="14.00" fill="#c6c5fe">main/index.ts</text>
</g>
<!-- main/index.ts&#45;&gt;lib/utils.ts -->
<g id="edge86" class="edge">
<title>main/index.ts&#45;&gt;lib/utils.ts</title>
<path fill="none" stroke="#757575" d="M334.56,-1541.17C344.4,-1544.17 354.38,-1548.17 363,-1553.5 383.34,-1566.08 380.01,-1578.96 399,-1593.5 536.28,-1698.66 573.07,-1769.5 746,-1769.5 746,-1769.5 746,-1769.5 1425.5,-1769.5 1634.04,-1769.5 1702.25,-1799.19 1891,-1710.5 1946.52,-1684.41 1994.69,-1628.2 2017.67,-1598.24"/>
<polygon fill="#757575" stroke="#757575" points="2020.51,-1600.29 2023.72,-1590.19 2014.91,-1596.08 2020.51,-1600.29"/>
</g>
<!-- models/index.ts -->
<g id="node48" class="node">
<title>models/index.ts</title>
<path fill="none" stroke="#c6c5fe" d="M1108.83,-1503C1108.83,-1503 1013.17,-1503 1013.17,-1503 1009.33,-1503 1005.5,-1499.17 1005.5,-1495.33 1005.5,-1495.33 1005.5,-1487.67 1005.5,-1487.67 1005.5,-1483.83 1009.33,-1480 1013.17,-1480 1013.17,-1480 1108.83,-1480 1108.83,-1480 1112.67,-1480 1116.5,-1483.83 1116.5,-1487.67 1116.5,-1487.67 1116.5,-1495.33 1116.5,-1495.33 1116.5,-1499.17 1112.67,-1503 1108.83,-1503"/>
<text text-anchor="middle" x="1061" y="-1487.8" font-family="Arial" font-size="14.00" fill="#c6c5fe">models/index.ts</text>
</g>
<!-- main/index.ts&#45;&gt;models/index.ts -->
<g id="edge87" class="edge">
<title>main/index.ts&#45;&gt;models/index.ts</title>
<path fill="none" stroke="#757575" d="M334.77,-1529.97C467.98,-1522.9 843.72,-1502.97 995.35,-1494.93"/>
<polygon fill="#757575" stroke="#757575" points="995.64,-1498.42 1005.44,-1494.39 995.27,-1491.43 995.64,-1498.42"/>
</g>
<!-- routes/index.ts -->
<g id="node49" class="node">
<title>routes/index.ts</title>
<path fill="none" stroke="#c6c5fe" d="M546.83,-1584C546.83,-1584 458.17,-1584 458.17,-1584 454.33,-1584 450.5,-1580.17 450.5,-1576.33 450.5,-1576.33 450.5,-1568.67 450.5,-1568.67 450.5,-1564.83 454.33,-1561 458.17,-1561 458.17,-1561 546.83,-1561 546.83,-1561 550.67,-1561 554.5,-1564.83 554.5,-1568.67 554.5,-1568.67 554.5,-1576.33 554.5,-1576.33 554.5,-1580.17 550.67,-1584 546.83,-1584"/>
<text text-anchor="middle" x="502.5" y="-1568.8" font-family="Arial" font-size="14.00" fill="#c6c5fe">routes/index.ts</text>
</g>
<!-- main/index.ts&#45;&gt;routes/index.ts -->
<g id="edge88" class="edge">
<title>main/index.ts&#45;&gt;routes/index.ts</title>
<path fill="none" stroke="#757575" d="M334.6,-1541.38C365.7,-1547.18 406.6,-1554.8 440.13,-1561.06"/>
<polygon fill="#757575" stroke="#757575" points="439.81,-1564.56 450.28,-1562.95 441.09,-1557.68 439.81,-1564.56"/>
</g>
<!-- models/index.ts&#45;&gt;models/Todo.ts -->
<g id="edge93" class="edge">
<title>models/index.ts&#45;&gt;models/Todo.ts</title>
<path fill="none" stroke="#757575" d="M1116.62,-1498.11C1150.43,-1502.21 1194.74,-1507.62 1234,-1512.5 1276.11,-1517.74 1323.47,-1523.74 1360.32,-1528.43"/>
<polygon fill="#757575" stroke="#757575" points="1360.05,-1531.92 1370.41,-1529.71 1360.94,-1524.98 1360.05,-1531.92"/>
</g>
<!-- models/index.ts&#45;&gt;models/User.ts -->
<g id="edge94" class="edge">
<title>models/index.ts&#45;&gt;models/User.ts</title>
<path fill="none" stroke="#757575" d="M1116.81,-1492.74C1211.3,-1495.2 1410.93,-1501.77 1579,-1516.5 1615.76,-1519.72 1656.74,-1524.86 1689.58,-1529.37"/>
<polygon fill="#757575" stroke="#757575" points="1689.11,-1532.83 1699.5,-1530.74 1690.07,-1525.9 1689.11,-1532.83"/>
</g>
<!-- routes/index.ts&#45;&gt;lib/graphql/index.ts -->
<g id="edge95" class="edge">
<title>routes/index.ts&#45;&gt;lib/graphql/index.ts</title>
<path fill="none" stroke="#757575" d="M554.76,-1566.84C580.86,-1564.08 613.09,-1560.86 642,-1558.5 762.35,-1548.68 902.47,-1540.66 986.05,-1536.23"/>
<polygon fill="#757575" stroke="#757575" points="986.41,-1539.72 996.21,-1535.7 986.04,-1532.73 986.41,-1539.72"/>
</g>
<!-- routes/index.ts&#45;&gt;lib/utils.ts -->
<g id="edge96" class="edge">
<title>routes/index.ts&#45;&gt;lib/utils.ts</title>
<path fill="none" stroke="#757575" d="M514.83,-1584.06C536.99,-1605.87 588.59,-1652.85 642,-1674.5 815.76,-1744.94 872.5,-1731.5 1060,-1731.5 1060,-1731.5 1060,-1731.5 1425.5,-1731.5 1513.53,-1731.5 1854.6,-1691.48 1891,-1677.5 1939.38,-1658.92 1986.85,-1620.15 2012.49,-1597.02"/>
<polygon fill="#757575" stroke="#757575" points="2015.02,-1599.45 2020.02,-1590.11 2010.29,-1594.29 2015.02,-1599.45"/>
</g>
<!-- routes/session.ts -->
<g id="node51" class="node">
<title>routes/session.ts</title>
<path fill="none" stroke="#c6c5fe" d="M798.33,-1448C798.33,-1448 695.67,-1448 695.67,-1448 691.83,-1448 688,-1444.17 688,-1440.33 688,-1440.33 688,-1432.67 688,-1432.67 688,-1428.83 691.83,-1425 695.67,-1425 695.67,-1425 798.33,-1425 798.33,-1425 802.17,-1425 806,-1428.83 806,-1432.67 806,-1432.67 806,-1440.33 806,-1440.33 806,-1444.17 802.17,-1448 798.33,-1448"/>
<text text-anchor="middle" x="747" y="-1432.8" font-family="Arial" font-size="14.00" fill="#c6c5fe">routes/session.ts</text>
</g>
<!-- routes/index.ts&#45;&gt;routes/session.ts -->
<g id="edge97" class="edge">
<title>routes/index.ts&#45;&gt;routes/session.ts</title>
<path fill="none" stroke="#757575" d="M524.18,-1560.9C567.22,-1536.77 666.57,-1481.05 716.39,-1453.11"/>
<polygon fill="#757575" stroke="#757575" points="718.37,-1456.01 725.38,-1448.07 714.94,-1449.9 718.37,-1456.01"/>
</g>
<!-- routes/ssr.ts -->
<g id="node52" class="node">
<title>routes/ssr.ts</title>
<path fill="none" stroke="#c6c5fe" d="M783.83,-1665C783.83,-1665 710.17,-1665 710.17,-1665 706.33,-1665 702.5,-1661.17 702.5,-1657.33 702.5,-1657.33 702.5,-1649.67 702.5,-1649.67 702.5,-1645.83 706.33,-1642 710.17,-1642 710.17,-1642 783.83,-1642 783.83,-1642 787.67,-1642 791.5,-1645.83 791.5,-1649.67 791.5,-1649.67 791.5,-1657.33 791.5,-1657.33 791.5,-1661.17 787.67,-1665 783.83,-1665"/>
<text text-anchor="middle" x="747" y="-1649.8" font-family="Arial" font-size="14.00" fill="#c6c5fe">routes/ssr.ts</text>
</g>
<!-- routes/index.ts&#45;&gt;routes/ssr.ts -->
<g id="edge98" class="edge">
<title>routes/index.ts&#45;&gt;routes/ssr.ts</title>
<path fill="none" stroke="#757575" d="M531.06,-1584C558.79,-1595.36 602.95,-1612.81 642,-1625.5 658.27,-1630.79 676.2,-1635.87 692.52,-1640.23"/>
<polygon fill="#757575" stroke="#757575" points="691.88,-1643.68 702.45,-1642.84 693.66,-1636.91 691.88,-1643.68"/>
</g>
<!-- routes/todos.ts -->
<g id="node53" class="node">
<title>routes/todos.ts</title>
<path fill="none" stroke="#c6c5fe" d="M1105.83,-1624C1105.83,-1624 1016.17,-1624 1016.17,-1624 1012.33,-1624 1008.5,-1620.17 1008.5,-1616.33 1008.5,-1616.33 1008.5,-1608.67 1008.5,-1608.67 1008.5,-1604.83 1012.33,-1601 1016.17,-1601 1016.17,-1601 1105.83,-1601 1105.83,-1601 1109.67,-1601 1113.5,-1604.83 1113.5,-1608.67 1113.5,-1608.67 1113.5,-1616.33 1113.5,-1616.33 1113.5,-1620.17 1109.67,-1624 1105.83,-1624"/>
<text text-anchor="middle" x="1061" y="-1608.8" font-family="Arial" font-size="14.00" fill="#c6c5fe">routes/todos.ts</text>
</g>
<!-- routes/index.ts&#45;&gt;routes/todos.ts -->
<g id="edge99" class="edge">
<title>routes/index.ts&#45;&gt;routes/todos.ts</title>
<path fill="none" stroke="#757575" d="M554.76,-1578.16C580.86,-1580.92 613.09,-1584.14 642,-1586.5 768.48,-1596.82 916.79,-1605.16 998.38,-1609.41"/>
<polygon fill="#757575" stroke="#757575" points="998.31,-1612.91 1008.47,-1609.94 998.67,-1605.92 998.31,-1612.91"/>
</g>
<!-- routes/users.ts -->
<g id="node54" class="node">
<title>routes/users.ts</title>
<path fill="none" stroke="#c6c5fe" d="M1469.33,-1589C1469.33,-1589 1379.67,-1589 1379.67,-1589 1375.83,-1589 1372,-1585.17 1372,-1581.33 1372,-1581.33 1372,-1573.67 1372,-1573.67 1372,-1569.83 1375.83,-1566 1379.67,-1566 1379.67,-1566 1469.33,-1566 1469.33,-1566 1473.17,-1566 1477,-1569.83 1477,-1573.67 1477,-1573.67 1477,-1581.33 1477,-1581.33 1477,-1585.17 1473.17,-1589 1469.33,-1589"/>
<text text-anchor="middle" x="1424.5" y="-1573.8" font-family="Arial" font-size="14.00" fill="#c6c5fe">routes/users.ts</text>
</g>
<!-- routes/index.ts&#45;&gt;routes/users.ts -->
<g id="edge100" class="edge">
<title>routes/index.ts&#45;&gt;routes/users.ts</title>
<path fill="none" stroke="#757575" d="M554.6,-1572.78C712.22,-1573.63 1190.48,-1576.23 1361.7,-1577.16"/>
<polygon fill="#757575" stroke="#757575" points="1361.79,-1580.66 1371.8,-1577.22 1361.82,-1573.66 1361.79,-1580.66"/>
</g>
<!-- models/User.ts&#45;&gt;lib/utils.ts -->
<g id="edge91" class="edge">
<title>models/User.ts&#45;&gt;lib/utils.ts</title>
<path fill="none" stroke="#757575" d="M1806.62,-1546.07C1858.64,-1553.56 1937.41,-1564.89 1986.72,-1571.99"/>
<polygon fill="#757575" stroke="#757575" points="1986.38,-1575.47 1996.78,-1573.43 1987.38,-1568.54 1986.38,-1575.47"/>
</g>
<!-- models/User.ts&#45;&gt;models/Todo.ts -->
<g id="edge92" class="edge">
<title>models/User.ts&#45;&gt;models/Todo.ts</title>
<path fill="none" stroke="#757575" d="M1699.38,-1543.3C1642.04,-1544.99 1550.31,-1544.55 1489.01,-1542.36"/>
<polygon fill="#757575" stroke="#757575" points="1488.81,-1538.85 1478.68,-1541.97 1488.54,-1545.85 1488.81,-1538.85"/>
</g>
<!-- routes/session.ts&#45;&gt;lib/utils.ts -->
<g id="edge101" class="edge">
<title>routes/session.ts&#45;&gt;lib/utils.ts</title>
<path fill="none" stroke="#757575" d="M806.33,-1434.46C1009.82,-1428 1687.03,-1412.24 1891,-1480.5 1940.23,-1496.98 1987.73,-1536.39 2013.08,-1559.91"/>
<polygon fill="#757575" stroke="#757575" points="2010.83,-1562.6 2020.5,-1566.93 2015.64,-1557.52 2010.83,-1562.6"/>
</g>
<!-- routes/ssr.ts&#45;&gt;lib/utils.ts -->
<g id="edge103" class="edge">
<title>routes/ssr.ts&#45;&gt;lib/utils.ts</title>
<path fill="none" stroke="#757575" d="M791.64,-1661.76C819.16,-1666.54 855.53,-1672.08 888,-1674.5 1332.85,-1707.68 1457.17,-1741.34 1891,-1637.5 1930.48,-1628.05 1973.12,-1608.83 2001.05,-1594.89"/>
<polygon fill="#757575" stroke="#757575" points="2002.95,-1597.85 2010.28,-1590.2 1999.78,-1591.6 2002.95,-1597.85"/>
</g>
<!-- routes/ssr.ts&#45;&gt;lib/ssrRoutes.ts -->
<g id="edge102" class="edge">
<title>routes/ssr.ts&#45;&gt;lib/ssrRoutes.ts</title>
<path fill="none" stroke="#757575" d="M791.71,-1653.5C844.9,-1653.5 935.14,-1653.5 996.12,-1653.5"/>
<polygon fill="#757575" stroke="#757575" points="996.39,-1657 1006.39,-1653.5 996.39,-1650 996.39,-1657"/>
</g>
<!-- routes/todos.ts&#45;&gt;lib/utils.ts -->
<g id="edge104" class="edge">
<title>routes/todos.ts&#45;&gt;lib/utils.ts</title>
<path fill="none" stroke="#757575" d="M1113.95,-1612.38C1244.6,-1611.83 1597.45,-1608.73 1891,-1591.5 1923.1,-1589.62 1959.2,-1586.26 1986.84,-1583.44"/>
<polygon fill="#757575" stroke="#757575" points="1987.41,-1586.9 1996.99,-1582.38 1986.68,-1579.93 1987.41,-1586.9"/>
</g>
<!-- routes/todos.ts&#45;&gt;models/Todo.ts -->
<g id="edge105" class="edge">
<title>routes/todos.ts&#45;&gt;models/Todo.ts</title>
<path fill="none" stroke="#757575" d="M1100.01,-1600.95C1141.46,-1588.7 1209.93,-1569.5 1270,-1557.5 1299.48,-1551.61 1332.48,-1546.86 1360.31,-1543.38"/>
<polygon fill="#757575" stroke="#757575" points="1360.81,-1546.84 1370.31,-1542.15 1359.96,-1539.89 1360.81,-1546.84"/>
</g>
<!-- routes/users.ts&#45;&gt;lib/utils.ts -->
<g id="edge106" class="edge">
<title>routes/users.ts&#45;&gt;lib/utils.ts</title>
<path fill="none" stroke="#757575" d="M1477.21,-1577.59C1593.9,-1577.78 1876.1,-1578.24 1986.57,-1578.43"/>
<polygon fill="#757575" stroke="#757575" points="1986.71,-1581.93 1996.72,-1578.44 1986.72,-1574.93 1986.71,-1581.93"/>
</g>
<!-- routes/users.ts&#45;&gt;models/User.ts -->
<g id="edge107" class="edge">
<title>routes/users.ts&#45;&gt;models/User.ts</title>
<path fill="none" stroke="#757575" d="M1477.23,-1571.32C1534.81,-1564.44 1627.82,-1553.33 1689.44,-1545.97"/>
<polygon fill="#757575" stroke="#757575" points="1689.91,-1549.44 1699.43,-1544.78 1689.08,-1542.49 1689.91,-1549.44"/>
</g>
</g>
</svg>
