<?xml version="1.0" encoding="UTF-8" standalone="no"?>
<!DOCTYPE svg PUBLIC "-//W3C//DTD SVG 1.1//EN"
 "http://www.w3.org/Graphics/SVG/1.1/DTD/svg11.dtd">
<!-- Generated by graphviz version 2.43.0 (0)
 -->
<!-- Title: G Pages: 1 -->
<svg width="2343pt" height="1640pt"
 viewBox="0.00 0.00 2343.20 1640.13" xmlns="http://www.w3.org/2000/svg" xmlns:xlink="http://www.w3.org/1999/xlink">
<g id="graph0" class="graph" transform="scale(1 1) rotate(0) translate(21.6 1618.53)">
<title>G</title>
<polygon fill="#111111" stroke="transparent" points="-21.6,21.6 -21.6,-1618.53 2321.6,-1618.53 2321.6,21.6 -21.6,21.6"/>
<!-- client/common/AppRoutes.tsx -->
<g id="node1" class="node">
<title>client/common/AppRoutes.tsx</title>
<path fill="none" stroke="#c6c5fe" d="M584.33,-856.43C584.33,-856.43 402.67,-856.43 402.67,-856.43 398.83,-856.43 395,-852.6 395,-848.76 395,-848.76 395,-841.1 395,-841.1 395,-837.26 398.83,-833.43 402.67,-833.43 402.67,-833.43 584.33,-833.43 584.33,-833.43 588.17,-833.43 592,-837.26 592,-841.1 592,-841.1 592,-848.76 592,-848.76 592,-852.6 588.17,-856.43 584.33,-856.43"/>
<text text-anchor="middle" x="493.5" y="-841.23" font-family="Arial" font-size="14.00" fill="#c6c5fe">client/common/AppRoutes.tsx</text>
</g>
<!-- client/pages/projectStructure/ProjectStructureAsync.tsx -->
<g id="node2" class="node">
<title>client/pages/projectStructure/ProjectStructureAsync.tsx</title>
<path fill="none" stroke="#c6c5fe" d="M1217.33,-1530.43C1217.33,-1530.43 886.67,-1530.43 886.67,-1530.43 882.83,-1530.43 879,-1526.6 879,-1522.76 879,-1522.76 879,-1515.1 879,-1515.1 879,-1511.26 882.83,-1507.43 886.67,-1507.43 886.67,-1507.43 1217.33,-1507.43 1217.33,-1507.43 1221.17,-1507.43 1225,-1511.26 1225,-1515.1 1225,-1515.1 1225,-1522.76 1225,-1522.76 1225,-1526.6 1221.17,-1530.43 1217.33,-1530.43"/>
<text text-anchor="middle" x="1052" y="-1515.23" font-family="Arial" font-size="14.00" fill="#c6c5fe">client/pages/projectStructure/ProjectStructureAsync.tsx</text>
</g>
<!-- client/common/AppRoutes.tsx&#45;&gt;client/pages/projectStructure/ProjectStructureAsync.tsx -->
<g id="edge1" class="edge">
<title>client/common/AppRoutes.tsx&#45;&gt;client/pages/projectStructure/ProjectStructureAsync.tsx</title>
<path fill="none" stroke="#757575" d="M497.56,-856.55C509.9,-902.36 559,-1074.02 633,-1198.93 719.84,-1345.51 730.48,-1409.45 879,-1492.93 886.75,-1497.28 894.99,-1500.98 903.5,-1504.11"/>
<polygon fill="#757575" stroke="#757575" points="902.63,-1507.51 913.22,-1507.42 904.88,-1500.88 902.63,-1507.51"/>
</g>
<!-- client/pages/session/Login.tsx -->
<g id="node3" class="node">
<title>client/pages/session/Login.tsx</title>
<path fill="none" stroke="#c6c5fe" d="M1142.33,-856.43C1142.33,-856.43 961.67,-856.43 961.67,-856.43 957.83,-856.43 954,-852.6 954,-848.76 954,-848.76 954,-841.1 954,-841.1 954,-837.26 957.83,-833.43 961.67,-833.43 961.67,-833.43 1142.33,-833.43 1142.33,-833.43 1146.17,-833.43 1150,-837.26 1150,-841.1 1150,-841.1 1150,-848.76 1150,-848.76 1150,-852.6 1146.17,-856.43 1142.33,-856.43"/>
<text text-anchor="middle" x="1052" y="-841.23" font-family="Arial" font-size="14.00" fill="#c6c5fe">client/pages/session/Login.tsx</text>
</g>
<!-- client/common/AppRoutes.tsx&#45;&gt;client/pages/session/Login.tsx -->
<g id="edge2" class="edge">
<title>client/common/AppRoutes.tsx&#45;&gt;client/pages/session/Login.tsx</title>
<path fill="none" stroke="#757575" d="M592.07,-844.93C690.32,-844.93 841.51,-844.93 943.24,-844.93"/>
<polygon fill="#757575" stroke="#757575" points="943.54,-848.43 953.54,-844.93 943.54,-841.43 943.54,-848.43"/>
</g>
<!-- client/pages/todoList/Todolist.tsx -->
<g id="node4" class="node">
<title>client/pages/todoList/Todolist.tsx</title>
<path fill="none" stroke="#c6c5fe" d="M835.33,-937.43C835.33,-937.43 640.67,-937.43 640.67,-937.43 636.83,-937.43 633,-933.6 633,-929.76 633,-929.76 633,-922.1 633,-922.1 633,-918.26 636.83,-914.43 640.67,-914.43 640.67,-914.43 835.33,-914.43 835.33,-914.43 839.17,-914.43 843,-918.26 843,-922.1 843,-922.1 843,-929.76 843,-929.76 843,-933.6 839.17,-937.43 835.33,-937.43"/>
<text text-anchor="middle" x="738" y="-922.23" font-family="Arial" font-size="14.00" fill="#c6c5fe">client/pages/todoList/Todolist.tsx</text>
</g>
<!-- client/common/AppRoutes.tsx&#45;&gt;client/pages/todoList/Todolist.tsx -->
<g id="edge3" class="edge">
<title>client/common/AppRoutes.tsx&#45;&gt;client/pages/todoList/Todolist.tsx</title>
<path fill="none" stroke="#757575" d="M528.99,-856.45C571.96,-870.8 645.46,-895.35 692.6,-911.1"/>
<polygon fill="#757575" stroke="#757575" points="691.65,-914.47 702.24,-914.32 693.86,-907.83 691.65,-914.47"/>
</g>
<!-- client/pages/users/User.tsx -->
<g id="node5" class="node">
<title>client/pages/users/User.tsx</title>
<path fill="none" stroke="#c6c5fe" d="M1133.33,-738.43C1133.33,-738.43 970.67,-738.43 970.67,-738.43 966.83,-738.43 963,-734.6 963,-730.76 963,-730.76 963,-723.1 963,-723.1 963,-719.26 966.83,-715.43 970.67,-715.43 970.67,-715.43 1133.33,-715.43 1133.33,-715.43 1137.17,-715.43 1141,-719.26 1141,-723.1 1141,-723.1 1141,-730.76 1141,-730.76 1141,-734.6 1137.17,-738.43 1133.33,-738.43"/>
<text text-anchor="middle" x="1052" y="-723.23" font-family="Arial" font-size="14.00" fill="#c6c5fe">client/pages/users/User.tsx</text>
</g>
<!-- client/common/AppRoutes.tsx&#45;&gt;client/pages/users/User.tsx -->
<g id="edge4" class="edge">
<title>client/common/AppRoutes.tsx&#45;&gt;client/pages/users/User.tsx</title>
<path fill="none" stroke="#757575" d="M537.49,-833.38C608.28,-814.65 754.03,-777.28 879,-752.93 903.49,-748.16 930.09,-743.76 954.88,-739.99"/>
<polygon fill="#757575" stroke="#757575" points="955.65,-743.41 965.02,-738.47 954.61,-736.49 955.65,-743.41"/>
</g>
<!-- client/pages/users/Users.tsx -->
<g id="node6" class="node">
<title>client/pages/users/Users.tsx</title>
<path fill="none" stroke="#c6c5fe" d="M822.83,-1189.43C822.83,-1189.43 653.17,-1189.43 653.17,-1189.43 649.33,-1189.43 645.5,-1185.6 645.5,-1181.76 645.5,-1181.76 645.5,-1174.1 645.5,-1174.1 645.5,-1170.26 649.33,-1166.43 653.17,-1166.43 653.17,-1166.43 822.83,-1166.43 822.83,-1166.43 826.67,-1166.43 830.5,-1170.26 830.5,-1174.1 830.5,-1174.1 830.5,-1181.76 830.5,-1181.76 830.5,-1185.6 826.67,-1189.43 822.83,-1189.43"/>
<text text-anchor="middle" x="738" y="-1174.23" font-family="Arial" font-size="14.00" fill="#c6c5fe">client/pages/users/Users.tsx</text>
</g>
<!-- client/common/AppRoutes.tsx&#45;&gt;client/pages/users/Users.tsx -->
<g id="edge5" class="edge">
<title>client/common/AppRoutes.tsx&#45;&gt;client/pages/users/Users.tsx</title>
<path fill="none" stroke="#757575" d="M503.13,-856.78C539.08,-906.14 677.14,-1095.73 722.48,-1157.99"/>
<polygon fill="#757575" stroke="#757575" points="719.76,-1160.2 728.47,-1166.22 725.42,-1156.08 719.76,-1160.2"/>
</g>
<!-- lib/sharedUtils.ts -->
<g id="node7" class="node">
<title>lib/sharedUtils.ts</title>
<path fill="none" stroke="#cfffac" d="M2283.33,-837.43C2283.33,-837.43 2182.67,-837.43 2182.67,-837.43 2178.83,-837.43 2175,-833.6 2175,-829.76 2175,-829.76 2175,-822.1 2175,-822.1 2175,-818.26 2178.83,-814.43 2182.67,-814.43 2182.67,-814.43 2283.33,-814.43 2283.33,-814.43 2287.17,-814.43 2291,-818.26 2291,-822.1 2291,-822.1 2291,-829.76 2291,-829.76 2291,-833.6 2287.17,-837.43 2283.33,-837.43"/>
<text text-anchor="middle" x="2233" y="-822.23" font-family="Arial" font-size="14.00" fill="#cfffac">lib/sharedUtils.ts</text>
</g>
<!-- client/common/AppRoutes.tsx&#45;&gt;lib/sharedUtils.ts -->
<g id="edge6" class="edge">
<title>client/common/AppRoutes.tsx&#45;&gt;lib/sharedUtils.ts</title>
<path fill="none" stroke="#757575" d="M508.88,-833.23C533.01,-814.22 583.86,-776.75 633,-756.93 736.47,-715.21 769.62,-728.93 879,-706.93 1317.28,-618.79 1440.76,-559.05 1882,-630.93 1996.72,-649.62 2032.62,-650.47 2130,-713.93 2168.07,-738.74 2201.22,-781.08 2218.74,-805.98"/>
<polygon fill="#757575" stroke="#757575" points="2215.92,-808.05 2224.47,-814.31 2221.68,-804.08 2215.92,-808.05"/>
</g>
<!-- client/common/layout.tsx -->
<g id="node9" class="node">
<title>client/common/layout.tsx</title>
<path fill="none" stroke="#c6c5fe" d="M1490.83,-899.43C1490.83,-899.43 1340.17,-899.43 1340.17,-899.43 1336.33,-899.43 1332.5,-895.6 1332.5,-891.76 1332.5,-891.76 1332.5,-884.1 1332.5,-884.1 1332.5,-880.26 1336.33,-876.43 1340.17,-876.43 1340.17,-876.43 1490.83,-876.43 1490.83,-876.43 1494.67,-876.43 1498.5,-880.26 1498.5,-884.1 1498.5,-884.1 1498.5,-891.76 1498.5,-891.76 1498.5,-895.6 1494.67,-899.43 1490.83,-899.43"/>
<text text-anchor="middle" x="1415.5" y="-884.23" font-family="Arial" font-size="14.00" fill="#c6c5fe">client/common/layout.tsx</text>
</g>
<!-- client/pages/projectStructure/ProjectStructureAsync.tsx&#45;&gt;client/common/layout.tsx -->
<g id="edge27" class="edge">
<title>client/pages/projectStructure/ProjectStructureAsync.tsx&#45;&gt;client/common/layout.tsx</title>
<path fill="none" stroke="#757575" d="M1111.93,-1507.41C1150.41,-1496.68 1198.3,-1476.59 1225,-1439.93 1304.57,-1330.66 1216.6,-1265.6 1261,-1137.93 1293.73,-1043.81 1366.08,-947.54 1398.38,-907.37"/>
<polygon fill="#757575" stroke="#757575" points="1401.22,-909.43 1404.82,-899.46 1395.79,-905.01 1401.22,-909.43"/>
</g>
<!-- client/lib/utils.tsx -->
<g id="node11" class="node">
<title>client/lib/utils.tsx</title>
<path fill="none" stroke="#c6c5fe" d="M2073.33,-1261.43C2073.33,-1261.43 1974.67,-1261.43 1974.67,-1261.43 1970.83,-1261.43 1967,-1257.6 1967,-1253.76 1967,-1253.76 1967,-1246.1 1967,-1246.1 1967,-1242.26 1970.83,-1238.43 1974.67,-1238.43 1974.67,-1238.43 2073.33,-1238.43 2073.33,-1238.43 2077.17,-1238.43 2081,-1242.26 2081,-1246.1 2081,-1246.1 2081,-1253.76 2081,-1253.76 2081,-1257.6 2077.17,-1261.43 2073.33,-1261.43"/>
<text text-anchor="middle" x="2024" y="-1246.23" font-family="Arial" font-size="14.00" fill="#c6c5fe">client/lib/utils.tsx</text>
</g>
<!-- client/pages/projectStructure/ProjectStructureAsync.tsx&#45;&gt;client/lib/utils.tsx -->
<g id="edge28" class="edge">
<title>client/pages/projectStructure/ProjectStructureAsync.tsx&#45;&gt;client/lib/utils.tsx</title>
<path fill="none" stroke="#757575" d="M1142.37,-1530.46C1334.81,-1553.12 1779.32,-1592.98 1882,-1492.93 1947.63,-1428.99 1859.59,-1360.53 1918,-1289.93 1928.1,-1277.72 1942.36,-1269.24 1957.12,-1263.34"/>
<polygon fill="#757575" stroke="#757575" points="1958.64,-1266.51 1966.85,-1259.82 1956.26,-1259.93 1958.64,-1266.51"/>
</g>
<!-- client/pages/projectStructure/ProjectStructure.tsx -->
<g id="node23" class="node">
<title>client/pages/projectStructure/ProjectStructure.tsx</title>
<path fill="none" stroke="#cfffac" d="M1562.33,-1530.43C1562.33,-1530.43 1268.67,-1530.43 1268.67,-1530.43 1264.83,-1530.43 1261,-1526.6 1261,-1522.76 1261,-1522.76 1261,-1515.1 1261,-1515.1 1261,-1511.26 1264.83,-1507.43 1268.67,-1507.43 1268.67,-1507.43 1562.33,-1507.43 1562.33,-1507.43 1566.17,-1507.43 1570,-1511.26 1570,-1515.1 1570,-1515.1 1570,-1522.76 1570,-1522.76 1570,-1526.6 1566.17,-1530.43 1562.33,-1530.43"/>
<text text-anchor="middle" x="1415.5" y="-1515.23" font-family="Arial" font-size="14.00" fill="#cfffac">client/pages/projectStructure/ProjectStructure.tsx</text>
</g>
<!-- client/pages/projectStructure/ProjectStructureAsync.tsx&#45;&gt;client/pages/projectStructure/ProjectStructure.tsx -->
<g id="edge29" class="edge">
<title>client/pages/projectStructure/ProjectStructureAsync.tsx&#45;&gt;client/pages/projectStructure/ProjectStructure.tsx</title>
<path fill="none" stroke="#757575" d="M1225.02,-1518.93C1233.65,-1518.93 1242.31,-1518.93 1250.92,-1518.93"/>
<polygon fill="#757575" stroke="#757575" points="1251,-1522.43 1261,-1518.93 1251,-1515.43 1251,-1522.43"/>
</g>
<!-- client/pages/session/Login.tsx&#45;&gt;lib/sharedUtils.ts -->
<g id="edge32" class="edge">
<title>client/pages/session/Login.tsx&#45;&gt;lib/sharedUtils.ts</title>
<path fill="none" stroke="#757575" d="M1150.3,-844.84C1339.2,-844.4 1768.81,-842.13 2130,-830.93 2141.24,-830.58 2153.17,-830.1 2164.76,-829.57"/>
<polygon fill="#757575" stroke="#757575" points="2165.01,-833.06 2174.83,-829.1 2164.68,-826.07 2165.01,-833.06"/>
</g>
<!-- client/pages/session/Login.tsx&#45;&gt;client/common/layout.tsx -->
<g id="edge30" class="edge">
<title>client/pages/session/Login.tsx&#45;&gt;client/common/layout.tsx</title>
<path fill="none" stroke="#757575" d="M1149.88,-856.45C1203.42,-862.82 1269.57,-870.69 1322.34,-876.97"/>
<polygon fill="#757575" stroke="#757575" points="1322.03,-880.46 1332.37,-878.16 1322.86,-873.5 1322.03,-880.46"/>
</g>
<!-- client/pages/session/Login.tsx&#45;&gt;client/lib/utils.tsx -->
<g id="edge31" class="edge">
<title>client/pages/session/Login.tsx&#45;&gt;client/lib/utils.tsx</title>
<path fill="none" stroke="#757575" d="M1150.35,-838.19C1177.04,-840.98 1204.29,-848.73 1225,-865.93 1265.87,-899.88 1226.69,-939.36 1261,-979.93 1360.6,-1097.7 1442.67,-1050.88 1570,-1137.93 1587.67,-1150.01 1586.8,-1160.46 1606,-1169.93 1720.68,-1226.47 1871.38,-1243.12 1956.66,-1247.98"/>
<polygon fill="#757575" stroke="#757575" points="1956.55,-1251.48 1966.72,-1248.51 1956.92,-1244.49 1956.55,-1251.48"/>
</g>
<!-- client/pages/todoList/Todolist.tsx&#45;&gt;lib/sharedUtils.ts -->
<g id="edge40" class="edge">
<title>client/pages/todoList/Todolist.tsx&#45;&gt;lib/sharedUtils.ts</title>
<path fill="none" stroke="#757575" d="M746.28,-914.03C764.45,-885.64 814.95,-814.34 879,-787.93 982.03,-745.44 1770.68,-779.56 1882,-784.93 1992.61,-790.27 2020.21,-794.49 2130,-808.93 2141.29,-810.42 2153.24,-812.21 2164.84,-814.06"/>
<polygon fill="#757575" stroke="#757575" points="2164.49,-817.55 2174.92,-815.71 2165.61,-810.64 2164.49,-817.55"/>
</g>
<!-- client/pages/todoList/Todolist.tsx&#45;&gt;client/common/layout.tsx -->
<g id="edge33" class="edge">
<title>client/pages/todoList/Todolist.tsx&#45;&gt;client/common/layout.tsx</title>
<path fill="none" stroke="#757575" d="M843.38,-923.68C941.87,-921.13 1093.59,-916.08 1225,-906.93 1256.56,-904.73 1291,-901.52 1321.76,-898.37"/>
<polygon fill="#757575" stroke="#757575" points="1322.46,-901.81 1332.04,-897.3 1321.73,-894.85 1322.46,-901.81"/>
</g>
<!-- client/globalStore/store.ts -->
<g id="node10" class="node">
<title>client/globalStore/store.ts</title>
<path fill="none" stroke="#c6c5fe" d="M1820.33,-816.43C1820.33,-816.43 1667.67,-816.43 1667.67,-816.43 1663.83,-816.43 1660,-812.6 1660,-808.76 1660,-808.76 1660,-801.1 1660,-801.1 1660,-797.26 1663.83,-793.43 1667.67,-793.43 1667.67,-793.43 1820.33,-793.43 1820.33,-793.43 1824.17,-793.43 1828,-797.26 1828,-801.1 1828,-801.1 1828,-808.76 1828,-808.76 1828,-812.6 1824.17,-816.43 1820.33,-816.43"/>
<text text-anchor="middle" x="1744" y="-801.23" font-family="Arial" font-size="14.00" fill="#c6c5fe">client/globalStore/store.ts</text>
</g>
<!-- client/pages/todoList/Todolist.tsx&#45;&gt;client/globalStore/store.ts -->
<g id="edge34" class="edge">
<title>client/pages/todoList/Todolist.tsx&#45;&gt;client/globalStore/store.ts</title>
<path fill="none" stroke="#757575" d="M749.96,-914.28C771.9,-891.9 823.88,-843.44 879,-824.93 1019.34,-777.79 1456.74,-791.44 1649.81,-800.17"/>
<polygon fill="#757575" stroke="#757575" points="1649.79,-803.68 1659.94,-800.64 1650.11,-796.68 1649.79,-803.68"/>
</g>
<!-- client/pages/todoList/Todolist.tsx&#45;&gt;client/lib/utils.tsx -->
<g id="edge35" class="edge">
<title>client/pages/todoList/Todolist.tsx&#45;&gt;client/lib/utils.tsx</title>
<path fill="none" stroke="#757575" d="M784.7,-937.46C981.05,-987.01 1752.83,-1181.76 1967.39,-1235.9"/>
<polygon fill="#757575" stroke="#757575" points="1966.63,-1239.31 1977.18,-1238.37 1968.34,-1232.53 1966.63,-1239.31"/>
</g>
<!-- client/ui/Notifications.tsx -->
<g id="node12" class="node">
<title>client/ui/Notifications.tsx</title>
<path fill="none" stroke="#c6c5fe" d="M1816.83,-975.43C1816.83,-975.43 1671.17,-975.43 1671.17,-975.43 1667.33,-975.43 1663.5,-971.6 1663.5,-967.76 1663.5,-967.76 1663.5,-960.1 1663.5,-960.1 1663.5,-956.26 1667.33,-952.43 1671.17,-952.43 1671.17,-952.43 1816.83,-952.43 1816.83,-952.43 1820.67,-952.43 1824.5,-956.26 1824.5,-960.1 1824.5,-960.1 1824.5,-967.76 1824.5,-967.76 1824.5,-971.6 1820.67,-975.43 1816.83,-975.43"/>
<text text-anchor="middle" x="1744" y="-960.23" font-family="Arial" font-size="14.00" fill="#c6c5fe">client/ui/Notifications.tsx</text>
</g>
<!-- client/pages/todoList/Todolist.tsx&#45;&gt;client/ui/Notifications.tsx -->
<g id="edge38" class="edge">
<title>client/pages/todoList/Todolist.tsx&#45;&gt;client/ui/Notifications.tsx</title>
<path fill="none" stroke="#757575" d="M843.13,-929.87C1040.9,-937.36 1467.65,-953.51 1653.48,-960.54"/>
<polygon fill="#757575" stroke="#757575" points="1653.37,-964.04 1663.49,-960.92 1653.63,-957.04 1653.37,-964.04"/>
</g>
<!-- client/pages/todoList/styles.module.css -->
<g id="node24" class="node">
<title>client/pages/todoList/styles.module.css</title>
<path fill="none" stroke="#cfffac" d="M1169.83,-897.43C1169.83,-897.43 934.17,-897.43 934.17,-897.43 930.33,-897.43 926.5,-893.6 926.5,-889.76 926.5,-889.76 926.5,-882.1 926.5,-882.1 926.5,-878.26 930.33,-874.43 934.17,-874.43 934.17,-874.43 1169.83,-874.43 1169.83,-874.43 1173.67,-874.43 1177.5,-878.26 1177.5,-882.1 1177.5,-882.1 1177.5,-889.76 1177.5,-889.76 1177.5,-893.6 1173.67,-897.43 1169.83,-897.43"/>
<text text-anchor="middle" x="1052" y="-882.23" font-family="Arial" font-size="14.00" fill="#cfffac">client/pages/todoList/styles.module.css</text>
</g>
<!-- client/pages/todoList/Todolist.tsx&#45;&gt;client/pages/todoList/styles.module.css -->
<g id="edge36" class="edge">
<title>client/pages/todoList/Todolist.tsx&#45;&gt;client/pages/todoList/styles.module.css</title>
<path fill="none" stroke="#757575" d="M828.82,-914.41C867.08,-909.51 911.85,-903.77 951.14,-898.73"/>
<polygon fill="#757575" stroke="#757575" points="951.8,-902.18 961.27,-897.43 950.91,-895.23 951.8,-902.18"/>
</g>
<!-- client/ui/HeaderCell.tsx -->
<g id="node25" class="node">
<title>client/ui/HeaderCell.tsx</title>
<path fill="none" stroke="#c6c5fe" d="M1121.83,-1169.43C1121.83,-1169.43 982.17,-1169.43 982.17,-1169.43 978.33,-1169.43 974.5,-1165.6 974.5,-1161.76 974.5,-1161.76 974.5,-1154.1 974.5,-1154.1 974.5,-1150.26 978.33,-1146.43 982.17,-1146.43 982.17,-1146.43 1121.83,-1146.43 1121.83,-1146.43 1125.67,-1146.43 1129.5,-1150.26 1129.5,-1154.1 1129.5,-1154.1 1129.5,-1161.76 1129.5,-1161.76 1129.5,-1165.6 1125.67,-1169.43 1121.83,-1169.43"/>
<text text-anchor="middle" x="1052" y="-1154.23" font-family="Arial" font-size="14.00" fill="#c6c5fe">client/ui/HeaderCell.tsx</text>
</g>
<!-- client/pages/todoList/Todolist.tsx&#45;&gt;client/ui/HeaderCell.tsx -->
<g id="edge37" class="edge">
<title>client/pages/todoList/Todolist.tsx&#45;&gt;client/ui/HeaderCell.tsx</title>
<path fill="none" stroke="#757575" d="M749.92,-937.47C772.62,-961.13 827.12,-1016.14 879,-1054.93 925.32,-1089.56 983.96,-1122.63 1019.43,-1141.57"/>
<polygon fill="#757575" stroke="#757575" points="1017.88,-1144.71 1028.35,-1146.3 1021.16,-1138.53 1017.88,-1144.71"/>
</g>
<!-- client/ui/Pagination.tsx -->
<g id="node26" class="node">
<title>client/ui/Pagination.tsx</title>
<path fill="none" stroke="#c6c5fe" d="M1119.83,-1210.43C1119.83,-1210.43 984.17,-1210.43 984.17,-1210.43 980.33,-1210.43 976.5,-1206.6 976.5,-1202.76 976.5,-1202.76 976.5,-1195.1 976.5,-1195.1 976.5,-1191.26 980.33,-1187.43 984.17,-1187.43 984.17,-1187.43 1119.83,-1187.43 1119.83,-1187.43 1123.67,-1187.43 1127.5,-1191.26 1127.5,-1195.1 1127.5,-1195.1 1127.5,-1202.76 1127.5,-1202.76 1127.5,-1206.6 1123.67,-1210.43 1119.83,-1210.43"/>
<text text-anchor="middle" x="1052" y="-1195.23" font-family="Arial" font-size="14.00" fill="#c6c5fe">client/ui/Pagination.tsx</text>
</g>
<!-- client/pages/todoList/Todolist.tsx&#45;&gt;client/ui/Pagination.tsx -->
<g id="edge39" class="edge">
<title>client/pages/todoList/Todolist.tsx&#45;&gt;client/ui/Pagination.tsx</title>
<path fill="none" stroke="#757575" d="M741.46,-937.53C750.84,-978.66 788.52,-1118.27 879,-1178.93 904.24,-1195.85 936.36,-1202.53 966,-1204.41"/>
<polygon fill="#757575" stroke="#757575" points="966.22,-1207.92 976.37,-1204.89 966.54,-1200.93 966.22,-1207.92"/>
</g>
<!-- client/pages/users/User.tsx&#45;&gt;lib/sharedUtils.ts -->
<g id="edge45" class="edge">
<title>client/pages/users/User.tsx&#45;&gt;lib/sharedUtils.ts</title>
<path fill="none" stroke="#757575" d="M1141.37,-722.11C1364.94,-711 1948.2,-689.03 2130,-750.93 2163.32,-762.27 2194.86,-788.77 2213.82,-807.02"/>
<polygon fill="#757575" stroke="#757575" points="2211.57,-809.72 2221.14,-814.27 2216.49,-804.75 2211.57,-809.72"/>
</g>
<!-- client/pages/users/User.tsx&#45;&gt;client/common/layout.tsx -->
<g id="edge42" class="edge">
<title>client/pages/users/User.tsx&#45;&gt;client/common/layout.tsx</title>
<path fill="none" stroke="#757575" d="M1079,-738.51C1142.68,-766.87 1306.53,-839.84 1379.05,-872.14"/>
<polygon fill="#757575" stroke="#757575" points="1377.69,-875.37 1388.25,-876.24 1380.54,-868.97 1377.69,-875.37"/>
</g>
<!-- client/pages/users/User.tsx&#45;&gt;client/lib/utils.tsx -->
<g id="edge43" class="edge">
<title>client/pages/users/User.tsx&#45;&gt;client/lib/utils.tsx</title>
<path fill="none" stroke="#757575" d="M1086.37,-738.44C1124.49,-753.12 1186.54,-781.86 1225,-824.93 1252.05,-855.23 1231.75,-880.75 1261,-908.93 1366.98,-1011.03 1453.06,-938.59 1570,-1027.93 1591.47,-1044.34 1584.44,-1060.64 1606,-1076.93 1710.46,-1155.87 1761.87,-1127.86 1882,-1179.93 1920.75,-1196.73 1964.1,-1218.75 1992.37,-1233.57"/>
<polygon fill="#757575" stroke="#757575" points="1990.87,-1236.74 2001.35,-1238.3 1994.13,-1230.55 1990.87,-1236.74"/>
</g>
<!-- client/pages/users/UI/InfoCircle.tsx -->
<g id="node28" class="node">
<title>client/pages/users/UI/InfoCircle.tsx</title>
<path fill="none" stroke="#c6c5fe" d="M1519.83,-662.43C1519.83,-662.43 1311.17,-662.43 1311.17,-662.43 1307.33,-662.43 1303.5,-658.6 1303.5,-654.76 1303.5,-654.76 1303.5,-647.1 1303.5,-647.1 1303.5,-643.26 1307.33,-639.43 1311.17,-639.43 1311.17,-639.43 1519.83,-639.43 1519.83,-639.43 1523.67,-639.43 1527.5,-643.26 1527.5,-647.1 1527.5,-647.1 1527.5,-654.76 1527.5,-654.76 1527.5,-658.6 1523.67,-662.43 1519.83,-662.43"/>
<text text-anchor="middle" x="1415.5" y="-647.23" font-family="Arial" font-size="14.00" fill="#c6c5fe">client/pages/users/UI/InfoCircle.tsx</text>
</g>
<!-- client/pages/users/User.tsx&#45;&gt;client/pages/users/UI/InfoCircle.tsx -->
<g id="edge44" class="edge">
<title>client/pages/users/User.tsx&#45;&gt;client/pages/users/UI/InfoCircle.tsx</title>
<path fill="none" stroke="#757575" d="M1141.27,-715.45C1168.25,-711.45 1197.94,-706.53 1225,-700.93 1273.33,-690.93 1327.72,-676.21 1365.8,-665.33"/>
<polygon fill="#757575" stroke="#757575" points="1366.95,-668.64 1375.6,-662.51 1365.02,-661.91 1366.95,-668.64"/>
</g>
<!-- client/pages/users/Users.tsx&#45;&gt;lib/sharedUtils.ts -->
<g id="edge52" class="edge">
<title>client/pages/users/Users.tsx&#45;&gt;lib/sharedUtils.ts</title>
<path fill="none" stroke="#757575" d="M775.89,-1166.36C803.98,-1157.8 843.69,-1146.24 879,-1137.93 1047.1,-1098.39 1089.98,-1090.84 1261,-1066.93 1309.03,-1060.21 2088.59,-1010.16 2130,-984.93 2182.28,-953.07 2212.56,-883.12 2225.12,-847.58"/>
<polygon fill="#757575" stroke="#757575" points="2228.56,-848.33 2228.45,-837.73 2221.93,-846.08 2228.56,-848.33"/>
</g>
<!-- client/pages/users/Users.tsx&#45;&gt;client/common/layout.tsx -->
<g id="edge46" class="edge">
<title>client/pages/users/Users.tsx&#45;&gt;client/common/layout.tsx</title>
<path fill="none" stroke="#757575" d="M750.3,-1166.36C772.83,-1143.87 825.8,-1093.94 879,-1064.93 1037.03,-978.77 1244.21,-925.09 1348.48,-901.66"/>
<polygon fill="#757575" stroke="#757575" points="1349.25,-905.08 1358.25,-899.49 1347.72,-898.24 1349.25,-905.08"/>
</g>
<!-- client/pages/users/Users.tsx&#45;&gt;client/lib/utils.tsx -->
<g id="edge47" class="edge">
<title>client/pages/users/Users.tsx&#45;&gt;client/lib/utils.tsx</title>
<path fill="none" stroke="#757575" d="M830.52,-1185.4C835.07,-1188.01 839.28,-1191.15 843,-1194.93 920.19,-1273.38 797.62,-1365.83 879,-1439.93 961.41,-1514.96 1797.19,-1504.24 1882,-1431.93 1931.54,-1389.69 1874.7,-1338.55 1918,-1289.93 1928.43,-1278.22 1942.66,-1269.92 1957.28,-1264.04"/>
<polygon fill="#757575" stroke="#757575" points="1958.72,-1267.24 1966.91,-1260.52 1956.32,-1260.67 1958.72,-1267.24"/>
</g>
<!-- client/pages/users/Users.tsx&#45;&gt;client/ui/HeaderCell.tsx -->
<g id="edge50" class="edge">
<title>client/pages/users/Users.tsx&#45;&gt;client/ui/HeaderCell.tsx</title>
<path fill="none" stroke="#757575" d="M830.5,-1172.06C872.69,-1169.36 922.53,-1166.17 964.13,-1163.5"/>
<polygon fill="#757575" stroke="#757575" points="964.49,-1166.98 974.25,-1162.85 964.05,-1160 964.49,-1166.98"/>
</g>
<!-- client/pages/users/Users.tsx&#45;&gt;client/ui/Pagination.tsx -->
<g id="edge51" class="edge">
<title>client/pages/users/Users.tsx&#45;&gt;client/ui/Pagination.tsx</title>
<path fill="none" stroke="#757575" d="M830.5,-1184.09C873.36,-1186.97 924.1,-1190.39 966.09,-1193.22"/>
<polygon fill="#757575" stroke="#757575" points="966.08,-1196.72 976.29,-1193.9 966.55,-1189.74 966.08,-1196.72"/>
</g>
<!-- client/ui/Checkbox.tsx -->
<g id="node29" class="node">
<title>client/ui/Checkbox.tsx</title>
<path fill="none" stroke="#c6c5fe" d="M1809.83,-1321.43C1809.83,-1321.43 1678.17,-1321.43 1678.17,-1321.43 1674.33,-1321.43 1670.5,-1317.6 1670.5,-1313.76 1670.5,-1313.76 1670.5,-1306.1 1670.5,-1306.1 1670.5,-1302.26 1674.33,-1298.43 1678.17,-1298.43 1678.17,-1298.43 1809.83,-1298.43 1809.83,-1298.43 1813.67,-1298.43 1817.5,-1302.26 1817.5,-1306.1 1817.5,-1306.1 1817.5,-1313.76 1817.5,-1313.76 1817.5,-1317.6 1813.67,-1321.43 1809.83,-1321.43"/>
<text text-anchor="middle" x="1744" y="-1306.23" font-family="Arial" font-size="14.00" fill="#c6c5fe">client/ui/Checkbox.tsx</text>
</g>
<!-- client/pages/users/Users.tsx&#45;&gt;client/ui/Checkbox.tsx -->
<g id="edge48" class="edge">
<title>client/pages/users/Users.tsx&#45;&gt;client/ui/Checkbox.tsx</title>
<path fill="none" stroke="#757575" d="M827.15,-1189.47C832.59,-1191.06 837.91,-1192.87 843,-1194.93 861.06,-1202.24 861.5,-1211.38 879,-1219.93 1159,-1356.74 1260.23,-1372.93 1570,-1338.93 1586.29,-1337.14 1589.89,-1333.95 1606,-1330.93 1623.48,-1327.65 1642.28,-1324.52 1660.19,-1321.71"/>
<polygon fill="#757575" stroke="#757575" points="1660.98,-1325.13 1670.33,-1320.15 1659.91,-1318.22 1660.98,-1325.13"/>
</g>
<!-- client/ui/Collapse.tsx -->
<g id="node30" class="node">
<title>client/ui/Collapse.tsx</title>
<path fill="none" stroke="#c6c5fe" d="M1114.33,-1430.43C1114.33,-1430.43 989.67,-1430.43 989.67,-1430.43 985.83,-1430.43 982,-1426.6 982,-1422.76 982,-1422.76 982,-1415.1 982,-1415.1 982,-1411.26 985.83,-1407.43 989.67,-1407.43 989.67,-1407.43 1114.33,-1407.43 1114.33,-1407.43 1118.17,-1407.43 1122,-1411.26 1122,-1415.1 1122,-1415.1 1122,-1422.76 1122,-1422.76 1122,-1426.6 1118.17,-1430.43 1114.33,-1430.43"/>
<text text-anchor="middle" x="1052" y="-1415.23" font-family="Arial" font-size="14.00" fill="#c6c5fe">client/ui/Collapse.tsx</text>
</g>
<!-- client/pages/users/Users.tsx&#45;&gt;client/ui/Collapse.tsx -->
<g id="edge49" class="edge">
<title>client/pages/users/Users.tsx&#45;&gt;client/ui/Collapse.tsx</title>
<path fill="none" stroke="#757575" d="M743.99,-1189.66C759.03,-1223.53 807.32,-1322.23 879,-1371.93 906.32,-1390.87 940.98,-1402.19 972.02,-1408.95"/>
<polygon fill="#757575" stroke="#757575" points="971.46,-1412.41 981.95,-1410.99 972.86,-1405.55 971.46,-1412.41"/>
</g>
<!-- client/common/layout.module.css -->
<g id="node8" class="node">
<title>client/common/layout.module.css</title>
<path fill="none" stroke="#cfffac" d="M1845.33,-934.43C1845.33,-934.43 1642.67,-934.43 1642.67,-934.43 1638.83,-934.43 1635,-930.6 1635,-926.76 1635,-926.76 1635,-919.1 1635,-919.1 1635,-915.26 1638.83,-911.43 1642.67,-911.43 1642.67,-911.43 1845.33,-911.43 1845.33,-911.43 1849.17,-911.43 1853,-915.26 1853,-919.1 1853,-919.1 1853,-926.76 1853,-926.76 1853,-930.6 1849.17,-934.43 1845.33,-934.43"/>
<text text-anchor="middle" x="1744" y="-919.23" font-family="Arial" font-size="14.00" fill="#cfffac">client/common/layout.module.css</text>
</g>
<!-- client/common/layout.tsx&#45;&gt;lib/sharedUtils.ts -->
<g id="edge11" class="edge">
<title>client/common/layout.tsx&#45;&gt;lib/sharedUtils.ts</title>
<path fill="none" stroke="#757575" d="M1498.6,-891.78C1632.15,-896.45 1904.22,-899.26 2130,-858.93 2151.69,-855.06 2175.13,-847.71 2194.06,-840.93"/>
<polygon fill="#757575" stroke="#757575" points="2195.34,-844.19 2203.52,-837.46 2192.92,-837.62 2195.34,-844.19"/>
</g>
<!-- client/common/layout.tsx&#45;&gt;client/common/layout.module.css -->
<g id="edge7" class="edge">
<title>client/common/layout.tsx&#45;&gt;client/common/layout.module.css</title>
<path fill="none" stroke="#757575" d="M1498.89,-896.76C1537.28,-900.88 1583.65,-905.85 1625.62,-910.35"/>
<polygon fill="#757575" stroke="#757575" points="1625.3,-913.83 1635.62,-911.42 1626.05,-906.87 1625.3,-913.83"/>
</g>
<!-- client/common/layout.tsx&#45;&gt;client/globalStore/store.ts -->
<g id="edge8" class="edge">
<title>client/common/layout.tsx&#45;&gt;client/globalStore/store.ts</title>
<path fill="none" stroke="#757575" d="M1461.9,-876.39C1521.03,-861.36 1624.32,-835.1 1687.88,-818.94"/>
<polygon fill="#757575" stroke="#757575" points="1688.9,-822.3 1697.72,-816.44 1687.17,-815.51 1688.9,-822.3"/>
</g>
<!-- client/common/layout.tsx&#45;&gt;client/lib/utils.tsx -->
<g id="edge9" class="edge">
<title>client/common/layout.tsx&#45;&gt;client/lib/utils.tsx</title>
<path fill="none" stroke="#757575" d="M1453.92,-899.44C1486.15,-910.29 1533.14,-928.38 1570,-951.93 1588.29,-963.61 1588.46,-972.15 1606,-984.93 1720.07,-1068.02 1764.38,-1063.95 1882,-1141.93 1925.83,-1170.99 1973.84,-1209.26 2001.01,-1231.57"/>
<polygon fill="#757575" stroke="#757575" points="1999.12,-1234.56 2009.06,-1238.23 2003.58,-1229.16 1999.12,-1234.56"/>
</g>
<!-- client/common/layout.tsx&#45;&gt;client/ui/Notifications.tsx -->
<g id="edge10" class="edge">
<title>client/common/layout.tsx&#45;&gt;client/ui/Notifications.tsx</title>
<path fill="none" stroke="#757575" d="M1498.55,-893.72C1522.37,-897.53 1547.9,-903.76 1570,-913.93 1588.92,-922.64 1586.98,-935.44 1606,-943.93 1620.72,-950.5 1637.14,-955 1653.34,-958.07"/>
<polygon fill="#757575" stroke="#757575" points="1652.94,-961.55 1663.39,-959.8 1654.13,-954.65 1652.94,-961.55"/>
</g>
<!-- client/globalStore/store.ts&#45;&gt;lib/sharedUtils.ts -->
<g id="edge16" class="edge">
<title>client/globalStore/store.ts&#45;&gt;lib/sharedUtils.ts</title>
<path fill="none" stroke="#757575" d="M1828.16,-808.52C1923.15,-812.61 2076.74,-819.24 2164.59,-823.02"/>
<polygon fill="#757575" stroke="#757575" points="2164.57,-826.53 2174.71,-823.46 2164.87,-819.53 2164.57,-826.53"/>
</g>
<!-- client/lib/utils.tsx&#45;&gt;lib/sharedUtils.ts -->
<g id="edge18" class="edge">
<title>client/lib/utils.tsx&#45;&gt;lib/sharedUtils.ts</title>
<path fill="none" stroke="#757575" d="M2034.15,-1238.37C2053.71,-1213.26 2100.26,-1151.32 2130,-1093.93 2175.37,-1006.36 2211.61,-893.82 2225.67,-847.41"/>
<polygon fill="#757575" stroke="#757575" points="2229.1,-848.15 2228.62,-837.57 2222.4,-846.14 2229.1,-848.15"/>
</g>
<!-- client/lib/context.tsx -->
<g id="node20" class="node">
<title>client/lib/context.tsx</title>
<path fill="none" stroke="#cfffac" d="M2292.33,-1434.43C2292.33,-1434.43 2173.67,-1434.43 2173.67,-1434.43 2169.83,-1434.43 2166,-1430.6 2166,-1426.76 2166,-1426.76 2166,-1419.1 2166,-1419.1 2166,-1415.26 2169.83,-1411.43 2173.67,-1411.43 2173.67,-1411.43 2292.33,-1411.43 2292.33,-1411.43 2296.17,-1411.43 2300,-1415.26 2300,-1419.1 2300,-1419.1 2300,-1426.76 2300,-1426.76 2300,-1430.6 2296.17,-1434.43 2292.33,-1434.43"/>
<text text-anchor="middle" x="2233" y="-1419.23" font-family="Arial" font-size="14.00" fill="#cfffac">client/lib/context.tsx</text>
</g>
<!-- client/lib/utils.tsx&#45;&gt;client/lib/context.tsx -->
<g id="edge17" class="edge">
<title>client/lib/utils.tsx&#45;&gt;client/lib/context.tsx</title>
<path fill="none" stroke="#757575" d="M2071.19,-1261.44C2090.59,-1267.76 2112.64,-1276.99 2130,-1289.93 2171.72,-1321.01 2204.92,-1373.55 2221.15,-1402.41"/>
<polygon fill="#757575" stroke="#757575" points="2218.11,-1404.15 2225.99,-1411.23 2224.24,-1400.78 2218.11,-1404.15"/>
</g>
<!-- client/ui/Notifications.tsx&#45;&gt;client/lib/utils.tsx -->
<g id="edge59" class="edge">
<title>client/ui/Notifications.tsx&#45;&gt;client/lib/utils.tsx</title>
<path fill="none" stroke="#757575" d="M1756.39,-975.52C1779.91,-999.46 1835.54,-1056.14 1882,-1103.93 1926.04,-1149.23 1977.56,-1202.7 2004.47,-1230.67"/>
<polygon fill="#757575" stroke="#757575" points="2002.24,-1233.39 2011.69,-1238.17 2007.28,-1228.54 2002.24,-1233.39"/>
</g>
<!-- client/ui/Notifications.module.css -->
<g id="node36" class="node">
<title>client/ui/Notifications.module.css</title>
<path fill="none" stroke="#cfffac" d="M2122.33,-975.43C2122.33,-975.43 1925.67,-975.43 1925.67,-975.43 1921.83,-975.43 1918,-971.6 1918,-967.76 1918,-967.76 1918,-960.1 1918,-960.1 1918,-956.26 1921.83,-952.43 1925.67,-952.43 1925.67,-952.43 2122.33,-952.43 2122.33,-952.43 2126.17,-952.43 2130,-956.26 2130,-960.1 2130,-960.1 2130,-967.76 2130,-967.76 2130,-971.6 2126.17,-975.43 2122.33,-975.43"/>
<text text-anchor="middle" x="2024" y="-960.23" font-family="Arial" font-size="14.00" fill="#cfffac">client/ui/Notifications.module.css</text>
</g>
<!-- client/ui/Notifications.tsx&#45;&gt;client/ui/Notifications.module.css -->
<g id="edge60" class="edge">
<title>client/ui/Notifications.tsx&#45;&gt;client/ui/Notifications.module.css</title>
<path fill="none" stroke="#757575" d="M1824.66,-963.93C1850.53,-963.93 1879.77,-963.93 1907.69,-963.93"/>
<polygon fill="#757575" stroke="#757575" points="1907.91,-967.43 1917.91,-963.93 1907.91,-960.43 1907.91,-967.43"/>
</g>
<!-- client/css/bootstrap&#45;grid.css -->
<g id="node13" class="node">
<title>client/css/bootstrap&#45;grid.css</title>
<path fill="none" stroke="#cfffac" d="M577.33,-421.43C577.33,-421.43 409.67,-421.43 409.67,-421.43 405.83,-421.43 402,-417.6 402,-413.76 402,-413.76 402,-406.1 402,-406.1 402,-402.26 405.83,-398.43 409.67,-398.43 409.67,-398.43 577.33,-398.43 577.33,-398.43 581.17,-398.43 585,-402.26 585,-406.1 585,-406.1 585,-413.76 585,-413.76 585,-417.6 581.17,-421.43 577.33,-421.43"/>
<text text-anchor="middle" x="493.5" y="-406.23" font-family="Arial" font-size="14.00" fill="#cfffac">client/css/bootstrap&#45;grid.css</text>
</g>
<!-- client/css/fontawesome.min.css -->
<g id="node14" class="node">
<title>client/css/fontawesome.min.css</title>
<path fill="none" stroke="#cfffac" d="M589.33,-544.43C589.33,-544.43 397.67,-544.43 397.67,-544.43 393.83,-544.43 390,-540.6 390,-536.76 390,-536.76 390,-529.1 390,-529.1 390,-525.26 393.83,-521.43 397.67,-521.43 397.67,-521.43 589.33,-521.43 589.33,-521.43 593.17,-521.43 597,-525.26 597,-529.1 597,-529.1 597,-536.76 597,-536.76 597,-540.6 593.17,-544.43 589.33,-544.43"/>
<text text-anchor="middle" x="493.5" y="-529.23" font-family="Arial" font-size="14.00" fill="#cfffac">client/css/fontawesome.min.css</text>
</g>
<!-- client/css/index.css -->
<g id="node15" class="node">
<title>client/css/index.css</title>
<path fill="none" stroke="#c6c5fe" d="M339.83,-503.43C339.83,-503.43 223.17,-503.43 223.17,-503.43 219.33,-503.43 215.5,-499.6 215.5,-495.76 215.5,-495.76 215.5,-488.1 215.5,-488.1 215.5,-484.26 219.33,-480.43 223.17,-480.43 223.17,-480.43 339.83,-480.43 339.83,-480.43 343.67,-480.43 347.5,-484.26 347.5,-488.1 347.5,-488.1 347.5,-495.76 347.5,-495.76 347.5,-499.6 343.67,-503.43 339.83,-503.43"/>
<text text-anchor="middle" x="281.5" y="-488.23" font-family="Arial" font-size="14.00" fill="#c6c5fe">client/css/index.css</text>
</g>
<!-- client/css/index.css&#45;&gt;client/css/bootstrap&#45;grid.css -->
<g id="edge12" class="edge">
<title>client/css/index.css&#45;&gt;client/css/bootstrap&#45;grid.css</title>
<path fill="none" stroke="#757575" d="M299.18,-480.24C319.65,-466.44 355.85,-443.75 390,-430.93 396.84,-428.36 404.06,-426.08 411.37,-424.07"/>
<polygon fill="#757575" stroke="#757575" points="412.57,-427.37 421.37,-421.47 410.82,-420.59 412.57,-427.37"/>
</g>
<!-- client/css/index.css&#45;&gt;client/css/fontawesome.min.css -->
<g id="edge13" class="edge">
<title>client/css/index.css&#45;&gt;client/css/fontawesome.min.css</title>
<path fill="none" stroke="#757575" d="M341.36,-503.43C357.16,-506.52 374.23,-509.85 390,-512.93 400.76,-515.03 412.16,-517.26 423.3,-519.43"/>
<polygon fill="#757575" stroke="#757575" points="422.93,-522.92 433.42,-521.4 424.28,-516.05 422.93,-522.92"/>
</g>
<!-- client/css/regular.css -->
<g id="node16" class="node">
<title>client/css/regular.css</title>
<path fill="none" stroke="#cfffac" d="M556.33,-503.43C556.33,-503.43 430.67,-503.43 430.67,-503.43 426.83,-503.43 423,-499.6 423,-495.76 423,-495.76 423,-488.1 423,-488.1 423,-484.26 426.83,-480.43 430.67,-480.43 430.67,-480.43 556.33,-480.43 556.33,-480.43 560.17,-480.43 564,-484.26 564,-488.1 564,-488.1 564,-495.76 564,-495.76 564,-499.6 560.17,-503.43 556.33,-503.43"/>
<text text-anchor="middle" x="493.5" y="-488.23" font-family="Arial" font-size="14.00" fill="#cfffac">client/css/regular.css</text>
</g>
<!-- client/css/index.css&#45;&gt;client/css/regular.css -->
<g id="edge14" class="edge">
<title>client/css/index.css&#45;&gt;client/css/regular.css</title>
<path fill="none" stroke="#757575" d="M347.51,-491.93C368.1,-491.93 391.1,-491.93 412.61,-491.93"/>
<polygon fill="#757575" stroke="#757575" points="412.7,-495.43 422.7,-491.93 412.7,-488.43 412.7,-495.43"/>
</g>
<!-- client/css/solid.css -->
<g id="node17" class="node">
<title>client/css/solid.css</title>
<path fill="none" stroke="#cfffac" d="M549.83,-462.43C549.83,-462.43 437.17,-462.43 437.17,-462.43 433.33,-462.43 429.5,-458.6 429.5,-454.76 429.5,-454.76 429.5,-447.1 429.5,-447.1 429.5,-443.26 433.33,-439.43 437.17,-439.43 437.17,-439.43 549.83,-439.43 549.83,-439.43 553.67,-439.43 557.5,-443.26 557.5,-447.1 557.5,-447.1 557.5,-454.76 557.5,-454.76 557.5,-458.6 553.67,-462.43 549.83,-462.43"/>
<text text-anchor="middle" x="493.5" y="-447.23" font-family="Arial" font-size="14.00" fill="#cfffac">client/css/solid.css</text>
</g>
<!-- client/css/index.css&#45;&gt;client/css/solid.css -->
<g id="edge15" class="edge">
<title>client/css/index.css&#45;&gt;client/css/solid.css</title>
<path fill="none" stroke="#757575" d="M341.56,-480.4C367.05,-475.42 397.05,-469.57 423.55,-464.39"/>
<polygon fill="#757575" stroke="#757575" points="424.38,-467.8 433.52,-462.44 423.04,-460.93 424.38,-467.8"/>
</g>
<!-- client/css/tailwind.css -->
<g id="node18" class="node">
<title>client/css/tailwind.css</title>
<path fill="none" stroke="#cfffac" d="M346.33,-721.43C346.33,-721.43 216.67,-721.43 216.67,-721.43 212.83,-721.43 209,-717.6 209,-713.76 209,-713.76 209,-706.1 209,-706.1 209,-702.26 212.83,-698.43 216.67,-698.43 216.67,-698.43 346.33,-698.43 346.33,-698.43 350.17,-698.43 354,-702.26 354,-706.1 354,-706.1 354,-713.76 354,-713.76 354,-717.6 350.17,-721.43 346.33,-721.43"/>
<text text-anchor="middle" x="281.5" y="-706.23" font-family="Arial" font-size="14.00" fill="#cfffac">client/css/tailwind.css</text>
</g>
<!-- client/globalStore/actions.ts -->
<g id="node19" class="node">
<title>client/globalStore/actions.ts</title>
<path fill="none" stroke="#cfffac" d="M576.33,-700.43C576.33,-700.43 410.67,-700.43 410.67,-700.43 406.83,-700.43 403,-696.6 403,-692.76 403,-692.76 403,-685.1 403,-685.1 403,-681.26 406.83,-677.43 410.67,-677.43 410.67,-677.43 576.33,-677.43 576.33,-677.43 580.17,-677.43 584,-681.26 584,-685.1 584,-685.1 584,-692.76 584,-692.76 584,-696.6 580.17,-700.43 576.33,-700.43"/>
<text text-anchor="middle" x="493.5" y="-685.23" font-family="Arial" font-size="14.00" fill="#cfffac">client/globalStore/actions.ts</text>
</g>
<!-- client/main/app.tsx -->
<g id="node21" class="node">
<title>client/main/app.tsx</title>
<path fill="none" stroke="#c6c5fe" d="M338.33,-680.43C338.33,-680.43 224.67,-680.43 224.67,-680.43 220.83,-680.43 217,-676.6 217,-672.76 217,-672.76 217,-665.1 217,-665.1 217,-661.26 220.83,-657.43 224.67,-657.43 224.67,-657.43 338.33,-657.43 338.33,-657.43 342.17,-657.43 346,-661.26 346,-665.1 346,-665.1 346,-672.76 346,-672.76 346,-676.6 342.17,-680.43 338.33,-680.43"/>
<text text-anchor="middle" x="281.5" y="-665.23" font-family="Arial" font-size="14.00" fill="#c6c5fe">client/main/app.tsx</text>
</g>
<!-- client/main/app.tsx&#45;&gt;client/common/AppRoutes.tsx -->
<g id="edge19" class="edge">
<title>client/main/app.tsx&#45;&gt;client/common/AppRoutes.tsx</title>
<path fill="none" stroke="#757575" d="M334.77,-680.55C341.5,-683.11 348.09,-686.2 354,-689.93 410.64,-725.73 457.98,-791.13 479.71,-824.37"/>
<polygon fill="#757575" stroke="#757575" points="477.04,-826.68 485.38,-833.21 482.93,-822.9 477.04,-826.68"/>
</g>
<!-- client/main/app.tsx&#45;&gt;lib/sharedUtils.ts -->
<g id="edge23" class="edge">
<title>client/main/app.tsx&#45;&gt;lib/sharedUtils.ts</title>
<path fill="none" stroke="#757575" d="M314.52,-657.35C388.1,-631.82 575.3,-572.93 737,-572.93 737,-572.93 737,-572.93 1745,-572.93 1918.11,-572.93 1989.05,-531.43 2130,-631.93 2189.88,-674.63 2217.49,-763.44 2227.42,-804.39"/>
<polygon fill="#757575" stroke="#757575" points="2224.06,-805.41 2229.71,-814.37 2230.88,-803.84 2224.06,-805.41"/>
</g>
<!-- client/main/app.tsx&#45;&gt;client/globalStore/store.ts -->
<g id="edge21" class="edge">
<title>client/main/app.tsx&#45;&gt;client/globalStore/store.ts</title>
<path fill="none" stroke="#757575" d="M346.07,-667.8C409.6,-666.94 510.09,-666.3 597,-668.93 876.49,-677.38 947.52,-672.43 1225,-706.93 1392.55,-727.76 1587.6,-769.46 1683.52,-791.13"/>
<polygon fill="#757575" stroke="#757575" points="1682.8,-794.56 1693.33,-793.36 1684.35,-787.73 1682.8,-794.56"/>
</g>
<!-- client/main/app.tsx&#45;&gt;client/globalStore/actions.ts -->
<g id="edge20" class="edge">
<title>client/main/app.tsx&#45;&gt;client/globalStore/actions.ts</title>
<path fill="none" stroke="#757575" d="M346.08,-674.98C360.73,-676.38 376.67,-677.9 392.46,-679.4"/>
<polygon fill="#757575" stroke="#757575" points="392.51,-682.92 402.8,-680.39 393.18,-675.95 392.51,-682.92"/>
</g>
<!-- client/main/app.tsx&#45;&gt;client/lib/context.tsx -->
<g id="edge22" class="edge">
<title>client/main/app.tsx&#45;&gt;client/lib/context.tsx</title>
<path fill="none" stroke="#757575" d="M342.17,-680.61C346.55,-683.15 350.58,-686.22 354,-689.93 408.04,-748.7 364.7,-790.2 390,-865.93 503.98,-1207.03 377.37,-1596.93 737,-1596.93 737,-1596.93 737,-1596.93 1745,-1596.93 1930.17,-1596.93 2133.06,-1484 2204.94,-1440.1"/>
<polygon fill="#757575" stroke="#757575" points="2207.15,-1442.85 2213.82,-1434.62 2203.47,-1436.89 2207.15,-1442.85"/>
</g>
<!-- client/main/entry&#45;client.tsx -->
<g id="node22" class="node">
<title>client/main/entry&#45;client.tsx</title>
<path fill="none" stroke="#c6c5fe" d="M165.33,-680.43C165.33,-680.43 7.67,-680.43 7.67,-680.43 3.83,-680.43 0,-676.6 0,-672.76 0,-672.76 0,-665.1 0,-665.1 0,-661.26 3.83,-657.43 7.67,-657.43 7.67,-657.43 165.33,-657.43 165.33,-657.43 169.17,-657.43 173,-661.26 173,-665.1 173,-665.1 173,-672.76 173,-672.76 173,-676.6 169.17,-680.43 165.33,-680.43"/>
<text text-anchor="middle" x="86.5" y="-665.23" font-family="Arial" font-size="14.00" fill="#c6c5fe">client/main/entry&#45;client.tsx</text>
</g>
<!-- client/main/entry&#45;client.tsx&#45;&gt;client/css/index.css -->
<g id="edge24" class="edge">
<title>client/main/entry&#45;client.tsx&#45;&gt;client/css/index.css</title>
<path fill="none" stroke="#757575" d="M100.16,-657.32C132.8,-627.38 220.02,-547.4 259.98,-510.75"/>
<polygon fill="#757575" stroke="#757575" points="262.53,-513.16 267.54,-503.82 257.8,-508 262.53,-513.16"/>
</g>
<!-- client/main/entry&#45;client.tsx&#45;&gt;client/css/tailwind.css -->
<g id="edge25" class="edge">
<title>client/main/entry&#45;client.tsx&#45;&gt;client/css/tailwind.css</title>
<path fill="none" stroke="#757575" d="M141.77,-680.46C165,-685.39 192.29,-691.19 216.49,-696.33"/>
<polygon fill="#757575" stroke="#757575" points="215.79,-699.76 226.3,-698.42 217.24,-692.91 215.79,-699.76"/>
</g>
<!-- client/main/entry&#45;client.tsx&#45;&gt;client/main/app.tsx -->
<g id="edge26" class="edge">
<title>client/main/entry&#45;client.tsx&#45;&gt;client/main/app.tsx</title>
<path fill="none" stroke="#757575" d="M173.28,-668.93C184.42,-668.93 195.75,-668.93 206.67,-668.93"/>
<polygon fill="#757575" stroke="#757575" points="206.99,-672.43 216.99,-668.93 206.99,-665.43 206.99,-672.43"/>
</g>
<!-- client/ui/HeaderCell.tsx&#45;&gt;lib/sharedUtils.ts -->
<g id="edge58" class="edge">
<title>client/ui/HeaderCell.tsx&#45;&gt;lib/sharedUtils.ts</title>
<path fill="none" stroke="#757575" d="M1113.34,-1146.4C1214.75,-1127.35 1425.97,-1089.12 1606,-1065.93 1721.97,-1050.99 2032.64,-1082.69 2130,-1017.93 2190.87,-977.44 2218.02,-888.31 2227.63,-847.32"/>
<polygon fill="#757575" stroke="#757575" points="2231.05,-848.07 2229.8,-837.55 2224.22,-846.56 2231.05,-848.07"/>
</g>
<!-- client/ui/HeaderCell.module.css -->
<g id="node33" class="node">
<title>client/ui/HeaderCell.module.css</title>
<path fill="none" stroke="#cfffac" d="M1510.83,-1169.43C1510.83,-1169.43 1320.17,-1169.43 1320.17,-1169.43 1316.33,-1169.43 1312.5,-1165.6 1312.5,-1161.76 1312.5,-1161.76 1312.5,-1154.1 1312.5,-1154.1 1312.5,-1150.26 1316.33,-1146.43 1320.17,-1146.43 1320.17,-1146.43 1510.83,-1146.43 1510.83,-1146.43 1514.67,-1146.43 1518.5,-1150.26 1518.5,-1154.1 1518.5,-1154.1 1518.5,-1161.76 1518.5,-1161.76 1518.5,-1165.6 1514.67,-1169.43 1510.83,-1169.43"/>
<text text-anchor="middle" x="1415.5" y="-1154.23" font-family="Arial" font-size="14.00" fill="#cfffac">client/ui/HeaderCell.module.css</text>
</g>
<!-- client/ui/HeaderCell.tsx&#45;&gt;client/ui/HeaderCell.module.css -->
<g id="edge55" class="edge">
<title>client/ui/HeaderCell.tsx&#45;&gt;client/ui/HeaderCell.module.css</title>
<path fill="none" stroke="#757575" d="M1129.66,-1157.93C1179.71,-1157.93 1245.91,-1157.93 1301.89,-1157.93"/>
<polygon fill="#757575" stroke="#757575" points="1302.21,-1161.43 1312.21,-1157.93 1302.21,-1154.43 1302.21,-1161.43"/>
</g>
<!-- client/ui/Popup.tsx -->
<g id="node34" class="node">
<title>client/ui/Popup.tsx</title>
<path fill="none" stroke="#c6c5fe" d="M1799.33,-1362.43C1799.33,-1362.43 1688.67,-1362.43 1688.67,-1362.43 1684.83,-1362.43 1681,-1358.6 1681,-1354.76 1681,-1354.76 1681,-1347.1 1681,-1347.1 1681,-1343.26 1684.83,-1339.43 1688.67,-1339.43 1688.67,-1339.43 1799.33,-1339.43 1799.33,-1339.43 1803.17,-1339.43 1807,-1343.26 1807,-1347.1 1807,-1347.1 1807,-1354.76 1807,-1354.76 1807,-1358.6 1803.17,-1362.43 1799.33,-1362.43"/>
<text text-anchor="middle" x="1744" y="-1347.23" font-family="Arial" font-size="14.00" fill="#c6c5fe">client/ui/Popup.tsx</text>
</g>
<!-- client/ui/HeaderCell.tsx&#45;&gt;client/ui/Popup.tsx -->
<g id="edge56" class="edge">
<title>client/ui/HeaderCell.tsx&#45;&gt;client/ui/Popup.tsx</title>
<path fill="none" stroke="#757575" d="M1129.72,-1151.44C1161.88,-1152.49 1197.99,-1159.04 1225,-1178.93 1256.4,-1202.05 1229.65,-1235.75 1261,-1258.93 1372.3,-1341.23 1444.4,-1239.75 1570,-1297.93 1589.7,-1307.05 1586.39,-1321.62 1606,-1330.93 1625.87,-1340.37 1649.04,-1345.61 1670.61,-1348.46"/>
<polygon fill="#757575" stroke="#757575" points="1670.38,-1351.96 1680.72,-1349.64 1671.19,-1345 1670.38,-1351.96"/>
</g>
<!-- client/ui/TableFilters.tsx -->
<g id="node35" class="node">
<title>client/ui/TableFilters.tsx</title>
<path fill="none" stroke="#c6c5fe" d="M1485.83,-1249.43C1485.83,-1249.43 1345.17,-1249.43 1345.17,-1249.43 1341.33,-1249.43 1337.5,-1245.6 1337.5,-1241.76 1337.5,-1241.76 1337.5,-1234.1 1337.5,-1234.1 1337.5,-1230.26 1341.33,-1226.43 1345.17,-1226.43 1345.17,-1226.43 1485.83,-1226.43 1485.83,-1226.43 1489.67,-1226.43 1493.5,-1230.26 1493.5,-1234.1 1493.5,-1234.1 1493.5,-1241.76 1493.5,-1241.76 1493.5,-1245.6 1489.67,-1249.43 1485.83,-1249.43"/>
<text text-anchor="middle" x="1415.5" y="-1234.23" font-family="Arial" font-size="14.00" fill="#c6c5fe">client/ui/TableFilters.tsx</text>
</g>
<!-- client/ui/HeaderCell.tsx&#45;&gt;client/ui/TableFilters.tsx -->
<g id="edge57" class="edge">
<title>client/ui/HeaderCell.tsx&#45;&gt;client/ui/TableFilters.tsx</title>
<path fill="none" stroke="#757575" d="M1129.7,-1164.3C1159.63,-1167.57 1194.12,-1172.29 1225,-1178.93 1277.26,-1190.16 1335.77,-1209.45 1373.77,-1222.9"/>
<polygon fill="#757575" stroke="#757575" points="1372.85,-1226.29 1383.44,-1226.36 1375.2,-1219.7 1372.85,-1226.29"/>
</g>
<!-- client/ui/Pagination.tsx&#45;&gt;lib/sharedUtils.ts -->
<g id="edge63" class="edge">
<title>client/ui/Pagination.tsx&#45;&gt;lib/sharedUtils.ts</title>
<path fill="none" stroke="#757575" d="M1127.62,-1198.57C1345.64,-1196.03 1975.99,-1177.73 2130,-1051.93 2195.91,-998.09 2220.85,-892.62 2228.79,-847.38"/>
<polygon fill="#757575" stroke="#757575" points="2232.25,-847.91 2230.43,-837.48 2225.35,-846.78 2232.25,-847.91"/>
</g>
<!-- client/ui/Pagination.module.css -->
<g id="node37" class="node">
<title>client/ui/Pagination.module.css</title>
<path fill="none" stroke="#cfffac" d="M1509.33,-1329.43C1509.33,-1329.43 1321.67,-1329.43 1321.67,-1329.43 1317.83,-1329.43 1314,-1325.6 1314,-1321.76 1314,-1321.76 1314,-1314.1 1314,-1314.1 1314,-1310.26 1317.83,-1306.43 1321.67,-1306.43 1321.67,-1306.43 1509.33,-1306.43 1509.33,-1306.43 1513.17,-1306.43 1517,-1310.26 1517,-1314.1 1517,-1314.1 1517,-1321.76 1517,-1321.76 1517,-1325.6 1513.17,-1329.43 1509.33,-1329.43"/>
<text text-anchor="middle" x="1415.5" y="-1314.23" font-family="Arial" font-size="14.00" fill="#cfffac">client/ui/Pagination.module.css</text>
</g>
<!-- client/ui/Pagination.tsx&#45;&gt;client/ui/Pagination.module.css -->
<g id="edge61" class="edge">
<title>client/ui/Pagination.tsx&#45;&gt;client/ui/Pagination.module.css</title>
<path fill="none" stroke="#757575" d="M1074.17,-1210.57C1111.01,-1230.32 1189.83,-1270.37 1261,-1291.93 1277.65,-1296.97 1295.63,-1301.12 1313.22,-1304.51"/>
<polygon fill="#757575" stroke="#757575" points="1313.05,-1308.04 1323.52,-1306.42 1314.33,-1301.16 1313.05,-1308.04"/>
</g>
<!-- client/ui/Select.tsx -->
<g id="node38" class="node">
<title>client/ui/Select.tsx</title>
<path fill="none" stroke="#c6c5fe" d="M1470.33,-1409.43C1470.33,-1409.43 1360.67,-1409.43 1360.67,-1409.43 1356.83,-1409.43 1353,-1405.6 1353,-1401.76 1353,-1401.76 1353,-1394.1 1353,-1394.1 1353,-1390.26 1356.83,-1386.43 1360.67,-1386.43 1360.67,-1386.43 1470.33,-1386.43 1470.33,-1386.43 1474.17,-1386.43 1478,-1390.26 1478,-1394.1 1478,-1394.1 1478,-1401.76 1478,-1401.76 1478,-1405.6 1474.17,-1409.43 1470.33,-1409.43"/>
<text text-anchor="middle" x="1415.5" y="-1394.23" font-family="Arial" font-size="14.00" fill="#c6c5fe">client/ui/Select.tsx</text>
</g>
<!-- client/ui/Pagination.tsx&#45;&gt;client/ui/Select.tsx -->
<g id="edge62" class="edge">
<title>client/ui/Pagination.tsx&#45;&gt;client/ui/Select.tsx</title>
<path fill="none" stroke="#757575" d="M1067.67,-1210.52C1100.68,-1236.22 1183.96,-1298.85 1261,-1338.93 1295.51,-1356.88 1336.77,-1372.44 1367.82,-1383.06"/>
<polygon fill="#757575" stroke="#757575" points="1366.92,-1386.46 1377.52,-1386.34 1369.16,-1379.82 1366.92,-1386.46"/>
</g>
<!-- client/pages/users/UI/InfoCircle.module.css -->
<g id="node27" class="node">
<title>client/pages/users/UI/InfoCircle.module.css</title>
<path fill="none" stroke="#cfffac" d="M1874.33,-662.43C1874.33,-662.43 1613.67,-662.43 1613.67,-662.43 1609.83,-662.43 1606,-658.6 1606,-654.76 1606,-654.76 1606,-647.1 1606,-647.1 1606,-643.26 1609.83,-639.43 1613.67,-639.43 1613.67,-639.43 1874.33,-639.43 1874.33,-639.43 1878.17,-639.43 1882,-643.26 1882,-647.1 1882,-647.1 1882,-654.76 1882,-654.76 1882,-658.6 1878.17,-662.43 1874.33,-662.43"/>
<text text-anchor="middle" x="1744" y="-647.23" font-family="Arial" font-size="14.00" fill="#cfffac">client/pages/users/UI/InfoCircle.module.css</text>
</g>
<!-- client/pages/users/UI/InfoCircle.tsx&#45;&gt;client/pages/users/UI/InfoCircle.module.css -->
<g id="edge41" class="edge">
<title>client/pages/users/UI/InfoCircle.tsx&#45;&gt;client/pages/users/UI/InfoCircle.module.css</title>
<path fill="none" stroke="#757575" d="M1527.95,-650.93C1549.75,-650.93 1572.93,-650.93 1595.7,-650.93"/>
<polygon fill="#757575" stroke="#757575" points="1595.77,-654.43 1605.77,-650.93 1595.77,-647.43 1595.77,-654.43"/>
</g>
<!-- client/ui/Checkbox.module.css -->
<g id="node31" class="node">
<title>client/ui/Checkbox.module.css</title>
<path fill="none" stroke="#cfffac" d="M2115.83,-1321.43C2115.83,-1321.43 1932.17,-1321.43 1932.17,-1321.43 1928.33,-1321.43 1924.5,-1317.6 1924.5,-1313.76 1924.5,-1313.76 1924.5,-1306.1 1924.5,-1306.1 1924.5,-1302.26 1928.33,-1298.43 1932.17,-1298.43 1932.17,-1298.43 2115.83,-1298.43 2115.83,-1298.43 2119.67,-1298.43 2123.5,-1302.26 2123.5,-1306.1 2123.5,-1306.1 2123.5,-1313.76 2123.5,-1313.76 2123.5,-1317.6 2119.67,-1321.43 2115.83,-1321.43"/>
<text text-anchor="middle" x="2024" y="-1306.23" font-family="Arial" font-size="14.00" fill="#cfffac">client/ui/Checkbox.module.css</text>
</g>
<!-- client/ui/Checkbox.tsx&#45;&gt;client/ui/Checkbox.module.css -->
<g id="edge53" class="edge">
<title>client/ui/Checkbox.tsx&#45;&gt;client/ui/Checkbox.module.css</title>
<path fill="none" stroke="#757575" d="M1817.68,-1309.93C1847.07,-1309.93 1881.64,-1309.93 1913.94,-1309.93"/>
<polygon fill="#757575" stroke="#757575" points="1914.34,-1313.43 1924.34,-1309.93 1914.34,-1306.43 1914.34,-1313.43"/>
</g>
<!-- client/ui/Collapse.module.css -->
<g id="node32" class="node">
<title>client/ui/Collapse.module.css</title>
<path fill="none" stroke="#cfffac" d="M1503.33,-1450.43C1503.33,-1450.43 1327.67,-1450.43 1327.67,-1450.43 1323.83,-1450.43 1320,-1446.6 1320,-1442.76 1320,-1442.76 1320,-1435.1 1320,-1435.1 1320,-1431.26 1323.83,-1427.43 1327.67,-1427.43 1327.67,-1427.43 1503.33,-1427.43 1503.33,-1427.43 1507.17,-1427.43 1511,-1431.26 1511,-1435.1 1511,-1435.1 1511,-1442.76 1511,-1442.76 1511,-1446.6 1507.17,-1450.43 1503.33,-1450.43"/>
<text text-anchor="middle" x="1415.5" y="-1435.23" font-family="Arial" font-size="14.00" fill="#cfffac">client/ui/Collapse.module.css</text>
</g>
<!-- client/ui/Collapse.tsx&#45;&gt;client/ui/Collapse.module.css -->
<g id="edge54" class="edge">
<title>client/ui/Collapse.tsx&#45;&gt;client/ui/Collapse.module.css</title>
<path fill="none" stroke="#757575" d="M1122.27,-1422.76C1175.28,-1425.69 1249.27,-1429.79 1309.53,-1433.12"/>
<polygon fill="#757575" stroke="#757575" points="1309.67,-1436.64 1319.85,-1433.69 1310.05,-1429.65 1309.67,-1436.64"/>
</g>
<!-- client/ui/Popup.tsx&#45;&gt;client/lib/utils.tsx -->
<g id="edge64" class="edge">
<title>client/ui/Popup.tsx&#45;&gt;client/lib/utils.tsx</title>
<path fill="none" stroke="#757575" d="M1807.24,-1350.97C1831.76,-1348.71 1859.4,-1343.21 1882,-1330.93 1903.31,-1319.36 1898.08,-1303.76 1918,-1289.93 1933.27,-1279.32 1951.72,-1271.07 1968.87,-1264.89"/>
<polygon fill="#757575" stroke="#757575" points="1970.46,-1268.04 1978.78,-1261.49 1968.18,-1261.42 1970.46,-1268.04"/>
</g>
<!-- client/ui/TableFilters.tsx&#45;&gt;client/lib/utils.tsx -->
<g id="edge68" class="edge">
<title>client/ui/TableFilters.tsx&#45;&gt;client/lib/utils.tsx</title>
<path fill="none" stroke="#757575" d="M1493.93,-1241.77C1528.25,-1243.32 1569.13,-1244.98 1606,-1245.93 1729.72,-1249.13 1874.14,-1249.84 1956.46,-1249.96"/>
<polygon fill="#757575" stroke="#757575" points="1956.67,-1253.46 1966.67,-1249.97 1956.67,-1246.46 1956.67,-1253.46"/>
</g>
<!-- client/ui/TableFilters.tsx&#45;&gt;client/ui/Checkbox.tsx -->
<g id="edge69" class="edge">
<title>client/ui/TableFilters.tsx&#45;&gt;client/ui/Checkbox.tsx</title>
<path fill="none" stroke="#757575" d="M1493.52,-1245.76C1518.39,-1249.66 1545.77,-1255.43 1570,-1263.93 1587.27,-1269.99 1588.79,-1277.7 1606,-1283.93 1623.19,-1290.15 1642.16,-1294.97 1660.36,-1298.66"/>
<polygon fill="#757575" stroke="#757575" points="1659.9,-1302.14 1670.38,-1300.6 1661.23,-1295.26 1659.9,-1302.14"/>
</g>
<!-- client/ui/Select.tsx&#45;&gt;client/lib/utils.tsx -->
<g id="edge65" class="edge">
<title>client/ui/Select.tsx&#45;&gt;client/lib/utils.tsx</title>
<path fill="none" stroke="#757575" d="M1478.28,-1404.15C1597.53,-1415.54 1850.49,-1436.54 1882,-1412.93 1927.58,-1378.78 1879.35,-1331.77 1918,-1289.93 1928.59,-1278.47 1942.81,-1270.27 1957.36,-1264.4"/>
<polygon fill="#757575" stroke="#757575" points="1958.76,-1267.62 1966.93,-1260.88 1956.34,-1261.05 1958.76,-1267.62"/>
</g>
<!-- client/ui/Select.tsx&#45;&gt;client/ui/Popup.tsx -->
<g id="edge66" class="edge">
<title>client/ui/Select.tsx&#45;&gt;client/ui/Popup.tsx</title>
<path fill="none" stroke="#757575" d="M1478.3,-1389.03C1533.06,-1381.15 1613.06,-1369.64 1670.76,-1361.33"/>
<polygon fill="#757575" stroke="#757575" points="1671.5,-1364.76 1680.9,-1359.87 1670.51,-1357.83 1671.5,-1364.76"/>
</g>
<!-- client/ui/Select.module.css -->
<g id="node39" class="node">
<title>client/ui/Select.module.css</title>
<path fill="none" stroke="#cfffac" d="M1824.33,-1403.43C1824.33,-1403.43 1663.67,-1403.43 1663.67,-1403.43 1659.83,-1403.43 1656,-1399.6 1656,-1395.76 1656,-1395.76 1656,-1388.1 1656,-1388.1 1656,-1384.26 1659.83,-1380.43 1663.67,-1380.43 1663.67,-1380.43 1824.33,-1380.43 1824.33,-1380.43 1828.17,-1380.43 1832,-1384.26 1832,-1388.1 1832,-1388.1 1832,-1395.76 1832,-1395.76 1832,-1399.6 1828.17,-1403.43 1824.33,-1403.43"/>
<text text-anchor="middle" x="1744" y="-1388.23" font-family="Arial" font-size="14.00" fill="#cfffac">client/ui/Select.module.css</text>
</g>
<!-- client/ui/Select.tsx&#45;&gt;client/ui/Select.module.css -->
<g id="edge67" class="edge">
<title>client/ui/Select.tsx&#45;&gt;client/ui/Select.module.css</title>
<path fill="none" stroke="#757575" d="M1478.3,-1396.79C1525.45,-1395.93 1591.31,-1394.72 1645.55,-1393.72"/>
<polygon fill="#757575" stroke="#757575" points="1645.94,-1397.21 1655.88,-1393.53 1645.82,-1390.22 1645.94,-1397.21"/>
</g>
<!-- knexfile.js -->
<g id="node40" class="node">
<title>knexfile.js</title>
<path fill="none" stroke="#cfffac" d="M2263.33,-248.43C2263.33,-248.43 2202.67,-248.43 2202.67,-248.43 2198.83,-248.43 2195,-244.6 2195,-240.76 2195,-240.76 2195,-233.1 2195,-233.1 2195,-229.26 2198.83,-225.43 2202.67,-225.43 2202.67,-225.43 2263.33,-225.43 2263.33,-225.43 2267.17,-225.43 2271,-229.26 2271,-233.1 2271,-233.1 2271,-240.76 2271,-240.76 2271,-244.6 2267.17,-248.43 2263.33,-248.43"/>
<text text-anchor="middle" x="2233" y="-233.23" font-family="Arial" font-size="14.00" fill="#cfffac">knexfile.js</text>
</g>
<!-- lib/devUtils.js -->
<g id="node41" class="node">
<title>lib/devUtils.js</title>
<path fill="none" stroke="#cfffac" d="M2272.83,-207.43C2272.83,-207.43 2193.17,-207.43 2193.17,-207.43 2189.33,-207.43 2185.5,-203.6 2185.5,-199.76 2185.5,-199.76 2185.5,-192.1 2185.5,-192.1 2185.5,-188.26 2189.33,-184.43 2193.17,-184.43 2193.17,-184.43 2272.83,-184.43 2272.83,-184.43 2276.67,-184.43 2280.5,-188.26 2280.5,-192.1 2280.5,-192.1 2280.5,-199.76 2280.5,-199.76 2280.5,-203.6 2276.67,-207.43 2272.83,-207.43"/>
<text text-anchor="middle" x="2233" y="-192.23" font-family="Arial" font-size="14.00" fill="#cfffac">lib/devUtils.js</text>
</g>
<!-- lib/graphql/index.ts -->
<g id="node42" class="node">
<title>lib/graphql/index.ts</title>
<path fill="none" stroke="#c6c5fe" d="M1108.83,-144.43C1108.83,-144.43 995.17,-144.43 995.17,-144.43 991.33,-144.43 987.5,-140.6 987.5,-136.76 987.5,-136.76 987.5,-129.1 987.5,-129.1 987.5,-125.26 991.33,-121.43 995.17,-121.43 995.17,-121.43 1108.83,-121.43 1108.83,-121.43 1112.67,-121.43 1116.5,-125.26 1116.5,-129.1 1116.5,-129.1 1116.5,-136.76 1116.5,-136.76 1116.5,-140.6 1112.67,-144.43 1108.83,-144.43"/>
<text text-anchor="middle" x="1052" y="-129.23" font-family="Arial" font-size="14.00" fill="#c6c5fe">lib/graphql/index.ts</text>
</g>
<!-- lib/utils.ts -->
<g id="node43" class="node">
<title>lib/utils.ts</title>
<path fill="none" stroke="#c6c5fe" d="M2052.33,-227.43C2052.33,-227.43 1995.67,-227.43 1995.67,-227.43 1991.83,-227.43 1988,-223.6 1988,-219.76 1988,-219.76 1988,-212.1 1988,-212.1 1988,-208.26 1991.83,-204.43 1995.67,-204.43 1995.67,-204.43 2052.33,-204.43 2052.33,-204.43 2056.17,-204.43 2060,-208.26 2060,-212.1 2060,-212.1 2060,-219.76 2060,-219.76 2060,-223.6 2056.17,-227.43 2052.33,-227.43"/>
<text text-anchor="middle" x="2024" y="-212.23" font-family="Arial" font-size="14.00" fill="#c6c5fe">lib/utils.ts</text>
</g>
<!-- lib/graphql/index.ts&#45;&gt;lib/utils.ts -->
<g id="edge70" class="edge">
<title>lib/graphql/index.ts&#45;&gt;lib/utils.ts</title>
<path fill="none" stroke="#757575" d="M1116.71,-125.79C1241.06,-111.99 1512.17,-82.58 1606,-77.93 1728.52,-71.85 1768.42,-31.6 1882,-77.93 1940.89,-101.95 1988.52,-163.72 2010.26,-195.85"/>
<polygon fill="#757575" stroke="#757575" points="2007.49,-198.01 2015.92,-204.43 2013.33,-194.15 2007.49,-198.01"/>
</g>
<!-- models/Todo.ts -->
<g id="node44" class="node">
<title>models/Todo.ts</title>
<path fill="none" stroke="#ff6c60" d="M1461.83,-147.43C1461.83,-147.43 1369.17,-147.43 1369.17,-147.43 1365.33,-147.43 1361.5,-143.6 1361.5,-139.76 1361.5,-139.76 1361.5,-132.1 1361.5,-132.1 1361.5,-128.26 1365.33,-124.43 1369.17,-124.43 1369.17,-124.43 1461.83,-124.43 1461.83,-124.43 1465.67,-124.43 1469.5,-128.26 1469.5,-132.1 1469.5,-132.1 1469.5,-139.76 1469.5,-139.76 1469.5,-143.6 1465.67,-147.43 1461.83,-147.43"/>
<text text-anchor="middle" x="1415.5" y="-132.23" font-family="Arial" font-size="14.00" fill="#ff6c60">models/Todo.ts</text>
</g>
<!-- lib/graphql/index.ts&#45;&gt;models/Todo.ts -->
<g id="edge71" class="edge">
<title>lib/graphql/index.ts&#45;&gt;models/Todo.ts</title>
<path fill="none" stroke="#757575" d="M1116.8,-133.46C1182.79,-134.01 1285.24,-134.86 1351.09,-135.4"/>
<polygon fill="#757575" stroke="#757575" points="1351.3,-138.91 1361.33,-135.49 1351.36,-131.91 1351.3,-138.91"/>
</g>
<!-- lib/utils.ts&#45;&gt;lib/sharedUtils.ts -->
<g id="edge76" class="edge">
<title>lib/utils.ts&#45;&gt;lib/sharedUtils.ts</title>
<path fill="none" stroke="#757575" d="M2028.95,-227.57C2054.06,-301.55 2191.38,-706.23 2224.71,-804.45"/>
<polygon fill="#757575" stroke="#757575" points="2221.48,-805.82 2228.01,-814.17 2228.11,-803.57 2221.48,-805.82"/>
</g>
<!-- lib/utils.ts&#45;&gt;knexfile.js -->
<g id="edge74" class="edge">
<title>lib/utils.ts&#45;&gt;knexfile.js</title>
<path fill="none" stroke="#757575" d="M2060.11,-219.49C2094.38,-222.97 2146.75,-228.28 2184.68,-232.13"/>
<polygon fill="#757575" stroke="#757575" points="2184.66,-235.65 2194.96,-233.17 2185.37,-228.68 2184.66,-235.65"/>
</g>
<!-- lib/utils.ts&#45;&gt;lib/devUtils.js -->
<g id="edge75" class="edge">
<title>lib/utils.ts&#45;&gt;lib/devUtils.js</title>
<path fill="none" stroke="#757575" d="M2060.11,-212.54C2091.64,-209.49 2138.49,-204.97 2175.31,-201.41"/>
<polygon fill="#757575" stroke="#757575" points="2175.8,-204.88 2185.41,-200.43 2175.12,-197.91 2175.8,-204.88"/>
</g>
<!-- models/Todo.ts&#45;&gt;lib/utils.ts -->
<g id="edge80" class="edge">
<title>models/Todo.ts&#45;&gt;lib/utils.ts</title>
<path fill="none" stroke="#757575" d="M1469.54,-133.87C1556.67,-131.61 1735.09,-131.81 1882,-162.93 1919.99,-170.98 1961.35,-187.52 1989.39,-200"/>
<polygon fill="#757575" stroke="#757575" points="1988.17,-203.29 1998.72,-204.22 1991.05,-196.91 1988.17,-203.29"/>
</g>
<!-- models/User.ts -->
<g id="node49" class="node">
<title>models/User.ts</title>
<path fill="none" stroke="#ff6c60" d="M1789.83,-110.43C1789.83,-110.43 1698.17,-110.43 1698.17,-110.43 1694.33,-110.43 1690.5,-106.6 1690.5,-102.76 1690.5,-102.76 1690.5,-95.1 1690.5,-95.1 1690.5,-91.26 1694.33,-87.43 1698.17,-87.43 1698.17,-87.43 1789.83,-87.43 1789.83,-87.43 1793.67,-87.43 1797.5,-91.26 1797.5,-95.1 1797.5,-95.1 1797.5,-102.76 1797.5,-102.76 1797.5,-106.6 1793.67,-110.43 1789.83,-110.43"/>
<text text-anchor="middle" x="1744" y="-95.23" font-family="Arial" font-size="14.00" fill="#ff6c60">models/User.ts</text>
</g>
<!-- models/Todo.ts&#45;&gt;models/User.ts -->
<g id="edge81" class="edge">
<title>models/Todo.ts&#45;&gt;models/User.ts</title>
<path fill="none" stroke="#757575" d="M1469.68,-124.76C1527.25,-116.2 1618.99,-105.7 1680.09,-100.6"/>
<polygon fill="#757575" stroke="#757575" points="1680.69,-104.07 1690.38,-99.77 1680.13,-97.09 1680.69,-104.07"/>
</g>
<!-- lib/ssrRoutes.ts -->
<g id="node45" class="node">
<title>lib/ssrRoutes.ts</title>
<path fill="none" stroke="#c6c5fe" d="M1098.83,-265.43C1098.83,-265.43 1005.17,-265.43 1005.17,-265.43 1001.33,-265.43 997.5,-261.6 997.5,-257.76 997.5,-257.76 997.5,-250.1 997.5,-250.1 997.5,-246.26 1001.33,-242.43 1005.17,-242.43 1005.17,-242.43 1098.83,-242.43 1098.83,-242.43 1102.67,-242.43 1106.5,-246.26 1106.5,-250.1 1106.5,-250.1 1106.5,-257.76 1106.5,-257.76 1106.5,-261.6 1102.67,-265.43 1098.83,-265.43"/>
<text text-anchor="middle" x="1052" y="-250.23" font-family="Arial" font-size="14.00" fill="#c6c5fe">lib/ssrRoutes.ts</text>
</g>
<!-- lib/ssrRoutes.ts&#45;&gt;lib/utils.ts -->
<g id="edge72" class="edge">
<title>lib/ssrRoutes.ts&#45;&gt;lib/utils.ts</title>
<path fill="none" stroke="#757575" d="M1106.89,-253.68C1239.08,-252.77 1589.95,-248.63 1882,-229.93 1914.11,-227.87 1950.21,-224.26 1977.85,-221.23"/>
<polygon fill="#757575" stroke="#757575" points="1978.45,-224.68 1988,-220.09 1977.67,-217.72 1978.45,-224.68"/>
</g>
<!-- lib/ssrRoutes.ts&#45;&gt;models/Todo.ts -->
<g id="edge73" class="edge">
<title>lib/ssrRoutes.ts&#45;&gt;models/Todo.ts</title>
<path fill="none" stroke="#757575" d="M1088.32,-242.4C1154.33,-220.86 1296.29,-174.52 1369.22,-150.71"/>
<polygon fill="#757575" stroke="#757575" points="1370.62,-153.94 1379.04,-147.51 1368.44,-147.28 1370.62,-153.94"/>
</g>
<!-- main/index.ts -->
<g id="node46" class="node">
<title>main/index.ts</title>
<path fill="none" stroke="#c6c5fe" d="M322.33,-205.43C322.33,-205.43 240.67,-205.43 240.67,-205.43 236.83,-205.43 233,-201.6 233,-197.76 233,-197.76 233,-190.1 233,-190.1 233,-186.26 236.83,-182.43 240.67,-182.43 240.67,-182.43 322.33,-182.43 322.33,-182.43 326.17,-182.43 330,-186.26 330,-190.1 330,-190.1 330,-197.76 330,-197.76 330,-201.6 326.17,-205.43 322.33,-205.43"/>
<text text-anchor="middle" x="281.5" y="-190.23" font-family="Arial" font-size="14.00" fill="#c6c5fe">main/index.ts</text>
</g>
<!-- main/index.ts&#45;&gt;lib/utils.ts -->
<g id="edge77" class="edge">
<title>main/index.ts&#45;&gt;lib/utils.ts</title>
<path fill="none" stroke="#757575" d="M298.93,-205.48C356.32,-244.63 554.23,-369.93 737,-369.93 737,-369.93 737,-369.93 1416.5,-369.93 1512.63,-369.93 1861.65,-327.95 1882,-319.93 1931.54,-300.42 1979.26,-258.96 2004.48,-234.7"/>
<polygon fill="#757575" stroke="#757575" points="2007.16,-236.97 2011.86,-227.47 2002.26,-231.97 2007.16,-236.97"/>
</g>
<!-- models/index.ts -->
<g id="node47" class="node">
<title>models/index.ts</title>
<path fill="none" stroke="#c6c5fe" d="M1099.83,-103.43C1099.83,-103.43 1004.17,-103.43 1004.17,-103.43 1000.33,-103.43 996.5,-99.6 996.5,-95.76 996.5,-95.76 996.5,-88.1 996.5,-88.1 996.5,-84.26 1000.33,-80.43 1004.17,-80.43 1004.17,-80.43 1099.83,-80.43 1099.83,-80.43 1103.67,-80.43 1107.5,-84.26 1107.5,-88.1 1107.5,-88.1 1107.5,-95.76 1107.5,-95.76 1107.5,-99.6 1103.67,-103.43 1099.83,-103.43"/>
<text text-anchor="middle" x="1052" y="-88.23" font-family="Arial" font-size="14.00" fill="#c6c5fe">models/index.ts</text>
</g>
<!-- main/index.ts&#45;&gt;models/index.ts -->
<g id="edge78" class="edge">
<title>main/index.ts&#45;&gt;models/index.ts</title>
<path fill="none" stroke="#757575" d="M330,-183.92C348.66,-180.18 370.28,-176.08 390,-172.93 606.27,-138.36 661.56,-138.13 879,-111.93 914.42,-107.66 953.95,-103.05 986.18,-99.34"/>
<polygon fill="#757575" stroke="#757575" points="986.84,-102.78 996.37,-98.16 986.04,-95.83 986.84,-102.78"/>
</g>
<!-- routes/index.ts -->
<g id="node48" class="node">
<title>routes/index.ts</title>
<path fill="none" stroke="#c6c5fe" d="M537.83,-205.43C537.83,-205.43 449.17,-205.43 449.17,-205.43 445.33,-205.43 441.5,-201.6 441.5,-197.76 441.5,-197.76 441.5,-190.1 441.5,-190.1 441.5,-186.26 445.33,-182.43 449.17,-182.43 449.17,-182.43 537.83,-182.43 537.83,-182.43 541.67,-182.43 545.5,-186.26 545.5,-190.1 545.5,-190.1 545.5,-197.76 545.5,-197.76 545.5,-201.6 541.67,-205.43 537.83,-205.43"/>
<text text-anchor="middle" x="493.5" y="-190.23" font-family="Arial" font-size="14.00" fill="#c6c5fe">routes/index.ts</text>
</g>
<!-- main/index.ts&#45;&gt;routes/index.ts -->
<g id="edge79" class="edge">
<title>main/index.ts&#45;&gt;routes/index.ts</title>
<path fill="none" stroke="#757575" d="M330.15,-193.93C360.07,-193.93 398.95,-193.93 431.16,-193.93"/>
<polygon fill="#757575" stroke="#757575" points="431.37,-197.43 441.37,-193.93 431.37,-190.43 431.37,-197.43"/>
</g>
<!-- models/index.ts&#45;&gt;models/Todo.ts -->
<g id="edge84" class="edge">
<title>models/index.ts&#45;&gt;models/Todo.ts</title>
<path fill="none" stroke="#757575" d="M1107.63,-98.14C1141.45,-102.02 1185.76,-107.16 1225,-111.93 1267.13,-117.05 1314.49,-123.05 1351.33,-127.77"/>
<polygon fill="#757575" stroke="#757575" points="1351.06,-131.26 1361.42,-129.06 1351.95,-124.32 1351.06,-131.26"/>
</g>
<!-- models/index.ts&#45;&gt;models/User.ts -->
<g id="edge85" class="edge">
<title>models/index.ts&#45;&gt;models/User.ts</title>
<path fill="none" stroke="#757575" d="M1107.72,-92.49C1234.16,-93.77 1545.99,-96.93 1680.06,-98.29"/>
<polygon fill="#757575" stroke="#757575" points="1680.14,-101.79 1690.17,-98.39 1680.21,-94.79 1680.14,-101.79"/>
</g>
<!-- routes/index.ts&#45;&gt;lib/graphql/index.ts -->
<g id="edge86" class="edge">
<title>routes/index.ts&#45;&gt;lib/graphql/index.ts</title>
<path fill="none" stroke="#757575" d="M545.79,-187.91C571.9,-184.87 604.13,-181.15 633,-177.93 753.47,-164.49 893.55,-149.55 977.09,-140.71"/>
<polygon fill="#757575" stroke="#757575" points="977.67,-144.17 987.25,-139.64 976.94,-137.21 977.67,-144.17"/>
</g>
<!-- routes/index.ts&#45;&gt;lib/utils.ts -->
<g id="edge87" class="edge">
<title>routes/index.ts&#45;&gt;lib/utils.ts</title>
<path fill="none" stroke="#757575" d="M515.25,-182.38C587.06,-143.52 832.6,-19.93 1051,-19.93 1051,-19.93 1051,-19.93 1416.5,-19.93 1623.88,-19.93 1696.61,41 1882,-51.93 1945.51,-83.77 1992.17,-158.13 2012.19,-194.77"/>
<polygon fill="#757575" stroke="#757575" points="2009.33,-196.85 2017.12,-204.03 2015.51,-193.56 2009.33,-196.85"/>
</g>
<!-- routes/session.ts -->
<g id="node50" class="node">
<title>routes/session.ts</title>
<path fill="none" stroke="#c6c5fe" d="M789.33,-324.43C789.33,-324.43 686.67,-324.43 686.67,-324.43 682.83,-324.43 679,-320.6 679,-316.76 679,-316.76 679,-309.1 679,-309.1 679,-305.26 682.83,-301.43 686.67,-301.43 686.67,-301.43 789.33,-301.43 789.33,-301.43 793.17,-301.43 797,-305.26 797,-309.1 797,-309.1 797,-316.76 797,-316.76 797,-320.6 793.17,-324.43 789.33,-324.43"/>
<text text-anchor="middle" x="738" y="-309.23" font-family="Arial" font-size="14.00" fill="#c6c5fe">routes/session.ts</text>
</g>
<!-- routes/index.ts&#45;&gt;routes/session.ts -->
<g id="edge88" class="edge">
<title>routes/index.ts&#45;&gt;routes/session.ts</title>
<path fill="none" stroke="#757575" d="M512.35,-205.53C538.25,-222.05 588.06,-252.7 633,-273.93 652.01,-282.91 673.68,-291.31 692.31,-298"/>
<polygon fill="#757575" stroke="#757575" points="691.14,-301.3 701.74,-301.34 693.48,-294.7 691.14,-301.3"/>
</g>
<!-- routes/ssr.ts -->
<g id="node51" class="node">
<title>routes/ssr.ts</title>
<path fill="none" stroke="#c6c5fe" d="M774.83,-265.43C774.83,-265.43 701.17,-265.43 701.17,-265.43 697.33,-265.43 693.5,-261.6 693.5,-257.76 693.5,-257.76 693.5,-250.1 693.5,-250.1 693.5,-246.26 697.33,-242.43 701.17,-242.43 701.17,-242.43 774.83,-242.43 774.83,-242.43 778.67,-242.43 782.5,-246.26 782.5,-250.1 782.5,-250.1 782.5,-257.76 782.5,-257.76 782.5,-261.6 778.67,-265.43 774.83,-265.43"/>
<text text-anchor="middle" x="738" y="-250.23" font-family="Arial" font-size="14.00" fill="#c6c5fe">routes/ssr.ts</text>
</g>
<!-- routes/index.ts&#45;&gt;routes/ssr.ts -->
<g id="edge89" class="edge">
<title>routes/index.ts&#45;&gt;routes/ssr.ts</title>
<path fill="none" stroke="#757575" d="M541.26,-205.5C581.9,-215.56 640.78,-230.12 683.34,-240.65"/>
<polygon fill="#757575" stroke="#757575" points="682.7,-244.1 693.24,-243.1 684.38,-237.3 682.7,-244.1"/>
</g>
<!-- routes/todos.ts -->
<g id="node52" class="node">
<title>routes/todos.ts</title>
<path fill="none" stroke="#c6c5fe" d="M1096.83,-185.43C1096.83,-185.43 1007.17,-185.43 1007.17,-185.43 1003.33,-185.43 999.5,-181.6 999.5,-177.76 999.5,-177.76 999.5,-170.1 999.5,-170.1 999.5,-166.26 1003.33,-162.43 1007.17,-162.43 1007.17,-162.43 1096.83,-162.43 1096.83,-162.43 1100.67,-162.43 1104.5,-166.26 1104.5,-170.1 1104.5,-170.1 1104.5,-177.76 1104.5,-177.76 1104.5,-181.6 1100.67,-185.43 1096.83,-185.43"/>
<text text-anchor="middle" x="1052" y="-170.23" font-family="Arial" font-size="14.00" fill="#c6c5fe">routes/todos.ts</text>
</g>
<!-- routes/index.ts&#45;&gt;routes/todos.ts -->
<g id="edge90" class="edge">
<title>routes/index.ts&#45;&gt;routes/todos.ts</title>
<path fill="none" stroke="#757575" d="M545.86,-192.08C648.53,-188.39 878.75,-180.12 989.36,-176.15"/>
<polygon fill="#757575" stroke="#757575" points="989.5,-179.64 999.36,-175.79 989.24,-172.65 989.5,-179.64"/>
</g>
<!-- routes/users.ts -->
<g id="node53" class="node">
<title>routes/users.ts</title>
<path fill="none" stroke="#c6c5fe" d="M1460.33,-227.43C1460.33,-227.43 1370.67,-227.43 1370.67,-227.43 1366.83,-227.43 1363,-223.6 1363,-219.76 1363,-219.76 1363,-212.1 1363,-212.1 1363,-208.26 1366.83,-204.43 1370.67,-204.43 1370.67,-204.43 1460.33,-204.43 1460.33,-204.43 1464.17,-204.43 1468,-208.26 1468,-212.1 1468,-212.1 1468,-219.76 1468,-219.76 1468,-223.6 1464.17,-227.43 1460.33,-227.43"/>
<text text-anchor="middle" x="1415.5" y="-212.23" font-family="Arial" font-size="14.00" fill="#c6c5fe">routes/users.ts</text>
</g>
<!-- routes/index.ts&#45;&gt;routes/users.ts -->
<g id="edge91" class="edge">
<title>routes/index.ts&#45;&gt;routes/users.ts</title>
<path fill="none" stroke="#757575" d="M545.79,-196.43C571.9,-197.63 604.13,-199.01 633,-199.93 900.75,-208.47 1220.26,-213.35 1352.5,-215.14"/>
<polygon fill="#757575" stroke="#757575" points="1352.78,-218.65 1362.82,-215.28 1352.87,-211.65 1352.78,-218.65"/>
</g>
<!-- models/User.ts&#45;&gt;lib/utils.ts -->
<g id="edge82" class="edge">
<title>models/User.ts&#45;&gt;lib/utils.ts</title>
<path fill="none" stroke="#757575" d="M1797.73,-104.11C1823.77,-107.86 1855.25,-114.24 1882,-124.93 1927.89,-143.28 1974.88,-177.27 2001.36,-198.11"/>
<polygon fill="#757575" stroke="#757575" points="1999.21,-200.88 2009.2,-204.38 2003.58,-195.41 1999.21,-200.88"/>
</g>
<!-- models/User.ts&#45;&gt;models/Todo.ts -->
<g id="edge83" class="edge">
<title>models/User.ts&#45;&gt;models/Todo.ts</title>
<path fill="none" stroke="#757575" d="M1690.38,-110.01C1633.04,-118.56 1541.31,-129.07 1480.01,-134.21"/>
<polygon fill="#757575" stroke="#757575" points="1479.37,-130.75 1469.68,-135.04 1479.93,-137.72 1479.37,-130.75"/>
</g>
<!-- routes/session.ts&#45;&gt;lib/utils.ts -->
<g id="edge92" class="edge">
<title>routes/session.ts&#45;&gt;lib/utils.ts</title>
<path fill="none" stroke="#757575" d="M797.11,-320.59C967.43,-341.08 1478.78,-388.71 1882,-281.93 1923.31,-270.99 1967.39,-248.38 1995.05,-232.7"/>
<polygon fill="#757575" stroke="#757575" points="1996.85,-235.7 2003.77,-227.67 1993.36,-229.63 1996.85,-235.7"/>
</g>
<!-- routes/ssr.ts&#45;&gt;lib/utils.ts -->
<g id="edge94" class="edge">
<title>routes/ssr.ts&#45;&gt;lib/utils.ts</title>
<path fill="none" stroke="#757575" d="M782.65,-261.79C810.19,-266.35 846.55,-271.62 879,-273.93 1323.77,-305.54 1440.52,-313.54 1882,-250.93 1914.58,-246.31 1950.58,-237.31 1978.05,-229.59"/>
<polygon fill="#757575" stroke="#757575" points="1979.1,-232.93 1987.76,-226.81 1977.18,-226.2 1979.1,-232.93"/>
</g>
<!-- routes/ssr.ts&#45;&gt;lib/ssrRoutes.ts -->
<g id="edge93" class="edge">
<title>routes/ssr.ts&#45;&gt;lib/ssrRoutes.ts</title>
<path fill="none" stroke="#757575" d="M782.71,-253.93C835.9,-253.93 926.14,-253.93 987.12,-253.93"/>
<polygon fill="#757575" stroke="#757575" points="987.39,-257.43 997.39,-253.93 987.39,-250.43 987.39,-257.43"/>
</g>
<!-- routes/todos.ts&#45;&gt;lib/utils.ts -->
<g id="edge95" class="edge">
<title>routes/todos.ts&#45;&gt;lib/utils.ts</title>
<path fill="none" stroke="#757575" d="M1104.74,-175.93C1197.82,-179.56 1399.71,-187.52 1570,-194.93 1719.05,-201.41 1895.64,-209.8 1977.34,-213.73"/>
<polygon fill="#757575" stroke="#757575" points="1977.6,-217.24 1987.76,-214.23 1977.94,-210.25 1977.6,-217.24"/>
</g>
<!-- routes/todos.ts&#45;&gt;models/Todo.ts -->
<g id="edge96" class="edge">
<title>routes/todos.ts&#45;&gt;models/Todo.ts</title>
<path fill="none" stroke="#757575" d="M1104.79,-168.49C1169.83,-161.65 1281.34,-149.93 1351.32,-142.57"/>
<polygon fill="#757575" stroke="#757575" points="1351.75,-146.05 1361.33,-141.52 1351.02,-139.08 1351.75,-146.05"/>
</g>
<!-- routes/users.ts&#45;&gt;lib/utils.ts -->
<g id="edge97" class="edge">
<title>routes/users.ts&#45;&gt;lib/utils.ts</title>
<path fill="none" stroke="#757575" d="M1468.21,-215.93C1584.9,-215.93 1867.1,-215.93 1977.57,-215.93"/>
<polygon fill="#757575" stroke="#757575" points="1977.72,-219.43 1987.72,-215.93 1977.72,-212.43 1977.72,-219.43"/>
</g>
<!-- routes/users.ts&#45;&gt;models/User.ts -->
<g id="edge98" class="edge">
<title>routes/users.ts&#45;&gt;models/User.ts</title>
<path fill="none" stroke="#757575" d="M1448.7,-204.39C1508.07,-183.11 1634.76,-137.72 1700.87,-114.03"/>
<polygon fill="#757575" stroke="#757575" points="1702.33,-117.22 1710.56,-110.56 1699.96,-110.63 1702.33,-117.22"/>
</g>
</g>
</svg>
