<?xml version="1.0" encoding="UTF-8" standalone="no"?>
<!DOCTYPE svg PUBLIC "-//W3C//DTD SVG 1.1//EN"
 "http://www.w3.org/Graphics/SVG/1.1/DTD/svg11.dtd">
<!-- Generated by graphviz version 2.43.0 (0)
 -->
<!-- Title: G Pages: 1 -->
<svg width="2089pt" height="1350pt"
 viewBox="0.00 0.00 2089.20 1349.83" xmlns="http://www.w3.org/2000/svg" xmlns:xlink="http://www.w3.org/1999/xlink">
<g id="graph0" class="graph" transform="scale(1 1) rotate(0) translate(21.6 1328.23)">
<title>G</title>
<polygon fill="#111111" stroke="transparent" points="-21.6,21.6 -21.6,-1328.23 2067.6,-1328.23 2067.6,21.6 -21.6,21.6"/>
<!-- client/common/layout.module.css -->
<g id="node1" class="node">
<title>client/common/layout.module.css</title>
<path fill="none" stroke="#cfffac" d="M1356.33,-1027.13C1356.33,-1027.13 1153.67,-1027.13 1153.67,-1027.13 1149.83,-1027.13 1146,-1023.3 1146,-1019.46 1146,-1019.46 1146,-1011.8 1146,-1011.8 1146,-1007.96 1149.83,-1004.13 1153.67,-1004.13 1153.67,-1004.13 1356.33,-1004.13 1356.33,-1004.13 1360.17,-1004.13 1364,-1007.96 1364,-1011.8 1364,-1011.8 1364,-1019.46 1364,-1019.46 1364,-1023.3 1360.17,-1027.13 1356.33,-1027.13"/>
<text text-anchor="middle" x="1255" y="-1011.93" font-family="Arial" font-size="14.00" fill="#cfffac">client/common/layout.module.css</text>
</g>
<!-- client/common/layout.tsx -->
<g id="node2" class="node">
<title>client/common/layout.tsx</title>
<path fill="none" stroke="#c6c5fe" d="M1001.83,-1065.13C1001.83,-1065.13 851.17,-1065.13 851.17,-1065.13 847.33,-1065.13 843.5,-1061.3 843.5,-1057.46 843.5,-1057.46 843.5,-1049.8 843.5,-1049.8 843.5,-1045.96 847.33,-1042.13 851.17,-1042.13 851.17,-1042.13 1001.83,-1042.13 1001.83,-1042.13 1005.67,-1042.13 1009.5,-1045.96 1009.5,-1049.8 1009.5,-1049.8 1009.5,-1057.46 1009.5,-1057.46 1009.5,-1061.3 1005.67,-1065.13 1001.83,-1065.13"/>
<text text-anchor="middle" x="926.5" y="-1049.93" font-family="Arial" font-size="14.00" fill="#c6c5fe">client/common/layout.tsx</text>
</g>
<!-- client/common/layout.tsx&#45;&gt;client/common/layout.module.css -->
<g id="edge1" class="edge">
<title>client/common/layout.tsx&#45;&gt;client/common/layout.module.css</title>
<path fill="none" stroke="#757575" d="M1009.89,-1044.04C1050.81,-1039.28 1100.81,-1033.46 1144.87,-1028.33"/>
<polygon fill="#757575" stroke="#757575" points="1145.52,-1031.78 1155.05,-1027.15 1144.71,-1024.83 1145.52,-1031.78"/>
</g>
<!-- client/globalStore/store.ts -->
<g id="node3" class="node">
<title>client/globalStore/store.ts</title>
<path fill="none" stroke="#c6c5fe" d="M1331.33,-986.13C1331.33,-986.13 1178.67,-986.13 1178.67,-986.13 1174.83,-986.13 1171,-982.3 1171,-978.46 1171,-978.46 1171,-970.8 1171,-970.8 1171,-966.96 1174.83,-963.13 1178.67,-963.13 1178.67,-963.13 1331.33,-963.13 1331.33,-963.13 1335.17,-963.13 1339,-966.96 1339,-970.8 1339,-970.8 1339,-978.46 1339,-978.46 1339,-982.3 1335.17,-986.13 1331.33,-986.13"/>
<text text-anchor="middle" x="1255" y="-970.93" font-family="Arial" font-size="14.00" fill="#c6c5fe">client/globalStore/store.ts</text>
</g>
<!-- client/common/layout.tsx&#45;&gt;client/globalStore/store.ts -->
<g id="edge2" class="edge">
<title>client/common/layout.tsx&#45;&gt;client/globalStore/store.ts</title>
<path fill="none" stroke="#757575" d="M1009.84,-1053.2C1033.79,-1050.4 1059.33,-1044.67 1081,-1033.63 1101.73,-1023.07 1096.39,-1006.42 1117,-995.63 1130.47,-988.58 1145.63,-983.73 1160.83,-980.43"/>
<polygon fill="#757575" stroke="#757575" points="1161.66,-983.83 1170.8,-978.47 1160.32,-976.96 1161.66,-983.83"/>
</g>
<!-- client/lib/utils.tsx -->
<g id="node4" class="node">
<title>client/lib/utils.tsx</title>
<path fill="none" stroke="#c6c5fe" d="M1825.83,-887.13C1825.83,-887.13 1727.17,-887.13 1727.17,-887.13 1723.33,-887.13 1719.5,-883.3 1719.5,-879.46 1719.5,-879.46 1719.5,-871.8 1719.5,-871.8 1719.5,-867.96 1723.33,-864.13 1727.17,-864.13 1727.17,-864.13 1825.83,-864.13 1825.83,-864.13 1829.67,-864.13 1833.5,-867.96 1833.5,-871.8 1833.5,-871.8 1833.5,-879.46 1833.5,-879.46 1833.5,-883.3 1829.67,-887.13 1825.83,-887.13"/>
<text text-anchor="middle" x="1776.5" y="-871.93" font-family="Arial" font-size="14.00" fill="#c6c5fe">client/lib/utils.tsx</text>
</g>
<!-- client/common/layout.tsx&#45;&gt;client/lib/utils.tsx -->
<g id="edge3" class="edge">
<title>client/common/layout.tsx&#45;&gt;client/lib/utils.tsx</title>
<path fill="none" stroke="#757575" d="M1009.54,-1063.29C1147.4,-1075.83 1431.03,-1085.55 1641,-985.63 1688.68,-962.94 1734.04,-919.85 1757.96,-894.86"/>
<polygon fill="#757575" stroke="#757575" points="1760.65,-897.12 1764.95,-887.44 1755.55,-892.32 1760.65,-897.12"/>
</g>
<!-- client/ui/Notifications.tsx -->
<g id="node5" class="node">
<title>client/ui/Notifications.tsx</title>
<path fill="none" stroke="#c6c5fe" d="M1327.83,-1107.13C1327.83,-1107.13 1182.17,-1107.13 1182.17,-1107.13 1178.33,-1107.13 1174.5,-1103.3 1174.5,-1099.46 1174.5,-1099.46 1174.5,-1091.8 1174.5,-1091.8 1174.5,-1087.96 1178.33,-1084.13 1182.17,-1084.13 1182.17,-1084.13 1327.83,-1084.13 1327.83,-1084.13 1331.67,-1084.13 1335.5,-1087.96 1335.5,-1091.8 1335.5,-1091.8 1335.5,-1099.46 1335.5,-1099.46 1335.5,-1103.3 1331.67,-1107.13 1327.83,-1107.13"/>
<text text-anchor="middle" x="1255" y="-1091.93" font-family="Arial" font-size="14.00" fill="#c6c5fe">client/ui/Notifications.tsx</text>
</g>
<!-- client/common/layout.tsx&#45;&gt;client/ui/Notifications.tsx -->
<g id="edge4" class="edge">
<title>client/common/layout.tsx&#45;&gt;client/ui/Notifications.tsx</title>
<path fill="none" stroke="#757575" d="M1009.89,-1064.23C1056.98,-1070.29 1116.08,-1077.89 1164.33,-1084.1"/>
<polygon fill="#757575" stroke="#757575" points="1164.09,-1087.59 1174.46,-1085.4 1164.98,-1080.65 1164.09,-1087.59"/>
</g>
<!-- client/globalStore/store.ts&#45;&gt;client/lib/utils.tsx -->
<g id="edge9" class="edge">
<title>client/globalStore/store.ts&#45;&gt;client/lib/utils.tsx</title>
<path fill="none" stroke="#757575" d="M1339.14,-983.1C1418.52,-988.44 1540.58,-989.39 1641,-958.63 1685.08,-945.13 1729.23,-913.6 1754.38,-893.52"/>
<polygon fill="#757575" stroke="#757575" points="1756.6,-896.22 1762.15,-887.19 1752.18,-890.79 1756.6,-896.22"/>
</g>
<!-- client/lib/context.tsx -->
<g id="node13" class="node">
<title>client/lib/context.tsx</title>
<path fill="none" stroke="#cfffac" d="M2038.33,-1005.13C2038.33,-1005.13 1919.67,-1005.13 1919.67,-1005.13 1915.83,-1005.13 1912,-1001.3 1912,-997.46 1912,-997.46 1912,-989.8 1912,-989.8 1912,-985.96 1915.83,-982.13 1919.67,-982.13 1919.67,-982.13 2038.33,-982.13 2038.33,-982.13 2042.17,-982.13 2046,-985.96 2046,-989.8 2046,-989.8 2046,-997.46 2046,-997.46 2046,-1001.3 2042.17,-1005.13 2038.33,-1005.13"/>
<text text-anchor="middle" x="1979" y="-989.93" font-family="Arial" font-size="14.00" fill="#cfffac">client/lib/context.tsx</text>
</g>
<!-- client/lib/utils.tsx&#45;&gt;client/lib/context.tsx -->
<g id="edge10" class="edge">
<title>client/lib/utils.tsx&#45;&gt;client/lib/context.tsx</title>
<path fill="none" stroke="#757575" d="M1797.09,-887.16C1832.73,-908.13 1908.28,-952.6 1949.58,-976.9"/>
<polygon fill="#757575" stroke="#757575" points="1947.94,-980 1958.33,-982.05 1951.49,-973.97 1947.94,-980"/>
</g>
<!-- lib/sharedUtils.ts -->
<g id="node14" class="node">
<title>lib/sharedUtils.ts</title>
<path fill="none" stroke="#cfffac" d="M2029.33,-769.13C2029.33,-769.13 1928.67,-769.13 1928.67,-769.13 1924.83,-769.13 1921,-765.3 1921,-761.46 1921,-761.46 1921,-753.8 1921,-753.8 1921,-749.96 1924.83,-746.13 1928.67,-746.13 1928.67,-746.13 2029.33,-746.13 2029.33,-746.13 2033.17,-746.13 2037,-749.96 2037,-753.8 2037,-753.8 2037,-761.46 2037,-761.46 2037,-765.3 2033.17,-769.13 2029.33,-769.13"/>
<text text-anchor="middle" x="1979" y="-753.93" font-family="Arial" font-size="14.00" fill="#cfffac">lib/sharedUtils.ts</text>
</g>
<!-- client/lib/utils.tsx&#45;&gt;lib/sharedUtils.ts -->
<g id="edge11" class="edge">
<title>client/lib/utils.tsx&#45;&gt;lib/sharedUtils.ts</title>
<path fill="none" stroke="#757575" d="M1797.09,-864.1C1832.73,-843.13 1908.28,-798.66 1949.58,-774.36"/>
<polygon fill="#757575" stroke="#757575" points="1951.49,-777.29 1958.33,-769.21 1947.94,-771.26 1951.49,-777.29"/>
</g>
<!-- client/ui/Notifications.tsx&#45;&gt;client/lib/utils.tsx -->
<g id="edge53" class="edge">
<title>client/ui/Notifications.tsx&#45;&gt;client/lib/utils.tsx</title>
<path fill="none" stroke="#757575" d="M1295.46,-1107.17C1368.9,-1126.25 1529.24,-1156.38 1641,-1093.63 1718,-1050.4 1756.47,-943.06 1769.86,-897.09"/>
<polygon fill="#757575" stroke="#757575" points="1773.28,-897.85 1772.6,-887.28 1766.54,-895.97 1773.28,-897.85"/>
</g>
<!-- client/ui/Notifications.module.css -->
<g id="node35" class="node">
<title>client/ui/Notifications.module.css</title>
<path fill="none" stroke="#cfffac" d="M1633.33,-1084.13C1633.33,-1084.13 1436.67,-1084.13 1436.67,-1084.13 1432.83,-1084.13 1429,-1080.3 1429,-1076.46 1429,-1076.46 1429,-1068.8 1429,-1068.8 1429,-1064.96 1432.83,-1061.13 1436.67,-1061.13 1436.67,-1061.13 1633.33,-1061.13 1633.33,-1061.13 1637.17,-1061.13 1641,-1064.96 1641,-1068.8 1641,-1068.8 1641,-1076.46 1641,-1076.46 1641,-1080.3 1637.17,-1084.13 1633.33,-1084.13"/>
<text text-anchor="middle" x="1535" y="-1068.93" font-family="Arial" font-size="14.00" fill="#cfffac">client/ui/Notifications.module.css</text>
</g>
<!-- client/ui/Notifications.tsx&#45;&gt;client/ui/Notifications.module.css -->
<g id="edge54" class="edge">
<title>client/ui/Notifications.tsx&#45;&gt;client/ui/Notifications.module.css</title>
<path fill="none" stroke="#757575" d="M1335.66,-1089.04C1361.53,-1086.9 1390.77,-1084.48 1418.69,-1082.17"/>
<polygon fill="#757575" stroke="#757575" points="1419.23,-1085.64 1428.91,-1081.32 1418.66,-1078.66 1419.23,-1085.64"/>
</g>
<!-- client/css/bootstrap&#45;grid.css -->
<g id="node6" class="node">
<title>client/css/bootstrap&#45;grid.css</title>
<path fill="none" stroke="#cfffac" d="M646.83,-391.13C646.83,-391.13 479.17,-391.13 479.17,-391.13 475.33,-391.13 471.5,-387.3 471.5,-383.46 471.5,-383.46 471.5,-375.8 471.5,-375.8 471.5,-371.96 475.33,-368.13 479.17,-368.13 479.17,-368.13 646.83,-368.13 646.83,-368.13 650.67,-368.13 654.5,-371.96 654.5,-375.8 654.5,-375.8 654.5,-383.46 654.5,-383.46 654.5,-387.3 650.67,-391.13 646.83,-391.13"/>
<text text-anchor="middle" x="563" y="-375.93" font-family="Arial" font-size="14.00" fill="#cfffac">client/css/bootstrap&#45;grid.css</text>
</g>
<!-- client/css/fontawesome.min.css -->
<g id="node7" class="node">
<title>client/css/fontawesome.min.css</title>
<path fill="none" stroke="#cfffac" d="M658.83,-350.13C658.83,-350.13 467.17,-350.13 467.17,-350.13 463.33,-350.13 459.5,-346.3 459.5,-342.46 459.5,-342.46 459.5,-334.8 459.5,-334.8 459.5,-330.96 463.33,-327.13 467.17,-327.13 467.17,-327.13 658.83,-327.13 658.83,-327.13 662.67,-327.13 666.5,-330.96 666.5,-334.8 666.5,-334.8 666.5,-342.46 666.5,-342.46 666.5,-346.3 662.67,-350.13 658.83,-350.13"/>
<text text-anchor="middle" x="563" y="-334.93" font-family="Arial" font-size="14.00" fill="#cfffac">client/css/fontawesome.min.css</text>
</g>
<!-- client/css/index.css -->
<g id="node8" class="node">
<title>client/css/index.css</title>
<path fill="none" stroke="#c6c5fe" d="M339.83,-371.13C339.83,-371.13 223.17,-371.13 223.17,-371.13 219.33,-371.13 215.5,-367.3 215.5,-363.46 215.5,-363.46 215.5,-355.8 215.5,-355.8 215.5,-351.96 219.33,-348.13 223.17,-348.13 223.17,-348.13 339.83,-348.13 339.83,-348.13 343.67,-348.13 347.5,-351.96 347.5,-355.8 347.5,-355.8 347.5,-363.46 347.5,-363.46 347.5,-367.3 343.67,-371.13 339.83,-371.13"/>
<text text-anchor="middle" x="281.5" y="-355.93" font-family="Arial" font-size="14.00" fill="#c6c5fe">client/css/index.css</text>
</g>
<!-- client/css/index.css&#45;&gt;client/css/bootstrap&#45;grid.css -->
<g id="edge5" class="edge">
<title>client/css/index.css&#45;&gt;client/css/bootstrap&#45;grid.css</title>
<path fill="none" stroke="#757575" d="M347.68,-364.29C381.44,-366.71 423.41,-369.71 461.24,-372.42"/>
<polygon fill="#757575" stroke="#757575" points="461.05,-375.92 471.28,-373.14 461.55,-368.93 461.05,-375.92"/>
</g>
<!-- client/css/index.css&#45;&gt;client/css/fontawesome.min.css -->
<g id="edge6" class="edge">
<title>client/css/index.css&#45;&gt;client/css/fontawesome.min.css</title>
<path fill="none" stroke="#757575" d="M347.68,-354.73C377.92,-352.46 414.76,-349.69 449.3,-347.1"/>
<polygon fill="#757575" stroke="#757575" points="449.74,-350.57 459.45,-346.34 449.22,-343.59 449.74,-350.57"/>
</g>
<!-- client/css/regular.css -->
<g id="node9" class="node">
<title>client/css/regular.css</title>
<path fill="none" stroke="#cfffac" d="M625.83,-309.13C625.83,-309.13 500.17,-309.13 500.17,-309.13 496.33,-309.13 492.5,-305.3 492.5,-301.46 492.5,-301.46 492.5,-293.8 492.5,-293.8 492.5,-289.96 496.33,-286.13 500.17,-286.13 500.17,-286.13 625.83,-286.13 625.83,-286.13 629.67,-286.13 633.5,-289.96 633.5,-293.8 633.5,-293.8 633.5,-301.46 633.5,-301.46 633.5,-305.3 629.67,-309.13 625.83,-309.13"/>
<text text-anchor="middle" x="563" y="-293.93" font-family="Arial" font-size="14.00" fill="#cfffac">client/css/regular.css</text>
</g>
<!-- client/css/index.css&#45;&gt;client/css/regular.css -->
<g id="edge7" class="edge">
<title>client/css/index.css&#45;&gt;client/css/regular.css</title>
<path fill="none" stroke="#757575" d="M330.39,-348.07C338.39,-345.61 346.52,-342.8 354,-339.63 371.06,-332.41 372.45,-324.54 390,-318.63 419.2,-308.8 452.57,-303.47 482.09,-300.62"/>
<polygon fill="#757575" stroke="#757575" points="482.71,-304.08 492.36,-299.71 482.1,-297.11 482.71,-304.08"/>
</g>
<!-- client/css/solid.css -->
<g id="node10" class="node">
<title>client/css/solid.css</title>
<path fill="none" stroke="#cfffac" d="M619.33,-268.13C619.33,-268.13 506.67,-268.13 506.67,-268.13 502.83,-268.13 499,-264.3 499,-260.46 499,-260.46 499,-252.8 499,-252.8 499,-248.96 502.83,-245.13 506.67,-245.13 506.67,-245.13 619.33,-245.13 619.33,-245.13 623.17,-245.13 627,-248.96 627,-252.8 627,-252.8 627,-260.46 627,-260.46 627,-264.3 623.17,-268.13 619.33,-268.13"/>
<text text-anchor="middle" x="563" y="-252.93" font-family="Arial" font-size="14.00" fill="#cfffac">client/css/solid.css</text>
</g>
<!-- client/css/index.css&#45;&gt;client/css/solid.css -->
<g id="edge8" class="edge">
<title>client/css/index.css&#45;&gt;client/css/solid.css</title>
<path fill="none" stroke="#757575" d="M339.88,-348.02C344.92,-345.71 349.72,-342.94 354,-339.63 379.2,-320.13 363.4,-295.18 390,-277.63 418.66,-258.72 455.96,-252.5 488.5,-251.41"/>
<polygon fill="#757575" stroke="#757575" points="488.94,-254.9 498.87,-251.23 488.81,-247.91 488.94,-254.9"/>
</g>
<!-- client/css/tailwind.css -->
<g id="node11" class="node">
<title>client/css/tailwind.css</title>
<path fill="none" stroke="#cfffac" d="M346.33,-330.13C346.33,-330.13 216.67,-330.13 216.67,-330.13 212.83,-330.13 209,-326.3 209,-322.46 209,-322.46 209,-314.8 209,-314.8 209,-310.96 212.83,-307.13 216.67,-307.13 216.67,-307.13 346.33,-307.13 346.33,-307.13 350.17,-307.13 354,-310.96 354,-314.8 354,-314.8 354,-322.46 354,-322.46 354,-326.3 350.17,-330.13 346.33,-330.13"/>
<text text-anchor="middle" x="281.5" y="-314.93" font-family="Arial" font-size="14.00" fill="#cfffac">client/css/tailwind.css</text>
</g>
<!-- client/globalStore/actions.ts -->
<g id="node12" class="node">
<title>client/globalStore/actions.ts</title>
<path fill="none" stroke="#cfffac" d="M645.83,-1128.13C645.83,-1128.13 480.17,-1128.13 480.17,-1128.13 476.33,-1128.13 472.5,-1124.3 472.5,-1120.46 472.5,-1120.46 472.5,-1112.8 472.5,-1112.8 472.5,-1108.96 476.33,-1105.13 480.17,-1105.13 480.17,-1105.13 645.83,-1105.13 645.83,-1105.13 649.67,-1105.13 653.5,-1108.96 653.5,-1112.8 653.5,-1112.8 653.5,-1120.46 653.5,-1120.46 653.5,-1124.3 649.67,-1128.13 645.83,-1128.13"/>
<text text-anchor="middle" x="563" y="-1112.93" font-family="Arial" font-size="14.00" fill="#cfffac">client/globalStore/actions.ts</text>
</g>
<!-- client/main/app.tsx -->
<g id="node15" class="node">
<title>client/main/app.tsx</title>
<path fill="none" stroke="#c6c5fe" d="M338.33,-971.13C338.33,-971.13 224.67,-971.13 224.67,-971.13 220.83,-971.13 217,-967.3 217,-963.46 217,-963.46 217,-955.8 217,-955.8 217,-951.96 220.83,-948.13 224.67,-948.13 224.67,-948.13 338.33,-948.13 338.33,-948.13 342.17,-948.13 346,-951.96 346,-955.8 346,-955.8 346,-963.46 346,-963.46 346,-967.3 342.17,-971.13 338.33,-971.13"/>
<text text-anchor="middle" x="281.5" y="-955.93" font-family="Arial" font-size="14.00" fill="#c6c5fe">client/main/app.tsx</text>
</g>
<!-- client/main/app.tsx&#45;&gt;client/globalStore/store.ts -->
<g id="edge13" class="edge">
<title>client/main/app.tsx&#45;&gt;client/globalStore/store.ts</title>
<path fill="none" stroke="#757575" d="M346.34,-960.17C434.13,-960.94 597.04,-962.52 736,-964.63 884.4,-966.88 1056.7,-970.38 1160.44,-972.59"/>
<polygon fill="#757575" stroke="#757575" points="1160.5,-976.09 1170.57,-972.81 1160.64,-969.09 1160.5,-976.09"/>
</g>
<!-- client/main/app.tsx&#45;&gt;client/lib/utils.tsx -->
<g id="edge15" class="edge">
<title>client/main/app.tsx&#45;&gt;client/lib/utils.tsx</title>
<path fill="none" stroke="#757575" d="M285.05,-947.93C293.73,-910.44 325.24,-791.38 390,-717.63 564.57,-518.82 660.93,-457.63 925.5,-457.63 925.5,-457.63 925.5,-457.63 1256,-457.63 1429.11,-457.63 1506.63,-407.49 1641,-516.63 1696.41,-561.64 1753.4,-783.31 1770.42,-853.96"/>
<polygon fill="#757575" stroke="#757575" points="1767.07,-855.03 1772.8,-863.95 1773.88,-853.41 1767.07,-855.03"/>
</g>
<!-- client/main/app.tsx&#45;&gt;client/globalStore/actions.ts -->
<g id="edge12" class="edge">
<title>client/main/app.tsx&#45;&gt;client/globalStore/actions.ts</title>
<path fill="none" stroke="#757575" d="M287.72,-971.36C300.59,-998.74 336.72,-1066.78 390,-1096.63 411.67,-1108.77 437.27,-1115.15 462,-1118.24"/>
<polygon fill="#757575" stroke="#757575" points="461.84,-1121.74 472.16,-1119.33 462.59,-1114.78 461.84,-1121.74"/>
</g>
<!-- client/main/app.tsx&#45;&gt;client/lib/context.tsx -->
<g id="edge14" class="edge">
<title>client/main/app.tsx&#45;&gt;client/lib/context.tsx</title>
<path fill="none" stroke="#757575" d="M286.43,-971.52C297.49,-1003.23 331.95,-1090.57 390,-1137.63 583.86,-1294.8 675.93,-1306.63 925.5,-1306.63 925.5,-1306.63 925.5,-1306.63 1536,-1306.63 1739.82,-1306.63 1915.38,-1082.21 1964.4,-1013.43"/>
<polygon fill="#757575" stroke="#757575" points="1967.34,-1015.33 1970.23,-1005.14 1961.61,-1011.31 1967.34,-1015.33"/>
</g>
<!-- client/pages/projectStructure/ProjectStructureAsync.tsx -->
<g id="node16" class="node">
<title>client/pages/projectStructure/ProjectStructureAsync.tsx</title>
<path fill="none" stroke="#c6c5fe" d="M728.33,-1087.13C728.33,-1087.13 397.67,-1087.13 397.67,-1087.13 393.83,-1087.13 390,-1083.3 390,-1079.46 390,-1079.46 390,-1071.8 390,-1071.8 390,-1067.96 393.83,-1064.13 397.67,-1064.13 397.67,-1064.13 728.33,-1064.13 728.33,-1064.13 732.17,-1064.13 736,-1067.96 736,-1071.8 736,-1071.8 736,-1079.46 736,-1079.46 736,-1083.3 732.17,-1087.13 728.33,-1087.13"/>
<text text-anchor="middle" x="563" y="-1071.93" font-family="Arial" font-size="14.00" fill="#c6c5fe">client/pages/projectStructure/ProjectStructureAsync.tsx</text>
</g>
<!-- client/main/app.tsx&#45;&gt;client/pages/projectStructure/ProjectStructureAsync.tsx -->
<g id="edge16" class="edge">
<title>client/main/app.tsx&#45;&gt;client/pages/projectStructure/ProjectStructureAsync.tsx</title>
<path fill="none" stroke="#757575" d="M291.34,-971.27C308.02,-992.24 346.41,-1036.04 390,-1055.63 394.2,-1057.52 398.52,-1059.25 402.91,-1060.84"/>
<polygon fill="#757575" stroke="#757575" points="402.07,-1064.25 412.67,-1064.1 404.29,-1057.61 402.07,-1064.25"/>
</g>
<!-- client/pages/session/Login.tsx -->
<g id="node17" class="node">
<title>client/pages/session/Login.tsx</title>
<path fill="none" stroke="#c6c5fe" d="M653.33,-1046.13C653.33,-1046.13 472.67,-1046.13 472.67,-1046.13 468.83,-1046.13 465,-1042.3 465,-1038.46 465,-1038.46 465,-1030.8 465,-1030.8 465,-1026.96 468.83,-1023.13 472.67,-1023.13 472.67,-1023.13 653.33,-1023.13 653.33,-1023.13 657.17,-1023.13 661,-1026.96 661,-1030.8 661,-1030.8 661,-1038.46 661,-1038.46 661,-1042.3 657.17,-1046.13 653.33,-1046.13"/>
<text text-anchor="middle" x="563" y="-1030.93" font-family="Arial" font-size="14.00" fill="#c6c5fe">client/pages/session/Login.tsx</text>
</g>
<!-- client/main/app.tsx&#45;&gt;client/pages/session/Login.tsx -->
<g id="edge17" class="edge">
<title>client/main/app.tsx&#45;&gt;client/pages/session/Login.tsx</title>
<path fill="none" stroke="#757575" d="M305.4,-971.32C326.77,-981.77 359.81,-996.76 390,-1005.63 412.02,-1012.1 436.08,-1017.28 459.03,-1021.37"/>
<polygon fill="#757575" stroke="#757575" points="458.69,-1024.86 469.14,-1023.11 459.88,-1017.96 458.69,-1024.86"/>
</g>
<!-- client/pages/todoList/Todolist.tsx -->
<g id="node18" class="node">
<title>client/pages/todoList/Todolist.tsx</title>
<path fill="none" stroke="#c6c5fe" d="M660.33,-996.13C660.33,-996.13 465.67,-996.13 465.67,-996.13 461.83,-996.13 458,-992.3 458,-988.46 458,-988.46 458,-980.8 458,-980.8 458,-976.96 461.83,-973.13 465.67,-973.13 465.67,-973.13 660.33,-973.13 660.33,-973.13 664.17,-973.13 668,-976.96 668,-980.8 668,-980.8 668,-988.46 668,-988.46 668,-992.3 664.17,-996.13 660.33,-996.13"/>
<text text-anchor="middle" x="563" y="-980.93" font-family="Arial" font-size="14.00" fill="#c6c5fe">client/pages/todoList/Todolist.tsx</text>
</g>
<!-- client/main/app.tsx&#45;&gt;client/pages/todoList/Todolist.tsx -->
<g id="edge18" class="edge">
<title>client/main/app.tsx&#45;&gt;client/pages/todoList/Todolist.tsx</title>
<path fill="none" stroke="#757575" d="M346.27,-965.33C376.33,-968.02 413.13,-971.31 447.77,-974.41"/>
<polygon fill="#757575" stroke="#757575" points="447.68,-977.92 457.95,-975.32 448.31,-970.95 447.68,-977.92"/>
</g>
<!-- client/pages/users/User.tsx -->
<g id="node19" class="node">
<title>client/pages/users/User.tsx</title>
<path fill="none" stroke="#c6c5fe" d="M644.33,-865.13C644.33,-865.13 481.67,-865.13 481.67,-865.13 477.83,-865.13 474,-861.3 474,-857.46 474,-857.46 474,-849.8 474,-849.8 474,-845.96 477.83,-842.13 481.67,-842.13 481.67,-842.13 644.33,-842.13 644.33,-842.13 648.17,-842.13 652,-845.96 652,-849.8 652,-849.8 652,-857.46 652,-857.46 652,-861.3 648.17,-865.13 644.33,-865.13"/>
<text text-anchor="middle" x="563" y="-849.93" font-family="Arial" font-size="14.00" fill="#c6c5fe">client/pages/users/User.tsx</text>
</g>
<!-- client/main/app.tsx&#45;&gt;client/pages/users/User.tsx -->
<g id="edge19" class="edge">
<title>client/main/app.tsx&#45;&gt;client/pages/users/User.tsx</title>
<path fill="none" stroke="#757575" d="M312.94,-948.08C363.66,-928.85 465.45,-890.25 521.93,-868.83"/>
<polygon fill="#757575" stroke="#757575" points="523.49,-871.98 531.59,-865.16 521,-865.44 523.49,-871.98"/>
</g>
<!-- client/pages/users/Users.tsx -->
<g id="node20" class="node">
<title>client/pages/users/Users.tsx</title>
<path fill="none" stroke="#c6c5fe" d="M647.83,-749.13C647.83,-749.13 478.17,-749.13 478.17,-749.13 474.33,-749.13 470.5,-745.3 470.5,-741.46 470.5,-741.46 470.5,-733.8 470.5,-733.8 470.5,-729.96 474.33,-726.13 478.17,-726.13 478.17,-726.13 647.83,-726.13 647.83,-726.13 651.67,-726.13 655.5,-729.96 655.5,-733.8 655.5,-733.8 655.5,-741.46 655.5,-741.46 655.5,-745.3 651.67,-749.13 647.83,-749.13"/>
<text text-anchor="middle" x="563" y="-733.93" font-family="Arial" font-size="14.00" fill="#c6c5fe">client/pages/users/Users.tsx</text>
</g>
<!-- client/main/app.tsx&#45;&gt;client/pages/users/Users.tsx -->
<g id="edge20" class="edge">
<title>client/main/app.tsx&#45;&gt;client/pages/users/Users.tsx</title>
<path fill="none" stroke="#757575" d="M290.27,-948C306.56,-924.24 346.42,-869.36 390,-833.63 432.24,-799 488.73,-770.21 525.24,-753.46"/>
<polygon fill="#757575" stroke="#757575" points="526.86,-756.57 534.53,-749.26 523.97,-750.19 526.86,-756.57"/>
</g>
<!-- client/pages/projectStructure/ProjectStructureAsync.tsx&#45;&gt;client/common/layout.tsx -->
<g id="edge25" class="edge">
<title>client/pages/projectStructure/ProjectStructureAsync.tsx&#45;&gt;client/common/layout.tsx</title>
<path fill="none" stroke="#757575" d="M736.02,-1065.16C769.39,-1063.13 803.17,-1061.08 832.78,-1059.27"/>
<polygon fill="#757575" stroke="#757575" points="833.3,-1062.75 843.07,-1058.65 832.87,-1055.76 833.3,-1062.75"/>
</g>
<!-- client/pages/projectStructure/ProjectStructureAsync.tsx&#45;&gt;client/lib/utils.tsx -->
<g id="edge26" class="edge">
<title>client/pages/projectStructure/ProjectStructureAsync.tsx&#45;&gt;client/lib/utils.tsx</title>
<path fill="none" stroke="#757575" d="M723.49,-1087.2C727.89,-1089.99 732.08,-1093.12 736,-1096.63 788.03,-1143.25 717.24,-1206.26 772,-1249.63 833.48,-1298.32 1590.3,-1222.22 1641,-1184.63 1738.16,-1112.61 1766.11,-955.42 1773.27,-897.57"/>
<polygon fill="#757575" stroke="#757575" points="1776.77,-897.71 1774.44,-887.38 1769.82,-896.91 1776.77,-897.71"/>
</g>
<!-- client/pages/projectStructure/ProjectStructure.tsx -->
<g id="node22" class="node">
<title>client/pages/projectStructure/ProjectStructure.tsx</title>
<path fill="none" stroke="#cfffac" d="M1073.33,-1240.13C1073.33,-1240.13 779.67,-1240.13 779.67,-1240.13 775.83,-1240.13 772,-1236.3 772,-1232.46 772,-1232.46 772,-1224.8 772,-1224.8 772,-1220.96 775.83,-1217.13 779.67,-1217.13 779.67,-1217.13 1073.33,-1217.13 1073.33,-1217.13 1077.17,-1217.13 1081,-1220.96 1081,-1224.8 1081,-1224.8 1081,-1232.46 1081,-1232.46 1081,-1236.3 1077.17,-1240.13 1073.33,-1240.13"/>
<text text-anchor="middle" x="926.5" y="-1224.93" font-family="Arial" font-size="14.00" fill="#cfffac">client/pages/projectStructure/ProjectStructure.tsx</text>
</g>
<!-- client/pages/projectStructure/ProjectStructureAsync.tsx&#45;&gt;client/pages/projectStructure/ProjectStructure.tsx -->
<g id="edge27" class="edge">
<title>client/pages/projectStructure/ProjectStructureAsync.tsx&#45;&gt;client/pages/projectStructure/ProjectStructure.tsx</title>
<path fill="none" stroke="#757575" d="M722.28,-1087.25C727.09,-1090.01 731.68,-1093.12 736,-1096.63 774.61,-1128.01 734.13,-1170.37 772,-1202.63 776.24,-1206.25 780.8,-1209.45 785.59,-1212.28"/>
<polygon fill="#757575" stroke="#757575" points="783.98,-1215.38 794.45,-1216.98 787.26,-1209.2 783.98,-1215.38"/>
</g>
<!-- client/pages/session/Login.tsx&#45;&gt;client/common/layout.tsx -->
<g id="edge28" class="edge">
<title>client/pages/session/Login.tsx&#45;&gt;client/common/layout.tsx</title>
<path fill="none" stroke="#757575" d="M661.35,-1039.75C714.79,-1042.56 780.68,-1046.02 833.29,-1048.78"/>
<polygon fill="#757575" stroke="#757575" points="833.12,-1052.28 843.29,-1049.31 833.48,-1045.29 833.12,-1052.28"/>
</g>
<!-- client/pages/session/Login.tsx&#45;&gt;client/lib/utils.tsx -->
<g id="edge29" class="edge">
<title>client/pages/session/Login.tsx&#45;&gt;client/lib/utils.tsx</title>
<path fill="none" stroke="#757575" d="M661.15,-1028.74C687.69,-1031.58 714.9,-1039.15 736,-1055.63 771.25,-1083.17 736.01,-1123.06 772,-1149.63 883.11,-1231.63 1255,-1177.63 1393,-1172.63 1503.44,-1168.63 1549.6,-1216.76 1641,-1154.63 1731.92,-1092.82 1763.4,-951.78 1772.4,-897.49"/>
<polygon fill="#757575" stroke="#757575" points="1775.91,-897.7 1773.99,-887.28 1768.99,-896.62 1775.91,-897.7"/>
</g>
<!-- client/pages/todoList/Todolist.tsx&#45;&gt;client/common/layout.tsx -->
<g id="edge30" class="edge">
<title>client/pages/todoList/Todolist.tsx&#45;&gt;client/common/layout.tsx</title>
<path fill="none" stroke="#757575" d="M661.31,-996.15C686.06,-1000.56 712.34,-1006.55 736,-1014.63 753.12,-1020.48 754.76,-1028.15 772,-1033.63 791.48,-1039.82 812.93,-1044.1 833.47,-1047.05"/>
<polygon fill="#757575" stroke="#757575" points="833.09,-1050.53 843.46,-1048.4 834.02,-1043.59 833.09,-1050.53"/>
</g>
<!-- client/pages/todoList/Todolist.tsx&#45;&gt;client/globalStore/store.ts -->
<g id="edge31" class="edge">
<title>client/pages/todoList/Todolist.tsx&#45;&gt;client/globalStore/store.ts</title>
<path fill="none" stroke="#757575" d="M668.05,-983.12C801.84,-981.18 1032.19,-977.84 1160.61,-975.98"/>
<polygon fill="#757575" stroke="#757575" points="1160.87,-979.48 1170.81,-975.84 1160.76,-972.48 1160.87,-979.48"/>
</g>
<!-- client/pages/todoList/Todolist.tsx&#45;&gt;client/lib/utils.tsx -->
<g id="edge32" class="edge">
<title>client/pages/todoList/Todolist.tsx&#45;&gt;client/lib/utils.tsx</title>
<path fill="none" stroke="#757575" d="M668.03,-985.16C692.52,-989.77 717,-998.61 736,-1014.63 772.43,-1045.35 733.26,-1087.87 772,-1115.63 850.49,-1171.88 1558.11,-1175.16 1641,-1125.63 1726.73,-1074.4 1761.01,-947.64 1771.58,-897.02"/>
<polygon fill="#757575" stroke="#757575" points="1775.02,-897.65 1773.53,-887.16 1768.15,-896.29 1775.02,-897.65"/>
</g>
<!-- client/pages/todoList/Todolist.tsx&#45;&gt;client/ui/Notifications.tsx -->
<g id="edge35" class="edge">
<title>client/pages/todoList/Todolist.tsx&#45;&gt;client/ui/Notifications.tsx</title>
<path fill="none" stroke="#757575" d="M668.21,-988.3C692.02,-992.93 716.13,-1000.99 736,-1014.63 761.64,-1032.23 745.28,-1058.72 772,-1074.63 906.72,-1154.83 1102.11,-1128.98 1197.44,-1109.28"/>
<polygon fill="#757575" stroke="#757575" points="1198.39,-1112.66 1207.45,-1107.16 1196.94,-1105.81 1198.39,-1112.66"/>
</g>
<!-- client/pages/todoList/styles.module.css -->
<g id="node23" class="node">
<title>client/pages/todoList/styles.module.css</title>
<path fill="none" stroke="#cfffac" d="M1044.33,-1024.13C1044.33,-1024.13 808.67,-1024.13 808.67,-1024.13 804.83,-1024.13 801,-1020.3 801,-1016.46 801,-1016.46 801,-1008.8 801,-1008.8 801,-1004.96 804.83,-1001.13 808.67,-1001.13 808.67,-1001.13 1044.33,-1001.13 1044.33,-1001.13 1048.17,-1001.13 1052,-1004.96 1052,-1008.8 1052,-1008.8 1052,-1016.46 1052,-1016.46 1052,-1020.3 1048.17,-1024.13 1044.33,-1024.13"/>
<text text-anchor="middle" x="926.5" y="-1008.93" font-family="Arial" font-size="14.00" fill="#cfffac">client/pages/todoList/styles.module.css</text>
</g>
<!-- client/pages/todoList/Todolist.tsx&#45;&gt;client/pages/todoList/styles.module.css -->
<g id="edge33" class="edge">
<title>client/pages/todoList/Todolist.tsx&#45;&gt;client/pages/todoList/styles.module.css</title>
<path fill="none" stroke="#757575" d="M668.08,-992.69C706.24,-995.65 750.01,-999.04 790.5,-1002.17"/>
<polygon fill="#757575" stroke="#757575" points="790.48,-1005.68 800.72,-1002.97 791.02,-998.7 790.48,-1005.68"/>
</g>
<!-- client/ui/HeaderCell.tsx -->
<g id="node24" class="node">
<title>client/ui/HeaderCell.tsx</title>
<path fill="none" stroke="#c6c5fe" d="M996.33,-749.13C996.33,-749.13 856.67,-749.13 856.67,-749.13 852.83,-749.13 849,-745.3 849,-741.46 849,-741.46 849,-733.8 849,-733.8 849,-729.96 852.83,-726.13 856.67,-726.13 856.67,-726.13 996.33,-726.13 996.33,-726.13 1000.17,-726.13 1004,-729.96 1004,-733.8 1004,-733.8 1004,-741.46 1004,-741.46 1004,-745.3 1000.17,-749.13 996.33,-749.13"/>
<text text-anchor="middle" x="926.5" y="-733.93" font-family="Arial" font-size="14.00" fill="#c6c5fe">client/ui/HeaderCell.tsx</text>
</g>
<!-- client/pages/todoList/Todolist.tsx&#45;&gt;client/ui/HeaderCell.tsx -->
<g id="edge34" class="edge">
<title>client/pages/todoList/Todolist.tsx&#45;&gt;client/ui/HeaderCell.tsx</title>
<path fill="none" stroke="#757575" d="M582.81,-973.09C614.68,-953.43 681.2,-911.92 736,-874.63 796.65,-833.37 866.09,-782.1 901.69,-755.51"/>
<polygon fill="#757575" stroke="#757575" points="904.08,-758.1 909.99,-749.3 899.89,-752.49 904.08,-758.1"/>
</g>
<!-- client/ui/Pagination.tsx -->
<g id="node25" class="node">
<title>client/ui/Pagination.tsx</title>
<path fill="none" stroke="#c6c5fe" d="M994.33,-905.13C994.33,-905.13 858.67,-905.13 858.67,-905.13 854.83,-905.13 851,-901.3 851,-897.46 851,-897.46 851,-889.8 851,-889.8 851,-885.96 854.83,-882.13 858.67,-882.13 858.67,-882.13 994.33,-882.13 994.33,-882.13 998.17,-882.13 1002,-885.96 1002,-889.8 1002,-889.8 1002,-897.46 1002,-897.46 1002,-901.3 998.17,-905.13 994.33,-905.13"/>
<text text-anchor="middle" x="926.5" y="-889.93" font-family="Arial" font-size="14.00" fill="#c6c5fe">client/ui/Pagination.tsx</text>
</g>
<!-- client/pages/todoList/Todolist.tsx&#45;&gt;client/ui/Pagination.tsx -->
<g id="edge36" class="edge">
<title>client/pages/todoList/Todolist.tsx&#45;&gt;client/ui/Pagination.tsx</title>
<path fill="none" stroke="#757575" d="M609.78,-973.11C676.11,-956.41 798.75,-925.54 870.09,-907.58"/>
<polygon fill="#757575" stroke="#757575" points="870.96,-910.97 879.8,-905.13 869.25,-904.18 870.96,-910.97"/>
</g>
<!-- client/pages/users/User.tsx&#45;&gt;client/common/layout.tsx -->
<g id="edge38" class="edge">
<title>client/pages/users/User.tsx&#45;&gt;client/common/layout.tsx</title>
<path fill="none" stroke="#757575" d="M590.3,-865.25C626.87,-882.48 693.38,-917.88 736,-964.63 759.31,-990.19 743.64,-1013.82 772,-1033.63 789.78,-1046.05 811.61,-1052.63 833.17,-1055.81"/>
<polygon fill="#757575" stroke="#757575" points="833.02,-1059.32 843.37,-1057.08 833.88,-1052.37 833.02,-1059.32"/>
</g>
<!-- client/pages/users/User.tsx&#45;&gt;client/lib/utils.tsx -->
<g id="edge39" class="edge">
<title>client/pages/users/User.tsx&#45;&gt;client/lib/utils.tsx</title>
<path fill="none" stroke="#757575" d="M652.09,-849.46C761.19,-844.53 952.75,-836.6 1117,-833.63 1239.65,-831.41 1270.34,-832.15 1393,-833.63 1503.25,-834.96 1531.87,-823.93 1641,-839.63 1671.87,-844.07 1705.79,-853.18 1731.84,-861.12"/>
<polygon fill="#757575" stroke="#757575" points="1730.83,-864.47 1741.41,-864.1 1732.9,-857.79 1730.83,-864.47"/>
</g>
<!-- client/pages/users/UI/InfoCircle.tsx -->
<g id="node27" class="node">
<title>client/pages/users/UI/InfoCircle.tsx</title>
<path fill="none" stroke="#c6c5fe" d="M1030.83,-588.13C1030.83,-588.13 822.17,-588.13 822.17,-588.13 818.33,-588.13 814.5,-584.3 814.5,-580.46 814.5,-580.46 814.5,-572.8 814.5,-572.8 814.5,-568.96 818.33,-565.13 822.17,-565.13 822.17,-565.13 1030.83,-565.13 1030.83,-565.13 1034.67,-565.13 1038.5,-568.96 1038.5,-572.8 1038.5,-572.8 1038.5,-580.46 1038.5,-580.46 1038.5,-584.3 1034.67,-588.13 1030.83,-588.13"/>
<text text-anchor="middle" x="926.5" y="-572.93" font-family="Arial" font-size="14.00" fill="#c6c5fe">client/pages/users/UI/InfoCircle.tsx</text>
</g>
<!-- client/pages/users/User.tsx&#45;&gt;client/pages/users/UI/InfoCircle.tsx -->
<g id="edge40" class="edge">
<title>client/pages/users/User.tsx&#45;&gt;client/pages/users/UI/InfoCircle.tsx</title>
<path fill="none" stroke="#757575" d="M591.4,-842.08C626.91,-826.35 689.75,-795.83 736,-758.63 754.89,-743.43 755.05,-734.97 772,-717.63 817.09,-671.51 873.81,-621.26 904.1,-594.99"/>
<polygon fill="#757575" stroke="#757575" points="906.63,-597.43 911.91,-588.24 902.06,-592.13 906.63,-597.43"/>
</g>
<!-- client/pages/users/Users.tsx&#45;&gt;client/common/layout.tsx -->
<g id="edge41" class="edge">
<title>client/pages/users/Users.tsx&#45;&gt;client/common/layout.tsx</title>
<path fill="none" stroke="#757575" d="M605.01,-749.22C644.97,-762.73 704.21,-789.1 736,-833.63 788.47,-907.14 706.61,-971.33 772,-1033.63 788.44,-1049.29 810.75,-1056.8 833.27,-1059.82"/>
<polygon fill="#757575" stroke="#757575" points="832.94,-1063.3 843.26,-1060.88 833.68,-1056.34 832.94,-1063.3"/>
</g>
<!-- client/pages/users/Users.tsx&#45;&gt;client/lib/utils.tsx -->
<g id="edge42" class="edge">
<title>client/pages/users/Users.tsx&#45;&gt;client/lib/utils.tsx</title>
<path fill="none" stroke="#757575" d="M610.95,-726.08C705.82,-703.41 927.47,-653.8 1117,-636.63 1239.17,-625.57 1270.44,-631.45 1393,-636.63 1503.52,-641.3 1546.77,-599.7 1641,-657.63 1716.05,-703.77 1755.49,-809.06 1769.49,-854.31"/>
<polygon fill="#757575" stroke="#757575" points="1766.16,-855.39 1772.37,-863.98 1772.87,-853.39 1766.16,-855.39"/>
</g>
<!-- client/pages/users/Users.tsx&#45;&gt;client/ui/HeaderCell.tsx -->
<g id="edge45" class="edge">
<title>client/pages/users/Users.tsx&#45;&gt;client/ui/HeaderCell.tsx</title>
<path fill="none" stroke="#757575" d="M655.69,-737.63C711.91,-737.63 783.46,-737.63 838.74,-737.63"/>
<polygon fill="#757575" stroke="#757575" points="838.87,-741.13 848.87,-737.63 838.87,-734.13 838.87,-741.13"/>
</g>
<!-- client/pages/users/Users.tsx&#45;&gt;client/ui/Pagination.tsx -->
<g id="edge46" class="edge">
<title>client/pages/users/Users.tsx&#45;&gt;client/ui/Pagination.tsx</title>
<path fill="none" stroke="#757575" d="M590.88,-749.23C654.92,-776.87 816.62,-846.64 889.22,-877.98"/>
<polygon fill="#757575" stroke="#757575" points="887.88,-881.21 898.45,-881.96 890.65,-874.78 887.88,-881.21"/>
</g>
<!-- client/ui/Checkbox.tsx -->
<g id="node28" class="node">
<title>client/ui/Checkbox.tsx</title>
<path fill="none" stroke="#c6c5fe" d="M1600.83,-548.13C1600.83,-548.13 1469.17,-548.13 1469.17,-548.13 1465.33,-548.13 1461.5,-544.3 1461.5,-540.46 1461.5,-540.46 1461.5,-532.8 1461.5,-532.8 1461.5,-528.96 1465.33,-525.13 1469.17,-525.13 1469.17,-525.13 1600.83,-525.13 1600.83,-525.13 1604.67,-525.13 1608.5,-528.96 1608.5,-532.8 1608.5,-532.8 1608.5,-540.46 1608.5,-540.46 1608.5,-544.3 1604.67,-548.13 1600.83,-548.13"/>
<text text-anchor="middle" x="1535" y="-532.93" font-family="Arial" font-size="14.00" fill="#c6c5fe">client/ui/Checkbox.tsx</text>
</g>
<!-- client/pages/users/Users.tsx&#45;&gt;client/ui/Checkbox.tsx -->
<g id="edge43" class="edge">
<title>client/pages/users/Users.tsx&#45;&gt;client/ui/Checkbox.tsx</title>
<path fill="none" stroke="#757575" d="M570.13,-726.12C591.56,-687.27 667.57,-560.89 772,-515.63 898.62,-460.75 1255.38,-505.44 1393,-515.63 1414.95,-517.26 1438.66,-520.29 1460.26,-523.55"/>
<polygon fill="#757575" stroke="#757575" points="1459.93,-527.04 1470.35,-525.11 1461,-520.12 1459.93,-527.04"/>
</g>
<!-- client/ui/Collapse.tsx -->
<g id="node29" class="node">
<title>client/ui/Collapse.tsx</title>
<path fill="none" stroke="#c6c5fe" d="M988.83,-547.13C988.83,-547.13 864.17,-547.13 864.17,-547.13 860.33,-547.13 856.5,-543.3 856.5,-539.46 856.5,-539.46 856.5,-531.8 856.5,-531.8 856.5,-527.96 860.33,-524.13 864.17,-524.13 864.17,-524.13 988.83,-524.13 988.83,-524.13 992.67,-524.13 996.5,-527.96 996.5,-531.8 996.5,-531.8 996.5,-539.46 996.5,-539.46 996.5,-543.3 992.67,-547.13 988.83,-547.13"/>
<text text-anchor="middle" x="926.5" y="-531.93" font-family="Arial" font-size="14.00" fill="#c6c5fe">client/ui/Collapse.tsx</text>
</g>
<!-- client/pages/users/Users.tsx&#45;&gt;client/ui/Collapse.tsx -->
<g id="edge44" class="edge">
<title>client/pages/users/Users.tsx&#45;&gt;client/ui/Collapse.tsx</title>
<path fill="none" stroke="#757575" d="M573.25,-725.75C599.91,-692.45 680.9,-597.98 772,-556.63 794.93,-546.23 821.61,-540.62 846.24,-537.7"/>
<polygon fill="#757575" stroke="#757575" points="846.71,-541.17 856.28,-536.64 845.97,-534.21 846.71,-541.17"/>
</g>
<!-- client/main/entry&#45;client.tsx -->
<g id="node21" class="node">
<title>client/main/entry&#45;client.tsx</title>
<path fill="none" stroke="#c6c5fe" d="M165.33,-391.13C165.33,-391.13 7.67,-391.13 7.67,-391.13 3.83,-391.13 0,-387.3 0,-383.46 0,-383.46 0,-375.8 0,-375.8 0,-371.96 3.83,-368.13 7.67,-368.13 7.67,-368.13 165.33,-368.13 165.33,-368.13 169.17,-368.13 173,-371.96 173,-375.8 173,-375.8 173,-383.46 173,-383.46 173,-387.3 169.17,-391.13 165.33,-391.13"/>
<text text-anchor="middle" x="86.5" y="-375.93" font-family="Arial" font-size="14.00" fill="#c6c5fe">client/main/entry&#45;client.tsx</text>
</g>
<!-- client/main/entry&#45;client.tsx&#45;&gt;client/lib/utils.tsx -->
<g id="edge23" class="edge">
<title>client/main/entry&#45;client.tsx&#45;&gt;client/lib/utils.tsx</title>
<path fill="none" stroke="#757575" d="M172.61,-391.15C267.43,-402.96 425.39,-419.63 562,-419.63 562,-419.63 562,-419.63 1256,-419.63 1341.7,-419.63 1573.5,-388.84 1641,-441.63 1641,-441.63 1741.92,-767.27 1768.92,-854.4"/>
<polygon fill="#757575" stroke="#757575" points="1765.6,-855.51 1771.9,-864.02 1772.29,-853.43 1765.6,-855.51"/>
</g>
<!-- client/main/entry&#45;client.tsx&#45;&gt;client/css/index.css -->
<g id="edge21" class="edge">
<title>client/main/entry&#45;client.tsx&#45;&gt;client/css/index.css</title>
<path fill="none" stroke="#757575" d="M173.28,-370.74C183.85,-369.65 194.59,-368.53 204.99,-367.45"/>
<polygon fill="#757575" stroke="#757575" points="205.68,-370.9 215.26,-366.39 204.96,-363.94 205.68,-370.9"/>
</g>
<!-- client/main/entry&#45;client.tsx&#45;&gt;client/css/tailwind.css -->
<g id="edge22" class="edge">
<title>client/main/entry&#45;client.tsx&#45;&gt;client/css/tailwind.css</title>
<path fill="none" stroke="#757575" d="M121.45,-368.13C145.76,-359.97 179.32,-348.87 209,-339.63 215.96,-337.46 223.33,-335.23 230.58,-333.07"/>
<polygon fill="#757575" stroke="#757575" points="231.75,-336.37 240.35,-330.18 229.76,-329.66 231.75,-336.37"/>
</g>
<!-- client/main/entry&#45;client.tsx&#45;&gt;client/main/app.tsx -->
<g id="edge24" class="edge">
<title>client/main/entry&#45;client.tsx&#45;&gt;client/main/app.tsx</title>
<path fill="none" stroke="#757575" d="M91.36,-391.22C115.14,-462.7 241.97,-843.85 273.43,-938.4"/>
<polygon fill="#757575" stroke="#757575" points="270.16,-939.63 276.64,-948.02 276.8,-937.42 270.16,-939.63"/>
</g>
<!-- client/ui/HeaderCell.tsx&#45;&gt;client/lib/utils.tsx -->
<g id="edge49" class="edge">
<title>client/ui/HeaderCell.tsx&#45;&gt;client/lib/utils.tsx</title>
<path fill="none" stroke="#757575" d="M1004.02,-729.62C1137.51,-718.46 1419.81,-707.33 1641,-783.63 1686.65,-799.38 1731.23,-835.03 1755.86,-857.04"/>
<polygon fill="#757575" stroke="#757575" points="1753.67,-859.78 1763.42,-863.93 1758.39,-854.61 1753.67,-859.78"/>
</g>
<!-- client/ui/HeaderCell.module.css -->
<g id="node32" class="node">
<title>client/ui/HeaderCell.module.css</title>
<path fill="none" stroke="#cfffac" d="M1350.33,-709.13C1350.33,-709.13 1159.67,-709.13 1159.67,-709.13 1155.83,-709.13 1152,-705.3 1152,-701.46 1152,-701.46 1152,-693.8 1152,-693.8 1152,-689.96 1155.83,-686.13 1159.67,-686.13 1159.67,-686.13 1350.33,-686.13 1350.33,-686.13 1354.17,-686.13 1358,-689.96 1358,-693.8 1358,-693.8 1358,-701.46 1358,-701.46 1358,-705.3 1354.17,-709.13 1350.33,-709.13"/>
<text text-anchor="middle" x="1255" y="-693.93" font-family="Arial" font-size="14.00" fill="#cfffac">client/ui/HeaderCell.module.css</text>
</g>
<!-- client/ui/HeaderCell.tsx&#45;&gt;client/ui/HeaderCell.module.css -->
<g id="edge50" class="edge">
<title>client/ui/HeaderCell.tsx&#45;&gt;client/ui/HeaderCell.module.css</title>
<path fill="none" stroke="#757575" d="M1004.05,-728.25C1047.51,-722.93 1102.53,-716.19 1149.87,-710.39"/>
<polygon fill="#757575" stroke="#757575" points="1150.35,-713.85 1159.85,-709.16 1149.5,-706.91 1150.35,-713.85"/>
</g>
<!-- client/ui/Popup.tsx -->
<g id="node33" class="node">
<title>client/ui/Popup.tsx</title>
<path fill="none" stroke="#c6c5fe" d="M1590.33,-887.13C1590.33,-887.13 1479.67,-887.13 1479.67,-887.13 1475.83,-887.13 1472,-883.3 1472,-879.46 1472,-879.46 1472,-871.8 1472,-871.8 1472,-867.96 1475.83,-864.13 1479.67,-864.13 1479.67,-864.13 1590.33,-864.13 1590.33,-864.13 1594.17,-864.13 1598,-867.96 1598,-871.8 1598,-871.8 1598,-879.46 1598,-879.46 1598,-883.3 1594.17,-887.13 1590.33,-887.13"/>
<text text-anchor="middle" x="1535" y="-871.93" font-family="Arial" font-size="14.00" fill="#c6c5fe">client/ui/Popup.tsx</text>
</g>
<!-- client/ui/HeaderCell.tsx&#45;&gt;client/ui/Popup.tsx -->
<g id="edge51" class="edge">
<title>client/ui/HeaderCell.tsx&#45;&gt;client/ui/Popup.tsx</title>
<path fill="none" stroke="#757575" d="M992.28,-749.16C1082.58,-765.66 1251.16,-797.95 1393,-833.63 1425.21,-841.73 1461.08,-852.44 1488.57,-861.02"/>
<polygon fill="#757575" stroke="#757575" points="1487.72,-864.41 1498.3,-864.07 1489.81,-857.74 1487.72,-864.41"/>
</g>
<!-- client/ui/TableFilters.tsx -->
<g id="node34" class="node">
<title>client/ui/TableFilters.tsx</title>
<path fill="none" stroke="#c6c5fe" d="M1325.33,-668.13C1325.33,-668.13 1184.67,-668.13 1184.67,-668.13 1180.83,-668.13 1177,-664.3 1177,-660.46 1177,-660.46 1177,-652.8 1177,-652.8 1177,-648.96 1180.83,-645.13 1184.67,-645.13 1184.67,-645.13 1325.33,-645.13 1325.33,-645.13 1329.17,-645.13 1333,-648.96 1333,-652.8 1333,-652.8 1333,-660.46 1333,-660.46 1333,-664.3 1329.17,-668.13 1325.33,-668.13"/>
<text text-anchor="middle" x="1255" y="-652.93" font-family="Arial" font-size="14.00" fill="#c6c5fe">client/ui/TableFilters.tsx</text>
</g>
<!-- client/ui/HeaderCell.tsx&#45;&gt;client/ui/TableFilters.tsx -->
<g id="edge52" class="edge">
<title>client/ui/HeaderCell.tsx&#45;&gt;client/ui/TableFilters.tsx</title>
<path fill="none" stroke="#757575" d="M958.94,-726.03C996.19,-712.66 1060.38,-690.85 1117,-677.63 1132.91,-673.92 1150.02,-670.69 1166.57,-667.96"/>
<polygon fill="#757575" stroke="#757575" points="1167.47,-671.37 1176.79,-666.33 1166.37,-664.45 1167.47,-671.37"/>
</g>
<!-- client/ui/Pagination.tsx&#45;&gt;client/lib/utils.tsx -->
<g id="edge55" class="edge">
<title>client/ui/Pagination.tsx&#45;&gt;client/lib/utils.tsx</title>
<path fill="none" stroke="#757575" d="M1002.39,-900.58C1095.67,-906.98 1259.06,-910.72 1393,-874.63 1410.47,-869.92 1411.44,-859.98 1429,-855.63 1520.46,-832.98 1547.03,-848.68 1641,-855.63 1663.36,-857.28 1687.63,-860.46 1709.33,-863.81"/>
<polygon fill="#757575" stroke="#757575" points="1709,-867.3 1719.43,-865.4 1710.1,-860.38 1709,-867.3"/>
</g>
<!-- client/ui/Pagination.module.css -->
<g id="node36" class="node">
<title>client/ui/Pagination.module.css</title>
<path fill="none" stroke="#cfffac" d="M1348.83,-865.13C1348.83,-865.13 1161.17,-865.13 1161.17,-865.13 1157.33,-865.13 1153.5,-861.3 1153.5,-857.46 1153.5,-857.46 1153.5,-849.8 1153.5,-849.8 1153.5,-845.96 1157.33,-842.13 1161.17,-842.13 1161.17,-842.13 1348.83,-842.13 1348.83,-842.13 1352.67,-842.13 1356.5,-845.96 1356.5,-849.8 1356.5,-849.8 1356.5,-857.46 1356.5,-857.46 1356.5,-861.3 1352.67,-865.13 1348.83,-865.13"/>
<text text-anchor="middle" x="1255" y="-849.93" font-family="Arial" font-size="14.00" fill="#cfffac">client/ui/Pagination.module.css</text>
</g>
<!-- client/ui/Pagination.tsx&#45;&gt;client/ui/Pagination.module.css -->
<g id="edge56" class="edge">
<title>client/ui/Pagination.tsx&#45;&gt;client/ui/Pagination.module.css</title>
<path fill="none" stroke="#757575" d="M1002.41,-884.45C1046.08,-879.1 1101.84,-872.27 1149.75,-866.4"/>
<polygon fill="#757575" stroke="#757575" points="1150.35,-869.85 1159.85,-865.16 1149.5,-862.91 1150.35,-869.85"/>
</g>
<!-- client/ui/Select.tsx -->
<g id="node37" class="node">
<title>client/ui/Select.tsx</title>
<path fill="none" stroke="#c6c5fe" d="M1309.83,-945.13C1309.83,-945.13 1200.17,-945.13 1200.17,-945.13 1196.33,-945.13 1192.5,-941.3 1192.5,-937.46 1192.5,-937.46 1192.5,-929.8 1192.5,-929.8 1192.5,-925.96 1196.33,-922.13 1200.17,-922.13 1200.17,-922.13 1309.83,-922.13 1309.83,-922.13 1313.67,-922.13 1317.5,-925.96 1317.5,-929.8 1317.5,-929.8 1317.5,-937.46 1317.5,-937.46 1317.5,-941.3 1313.67,-945.13 1309.83,-945.13"/>
<text text-anchor="middle" x="1255" y="-929.93" font-family="Arial" font-size="14.00" fill="#c6c5fe">client/ui/Select.tsx</text>
</g>
<!-- client/ui/Pagination.tsx&#45;&gt;client/ui/Select.tsx -->
<g id="edge57" class="edge">
<title>client/ui/Pagination.tsx&#45;&gt;client/ui/Select.tsx</title>
<path fill="none" stroke="#757575" d="M1002.41,-902.81C1056.44,-909.43 1128.95,-918.31 1182.25,-924.84"/>
<polygon fill="#757575" stroke="#757575" points="1181.95,-928.33 1192.3,-926.07 1182.8,-921.38 1181.95,-928.33"/>
</g>
<!-- client/pages/users/UI/InfoCircle.module.css -->
<g id="node26" class="node">
<title>client/pages/users/UI/InfoCircle.module.css</title>
<path fill="none" stroke="#cfffac" d="M1385.33,-588.13C1385.33,-588.13 1124.67,-588.13 1124.67,-588.13 1120.83,-588.13 1117,-584.3 1117,-580.46 1117,-580.46 1117,-572.8 1117,-572.8 1117,-568.96 1120.83,-565.13 1124.67,-565.13 1124.67,-565.13 1385.33,-565.13 1385.33,-565.13 1389.17,-565.13 1393,-568.96 1393,-572.8 1393,-572.8 1393,-580.46 1393,-580.46 1393,-584.3 1389.17,-588.13 1385.33,-588.13"/>
<text text-anchor="middle" x="1255" y="-572.93" font-family="Arial" font-size="14.00" fill="#cfffac">client/pages/users/UI/InfoCircle.module.css</text>
</g>
<!-- client/pages/users/UI/InfoCircle.tsx&#45;&gt;client/pages/users/UI/InfoCircle.module.css -->
<g id="edge37" class="edge">
<title>client/pages/users/UI/InfoCircle.tsx&#45;&gt;client/pages/users/UI/InfoCircle.module.css</title>
<path fill="none" stroke="#757575" d="M1038.95,-576.63C1060.75,-576.63 1083.93,-576.63 1106.7,-576.63"/>
<polygon fill="#757575" stroke="#757575" points="1106.77,-580.13 1116.77,-576.63 1106.77,-573.13 1106.77,-580.13"/>
</g>
<!-- client/ui/Checkbox.module.css -->
<g id="node30" class="node">
<title>client/ui/Checkbox.module.css</title>
<path fill="none" stroke="#cfffac" d="M1868.33,-548.13C1868.33,-548.13 1684.67,-548.13 1684.67,-548.13 1680.83,-548.13 1677,-544.3 1677,-540.46 1677,-540.46 1677,-532.8 1677,-532.8 1677,-528.96 1680.83,-525.13 1684.67,-525.13 1684.67,-525.13 1868.33,-525.13 1868.33,-525.13 1872.17,-525.13 1876,-528.96 1876,-532.8 1876,-532.8 1876,-540.46 1876,-540.46 1876,-544.3 1872.17,-548.13 1868.33,-548.13"/>
<text text-anchor="middle" x="1776.5" y="-532.93" font-family="Arial" font-size="14.00" fill="#cfffac">client/ui/Checkbox.module.css</text>
</g>
<!-- client/ui/Checkbox.tsx&#45;&gt;client/ui/Checkbox.module.css -->
<g id="edge47" class="edge">
<title>client/ui/Checkbox.tsx&#45;&gt;client/ui/Checkbox.module.css</title>
<path fill="none" stroke="#757575" d="M1608.51,-536.63C1626.8,-536.63 1646.84,-536.63 1666.49,-536.63"/>
<polygon fill="#757575" stroke="#757575" points="1666.72,-540.13 1676.72,-536.63 1666.72,-533.13 1666.72,-540.13"/>
</g>
<!-- client/ui/Collapse.module.css -->
<g id="node31" class="node">
<title>client/ui/Collapse.module.css</title>
<path fill="none" stroke="#cfffac" d="M1342.83,-547.13C1342.83,-547.13 1167.17,-547.13 1167.17,-547.13 1163.33,-547.13 1159.5,-543.3 1159.5,-539.46 1159.5,-539.46 1159.5,-531.8 1159.5,-531.8 1159.5,-527.96 1163.33,-524.13 1167.17,-524.13 1167.17,-524.13 1342.83,-524.13 1342.83,-524.13 1346.67,-524.13 1350.5,-527.96 1350.5,-531.8 1350.5,-531.8 1350.5,-539.46 1350.5,-539.46 1350.5,-543.3 1346.67,-547.13 1342.83,-547.13"/>
<text text-anchor="middle" x="1255" y="-531.93" font-family="Arial" font-size="14.00" fill="#cfffac">client/ui/Collapse.module.css</text>
</g>
<!-- client/ui/Collapse.tsx&#45;&gt;client/ui/Collapse.module.css -->
<g id="edge48" class="edge">
<title>client/ui/Collapse.tsx&#45;&gt;client/ui/Collapse.module.css</title>
<path fill="none" stroke="#757575" d="M996.74,-535.63C1041.05,-535.63 1099.37,-535.63 1149.28,-535.63"/>
<polygon fill="#757575" stroke="#757575" points="1149.47,-539.13 1159.47,-535.63 1149.47,-532.13 1149.47,-539.13"/>
</g>
<!-- client/ui/Popup.tsx&#45;&gt;client/lib/utils.tsx -->
<g id="edge58" class="edge">
<title>client/ui/Popup.tsx&#45;&gt;client/lib/utils.tsx</title>
<path fill="none" stroke="#757575" d="M1598.3,-875.63C1632.36,-875.63 1674.55,-875.63 1709.21,-875.63"/>
<polygon fill="#757575" stroke="#757575" points="1709.24,-879.13 1719.24,-875.63 1709.24,-872.13 1709.24,-879.13"/>
</g>
<!-- client/ui/TableFilters.tsx&#45;&gt;client/lib/utils.tsx -->
<g id="edge62" class="edge">
<title>client/ui/TableFilters.tsx&#45;&gt;client/lib/utils.tsx</title>
<path fill="none" stroke="#757575" d="M1333.03,-655.16C1414.59,-656.86 1544.6,-669.09 1641,-723.63 1697.94,-755.85 1743.04,-821.29 1763.52,-854.81"/>
<polygon fill="#757575" stroke="#757575" points="1760.72,-856.95 1768.85,-863.75 1766.73,-853.36 1760.72,-856.95"/>
</g>
<!-- client/ui/TableFilters.tsx&#45;&gt;client/ui/Checkbox.tsx -->
<g id="edge63" class="edge">
<title>client/ui/TableFilters.tsx&#45;&gt;client/ui/Checkbox.tsx</title>
<path fill="none" stroke="#757575" d="M1282.78,-645.11C1310.4,-633.23 1354.72,-614.15 1393,-597.63 1428.6,-582.27 1469.23,-564.68 1497.7,-552.35"/>
<polygon fill="#757575" stroke="#757575" points="1499.45,-555.41 1507.24,-548.22 1496.67,-548.99 1499.45,-555.41"/>
</g>
<!-- client/ui/Select.tsx&#45;&gt;client/lib/utils.tsx -->
<g id="edge59" class="edge">
<title>client/ui/Select.tsx&#45;&gt;client/lib/utils.tsx</title>
<path fill="none" stroke="#757575" d="M1317.55,-942.68C1394.29,-952.05 1529.03,-962.2 1641,-937.63 1680.54,-928.96 1722.32,-907.5 1748.62,-892.27"/>
<polygon fill="#757575" stroke="#757575" points="1750.42,-895.27 1757.25,-887.17 1746.86,-889.24 1750.42,-895.27"/>
</g>
<!-- client/ui/Select.tsx&#45;&gt;client/ui/Popup.tsx -->
<g id="edge60" class="edge">
<title>client/ui/Select.tsx&#45;&gt;client/ui/Popup.tsx</title>
<path fill="none" stroke="#757575" d="M1317.69,-923.4C1341.36,-919.09 1368.56,-913.67 1393,-907.63 1409.24,-903.62 1412.78,-900.72 1429,-896.63 1439.56,-893.97 1450.78,-891.43 1461.81,-889.09"/>
<polygon fill="#757575" stroke="#757575" points="1462.79,-892.46 1471.86,-887 1461.36,-885.6 1462.79,-892.46"/>
</g>
<!-- client/ui/Select.module.css -->
<g id="node38" class="node">
<title>client/ui/Select.module.css</title>
<path fill="none" stroke="#cfffac" d="M1615.33,-928.13C1615.33,-928.13 1454.67,-928.13 1454.67,-928.13 1450.83,-928.13 1447,-924.3 1447,-920.46 1447,-920.46 1447,-912.8 1447,-912.8 1447,-908.96 1450.83,-905.13 1454.67,-905.13 1454.67,-905.13 1615.33,-905.13 1615.33,-905.13 1619.17,-905.13 1623,-908.96 1623,-912.8 1623,-912.8 1623,-920.46 1623,-920.46 1623,-924.3 1619.17,-928.13 1615.33,-928.13"/>
<text text-anchor="middle" x="1535" y="-912.93" font-family="Arial" font-size="14.00" fill="#cfffac">client/ui/Select.module.css</text>
</g>
<!-- client/ui/Select.tsx&#45;&gt;client/ui/Select.module.css -->
<g id="edge61" class="edge">
<title>client/ui/Select.tsx&#45;&gt;client/ui/Select.module.css</title>
<path fill="none" stroke="#757575" d="M1317.7,-929.86C1352.65,-927.72 1397.16,-925 1436.7,-922.58"/>
<polygon fill="#757575" stroke="#757575" points="1437.14,-926.06 1446.91,-921.96 1436.71,-919.07 1437.14,-926.06"/>
</g>
<!-- knexfile.js -->
<g id="node39" class="node">
<title>knexfile.js</title>
<path fill="none" stroke="#cfffac" d="M2009.33,-253.13C2009.33,-253.13 1948.67,-253.13 1948.67,-253.13 1944.83,-253.13 1941,-249.3 1941,-245.46 1941,-245.46 1941,-237.8 1941,-237.8 1941,-233.96 1944.83,-230.13 1948.67,-230.13 1948.67,-230.13 2009.33,-230.13 2009.33,-230.13 2013.17,-230.13 2017,-233.96 2017,-237.8 2017,-237.8 2017,-245.46 2017,-245.46 2017,-249.3 2013.17,-253.13 2009.33,-253.13"/>
<text text-anchor="middle" x="1979" y="-237.93" font-family="Arial" font-size="14.00" fill="#cfffac">knexfile.js</text>
</g>
<!-- lib/devUtils.js -->
<g id="node40" class="node">
<title>lib/devUtils.js</title>
<path fill="none" stroke="#cfffac" d="M2018.83,-212.13C2018.83,-212.13 1939.17,-212.13 1939.17,-212.13 1935.33,-212.13 1931.5,-208.3 1931.5,-204.46 1931.5,-204.46 1931.5,-196.8 1931.5,-196.8 1931.5,-192.96 1935.33,-189.13 1939.17,-189.13 1939.17,-189.13 2018.83,-189.13 2018.83,-189.13 2022.67,-189.13 2026.5,-192.96 2026.5,-196.8 2026.5,-196.8 2026.5,-204.46 2026.5,-204.46 2026.5,-208.3 2022.67,-212.13 2018.83,-212.13"/>
<text text-anchor="middle" x="1979" y="-196.93" font-family="Arial" font-size="14.00" fill="#cfffac">lib/devUtils.js</text>
</g>
<!-- lib/graphql/index.ts -->
<g id="node41" class="node">
<title>lib/graphql/index.ts</title>
<path fill="none" stroke="#c6c5fe" d="M983.33,-229.13C983.33,-229.13 869.67,-229.13 869.67,-229.13 865.83,-229.13 862,-225.3 862,-221.46 862,-221.46 862,-213.8 862,-213.8 862,-209.96 865.83,-206.13 869.67,-206.13 869.67,-206.13 983.33,-206.13 983.33,-206.13 987.17,-206.13 991,-209.96 991,-213.8 991,-213.8 991,-221.46 991,-221.46 991,-225.3 987.17,-229.13 983.33,-229.13"/>
<text text-anchor="middle" x="926.5" y="-213.93" font-family="Arial" font-size="14.00" fill="#c6c5fe">lib/graphql/index.ts</text>
</g>
<!-- lib/utils.ts -->
<g id="node42" class="node">
<title>lib/utils.ts</title>
<path fill="none" stroke="#c6c5fe" d="M1804.83,-232.13C1804.83,-232.13 1748.17,-232.13 1748.17,-232.13 1744.33,-232.13 1740.5,-228.3 1740.5,-224.46 1740.5,-224.46 1740.5,-216.8 1740.5,-216.8 1740.5,-212.96 1744.33,-209.13 1748.17,-209.13 1748.17,-209.13 1804.83,-209.13 1804.83,-209.13 1808.67,-209.13 1812.5,-212.96 1812.5,-216.8 1812.5,-216.8 1812.5,-224.46 1812.5,-224.46 1812.5,-228.3 1808.67,-232.13 1804.83,-232.13"/>
<text text-anchor="middle" x="1776.5" y="-216.93" font-family="Arial" font-size="14.00" fill="#c6c5fe">lib/utils.ts</text>
</g>
<!-- lib/graphql/index.ts&#45;&gt;lib/utils.ts -->
<g id="edge64" class="edge">
<title>lib/graphql/index.ts&#45;&gt;lib/utils.ts</title>
<path fill="none" stroke="#757575" d="M991.24,-217.86C1155.26,-218.44 1588.97,-219.97 1730.29,-220.47"/>
<polygon fill="#757575" stroke="#757575" points="1730.32,-223.97 1740.34,-220.51 1730.35,-216.97 1730.32,-223.97"/>
</g>
<!-- models/Todo.ts -->
<g id="node43" class="node">
<title>models/Todo.ts</title>
<path fill="none" stroke="#ff6c60" d="M1301.33,-310.13C1301.33,-310.13 1208.67,-310.13 1208.67,-310.13 1204.83,-310.13 1201,-306.3 1201,-302.46 1201,-302.46 1201,-294.8 1201,-294.8 1201,-290.96 1204.83,-287.13 1208.67,-287.13 1208.67,-287.13 1301.33,-287.13 1301.33,-287.13 1305.17,-287.13 1309,-290.96 1309,-294.8 1309,-294.8 1309,-302.46 1309,-302.46 1309,-306.3 1305.17,-310.13 1301.33,-310.13"/>
<text text-anchor="middle" x="1255" y="-294.93" font-family="Arial" font-size="14.00" fill="#ff6c60">models/Todo.ts</text>
</g>
<!-- lib/graphql/index.ts&#45;&gt;models/Todo.ts -->
<g id="edge65" class="edge">
<title>lib/graphql/index.ts&#45;&gt;models/Todo.ts</title>
<path fill="none" stroke="#757575" d="M991.15,-222.9C1018.98,-225.98 1051.85,-230.67 1081,-237.63 1129.21,-249.14 1182.74,-269.2 1217.31,-283.16"/>
<polygon fill="#757575" stroke="#757575" points="1216.39,-286.56 1226.97,-287.1 1219.03,-280.08 1216.39,-286.56"/>
</g>
<!-- lib/utils.ts&#45;&gt;lib/sharedUtils.ts -->
<g id="edge69" class="edge">
<title>lib/utils.ts&#45;&gt;lib/sharedUtils.ts</title>
<path fill="none" stroke="#757575" d="M1781.87,-232.35C1807.35,-300.59 1936.65,-646.88 1970.09,-736.45"/>
<polygon fill="#757575" stroke="#757575" points="1966.91,-737.92 1973.68,-746.07 1973.46,-735.48 1966.91,-737.92"/>
</g>
<!-- lib/utils.ts&#45;&gt;knexfile.js -->
<g id="edge67" class="edge">
<title>lib/utils.ts&#45;&gt;knexfile.js</title>
<path fill="none" stroke="#757575" d="M1812.88,-224.34C1845.63,-227.77 1894.55,-232.89 1930.65,-236.67"/>
<polygon fill="#757575" stroke="#757575" points="1930.62,-240.19 1940.93,-237.75 1931.35,-233.23 1930.62,-240.19"/>
</g>
<!-- lib/utils.ts&#45;&gt;lib/devUtils.js -->
<g id="edge68" class="edge">
<title>lib/utils.ts&#45;&gt;lib/devUtils.js</title>
<path fill="none" stroke="#757575" d="M1812.88,-217.1C1842.86,-214.11 1886.41,-209.77 1921.25,-206.29"/>
<polygon fill="#757575" stroke="#757575" points="1921.69,-209.76 1931.3,-205.29 1921,-202.8 1921.69,-209.76"/>
</g>
<!-- models/Todo.ts&#45;&gt;lib/utils.ts -->
<g id="edge73" class="edge">
<title>models/Todo.ts&#45;&gt;lib/utils.ts</title>
<path fill="none" stroke="#757575" d="M1309.02,-300.05C1383.92,-300.93 1524.58,-298.44 1641,-272.63 1676.92,-264.67 1715.92,-248.71 1742.63,-236.56"/>
<polygon fill="#757575" stroke="#757575" points="1744.28,-239.66 1751.88,-232.28 1741.34,-233.3 1744.28,-239.66"/>
</g>
<!-- models/User.ts -->
<g id="node48" class="node">
<title>models/User.ts</title>
<path fill="none" stroke="#ff6c60" d="M1580.83,-348.13C1580.83,-348.13 1489.17,-348.13 1489.17,-348.13 1485.33,-348.13 1481.5,-344.3 1481.5,-340.46 1481.5,-340.46 1481.5,-332.8 1481.5,-332.8 1481.5,-328.96 1485.33,-325.13 1489.17,-325.13 1489.17,-325.13 1580.83,-325.13 1580.83,-325.13 1584.67,-325.13 1588.5,-328.96 1588.5,-332.8 1588.5,-332.8 1588.5,-340.46 1588.5,-340.46 1588.5,-344.3 1584.67,-348.13 1580.83,-348.13"/>
<text text-anchor="middle" x="1535" y="-332.93" font-family="Arial" font-size="14.00" fill="#ff6c60">models/User.ts</text>
</g>
<!-- models/Todo.ts&#45;&gt;models/User.ts -->
<g id="edge74" class="edge">
<title>models/Todo.ts&#45;&gt;models/User.ts</title>
<path fill="none" stroke="#757575" d="M1309.27,-300.47C1357.4,-305.35 1428.03,-314.96 1477.22,-323.3"/>
<polygon fill="#757575" stroke="#757575" points="1476.92,-326.8 1487.38,-325.06 1478.12,-319.91 1476.92,-326.8"/>
</g>
<!-- lib/ssrRoutes.ts -->
<g id="node44" class="node">
<title>lib/ssrRoutes.ts</title>
<path fill="none" stroke="#c6c5fe" d="M1581.83,-154.13C1581.83,-154.13 1488.17,-154.13 1488.17,-154.13 1484.33,-154.13 1480.5,-150.3 1480.5,-146.46 1480.5,-146.46 1480.5,-138.8 1480.5,-138.8 1480.5,-134.96 1484.33,-131.13 1488.17,-131.13 1488.17,-131.13 1581.83,-131.13 1581.83,-131.13 1585.67,-131.13 1589.5,-134.96 1589.5,-138.8 1589.5,-138.8 1589.5,-146.46 1589.5,-146.46 1589.5,-150.3 1585.67,-154.13 1581.83,-154.13"/>
<text text-anchor="middle" x="1535" y="-138.93" font-family="Arial" font-size="14.00" fill="#c6c5fe">lib/ssrRoutes.ts</text>
</g>
<!-- lib/ssrRoutes.ts&#45;&gt;lib/utils.ts -->
<g id="edge66" class="edge">
<title>lib/ssrRoutes.ts&#45;&gt;lib/utils.ts</title>
<path fill="none" stroke="#757575" d="M1588.17,-154.17C1605.14,-158.29 1623.99,-163.26 1641,-168.63 1674.81,-179.3 1712.37,-194.08 1739.19,-205.15"/>
<polygon fill="#757575" stroke="#757575" points="1737.97,-208.44 1748.55,-209.05 1740.66,-201.98 1737.97,-208.44"/>
</g>
<!-- main/index.ts -->
<g id="node45" class="node">
<title>main/index.ts</title>
<path fill="none" stroke="#c6c5fe" d="M322.33,-188.13C322.33,-188.13 240.67,-188.13 240.67,-188.13 236.83,-188.13 233,-184.3 233,-180.46 233,-180.46 233,-172.8 233,-172.8 233,-168.96 236.83,-165.13 240.67,-165.13 240.67,-165.13 322.33,-165.13 322.33,-165.13 326.17,-165.13 330,-168.96 330,-172.8 330,-172.8 330,-180.46 330,-180.46 330,-184.3 326.17,-188.13 322.33,-188.13"/>
<text text-anchor="middle" x="281.5" y="-172.93" font-family="Arial" font-size="14.00" fill="#c6c5fe">main/index.ts</text>
</g>
<!-- main/index.ts&#45;&gt;lib/utils.ts -->
<g id="edge70" class="edge">
<title>main/index.ts&#45;&gt;lib/utils.ts</title>
<path fill="none" stroke="#757575" d="M310.13,-165.06C398.23,-129.24 681,-22.63 925.5,-22.63 925.5,-22.63 925.5,-22.63 1256,-22.63 1427.32,-22.63 1489.67,38.67 1641,-41.63 1707.19,-76.75 1749.96,-160.48 1767.05,-199.69"/>
<polygon fill="#757575" stroke="#757575" points="1763.9,-201.23 1771.02,-209.08 1770.35,-198.5 1763.9,-201.23"/>
</g>
<!-- models/index.ts -->
<g id="node46" class="node">
<title>models/index.ts</title>
<path fill="none" stroke="#c6c5fe" d="M974.33,-311.13C974.33,-311.13 878.67,-311.13 878.67,-311.13 874.83,-311.13 871,-307.3 871,-303.46 871,-303.46 871,-295.8 871,-295.8 871,-291.96 874.83,-288.13 878.67,-288.13 878.67,-288.13 974.33,-288.13 974.33,-288.13 978.17,-288.13 982,-291.96 982,-295.8 982,-295.8 982,-303.46 982,-303.46 982,-307.3 978.17,-311.13 974.33,-311.13"/>
<text text-anchor="middle" x="926.5" y="-295.93" font-family="Arial" font-size="14.00" fill="#c6c5fe">models/index.ts</text>
</g>
<!-- main/index.ts&#45;&gt;models/index.ts -->
<g id="edge71" class="edge">
<title>main/index.ts&#45;&gt;models/index.ts</title>
<path fill="none" stroke="#757575" d="M330,-186.23C348.66,-189.8 370.29,-193.69 390,-196.63 466.53,-208.05 668.05,-198.63 736,-235.63 758.19,-247.71 749.92,-267.35 772,-279.63 798.67,-294.46 831.89,-300.06 860.59,-301.72"/>
<polygon fill="#757575" stroke="#757575" points="860.8,-305.23 870.94,-302.15 861.1,-298.23 860.8,-305.23"/>
</g>
<!-- routes/index.ts -->
<g id="node47" class="node">
<title>routes/index.ts</title>
<path fill="none" stroke="#c6c5fe" d="M607.33,-188.13C607.33,-188.13 518.67,-188.13 518.67,-188.13 514.83,-188.13 511,-184.3 511,-180.46 511,-180.46 511,-172.8 511,-172.8 511,-168.96 514.83,-165.13 518.67,-165.13 518.67,-165.13 607.33,-165.13 607.33,-165.13 611.17,-165.13 615,-168.96 615,-172.8 615,-172.8 615,-180.46 615,-180.46 615,-184.3 611.17,-188.13 607.33,-188.13"/>
<text text-anchor="middle" x="563" y="-172.93" font-family="Arial" font-size="14.00" fill="#c6c5fe">routes/index.ts</text>
</g>
<!-- main/index.ts&#45;&gt;routes/index.ts -->
<g id="edge72" class="edge">
<title>main/index.ts&#45;&gt;routes/index.ts</title>
<path fill="none" stroke="#757575" d="M330.23,-176.63C377.2,-176.63 449.13,-176.63 500.39,-176.63"/>
<polygon fill="#757575" stroke="#757575" points="500.68,-180.13 510.68,-176.63 500.68,-173.13 500.68,-180.13"/>
</g>
<!-- models/index.ts&#45;&gt;models/Todo.ts -->
<g id="edge77" class="edge">
<title>models/index.ts&#45;&gt;models/Todo.ts</title>
<path fill="none" stroke="#757575" d="M982.15,-299.46C1039.64,-299.29 1130.01,-299.01 1190.6,-298.82"/>
<polygon fill="#757575" stroke="#757575" points="1190.81,-302.32 1200.8,-298.79 1190.79,-295.32 1190.81,-302.32"/>
</g>
<!-- models/index.ts&#45;&gt;models/User.ts -->
<g id="edge78" class="edge">
<title>models/index.ts&#45;&gt;models/User.ts</title>
<path fill="none" stroke="#757575" d="M982.15,-306.34C1019.96,-310.75 1071.47,-316.3 1117,-319.63 1242.43,-328.8 1389.48,-333.35 1471.16,-335.33"/>
<polygon fill="#757575" stroke="#757575" points="1471.2,-338.83 1481.28,-335.57 1471.36,-331.83 1471.2,-338.83"/>
</g>
<!-- routes/index.ts&#45;&gt;lib/graphql/index.ts -->
<g id="edge79" class="edge">
<title>routes/index.ts&#45;&gt;lib/graphql/index.ts</title>
<path fill="none" stroke="#757575" d="M615.03,-182.42C676.8,-189.42 781.29,-201.27 851.81,-209.27"/>
<polygon fill="#757575" stroke="#757575" points="851.62,-212.77 861.95,-210.42 852.41,-205.82 851.62,-212.77"/>
</g>
<!-- routes/index.ts&#45;&gt;lib/utils.ts -->
<g id="edge80" class="edge">
<title>routes/index.ts&#45;&gt;lib/utils.ts</title>
<path fill="none" stroke="#757575" d="M615.01,-169.19C801.7,-142.71 1447,-57.93 1641,-121.63 1689.01,-137.4 1734,-177.59 1757.82,-201.63"/>
<polygon fill="#757575" stroke="#757575" points="1755.59,-204.36 1765.06,-209.11 1760.62,-199.49 1755.59,-204.36"/>
</g>
<!-- routes/session.ts -->
<g id="node49" class="node">
<title>routes/session.ts</title>
<path fill="none" stroke="#c6c5fe" d="M1586.33,-74.13C1586.33,-74.13 1483.67,-74.13 1483.67,-74.13 1479.83,-74.13 1476,-70.3 1476,-66.46 1476,-66.46 1476,-58.8 1476,-58.8 1476,-54.96 1479.83,-51.13 1483.67,-51.13 1483.67,-51.13 1586.33,-51.13 1586.33,-51.13 1590.17,-51.13 1594,-54.96 1594,-58.8 1594,-58.8 1594,-66.46 1594,-66.46 1594,-70.3 1590.17,-74.13 1586.33,-74.13"/>
<text text-anchor="middle" x="1535" y="-58.93" font-family="Arial" font-size="14.00" fill="#c6c5fe">routes/session.ts</text>
</g>
<!-- routes/index.ts&#45;&gt;routes/session.ts -->
<g id="edge81" class="edge">
<title>routes/index.ts&#45;&gt;routes/session.ts</title>
<path fill="none" stroke="#757575" d="M584.41,-164.98C620.75,-144.95 699.63,-104.6 772,-88.63 1022.69,-33.31 1330.9,-46.89 1465.58,-56.72"/>
<polygon fill="#757575" stroke="#757575" points="1465.52,-60.23 1475.75,-57.48 1466.04,-53.25 1465.52,-60.23"/>
</g>
<!-- routes/ssr.ts -->
<g id="node50" class="node">
<title>routes/ssr.ts</title>
<path fill="none" stroke="#c6c5fe" d="M1291.83,-188.13C1291.83,-188.13 1218.17,-188.13 1218.17,-188.13 1214.33,-188.13 1210.5,-184.3 1210.5,-180.46 1210.5,-180.46 1210.5,-172.8 1210.5,-172.8 1210.5,-168.96 1214.33,-165.13 1218.17,-165.13 1218.17,-165.13 1291.83,-165.13 1291.83,-165.13 1295.67,-165.13 1299.5,-168.96 1299.5,-172.8 1299.5,-172.8 1299.5,-180.46 1299.5,-180.46 1299.5,-184.3 1295.67,-188.13 1291.83,-188.13"/>
<text text-anchor="middle" x="1255" y="-172.93" font-family="Arial" font-size="14.00" fill="#c6c5fe">routes/ssr.ts</text>
</g>
<!-- routes/index.ts&#45;&gt;routes/ssr.ts -->
<g id="edge82" class="edge">
<title>routes/index.ts&#45;&gt;routes/ssr.ts</title>
<path fill="none" stroke="#757575" d="M615.02,-176.63C741.9,-176.63 1070.8,-176.63 1200.39,-176.63"/>
<polygon fill="#757575" stroke="#757575" points="1200.47,-180.13 1210.47,-176.63 1200.47,-173.13 1200.47,-180.13"/>
</g>
<!-- routes/todos.ts -->
<g id="node51" class="node">
<title>routes/todos.ts</title>
<path fill="none" stroke="#c6c5fe" d="M971.33,-270.13C971.33,-270.13 881.67,-270.13 881.67,-270.13 877.83,-270.13 874,-266.3 874,-262.46 874,-262.46 874,-254.8 874,-254.8 874,-250.96 877.83,-247.13 881.67,-247.13 881.67,-247.13 971.33,-247.13 971.33,-247.13 975.17,-247.13 979,-250.96 979,-254.8 979,-254.8 979,-262.46 979,-262.46 979,-266.3 975.17,-270.13 971.33,-270.13"/>
<text text-anchor="middle" x="926.5" y="-254.93" font-family="Arial" font-size="14.00" fill="#c6c5fe">routes/todos.ts</text>
</g>
<!-- routes/index.ts&#45;&gt;routes/todos.ts -->
<g id="edge83" class="edge">
<title>routes/index.ts&#45;&gt;routes/todos.ts</title>
<path fill="none" stroke="#757575" d="M615.38,-176.26C650.92,-177.91 698.4,-183.97 736,-202.63 755.99,-212.55 751.94,-227.85 772,-237.63 800.22,-251.39 834.63,-256.97 863.7,-258.96"/>
<polygon fill="#757575" stroke="#757575" points="863.57,-262.46 873.75,-259.53 863.96,-255.47 863.57,-262.46"/>
</g>
<!-- routes/users.ts -->
<g id="node52" class="node">
<title>routes/users.ts</title>
<path fill="none" stroke="#c6c5fe" d="M1299.83,-390.13C1299.83,-390.13 1210.17,-390.13 1210.17,-390.13 1206.33,-390.13 1202.5,-386.3 1202.5,-382.46 1202.5,-382.46 1202.5,-374.8 1202.5,-374.8 1202.5,-370.96 1206.33,-367.13 1210.17,-367.13 1210.17,-367.13 1299.83,-367.13 1299.83,-367.13 1303.67,-367.13 1307.5,-370.96 1307.5,-374.8 1307.5,-374.8 1307.5,-382.46 1307.5,-382.46 1307.5,-386.3 1303.67,-390.13 1299.83,-390.13"/>
<text text-anchor="middle" x="1255" y="-374.93" font-family="Arial" font-size="14.00" fill="#c6c5fe">routes/users.ts</text>
</g>
<!-- routes/index.ts&#45;&gt;routes/users.ts -->
<g id="edge84" class="edge">
<title>routes/index.ts&#45;&gt;routes/users.ts</title>
<path fill="none" stroke="#757575" d="M615.26,-182.9C652.83,-189.94 702.86,-204.74 736,-235.63 766.01,-263.6 739.21,-295.97 772,-320.63 896.57,-414.35 1092.74,-402.92 1192.02,-389.36"/>
<polygon fill="#757575" stroke="#757575" points="1192.78,-392.79 1202.19,-387.92 1191.8,-385.86 1192.78,-392.79"/>
</g>
<!-- models/User.ts&#45;&gt;lib/utils.ts -->
<g id="edge75" class="edge">
<title>models/User.ts&#45;&gt;lib/utils.ts</title>
<path fill="none" stroke="#757575" d="M1588.72,-327.34C1605.82,-323.34 1624.6,-317.88 1641,-310.63 1683.94,-291.65 1728.13,-259.1 1753.64,-238.78"/>
<polygon fill="#757575" stroke="#757575" points="1755.97,-241.4 1761.55,-232.4 1751.57,-235.96 1755.97,-241.4"/>
</g>
<!-- models/User.ts&#45;&gt;models/Todo.ts -->
<g id="edge76" class="edge">
<title>models/User.ts&#45;&gt;models/Todo.ts</title>
<path fill="none" stroke="#757575" d="M1481.14,-334.84C1432.88,-329.96 1361.75,-320.27 1312.4,-311.89"/>
<polygon fill="#757575" stroke="#757575" points="1312.98,-308.44 1302.53,-310.18 1311.79,-315.34 1312.98,-308.44"/>
</g>
<!-- routes/session.ts&#45;&gt;lib/utils.ts -->
<g id="edge85" class="edge">
<title>routes/session.ts&#45;&gt;lib/utils.ts</title>
<path fill="none" stroke="#757575" d="M1594.21,-71.25C1610.04,-75.11 1626.74,-80.66 1641,-88.63 1692.77,-117.55 1738.66,-171.69 1761.04,-200.84"/>
<polygon fill="#757575" stroke="#757575" points="1758.39,-203.15 1767.21,-209.03 1763.98,-198.93 1758.39,-203.15"/>
</g>
<!-- routes/ssr.ts&#45;&gt;lib/utils.ts -->
<g id="edge87" class="edge">
<title>routes/ssr.ts&#45;&gt;lib/utils.ts</title>
<path fill="none" stroke="#757575" d="M1299.62,-179.66C1371.03,-184.7 1517.31,-195.38 1641,-206.63 1670.83,-209.34 1704.32,-212.83 1730.43,-215.64"/>
<polygon fill="#757575" stroke="#757575" points="1730.09,-219.13 1740.41,-216.73 1730.84,-212.17 1730.09,-219.13"/>
</g>
<!-- routes/ssr.ts&#45;&gt;lib/ssrRoutes.ts -->
<g id="edge86" class="edge">
<title>routes/ssr.ts&#45;&gt;lib/ssrRoutes.ts</title>
<path fill="none" stroke="#757575" d="M1299.74,-171.28C1345.47,-165.69 1417.7,-156.85 1469.88,-150.47"/>
<polygon fill="#757575" stroke="#757575" points="1470.53,-153.92 1480.03,-149.23 1469.68,-146.97 1470.53,-153.92"/>
</g>
<!-- routes/todos.ts&#45;&gt;lib/utils.ts -->
<g id="edge88" class="edge">
<title>routes/todos.ts&#45;&gt;lib/utils.ts</title>
<path fill="none" stroke="#757575" d="M979.05,-258.13C1096.58,-256.73 1393.39,-251.66 1641,-234.63 1670.88,-232.58 1704.38,-229.09 1730.47,-226.11"/>
<polygon fill="#757575" stroke="#757575" points="1730.91,-229.59 1740.44,-224.96 1730.11,-222.63 1730.91,-229.59"/>
</g>
<!-- routes/todos.ts&#45;&gt;models/Todo.ts -->
<g id="edge89" class="edge">
<title>routes/todos.ts&#45;&gt;models/Todo.ts</title>
<path fill="none" stroke="#757575" d="M979.23,-264.97C1036.64,-272 1129.27,-283.35 1190.89,-290.9"/>
<polygon fill="#757575" stroke="#757575" points="1190.53,-294.38 1200.88,-292.12 1191.38,-287.43 1190.53,-294.38"/>
</g>
<!-- routes/users.ts&#45;&gt;lib/utils.ts -->
<g id="edge90" class="edge">
<title>routes/users.ts&#45;&gt;lib/utils.ts</title>
<path fill="none" stroke="#757575" d="M1307.66,-387.17C1384.26,-397.4 1530.75,-407.47 1641,-357.63 1697.12,-332.26 1742.29,-272.15 1763.09,-240.66"/>
<polygon fill="#757575" stroke="#757575" points="1766.04,-242.53 1768.52,-232.23 1760.16,-238.74 1766.04,-242.53"/>
</g>
<!-- routes/users.ts&#45;&gt;models/User.ts -->
<g id="edge91" class="edge">
<title>routes/users.ts&#45;&gt;models/User.ts</title>
<path fill="none" stroke="#757575" d="M1307.64,-370.83C1353.91,-363.84 1421.91,-353.56 1471.29,-346.1"/>
<polygon fill="#757575" stroke="#757575" points="1471.86,-349.56 1481.22,-344.6 1470.81,-342.64 1471.86,-349.56"/>
</g>
</g>
</svg>
